M48
;Layer_Color=9474304
;FILE_FORMAT=2:5
INCH,LZ
;TYPE=PLATED
T1F00S00C0.02756
T2F00S00C0.04331
T3F00S00C0.05118
T4F00S00C0.05512
T5F00S00C0.05906
T6F00S00C0.06496
T7F00S00C0.11417
%
T01
X-0129732Y-01806
X-0126532Y-01751
X-0121832Y-01601
X-0115532Y-016
X-0125331Y-01541
X-0125333Y-01485
X-0099331Y-01484
X-0091931Y-01477
X-0084732Y-01478
X-0072079Y-0164844
X-0057531Y-0176
X-0040731Y-01746
X-0041131Y-01805
X-0055543Y-0149883
X-0051832Y-01128
X-0045832
X-0050032Y-0096
X-0064732Y-00969
X-0036031Y-00891
X-0083732Y-00766
X-0103431Y-01038
X-0115465Y-01039
X-0109332Y-01177
X-0133031Y-00913
X-0093339Y-0191616
X-0023531Y-01541
X-0021231Y-00537
X-0011032Y-00616
X-0022831Y-00476
X-0018929Y-0042009
X-0027591Y-0033348
Y-0027442
Y-0021537
X-0010831Y-00262
X-0007063Y-0030009
X-0010831Y-00162
X-0007131Y-00119
X-0033496Y-0021537
X-0039402
Y-0027442
Y-0033348
X-0033496
X-0037031Y-0047899
X-0042432Y-00479
X-0050231Y-00469
X-005515Y-0018781
Y-0012876
X-0048063
T02
X-0019716Y-0210395
X-0009717
X-0029717
X-0039717
X-0049716
X-0059716
X-0069717
X-0079716
X-0089717
X-0099717
X-0109716
X-0119717
X-0129717
Y-0200395
X-0119717
X-0109716
X-0099717
X-0089717
X-0079716
X-0069717
X-0059716
X-0049716
X-0039717
X-0029717
X-0049716Y-0190395
X-0019716Y-0200395
X-0009717
X-0108199Y-0011514
X-0130532Y-0013
Y-0023
T03
X-0130532Y-00562
Y-0048326
Y-0040452
Y-0032578
X-0113416Y-0021537
X-0105542
X-0097668
X-0089794
T04
X-0018496Y-0105789
Y-0061695
T05
X-0033496Y-0027442
T06
X-0028339Y-0115631
Y-0095947
X-0008653
Y-0115631
Y-0071537
Y-0051852
X-0028339
Y-0071537
T07
X-010037Y-007075
M30
