%FSLAX25Y25*%
%MOIN*%
G70*
G01*
G75*
G04 Layer_Physical_Order=2*
G04 Layer_Color=16711680*
%ADD10O,0.00984X0.04724*%
%ADD11O,0.04724X0.00984*%
%ADD12R,0.04331X0.05118*%
%ADD13R,0.05118X0.04331*%
%ADD14R,0.03937X0.05118*%
%ADD15R,0.05118X0.03937*%
%ADD16R,0.03150X0.05118*%
%ADD17R,0.05118X0.03150*%
G04:AMPARAMS|DCode=18|XSize=78.74mil|YSize=23.62mil|CornerRadius=5.91mil|HoleSize=0mil|Usage=FLASHONLY|Rotation=90.000|XOffset=0mil|YOffset=0mil|HoleType=Round|Shape=RoundedRectangle|*
%AMROUNDEDRECTD18*
21,1,0.07874,0.01181,0,0,90.0*
21,1,0.06693,0.02362,0,0,90.0*
1,1,0.01181,0.00591,0.03347*
1,1,0.01181,0.00591,-0.03347*
1,1,0.01181,-0.00591,-0.03347*
1,1,0.01181,-0.00591,0.03347*
%
%ADD18ROUNDEDRECTD18*%
G04:AMPARAMS|DCode=19|XSize=78.74mil|YSize=23.62mil|CornerRadius=5.91mil|HoleSize=0mil|Usage=FLASHONLY|Rotation=0.000|XOffset=0mil|YOffset=0mil|HoleType=Round|Shape=RoundedRectangle|*
%AMROUNDEDRECTD19*
21,1,0.07874,0.01181,0,0,0.0*
21,1,0.06693,0.02362,0,0,0.0*
1,1,0.01181,0.03347,-0.00591*
1,1,0.01181,-0.03347,-0.00591*
1,1,0.01181,-0.03347,0.00591*
1,1,0.01181,0.03347,0.00591*
%
%ADD19ROUNDEDRECTD19*%
%ADD20C,0.00984*%
%ADD21C,0.01055*%
%ADD22C,0.02362*%
%ADD23C,0.02559*%
%ADD24C,0.06850*%
%ADD25R,0.16142X0.16142*%
%ADD26R,0.06299X0.06299*%
%ADD27C,0.06299*%
%ADD28C,0.05512*%
%ADD29C,0.23622*%
%ADD30R,0.05906X0.05906*%
%ADD31C,0.05906*%
%ADD32C,0.06000*%
%ADD33C,0.05315*%
%ADD34R,0.05315X0.05315*%
%ADD35C,0.06890*%
%ADD36C,0.07480*%
%ADD37C,0.04331*%
%ADD38R,0.04724X0.07874*%
%ADD39R,0.02559X0.09843*%
%ADD40R,0.12992X0.09843*%
%ADD41R,0.08858X0.08071*%
%ADD42R,0.09843X0.03937*%
%ADD43R,0.01575X0.04921*%
%ADD44R,0.00984X0.03347*%
%ADD45C,0.01000*%
G36*
X-42354Y-15238D02*
X-37987D01*
X-36135Y-17090D01*
X-35647Y-17416D01*
X-35071Y-17530D01*
X-24430D01*
X-21370Y-20591D01*
X-21561Y-21053D01*
X-22245D01*
Y-23210D01*
X-20767D01*
Y-23709D01*
X-20305D01*
Y-23710D01*
X-20277Y-23856D01*
Y-26368D01*
X-18018D01*
X-17826Y-26830D01*
X-17896Y-26899D01*
X-18222Y-27387D01*
X-18333Y-27942D01*
X-18333D01*
X-18337Y-27964D01*
Y-30600D01*
X-18337Y-30601D01*
X-18308Y-30745D01*
Y-33257D01*
X-16275D01*
Y-37516D01*
X-9188D01*
Y-32914D01*
X-8993Y-32818D01*
X-8568Y-33082D01*
Y-44517D01*
X-8984Y-44795D01*
X-9188Y-44710D01*
Y-42937D01*
X-12732D01*
Y-42438D01*
X-13231D01*
Y-39484D01*
X-16275D01*
Y-39511D01*
X-16723Y-39732D01*
X-17341Y-39258D01*
X-17424Y-39224D01*
Y-38202D01*
X-17538Y-37626D01*
X-17865Y-37138D01*
X-19263Y-35739D01*
Y-33257D01*
X-19263D01*
Y-30601D01*
Y-30600D01*
X-19263Y-30599D01*
X-19292Y-30455D01*
Y-27942D01*
X-22245D01*
Y-30455D01*
X-22274Y-30600D01*
Y-36363D01*
X-22274Y-36363D01*
X-22274D01*
X-22159Y-36939D01*
X-21833Y-37427D01*
X-20494Y-38766D01*
X-20527Y-39265D01*
X-21175Y-39763D01*
X-21680Y-40421D01*
X-21998Y-41187D01*
X-22106Y-42009D01*
X-21998Y-42832D01*
X-21680Y-43598D01*
X-21175Y-44256D01*
X-20517Y-44761D01*
X-19751Y-45078D01*
X-18929Y-45186D01*
X-18107Y-45078D01*
X-17341Y-44761D01*
X-16723Y-44287D01*
X-16275Y-44508D01*
Y-45390D01*
X-13232D01*
X-13041Y-45852D01*
X-14934Y-47745D01*
X-15261Y-48233D01*
X-15375Y-48809D01*
Y-54013D01*
X-15261Y-54589D01*
X-14934Y-55077D01*
X-11908Y-58104D01*
X-11928Y-58207D01*
X-12257Y-58698D01*
X-12620Y-58849D01*
X-13278Y-59354D01*
X-13783Y-60012D01*
X-13841Y-60152D01*
X-14341D01*
X-14627Y-59461D01*
X-15337Y-58536D01*
X-16262Y-57826D01*
X-17340Y-57379D01*
X-18496Y-57227D01*
X-19652Y-57379D01*
X-20730Y-57826D01*
X-21655Y-58536D01*
X-22365Y-59461D01*
X-22811Y-60538D01*
X-22963Y-61695D01*
X-22811Y-62851D01*
X-22365Y-63928D01*
X-21655Y-64853D01*
X-20730Y-65563D01*
X-19652Y-66010D01*
X-18496Y-66162D01*
X-18368Y-66145D01*
X-18146Y-66593D01*
X-23118Y-71564D01*
X-23591Y-71404D01*
X-23573Y-71537D01*
X-23639Y-72037D01*
X-27839D01*
Y-76236D01*
X-28339Y-76302D01*
X-28472Y-76285D01*
X-28311Y-76758D01*
X-32707Y-81154D01*
X-41841D01*
X-42417Y-81268D01*
X-42905Y-81595D01*
X-53675Y-92364D01*
X-54137Y-92173D01*
Y-89134D01*
X-21804Y-56801D01*
X-21231Y-56877D01*
X-20409Y-56769D01*
X-19643Y-56451D01*
X-18985Y-55946D01*
X-18480Y-55288D01*
X-18163Y-54522D01*
X-18055Y-53700D01*
X-18163Y-52878D01*
X-18480Y-52112D01*
X-18985Y-51454D01*
X-19643Y-50949D01*
X-20409Y-50631D01*
X-21231Y-50523D01*
X-21274Y-50364D01*
X-21243Y-50351D01*
X-20585Y-49846D01*
X-20080Y-49188D01*
X-19763Y-48422D01*
X-19655Y-47600D01*
X-19763Y-46778D01*
X-20080Y-46012D01*
X-20585Y-45354D01*
X-21243Y-44849D01*
X-22009Y-44532D01*
X-22831Y-44423D01*
X-23654Y-44532D01*
X-23808Y-44595D01*
X-24267Y-44136D01*
X-24638Y-43888D01*
Y-40935D01*
X-30543D01*
Y-43978D01*
X-30543D01*
X-30543Y-44551D01*
X-33459Y-47467D01*
X-33933Y-47306D01*
X-33963Y-47077D01*
X-34280Y-46311D01*
X-34785Y-45653D01*
X-35443Y-45148D01*
X-36209Y-44831D01*
X-37031Y-44722D01*
X-37854Y-44831D01*
X-38620Y-45148D01*
X-39278Y-45653D01*
X-39482Y-45919D01*
X-39982D01*
X-40185Y-45654D01*
X-40843Y-45149D01*
X-40926Y-45114D01*
Y-42682D01*
X-40934Y-42641D01*
X-40926Y-42600D01*
X-41041Y-42024D01*
X-40996Y-41940D01*
X-38417D01*
Y-43978D01*
X-32512D01*
Y-36891D01*
X-32512D01*
Y-36851D01*
X-32158Y-36498D01*
X-30543D01*
Y-36891D01*
X-30543D01*
Y-39935D01*
X-24638D01*
Y-36891D01*
X-24638D01*
Y-36694D01*
X-24441Y-36498D01*
X-24441D01*
Y-33556D01*
X-24479Y-33848D01*
X-27592D01*
Y-32848D01*
X-24479D01*
X-24441Y-33140D01*
Y-27942D01*
X-42551D01*
Y-33140D01*
X-42513Y-32848D01*
X-39401D01*
Y-33848D01*
X-42513D01*
X-42551Y-33556D01*
Y-36398D01*
X-42726Y-36471D01*
X-43142Y-36193D01*
Y-31380D01*
X-44589D01*
Y-29411D01*
X-43142D01*
Y-22324D01*
X-44589D01*
Y-19737D01*
X-44704Y-19161D01*
X-45030Y-18673D01*
X-46558Y-17145D01*
Y-15661D01*
X-46475Y-15627D01*
X-45817Y-15122D01*
X-45312Y-14464D01*
X-45277Y-14381D01*
X-44913D01*
X-44337Y-14266D01*
X-43849Y-13940D01*
X-43109Y-13200D01*
X-42354D01*
Y-15238D01*
D02*
G37*
G36*
X-116922Y-7262D02*
X-126133Y-16472D01*
X-126594Y-16281D01*
Y-9063D01*
X-134468D01*
Y-16937D01*
X-127251D01*
X-127059Y-17399D01*
X-129024Y-19363D01*
X-129504Y-19164D01*
X-130532Y-19029D01*
X-131559Y-19164D01*
X-132517Y-19561D01*
X-133339Y-20192D01*
X-133970Y-21014D01*
X-134367Y-21972D01*
X-134502Y-23000D01*
X-134367Y-24028D01*
X-133970Y-24985D01*
X-133339Y-25808D01*
X-132517Y-26439D01*
X-131559Y-26836D01*
X-130532Y-26971D01*
X-129504Y-26836D01*
X-129024Y-26637D01*
X-122937Y-32724D01*
Y-44900D01*
X-122937Y-44900D01*
X-122937D01*
X-122822Y-45476D01*
X-122496Y-45964D01*
X-109934Y-58527D01*
X-109445Y-58853D01*
X-108869Y-58968D01*
X-106553D01*
X-106417Y-59449D01*
X-107914Y-60366D01*
X-109446Y-61674D01*
X-110754Y-63205D01*
X-111806Y-64923D01*
X-112577Y-66783D01*
X-113047Y-68742D01*
X-113205Y-70750D01*
X-113047Y-72757D01*
X-112577Y-74716D01*
X-111806Y-76577D01*
X-110754Y-78294D01*
X-109446Y-79825D01*
X-107914Y-81133D01*
X-106197Y-82186D01*
X-104336Y-82956D01*
X-102378Y-83426D01*
X-100370Y-83584D01*
X-98362Y-83426D01*
X-96404Y-82956D01*
X-94543Y-82186D01*
X-92826Y-81133D01*
X-91294Y-79825D01*
X-89986Y-78294D01*
X-88934Y-76577D01*
X-88163Y-74716D01*
X-87693Y-72757D01*
X-87535Y-70750D01*
X-87693Y-68742D01*
X-88103Y-67035D01*
X-87667Y-66790D01*
X-66237Y-88221D01*
Y-94114D01*
X-66320Y-94149D01*
X-66978Y-94654D01*
X-67483Y-95312D01*
X-67800Y-96078D01*
X-67908Y-96900D01*
X-67800Y-97722D01*
X-67483Y-98488D01*
X-66978Y-99146D01*
X-66320Y-99651D01*
X-65554Y-99968D01*
X-64732Y-100077D01*
X-63909Y-99968D01*
X-63143Y-99651D01*
X-62485Y-99146D01*
X-61980Y-98488D01*
X-61663Y-97722D01*
X-61555Y-96900D01*
X-61663Y-96078D01*
X-61980Y-95312D01*
X-62485Y-94654D01*
X-63143Y-94149D01*
X-63226Y-94114D01*
Y-87597D01*
X-63341Y-87021D01*
X-63667Y-86533D01*
X-93802Y-56398D01*
X-94290Y-56072D01*
X-94866Y-55957D01*
X-108246D01*
X-119926Y-44276D01*
Y-42359D01*
X-113813D01*
Y-37241D01*
X-116387D01*
Y-24845D01*
X-115938Y-24623D01*
X-115425Y-25017D01*
X-114456Y-25419D01*
X-113916Y-25490D01*
Y-21538D01*
Y-17836D01*
X-113626Y-17546D01*
X-113416Y-17518D01*
X-113476Y-17396D01*
X-110525Y-14444D01*
X-110085Y-14781D01*
X-109176Y-15158D01*
X-108199Y-15287D01*
X-107223Y-15158D01*
X-106313Y-14781D01*
X-105532Y-14182D01*
X-104932Y-13400D01*
X-104555Y-12490D01*
X-104427Y-11514D01*
X-104555Y-10538D01*
X-104932Y-9628D01*
X-105532Y-8847D01*
X-105506Y-8771D01*
X-73309D01*
Y-17738D01*
X-69251D01*
X-69060Y-18200D01*
X-71027Y-20166D01*
X-71353Y-20655D01*
X-71468Y-21231D01*
Y-22462D01*
X-73309D01*
Y-32305D01*
X-66616D01*
Y-22462D01*
X-68457D01*
Y-21854D01*
X-66889Y-20286D01*
X-57935D01*
X-57901Y-20369D01*
X-57396Y-21027D01*
X-56738Y-21532D01*
X-56010Y-21834D01*
X-56107Y-22324D01*
X-56921D01*
Y-25368D01*
X-54469D01*
Y-22324D01*
X-54192D01*
X-54290Y-21834D01*
X-53561Y-21532D01*
X-52903Y-21027D01*
X-52398Y-20369D01*
X-52081Y-19603D01*
X-51973Y-18781D01*
X-52081Y-17959D01*
X-52398Y-17193D01*
X-52903Y-16535D01*
X-53561Y-16030D01*
Y-15627D01*
X-52903Y-15122D01*
X-52398Y-14464D01*
X-52081Y-13698D01*
X-51973Y-12876D01*
X-52081Y-12053D01*
X-52398Y-11287D01*
X-52903Y-10629D01*
X-53561Y-10124D01*
X-54327Y-9807D01*
X-55150Y-9699D01*
X-55972Y-9807D01*
X-56738Y-10124D01*
X-57396Y-10629D01*
X-57481Y-10740D01*
X-57954Y-10579D01*
Y-8771D01*
X-49855D01*
X-49568Y-9057D01*
Y-10090D01*
X-49651Y-10124D01*
X-50309Y-10629D01*
X-50814Y-11287D01*
X-51131Y-12053D01*
X-51240Y-12876D01*
X-51131Y-13698D01*
X-50814Y-14464D01*
X-50309Y-15122D01*
X-49651Y-15627D01*
X-49568Y-15661D01*
Y-17768D01*
X-49454Y-18345D01*
X-49127Y-18833D01*
X-47600Y-20360D01*
Y-22324D01*
X-49047D01*
Y-29411D01*
X-47600D01*
Y-31380D01*
X-49047D01*
Y-38226D01*
X-51016D01*
Y-35423D01*
X-56921D01*
Y-38226D01*
X-85108D01*
X-96162Y-27172D01*
Y-25226D01*
X-95658Y-25017D01*
X-94826Y-24379D01*
X-94187Y-23546D01*
X-93981Y-23047D01*
X-93481D01*
X-93274Y-23546D01*
X-92635Y-24379D01*
X-91803Y-25017D01*
X-90834Y-25419D01*
X-89794Y-25556D01*
X-88754Y-25419D01*
X-87784Y-25017D01*
X-86952Y-24379D01*
X-86313Y-23546D01*
X-85912Y-22577D01*
X-85775Y-21537D01*
X-85912Y-20497D01*
X-86313Y-19528D01*
X-86952Y-18695D01*
X-87784Y-18057D01*
X-88754Y-17655D01*
X-89794Y-17518D01*
X-90834Y-17655D01*
X-91803Y-18057D01*
X-92635Y-18695D01*
X-93274Y-19528D01*
X-93481Y-20027D01*
X-93981D01*
X-94187Y-19528D01*
X-94826Y-18695D01*
X-95658Y-18057D01*
X-96162Y-17848D01*
Y-16843D01*
X-94816D01*
Y-9757D01*
X-100721D01*
Y-16843D01*
X-99173D01*
Y-17848D01*
X-99677Y-18057D01*
X-100509Y-18695D01*
X-101148Y-19528D01*
X-101355Y-20027D01*
X-101855D01*
X-102061Y-19528D01*
X-102700Y-18695D01*
X-103532Y-18057D01*
X-104502Y-17655D01*
X-105542Y-17518D01*
X-106582Y-17655D01*
X-107551Y-18057D01*
X-108383Y-18695D01*
X-109022Y-19528D01*
X-109229Y-20027D01*
X-109729D01*
X-109935Y-19528D01*
X-110574Y-18695D01*
X-111406Y-18057D01*
X-112376Y-17655D01*
X-112916Y-17584D01*
Y-21538D01*
Y-25490D01*
X-112376Y-25419D01*
X-111406Y-25017D01*
X-110574Y-24379D01*
X-109935Y-23546D01*
X-109729Y-23047D01*
X-109229D01*
X-109022Y-23546D01*
X-108383Y-24379D01*
X-107551Y-25017D01*
X-107047Y-25226D01*
Y-27590D01*
X-107047Y-27590D01*
X-107047D01*
X-106932Y-28166D01*
X-106606Y-28654D01*
X-101168Y-34093D01*
X-101359Y-34555D01*
X-104364D01*
Y-33501D01*
X-111450D01*
Y-38619D01*
X-104364D01*
Y-37565D01*
X-100555D01*
X-93387Y-44733D01*
X-93387D01*
X-93387Y-44733D01*
X-93387Y-44733D01*
Y-44733D01*
X-92899Y-45059D01*
X-92323Y-45174D01*
X-54087D01*
X-53266Y-45995D01*
X-53300Y-46078D01*
X-53408Y-46900D01*
X-53300Y-47722D01*
X-52983Y-48488D01*
X-52478Y-49146D01*
X-51820Y-49651D01*
X-51054Y-49968D01*
X-50231Y-50077D01*
X-49409Y-49968D01*
X-48643Y-49651D01*
X-48442Y-49497D01*
X-47993Y-49718D01*
Y-49883D01*
X-47879Y-50459D01*
X-47553Y-50948D01*
X-45190Y-53310D01*
X-44702Y-53636D01*
X-44126Y-53751D01*
X-37777D01*
X-37201Y-53636D01*
X-36713Y-53310D01*
X-35967Y-52564D01*
X-35641Y-52076D01*
X-35558Y-51660D01*
X-35060Y-51709D01*
Y-63016D01*
X-58675Y-86630D01*
X-59001Y-87119D01*
X-59115Y-87695D01*
Y-100277D01*
X-61134Y-102295D01*
X-100646D01*
X-100680Y-102212D01*
X-101185Y-101554D01*
X-101843Y-101049D01*
X-102609Y-100732D01*
X-103431Y-100623D01*
X-104254Y-100732D01*
X-105020Y-101049D01*
X-105678Y-101554D01*
X-106183Y-102212D01*
X-106500Y-102978D01*
X-106608Y-103800D01*
X-106500Y-104622D01*
X-106183Y-105388D01*
X-105678Y-106046D01*
X-105020Y-106551D01*
X-104254Y-106869D01*
X-103431Y-106977D01*
X-102609Y-106869D01*
X-101843Y-106551D01*
X-101185Y-106046D01*
X-100680Y-105388D01*
X-100646Y-105305D01*
X-98315D01*
Y-130535D01*
X-98777Y-130726D01*
X-100067Y-129436D01*
X-100555Y-129109D01*
X-101131Y-128995D01*
X-124608D01*
X-126644Y-126958D01*
Y-125545D01*
X-126091D01*
Y-122099D01*
X-125091D01*
Y-125545D01*
X-121260D01*
Y-120457D01*
X-119908Y-119105D01*
X-112159D01*
X-112083Y-119288D01*
X-111578Y-119946D01*
X-110920Y-120451D01*
X-110154Y-120768D01*
X-109332Y-120877D01*
X-108509Y-120768D01*
X-107743Y-120451D01*
X-107085Y-119946D01*
X-106580Y-119288D01*
X-106263Y-118522D01*
X-106155Y-117700D01*
X-106263Y-116878D01*
X-106580Y-116112D01*
X-107085Y-115454D01*
X-107743Y-114949D01*
X-108509Y-114631D01*
X-109332Y-114523D01*
X-110154Y-114631D01*
X-110920Y-114949D01*
X-111578Y-115454D01*
X-112070Y-116095D01*
X-120531D01*
X-120873Y-116163D01*
X-121260Y-115846D01*
Y-111823D01*
X-116371Y-106934D01*
X-116288Y-106968D01*
X-115465Y-107077D01*
X-114643Y-106968D01*
X-113877Y-106651D01*
X-113219Y-106146D01*
X-112714Y-105488D01*
X-112397Y-104722D01*
X-112289Y-103900D01*
X-112397Y-103078D01*
X-112714Y-102312D01*
X-113219Y-101654D01*
X-113877Y-101149D01*
X-114643Y-100831D01*
X-115465Y-100723D01*
X-116288Y-100831D01*
X-117054Y-101149D01*
X-117712Y-101654D01*
X-118217Y-102312D01*
X-118534Y-103078D01*
X-118642Y-103900D01*
X-118534Y-104722D01*
X-118500Y-104805D01*
X-122180Y-108486D01*
X-122642Y-108294D01*
Y-102057D01*
X-124326D01*
Y-93423D01*
X-122908Y-92005D01*
X-88932D01*
X-88355Y-91891D01*
X-87867Y-91564D01*
X-82567Y-86264D01*
X-82241Y-85776D01*
X-82126Y-85200D01*
X-82126Y-85200D01*
X-82126Y-85200D01*
Y-85200D01*
Y-79338D01*
X-81485Y-78846D01*
X-80980Y-78188D01*
X-80663Y-77422D01*
X-80555Y-76600D01*
X-80663Y-75778D01*
X-80980Y-75012D01*
X-81485Y-74354D01*
X-82143Y-73849D01*
X-82909Y-73532D01*
X-83732Y-73423D01*
X-84554Y-73532D01*
X-85320Y-73849D01*
X-85978Y-74354D01*
X-86483Y-75012D01*
X-86800Y-75778D01*
X-86908Y-76600D01*
X-86800Y-77422D01*
X-86483Y-78188D01*
X-85978Y-78846D01*
X-85320Y-79351D01*
X-85137Y-79427D01*
Y-84576D01*
X-89555Y-88995D01*
X-122908D01*
X-129026Y-82876D01*
Y-60334D01*
X-126398D01*
Y-52066D01*
X-127837D01*
X-127998Y-51593D01*
X-127583Y-51274D01*
X-126921Y-50411D01*
X-126504Y-49405D01*
X-126362Y-48326D01*
X-126504Y-47247D01*
X-126921Y-46241D01*
X-127583Y-45378D01*
X-128447Y-44715D01*
X-128630Y-44639D01*
Y-44139D01*
X-128447Y-44063D01*
X-127583Y-43400D01*
X-126921Y-42537D01*
X-126504Y-41531D01*
X-126362Y-40452D01*
X-126504Y-39373D01*
X-126921Y-38367D01*
X-127583Y-37504D01*
X-128447Y-36841D01*
X-128630Y-36765D01*
Y-36265D01*
X-128447Y-36189D01*
X-127583Y-35526D01*
X-126921Y-34663D01*
X-126504Y-33657D01*
X-126428Y-33078D01*
X-134635D01*
X-134559Y-33657D01*
X-134142Y-34663D01*
X-133480Y-35526D01*
X-132616Y-36189D01*
X-132432Y-36265D01*
Y-36765D01*
X-132616Y-36841D01*
X-133480Y-37504D01*
X-134142Y-38367D01*
X-134559Y-39373D01*
X-134701Y-40452D01*
X-134559Y-41531D01*
X-134142Y-42537D01*
X-133480Y-43400D01*
X-132616Y-44063D01*
X-132433Y-44139D01*
Y-44639D01*
X-132616Y-44715D01*
X-133480Y-45378D01*
X-134142Y-46241D01*
X-134559Y-47247D01*
X-134701Y-48326D01*
X-134559Y-49405D01*
X-134142Y-50411D01*
X-133480Y-51274D01*
X-133065Y-51593D01*
X-133226Y-52066D01*
X-134665D01*
Y-60334D01*
X-132037D01*
Y-83500D01*
X-132037Y-83500D01*
X-132037D01*
X-131922Y-84076D01*
X-131596Y-84564D01*
X-125660Y-90500D01*
X-126896Y-91736D01*
X-127222Y-92224D01*
X-127337Y-92800D01*
Y-102057D01*
X-128547D01*
Y-109143D01*
X-127096D01*
Y-109797D01*
X-129921D01*
Y-114361D01*
X-133096Y-117536D01*
X-133422Y-118024D01*
X-133537Y-118600D01*
Y-131210D01*
X-135075D01*
Y-137116D01*
X-127988D01*
Y-135605D01*
X-123075D01*
Y-137053D01*
X-111264D01*
Y-132005D01*
X-101755D01*
X-97137Y-136624D01*
Y-145549D01*
X-97585Y-145770D01*
X-97743Y-145649D01*
X-98509Y-145332D01*
X-99331Y-145223D01*
X-100154Y-145332D01*
X-100920Y-145649D01*
X-101578Y-146154D01*
X-102083Y-146812D01*
X-102158Y-146995D01*
X-111264D01*
Y-141147D01*
X-123075D01*
Y-145698D01*
X-123523Y-145919D01*
X-123745Y-145749D01*
X-124511Y-145431D01*
X-125333Y-145323D01*
X-126155Y-145431D01*
X-126921Y-145749D01*
X-127579Y-146254D01*
X-128084Y-146912D01*
X-128402Y-147678D01*
X-128510Y-148500D01*
X-128402Y-149322D01*
X-128084Y-150088D01*
X-127579Y-150746D01*
X-127183Y-151051D01*
Y-151551D01*
X-127578Y-151854D01*
X-128083Y-152512D01*
X-128147Y-152667D01*
X-128638Y-152765D01*
X-130026Y-151376D01*
Y-144990D01*
X-127988D01*
Y-139084D01*
X-135075D01*
Y-144990D01*
X-133037D01*
Y-152000D01*
X-132922Y-152576D01*
X-132596Y-153064D01*
X-130196Y-155464D01*
X-129708Y-155791D01*
X-129131Y-155905D01*
X-127916D01*
X-127578Y-156346D01*
X-127259Y-156591D01*
X-127419Y-157065D01*
X-132220D01*
Y-162970D01*
X-125134D01*
Y-161639D01*
X-124644Y-161542D01*
X-124583Y-161688D01*
X-124078Y-162346D01*
X-123420Y-162851D01*
X-122654Y-163169D01*
X-121832Y-163277D01*
X-121009Y-163169D01*
X-120243Y-162851D01*
X-119585Y-162346D01*
X-119080Y-161688D01*
X-118911Y-161279D01*
X-118411D01*
X-118283Y-161588D01*
X-117778Y-162246D01*
X-117120Y-162751D01*
X-116354Y-163068D01*
X-116032Y-163111D01*
Y-159999D01*
X-115533D01*
Y-159500D01*
X-112421D01*
X-112463Y-159178D01*
X-112780Y-158412D01*
X-113285Y-157754D01*
X-113943Y-157249D01*
X-113904Y-157053D01*
X-111264D01*
Y-154600D01*
X-117170D01*
Y-154101D01*
X-117669D01*
Y-151147D01*
X-122779D01*
X-122919Y-150965D01*
X-123050Y-150699D01*
X-122582Y-150088D01*
X-122547Y-150005D01*
X-102070D01*
X-101578Y-150646D01*
X-100920Y-151151D01*
X-100154Y-151469D01*
X-99331Y-151577D01*
X-98509Y-151469D01*
X-97743Y-151151D01*
X-97585Y-151030D01*
X-97137Y-151251D01*
Y-159513D01*
X-104009Y-166386D01*
X-125134D01*
Y-164939D01*
X-132220D01*
Y-170844D01*
X-125134D01*
Y-169397D01*
X-103386D01*
X-102810Y-169282D01*
X-102321Y-168956D01*
X-94567Y-161201D01*
X-94241Y-160713D01*
X-94126Y-160137D01*
Y-150551D01*
X-93861Y-150421D01*
X-93437Y-150685D01*
Y-168976D01*
X-97180Y-172720D01*
X-97642Y-172528D01*
Y-171557D01*
X-103547D01*
Y-178643D01*
X-98896D01*
X-98705Y-179105D01*
X-110497Y-190898D01*
X-116935D01*
X-117511Y-191012D01*
X-117999Y-191339D01*
X-120781Y-194121D01*
X-121107Y-194609D01*
X-121222Y-195185D01*
Y-197077D01*
X-121553Y-197214D01*
X-122314Y-197798D01*
X-122653Y-198240D01*
X-123126Y-198079D01*
Y-185700D01*
X-123241Y-185124D01*
X-123567Y-184636D01*
X-126697Y-181505D01*
X-126663Y-181422D01*
X-126555Y-180600D01*
X-126663Y-179778D01*
X-126980Y-179012D01*
X-127260Y-178647D01*
X-127010Y-178214D01*
X-126532Y-178277D01*
X-125709Y-178168D01*
X-124943Y-177851D01*
X-124285Y-177346D01*
X-123780Y-176688D01*
X-123746Y-176605D01*
X-111421D01*
Y-178643D01*
X-105516D01*
Y-171557D01*
X-111421D01*
Y-173595D01*
X-123746D01*
X-123780Y-173512D01*
X-124285Y-172854D01*
X-124943Y-172349D01*
X-125709Y-172031D01*
X-126532Y-171923D01*
X-127354Y-172031D01*
X-128120Y-172349D01*
X-128778Y-172854D01*
X-129283Y-173512D01*
X-129600Y-174278D01*
X-129708Y-175100D01*
X-129600Y-175922D01*
X-129283Y-176688D01*
X-129003Y-177053D01*
X-129253Y-177486D01*
X-129732Y-177423D01*
X-130554Y-177532D01*
X-131320Y-177849D01*
X-131978Y-178354D01*
X-132483Y-179012D01*
X-132800Y-179778D01*
X-132908Y-180600D01*
X-132800Y-181422D01*
X-132483Y-182188D01*
X-131978Y-182846D01*
X-131320Y-183351D01*
X-130554Y-183668D01*
X-129732Y-183777D01*
X-128909Y-183668D01*
X-128826Y-183634D01*
X-126137Y-186323D01*
Y-198301D01*
X-126610Y-198461D01*
X-127119Y-197798D01*
X-127880Y-197214D01*
X-128766Y-196847D01*
X-129217Y-196788D01*
Y-200396D01*
Y-204003D01*
X-128766Y-203943D01*
X-127880Y-203576D01*
X-127119Y-202993D01*
X-126610Y-202329D01*
X-126303Y-202433D01*
X-126137Y-202600D01*
X-126137Y-202600D01*
D01*
X-126022Y-203176D01*
X-125696Y-203664D01*
X-122996Y-206364D01*
X-122996D01*
X-122996Y-206364D01*
X-122996Y-206364D01*
Y-206364D01*
X-122508Y-206691D01*
X-121932Y-206805D01*
X-121798D01*
X-121637Y-207279D01*
X-122314Y-207798D01*
X-122898Y-208559D01*
X-123265Y-209445D01*
X-123390Y-210395D01*
X-123265Y-211346D01*
X-122898Y-212232D01*
X-122314Y-212993D01*
X-121553Y-213576D01*
X-120667Y-213943D01*
X-119717Y-214068D01*
X-118766Y-213943D01*
X-117880Y-213576D01*
X-117119Y-212993D01*
X-116535Y-212232D01*
X-116169Y-211346D01*
X-116043Y-210395D01*
X-116169Y-209445D01*
X-116535Y-208559D01*
X-117119Y-207798D01*
X-117880Y-207214D01*
X-118766Y-206847D01*
Y-206847D01*
X-118763Y-206805D01*
X-115435D01*
X-113127Y-209113D01*
X-113265Y-209445D01*
X-113390Y-210395D01*
X-113265Y-211346D01*
X-112898Y-212232D01*
X-112314Y-212993D01*
X-111553Y-213576D01*
X-110667Y-213943D01*
X-109716Y-214068D01*
X-108766Y-213943D01*
X-107880Y-213576D01*
X-107119Y-212993D01*
X-106535Y-212232D01*
X-106169Y-211346D01*
X-106043Y-210395D01*
X-106169Y-209445D01*
X-106535Y-208559D01*
X-107119Y-207798D01*
X-107880Y-207214D01*
X-108766Y-206847D01*
X-109716Y-206722D01*
X-110667Y-206847D01*
X-110998Y-206984D01*
X-113747Y-204236D01*
X-114236Y-203909D01*
X-114812Y-203795D01*
X-117387D01*
X-117548Y-203321D01*
X-117119Y-202993D01*
X-116535Y-202232D01*
X-116169Y-201346D01*
X-116043Y-200395D01*
X-116169Y-199445D01*
X-116535Y-198559D01*
X-117119Y-197798D01*
X-117880Y-197214D01*
X-118211Y-197077D01*
Y-195808D01*
X-116311Y-193908D01*
X-109874D01*
X-109298Y-193794D01*
X-108810Y-193468D01*
X-87305Y-171962D01*
X-86843Y-172154D01*
Y-174580D01*
X-84390D01*
Y-171537D01*
X-86226D01*
X-86417Y-171075D01*
X-83667Y-168325D01*
X-83341Y-167837D01*
X-83226Y-167261D01*
X-83226Y-167261D01*
X-83226Y-167261D01*
Y-167261D01*
Y-150586D01*
X-83143Y-150551D01*
X-82485Y-150046D01*
X-81980Y-149388D01*
X-81663Y-148622D01*
X-81555Y-147800D01*
X-81663Y-146978D01*
X-81980Y-146212D01*
X-82102Y-146054D01*
X-81880Y-145605D01*
X-77799D01*
Y-147053D01*
X-66119D01*
X-65765Y-147406D01*
Y-151147D01*
X-65988D01*
Y-151147D01*
X-77799D01*
Y-157053D01*
X-73584D01*
Y-162058D01*
X-73667Y-162093D01*
X-74325Y-162598D01*
X-74830Y-163256D01*
X-75147Y-164022D01*
X-75256Y-164844D01*
X-75147Y-165666D01*
X-75113Y-165749D01*
X-77080Y-167717D01*
X-77407Y-168205D01*
X-77521Y-168781D01*
Y-171537D01*
X-78969D01*
Y-178624D01*
X-74893D01*
X-74702Y-179086D01*
X-85727Y-190111D01*
X-90553D01*
X-90587Y-190027D01*
X-91092Y-189369D01*
X-91750Y-188865D01*
X-92516Y-188547D01*
X-93339Y-188439D01*
X-94161Y-188547D01*
X-94927Y-188865D01*
X-95585Y-189369D01*
X-96090Y-190027D01*
X-96407Y-190794D01*
X-96515Y-191616D01*
X-96407Y-192438D01*
X-96090Y-193204D01*
X-95787Y-193599D01*
X-96008Y-194047D01*
X-104874D01*
X-105450Y-194162D01*
X-105938Y-194488D01*
X-108435Y-196985D01*
X-108766Y-196847D01*
X-109716Y-196722D01*
X-110667Y-196847D01*
X-111553Y-197214D01*
X-112314Y-197798D01*
X-112898Y-198559D01*
X-113265Y-199445D01*
X-113390Y-200395D01*
X-113265Y-201346D01*
X-112898Y-202232D01*
X-112314Y-202993D01*
X-111553Y-203576D01*
X-110667Y-203943D01*
X-109716Y-204068D01*
X-108766Y-203943D01*
X-107880Y-203576D01*
X-107119Y-202993D01*
X-106535Y-202232D01*
X-106169Y-201346D01*
X-106043Y-200395D01*
X-106169Y-199445D01*
X-106306Y-199113D01*
X-104251Y-197058D01*
X-102127D01*
X-101967Y-197531D01*
X-102314Y-197798D01*
X-102898Y-198559D01*
X-103264Y-199445D01*
X-103390Y-200395D01*
X-103264Y-201346D01*
X-102898Y-202232D01*
X-102314Y-202993D01*
X-101553Y-203576D01*
X-100667Y-203943D01*
X-99717Y-204068D01*
X-98766Y-203943D01*
X-97880Y-203576D01*
X-97119Y-202993D01*
X-96535Y-202232D01*
X-96169Y-201346D01*
X-96043Y-200395D01*
X-96169Y-199445D01*
X-96535Y-198559D01*
X-97119Y-197798D01*
X-97880Y-197214D01*
X-97849Y-197058D01*
X-92127D01*
X-91967Y-197531D01*
X-92314Y-197798D01*
X-92898Y-198559D01*
X-93265Y-199445D01*
X-93390Y-200395D01*
X-93265Y-201346D01*
X-92898Y-202232D01*
X-92314Y-202993D01*
X-91553Y-203576D01*
X-90667Y-203943D01*
X-89717Y-204068D01*
X-88766Y-203943D01*
X-87880Y-203576D01*
X-87119Y-202993D01*
X-86536Y-202232D01*
X-86169Y-201346D01*
X-86043Y-200395D01*
X-86169Y-199445D01*
X-86536Y-198559D01*
X-87119Y-197798D01*
X-87880Y-197214D01*
X-87849Y-197058D01*
X-86256D01*
X-85680Y-196943D01*
X-85192Y-196617D01*
X-81487Y-192912D01*
X-81025Y-193104D01*
Y-196995D01*
X-81553Y-197214D01*
X-82314Y-197798D01*
X-82898Y-198559D01*
X-83264Y-199445D01*
X-83390Y-200395D01*
X-83264Y-201346D01*
X-82898Y-202232D01*
X-82314Y-202993D01*
X-81553Y-203576D01*
X-80667Y-203943D01*
X-79716Y-204068D01*
X-78766Y-203943D01*
X-77880Y-203576D01*
X-77119Y-202993D01*
X-76813Y-202594D01*
X-76340Y-202755D01*
Y-204890D01*
X-78435Y-206984D01*
X-78766Y-206847D01*
X-79716Y-206722D01*
X-80667Y-206847D01*
X-81553Y-207214D01*
X-82314Y-207798D01*
X-82898Y-208559D01*
X-83264Y-209445D01*
X-83390Y-210395D01*
X-83264Y-211346D01*
X-82898Y-212232D01*
X-82314Y-212993D01*
X-81553Y-213576D01*
X-80667Y-213943D01*
X-79716Y-214068D01*
X-78766Y-213943D01*
X-77880Y-213576D01*
X-77119Y-212993D01*
X-76535Y-212232D01*
X-76169Y-211346D01*
X-76043Y-210395D01*
X-76169Y-209445D01*
X-76306Y-209113D01*
X-73770Y-206578D01*
X-73444Y-206089D01*
X-73329Y-205513D01*
X-73329Y-205513D01*
X-73329Y-205513D01*
Y-205513D01*
Y-202447D01*
X-72856Y-202286D01*
X-72314Y-202993D01*
X-71553Y-203576D01*
X-70667Y-203943D01*
X-69717Y-204068D01*
X-68766Y-203943D01*
X-67880Y-203576D01*
X-67119Y-202993D01*
X-66536Y-202232D01*
X-66169Y-201346D01*
X-66043Y-200395D01*
X-66169Y-199445D01*
X-66536Y-198559D01*
X-67119Y-197798D01*
X-67880Y-197214D01*
X-68211Y-197077D01*
Y-187988D01*
X-61684Y-181461D01*
X-61222Y-181652D01*
Y-197077D01*
X-61553Y-197214D01*
X-62314Y-197798D01*
X-62898Y-198559D01*
X-63265Y-199445D01*
X-63390Y-200395D01*
X-63265Y-201346D01*
X-62898Y-202232D01*
X-62314Y-202993D01*
X-61553Y-203576D01*
X-60667Y-203943D01*
X-59716Y-204068D01*
X-58766Y-203943D01*
X-57880Y-203576D01*
X-57119Y-202993D01*
X-56800Y-202577D01*
X-56327Y-202737D01*
Y-204876D01*
X-58435Y-206984D01*
X-58766Y-206847D01*
X-59716Y-206722D01*
X-60667Y-206847D01*
X-61553Y-207214D01*
X-62314Y-207798D01*
X-62898Y-208559D01*
X-63265Y-209445D01*
X-63390Y-210395D01*
X-63265Y-211346D01*
X-62898Y-212232D01*
X-62314Y-212993D01*
X-61553Y-213576D01*
X-60667Y-213943D01*
X-59716Y-214068D01*
X-58766Y-213943D01*
X-57880Y-213576D01*
X-57119Y-212993D01*
X-56536Y-212232D01*
X-56169Y-211346D01*
X-56043Y-210395D01*
X-56169Y-209445D01*
X-56306Y-209113D01*
X-53757Y-206564D01*
X-53431Y-206076D01*
X-53316Y-205500D01*
X-53316Y-205500D01*
X-53316Y-205500D01*
Y-205500D01*
Y-202464D01*
X-52842Y-202304D01*
X-52314Y-202993D01*
X-51553Y-203576D01*
X-50667Y-203943D01*
X-50217Y-204003D01*
Y-200396D01*
Y-196788D01*
X-50667Y-196847D01*
X-51553Y-197214D01*
X-52314Y-197798D01*
X-52842Y-198487D01*
X-53316Y-198326D01*
Y-192464D01*
X-52842Y-192304D01*
X-52314Y-192993D01*
X-51553Y-193576D01*
X-50667Y-193943D01*
X-49716Y-194068D01*
X-48766Y-193943D01*
X-47880Y-193576D01*
X-47119Y-192993D01*
X-46536Y-192232D01*
X-46169Y-191346D01*
X-46043Y-190395D01*
X-46169Y-189445D01*
X-46536Y-188559D01*
X-47119Y-187798D01*
X-47880Y-187214D01*
X-48766Y-186847D01*
X-49716Y-186722D01*
X-50667Y-186847D01*
X-51018Y-186993D01*
X-51433Y-186715D01*
Y-164408D01*
X-39173Y-152147D01*
X-39095Y-152030D01*
X-34832D01*
Y-147009D01*
X-34332D01*
Y-146510D01*
X-28918D01*
Y-144501D01*
X-28477Y-144266D01*
X-28322Y-144369D01*
X-28175Y-144399D01*
X-27439Y-144545D01*
X-27075D01*
Y-145190D01*
X-25840D01*
Y-151934D01*
X-26283Y-152512D01*
X-26600Y-153278D01*
X-26708Y-154100D01*
X-26600Y-154922D01*
X-26283Y-155688D01*
X-26163Y-155844D01*
X-26384Y-156293D01*
X-28032D01*
Y-162199D01*
Y-168104D01*
X-26268D01*
Y-168104D01*
X-26268D01*
X-26268Y-168104D01*
X-25795D01*
Y-168104D01*
X-21268D01*
Y-168104D01*
X-21268D01*
X-21268Y-168104D01*
X-20795D01*
Y-168104D01*
X-16268D01*
Y-156293D01*
X-16431D01*
X-16622Y-155831D01*
X-16405Y-155613D01*
X-11658D01*
X-10645Y-156627D01*
Y-157210D01*
X-12675D01*
Y-163116D01*
X-5588D01*
Y-157210D01*
X-7618D01*
Y-156000D01*
X-7618Y-156000D01*
X-7733Y-155421D01*
X-7842Y-155258D01*
X-8061Y-154930D01*
X-8061Y-154930D01*
X-8891Y-154100D01*
X-7524Y-152733D01*
X-7524Y-152733D01*
X-7196Y-152242D01*
X-7081Y-151663D01*
Y-150143D01*
X-5642D01*
Y-143057D01*
X-11547D01*
Y-150143D01*
X-10108D01*
Y-151036D01*
X-11658Y-152587D01*
X-17031D01*
X-17031Y-152587D01*
X-17515Y-152683D01*
X-17611Y-152702D01*
X-18102Y-153030D01*
X-19602Y-154530D01*
X-19930Y-155021D01*
X-19949Y-155117D01*
X-20045Y-155600D01*
X-20045Y-155600D01*
Y-156293D01*
X-20679D01*
X-20900Y-155844D01*
X-20780Y-155688D01*
X-20463Y-154922D01*
X-20355Y-154100D01*
X-20463Y-153278D01*
X-20780Y-152512D01*
X-21223Y-151934D01*
Y-145190D01*
X-19988D01*
Y-143742D01*
X-19421D01*
Y-150143D01*
X-13516D01*
Y-143057D01*
X-14984D01*
X-15078Y-142587D01*
X-15404Y-142099D01*
X-16330Y-141173D01*
X-16818Y-140846D01*
X-17394Y-140732D01*
X-19988D01*
Y-139284D01*
X-27075D01*
X-27075Y-139284D01*
Y-139284D01*
X-27112Y-139300D01*
X-28918Y-137493D01*
Y-130770D01*
X-32483D01*
Y-118769D01*
X-32009Y-118608D01*
X-31708Y-119001D01*
X-30721Y-119758D01*
X-29572Y-120234D01*
X-28839Y-120331D01*
Y-115632D01*
Y-110932D01*
X-29572Y-111029D01*
X-30721Y-111505D01*
X-31708Y-112262D01*
X-32009Y-112655D01*
X-32483Y-112494D01*
Y-99084D01*
X-32009Y-98923D01*
X-31708Y-99316D01*
X-30721Y-100073D01*
X-29572Y-100549D01*
X-28839Y-100646D01*
Y-95947D01*
Y-91247D01*
X-29572Y-91344D01*
X-30721Y-91820D01*
X-31708Y-92577D01*
X-32009Y-92970D01*
X-32483Y-92809D01*
Y-91321D01*
X-32598Y-90744D01*
X-32924Y-90256D01*
X-33049Y-90131D01*
X-32963Y-89922D01*
X-32855Y-89100D01*
X-32963Y-88278D01*
X-33280Y-87512D01*
X-33357Y-87412D01*
X-33136Y-86963D01*
X-30090D01*
X-29514Y-86849D01*
X-29025Y-86523D01*
X-13891Y-71388D01*
X-13417Y-71549D01*
X-13419Y-71537D01*
X-13353Y-71037D01*
X-8653D01*
Y-71536D01*
X-8153D01*
Y-76236D01*
X-7420Y-76140D01*
X-6271Y-75664D01*
X-5373Y-74975D01*
X-4925Y-75196D01*
Y-92287D01*
X-5373Y-92509D01*
X-6271Y-91820D01*
X-7420Y-91344D01*
X-8153Y-91247D01*
Y-95947D01*
Y-100646D01*
X-7420Y-100549D01*
X-6271Y-100073D01*
X-5373Y-99384D01*
X-4925Y-99605D01*
Y-111973D01*
X-5373Y-112194D01*
X-6271Y-111505D01*
X-7420Y-111029D01*
X-8153Y-110932D01*
Y-115632D01*
Y-120331D01*
X-7420Y-120234D01*
X-6271Y-119758D01*
X-5373Y-119069D01*
X-4925Y-119290D01*
Y-185057D01*
X-6594D01*
Y-188601D01*
Y-192143D01*
X-4925D01*
Y-214620D01*
X-137627D01*
Y-6800D01*
X-117114D01*
X-116922Y-7262D01*
D02*
G37*
G36*
X-45504Y-99490D02*
X-40925D01*
X-40738Y-99769D01*
X-39117Y-101390D01*
X-39308Y-101852D01*
X-41764D01*
Y-108939D01*
X-40710D01*
Y-126703D01*
X-43270Y-129263D01*
X-43596Y-129751D01*
X-43711Y-130327D01*
Y-149303D01*
X-44126Y-149581D01*
X-44251Y-149530D01*
Y-115554D01*
X-44243Y-115551D01*
X-43585Y-115046D01*
X-43080Y-114388D01*
X-42763Y-113622D01*
X-42655Y-112800D01*
X-42763Y-111978D01*
X-43080Y-111212D01*
X-43585Y-110554D01*
X-44243Y-110049D01*
X-45009Y-109731D01*
X-45832Y-109623D01*
X-46654Y-109731D01*
X-47420Y-110049D01*
X-48078Y-110554D01*
X-48581Y-111210D01*
X-49082D01*
X-49585Y-110554D01*
X-50243Y-110049D01*
X-51009Y-109731D01*
X-51332Y-109689D01*
Y-112801D01*
Y-115911D01*
X-51009Y-115868D01*
X-50243Y-115551D01*
X-49585Y-115046D01*
X-49082Y-114390D01*
X-48581D01*
X-48078Y-115046D01*
X-47420Y-115551D01*
X-47261Y-115617D01*
Y-128881D01*
X-47732Y-129049D01*
X-48499Y-128115D01*
X-49683Y-127143D01*
X-51034Y-126421D01*
X-52499Y-125976D01*
X-54024Y-125826D01*
X-55548Y-125976D01*
X-57014Y-126421D01*
X-58364Y-127143D01*
X-59548Y-128115D01*
X-60315Y-129049D01*
X-60786Y-128881D01*
Y-112057D01*
X-52609Y-103880D01*
X-52283Y-103391D01*
X-52168Y-102815D01*
X-52168Y-102815D01*
X-52168Y-102815D01*
Y-102815D01*
Y-98896D01*
X-51719Y-98675D01*
X-51620Y-98751D01*
X-50854Y-99068D01*
X-50032Y-99177D01*
X-49209Y-99068D01*
X-48443Y-98751D01*
X-47785Y-98246D01*
X-47280Y-97588D01*
X-47246Y-97505D01*
X-45504D01*
Y-99490D01*
D02*
G37*
%LPC*%
G36*
X-5588Y-165084D02*
X-8631D01*
Y-167537D01*
X-5588D01*
Y-165084D01*
D02*
G37*
G36*
X-112421Y-160500D02*
X-115032D01*
Y-163111D01*
X-114709Y-163068D01*
X-113943Y-162751D01*
X-113285Y-162246D01*
X-112780Y-161588D01*
X-112463Y-160822D01*
X-112421Y-160500D01*
D02*
G37*
G36*
X-111264Y-151147D02*
X-116669D01*
Y-153600D01*
X-111264D01*
Y-151147D01*
D02*
G37*
G36*
X-31268Y-156293D02*
Y-156293D01*
X-35795D01*
D01*
D01*
X-35795Y-156293D01*
X-36268D01*
Y-156293D01*
X-40795D01*
Y-161976D01*
X-40840Y-162198D01*
Y-169600D01*
X-40664Y-170483D01*
X-40305Y-171020D01*
X-40569Y-171445D01*
X-40731Y-171423D01*
X-41554Y-171531D01*
X-42320Y-171849D01*
X-42978Y-172354D01*
X-43483Y-173012D01*
X-43800Y-173778D01*
X-43908Y-174600D01*
X-43800Y-175422D01*
X-43483Y-176188D01*
X-42978Y-176846D01*
X-42520Y-177197D01*
X-42586Y-177693D01*
X-42720Y-177749D01*
X-43378Y-178254D01*
X-43883Y-178912D01*
X-44200Y-179678D01*
X-44308Y-180500D01*
X-44200Y-181322D01*
X-44166Y-181405D01*
X-44996Y-182236D01*
X-45322Y-182724D01*
X-45437Y-183300D01*
Y-203987D01*
X-48435Y-206984D01*
X-48766Y-206847D01*
X-49716Y-206722D01*
X-50667Y-206847D01*
X-51553Y-207214D01*
X-52314Y-207798D01*
X-52898Y-208559D01*
X-53264Y-209445D01*
X-53390Y-210395D01*
X-53264Y-211346D01*
X-52898Y-212232D01*
X-52314Y-212993D01*
X-51553Y-213576D01*
X-50667Y-213943D01*
X-49716Y-214068D01*
X-48766Y-213943D01*
X-47880Y-213576D01*
X-47119Y-212993D01*
X-46536Y-212232D01*
X-46169Y-211346D01*
X-46043Y-210395D01*
X-46169Y-209445D01*
X-46306Y-209113D01*
X-42867Y-205675D01*
X-42541Y-205186D01*
X-42426Y-204610D01*
X-42426Y-204610D01*
X-42426Y-204610D01*
Y-204610D01*
Y-203472D01*
X-41978Y-203251D01*
X-41553Y-203576D01*
X-40667Y-203943D01*
X-39717Y-204068D01*
X-38766Y-203943D01*
X-37880Y-203576D01*
X-37119Y-202993D01*
X-36710Y-202460D01*
X-36237Y-202620D01*
Y-204787D01*
X-38435Y-206984D01*
X-38766Y-206847D01*
X-39717Y-206722D01*
X-40667Y-206847D01*
X-41553Y-207214D01*
X-42314Y-207798D01*
X-42898Y-208559D01*
X-43264Y-209445D01*
X-43390Y-210395D01*
X-43264Y-211346D01*
X-42898Y-212232D01*
X-42314Y-212993D01*
X-41553Y-213576D01*
X-40667Y-213943D01*
X-39717Y-214068D01*
X-38766Y-213943D01*
X-37880Y-213576D01*
X-37119Y-212993D01*
X-36536Y-212232D01*
X-36169Y-211346D01*
X-36043Y-210395D01*
X-36169Y-209445D01*
X-36306Y-209113D01*
X-33667Y-206475D01*
X-33341Y-205986D01*
X-33226Y-205410D01*
X-33226Y-205410D01*
X-33226Y-205410D01*
Y-205410D01*
Y-202581D01*
X-32753Y-202421D01*
X-32314Y-202993D01*
X-31553Y-203576D01*
X-30667Y-203943D01*
X-29717Y-204068D01*
X-28766Y-203943D01*
X-27880Y-203576D01*
X-27119Y-202993D01*
X-26535Y-202232D01*
X-26169Y-201346D01*
X-26043Y-200395D01*
X-26169Y-199445D01*
X-26535Y-198559D01*
X-27119Y-197798D01*
X-27880Y-197214D01*
X-28766Y-196847D01*
X-29717Y-196722D01*
X-30667Y-196847D01*
X-31553Y-197214D01*
X-32314Y-197798D01*
X-32753Y-198370D01*
X-33226Y-198209D01*
Y-197100D01*
X-33341Y-196524D01*
X-33667Y-196036D01*
X-35926Y-193777D01*
Y-192907D01*
X-29032D01*
Y-187003D01*
Y-181096D01*
X-35926D01*
Y-177900D01*
X-35992Y-177568D01*
X-35577Y-177290D01*
X-34915Y-177732D01*
X-34032Y-177908D01*
X-22488D01*
X-17277Y-183119D01*
Y-185057D01*
X-17921D01*
Y-192143D01*
X-16806D01*
Y-197473D01*
X-17255Y-197694D01*
X-17880Y-197214D01*
X-18766Y-196847D01*
X-19716Y-196722D01*
X-20667Y-196847D01*
X-21553Y-197214D01*
X-22314Y-197798D01*
X-22898Y-198559D01*
X-23265Y-199445D01*
X-23390Y-200395D01*
X-23265Y-201346D01*
X-22898Y-202232D01*
X-22314Y-202993D01*
X-21553Y-203576D01*
X-20667Y-203943D01*
X-19716Y-204068D01*
X-18766Y-203943D01*
X-17880Y-203576D01*
X-17255Y-203097D01*
X-16806Y-203318D01*
Y-204559D01*
X-19056Y-206809D01*
X-19716Y-206722D01*
X-20667Y-206847D01*
X-21553Y-207214D01*
X-22314Y-207798D01*
X-22898Y-208559D01*
X-23265Y-209445D01*
X-23390Y-210395D01*
X-23265Y-211346D01*
X-22898Y-212232D01*
X-22314Y-212993D01*
X-21553Y-213576D01*
X-20667Y-213943D01*
X-19716Y-214068D01*
X-18766Y-213943D01*
X-17880Y-213576D01*
X-17119Y-212993D01*
X-16535Y-212232D01*
X-16169Y-211346D01*
X-16043Y-210395D01*
X-16085Y-210082D01*
X-14598Y-208596D01*
X-13321Y-209874D01*
X-13390Y-210395D01*
X-13264Y-211346D01*
X-12898Y-212232D01*
X-12314Y-212993D01*
X-11553Y-213576D01*
X-10667Y-213943D01*
X-9717Y-214068D01*
X-8766Y-213943D01*
X-7880Y-213576D01*
X-7119Y-212993D01*
X-6536Y-212232D01*
X-6168Y-211346D01*
X-6043Y-210395D01*
X-6168Y-209445D01*
X-6536Y-208559D01*
X-7119Y-207798D01*
X-7880Y-207214D01*
X-8766Y-206847D01*
X-9717Y-206722D01*
X-10169Y-206782D01*
X-12391Y-204559D01*
Y-204037D01*
X-6075D01*
Y-196754D01*
X-12391D01*
Y-192143D01*
X-12016D01*
Y-189963D01*
X-11897Y-189364D01*
X-12016Y-188765D01*
Y-185057D01*
X-12660D01*
Y-182163D01*
X-12836Y-181280D01*
X-13336Y-180531D01*
X-19899Y-173968D01*
X-20648Y-173468D01*
X-21531Y-173292D01*
X-33075D01*
X-33267Y-173100D01*
Y-172600D01*
X-31899Y-171232D01*
X-31399Y-170483D01*
X-31370Y-170337D01*
X-31223Y-169600D01*
Y-168104D01*
X-30795D01*
Y-168104D01*
X-29032D01*
Y-162199D01*
Y-156293D01*
X-30795D01*
D01*
D01*
X-30795Y-156293D01*
X-31268D01*
D02*
G37*
G36*
X-80937Y-171537D02*
X-83390D01*
Y-174580D01*
X-80937D01*
Y-171537D01*
D02*
G37*
G36*
Y-175580D02*
X-83390D01*
Y-178624D01*
X-80937D01*
Y-175580D01*
D02*
G37*
G36*
X-84390D02*
X-86843D01*
Y-178624D01*
X-84390D01*
Y-175580D01*
D02*
G37*
G36*
X-9631Y-165084D02*
X-12675D01*
Y-167537D01*
X-9631D01*
Y-165084D01*
D02*
G37*
G36*
X-5588Y-168537D02*
X-8631D01*
Y-170990D01*
X-5588D01*
Y-168537D01*
D02*
G37*
G36*
X-9631D02*
X-12675D01*
Y-170990D01*
X-9631D01*
Y-168537D01*
D02*
G37*
G36*
X-52332Y-113300D02*
X-54942D01*
X-54900Y-113622D01*
X-54583Y-114388D01*
X-54078Y-115046D01*
X-53420Y-115551D01*
X-52654Y-115868D01*
X-52332Y-115911D01*
Y-113300D01*
D02*
G37*
G36*
X-9154Y-116131D02*
X-13353D01*
X-13256Y-116865D01*
X-12780Y-118014D01*
X-12023Y-119001D01*
X-11036Y-119758D01*
X-9887Y-120234D01*
X-9154Y-120331D01*
Y-116131D01*
D02*
G37*
G36*
X-27839Y-110932D02*
Y-115131D01*
X-23639D01*
X-23736Y-114398D01*
X-24212Y-113249D01*
X-24969Y-112262D01*
X-25956Y-111505D01*
X-27105Y-111029D01*
X-27839Y-110932D01*
D02*
G37*
G36*
X-52332Y-109689D02*
X-52654Y-109731D01*
X-53420Y-110049D01*
X-54078Y-110554D01*
X-54583Y-111212D01*
X-54900Y-111978D01*
X-54942Y-112300D01*
X-52332D01*
Y-109689D01*
D02*
G37*
G36*
X-9154Y-110932D02*
X-9887Y-111029D01*
X-11036Y-111505D01*
X-12023Y-112262D01*
X-12780Y-113249D01*
X-13256Y-114398D01*
X-13353Y-115131D01*
X-9154D01*
Y-110932D01*
D02*
G37*
G36*
X-23639Y-116131D02*
X-27839D01*
Y-120331D01*
X-27105Y-120234D01*
X-25956Y-119758D01*
X-24969Y-119001D01*
X-24212Y-118014D01*
X-23736Y-116865D01*
X-23639Y-116131D01*
D02*
G37*
G36*
X-24032Y-134863D02*
X-27075D01*
Y-137316D01*
X-24032D01*
Y-134863D01*
D02*
G37*
G36*
X-28918Y-147510D02*
X-33832D01*
Y-152030D01*
X-28918D01*
Y-147510D01*
D02*
G37*
G36*
X-19988Y-134863D02*
X-23031D01*
Y-137316D01*
X-19988D01*
Y-134863D01*
D02*
G37*
G36*
Y-131410D02*
X-23031D01*
Y-133863D01*
X-19988D01*
Y-131410D01*
D02*
G37*
G36*
X-24032D02*
X-27075D01*
Y-133863D01*
X-24032D01*
Y-131410D01*
D02*
G37*
G36*
X-26109Y-210895D02*
X-29217D01*
Y-214003D01*
X-28766Y-213943D01*
X-27880Y-213576D01*
X-27119Y-212993D01*
X-26535Y-212232D01*
X-26169Y-211346D01*
X-26109Y-210895D01*
D02*
G37*
G36*
X-30217D02*
X-33324D01*
X-33264Y-211346D01*
X-32898Y-212232D01*
X-32314Y-212993D01*
X-31553Y-213576D01*
X-30667Y-213943D01*
X-30217Y-214003D01*
Y-210895D01*
D02*
G37*
G36*
X-100216Y-206788D02*
X-100667Y-206847D01*
X-101553Y-207214D01*
X-102314Y-207798D01*
X-102898Y-208559D01*
X-103264Y-209445D01*
X-103324Y-209895D01*
X-100216D01*
Y-206788D01*
D02*
G37*
G36*
X-70217D02*
X-70667Y-206847D01*
X-71553Y-207214D01*
X-72314Y-207798D01*
X-72898Y-208559D01*
X-73264Y-209445D01*
X-73324Y-209895D01*
X-70217D01*
Y-206788D01*
D02*
G37*
G36*
X-99217D02*
Y-209895D01*
X-96109D01*
X-96169Y-209445D01*
X-96535Y-208559D01*
X-97119Y-207798D01*
X-97880Y-207214D01*
X-98766Y-206847D01*
X-99217Y-206788D01*
D02*
G37*
G36*
X-66109Y-210895D02*
X-69217D01*
Y-214003D01*
X-68766Y-213943D01*
X-67880Y-213576D01*
X-67119Y-212993D01*
X-66536Y-212232D01*
X-66169Y-211346D01*
X-66109Y-210895D01*
D02*
G37*
G36*
X-89717Y-206722D02*
X-90667Y-206847D01*
X-91553Y-207214D01*
X-92314Y-207798D01*
X-92898Y-208559D01*
X-93265Y-209445D01*
X-93390Y-210395D01*
X-93265Y-211346D01*
X-92898Y-212232D01*
X-92314Y-212993D01*
X-91553Y-213576D01*
X-90667Y-213943D01*
X-89717Y-214068D01*
X-88766Y-213943D01*
X-87880Y-213576D01*
X-87119Y-212993D01*
X-86536Y-212232D01*
X-86169Y-211346D01*
X-86043Y-210395D01*
X-86169Y-209445D01*
X-86536Y-208559D01*
X-87119Y-207798D01*
X-87880Y-207214D01*
X-88766Y-206847D01*
X-89717Y-206722D01*
D02*
G37*
G36*
X-129717D02*
X-130667Y-206847D01*
X-131553Y-207214D01*
X-132314Y-207798D01*
X-132898Y-208559D01*
X-133265Y-209445D01*
X-133390Y-210395D01*
X-133265Y-211346D01*
X-132898Y-212232D01*
X-132314Y-212993D01*
X-131553Y-213576D01*
X-130667Y-213943D01*
X-129717Y-214068D01*
X-128766Y-213943D01*
X-127880Y-213576D01*
X-127119Y-212993D01*
X-126535Y-212232D01*
X-126169Y-211346D01*
X-126043Y-210395D01*
X-126169Y-209445D01*
X-126535Y-208559D01*
X-127119Y-207798D01*
X-127880Y-207214D01*
X-128766Y-206847D01*
X-129717Y-206722D01*
D02*
G37*
G36*
X-100216Y-210895D02*
X-103324D01*
X-103264Y-211346D01*
X-102898Y-212232D01*
X-102314Y-212993D01*
X-101553Y-213576D01*
X-100667Y-213943D01*
X-100216Y-214003D01*
Y-210895D01*
D02*
G37*
G36*
X-70217D02*
X-73324D01*
X-73264Y-211346D01*
X-72898Y-212232D01*
X-72314Y-212993D01*
X-71553Y-213576D01*
X-70667Y-213943D01*
X-70217Y-214003D01*
Y-210895D01*
D02*
G37*
G36*
X-96109D02*
X-99217D01*
Y-214003D01*
X-98766Y-213943D01*
X-97880Y-213576D01*
X-97119Y-212993D01*
X-96535Y-212232D01*
X-96169Y-211346D01*
X-96109Y-210895D01*
D02*
G37*
G36*
X-21051Y-187502D02*
X-28032D01*
Y-192907D01*
X-21051D01*
Y-187502D01*
D02*
G37*
G36*
X-49216Y-196788D02*
Y-199895D01*
X-46109D01*
X-46169Y-199445D01*
X-46536Y-198559D01*
X-47119Y-197798D01*
X-47880Y-197214D01*
X-48766Y-196847D01*
X-49216Y-196788D01*
D02*
G37*
G36*
X-7594Y-189100D02*
X-10047D01*
Y-192143D01*
X-7594D01*
Y-189100D01*
D02*
G37*
G36*
X-21051Y-181096D02*
X-28032D01*
Y-186502D01*
X-21051D01*
Y-181096D01*
D02*
G37*
G36*
X-7594Y-185057D02*
X-10047D01*
Y-188100D01*
X-7594D01*
Y-185057D01*
D02*
G37*
G36*
X-130217Y-196788D02*
X-130667Y-196847D01*
X-131553Y-197214D01*
X-132314Y-197798D01*
X-132898Y-198559D01*
X-133265Y-199445D01*
X-133324Y-199895D01*
X-130217D01*
Y-196788D01*
D02*
G37*
G36*
X-30217Y-206788D02*
X-30667Y-206847D01*
X-31553Y-207214D01*
X-32314Y-207798D01*
X-32898Y-208559D01*
X-33264Y-209445D01*
X-33324Y-209895D01*
X-30217D01*
Y-206788D01*
D02*
G37*
G36*
X-69217D02*
Y-209895D01*
X-66109D01*
X-66169Y-209445D01*
X-66536Y-208559D01*
X-67119Y-207798D01*
X-67880Y-207214D01*
X-68766Y-206847D01*
X-69217Y-206788D01*
D02*
G37*
G36*
X-29217D02*
Y-209895D01*
X-26109D01*
X-26169Y-209445D01*
X-26535Y-208559D01*
X-27119Y-207798D01*
X-27880Y-207214D01*
X-28766Y-206847D01*
X-29217Y-206788D01*
D02*
G37*
G36*
X-46109Y-200895D02*
X-49216D01*
Y-204003D01*
X-48766Y-203943D01*
X-47880Y-203576D01*
X-47119Y-202993D01*
X-46536Y-202232D01*
X-46169Y-201346D01*
X-46109Y-200895D01*
D02*
G37*
G36*
X-130217D02*
X-133324D01*
X-133265Y-201346D01*
X-132898Y-202232D01*
X-132314Y-202993D01*
X-131553Y-203576D01*
X-130667Y-203943D01*
X-130217Y-204003D01*
Y-200895D01*
D02*
G37*
G36*
X-57954Y-22462D02*
X-64647D01*
Y-32305D01*
X-57954D01*
Y-22462D01*
D02*
G37*
G36*
X-51016Y-31380D02*
X-53469D01*
Y-34423D01*
X-51016D01*
Y-31380D01*
D02*
G37*
G36*
X-131032Y-28474D02*
X-131611Y-28550D01*
X-132616Y-28967D01*
X-133480Y-29630D01*
X-134142Y-30493D01*
X-134559Y-31499D01*
X-134635Y-32078D01*
X-131032D01*
Y-28474D01*
D02*
G37*
G36*
X-54469Y-26368D02*
X-56921D01*
Y-29411D01*
X-54469D01*
Y-26368D01*
D02*
G37*
G36*
X-130032Y-28474D02*
Y-32078D01*
X-126428D01*
X-126504Y-31499D01*
X-126921Y-30493D01*
X-127583Y-29630D01*
X-128447Y-28967D01*
X-129452Y-28550D01*
X-130032Y-28474D01*
D02*
G37*
G36*
X-108407Y-40981D02*
X-111450D01*
Y-43040D01*
X-108407D01*
Y-40981D01*
D02*
G37*
G36*
X-104364Y-44040D02*
X-107407D01*
Y-46099D01*
X-104364D01*
Y-44040D01*
D02*
G37*
G36*
Y-40981D02*
X-107407D01*
Y-43040D01*
X-104364D01*
Y-40981D01*
D02*
G37*
G36*
X-54469Y-31380D02*
X-56921D01*
Y-34423D01*
X-54469D01*
Y-31380D01*
D02*
G37*
G36*
X-9188Y-39484D02*
X-12231D01*
Y-41937D01*
X-9188D01*
Y-39484D01*
D02*
G37*
G36*
X-51016Y-26368D02*
X-53469D01*
Y-29411D01*
X-51016D01*
Y-26368D01*
D02*
G37*
G36*
X-90395Y-13800D02*
X-92847D01*
Y-16843D01*
X-90395D01*
Y-13800D01*
D02*
G37*
G36*
X-24441Y-18387D02*
X-27383D01*
X-27091Y-18426D01*
Y-21037D01*
X-24479D01*
X-24441Y-21329D01*
Y-18387D01*
D02*
G37*
G36*
X-86942Y-13800D02*
X-89394D01*
Y-16843D01*
X-86942D01*
Y-13800D01*
D02*
G37*
G36*
Y-9757D02*
X-89394D01*
Y-12800D01*
X-86942D01*
Y-9757D01*
D02*
G37*
G36*
X-90395D02*
X-92847D01*
Y-12800D01*
X-90395D01*
Y-9757D01*
D02*
G37*
G36*
X-21269Y-24210D02*
X-22245D01*
Y-26368D01*
X-21269D01*
Y-24210D01*
D02*
G37*
G36*
X-27799Y-18387D02*
X-32996D01*
Y-18426D01*
Y-21538D01*
Y-26943D01*
X-24441D01*
Y-21745D01*
X-24479Y-22037D01*
X-27592D01*
Y-21538D01*
X-28091D01*
Y-18426D01*
X-27799Y-18387D01*
D02*
G37*
G36*
X-51016Y-22324D02*
X-53469D01*
Y-25368D01*
X-51016D01*
Y-22324D01*
D02*
G37*
G36*
X-39610Y-18387D02*
X-42551D01*
Y-21329D01*
X-42513Y-21037D01*
X-39902D01*
Y-18426D01*
X-39610Y-18387D01*
D02*
G37*
G36*
X-33996D02*
X-39194D01*
X-38902Y-18426D01*
Y-21538D01*
X-39401D01*
Y-22037D01*
X-42513D01*
X-42551Y-21745D01*
Y-26943D01*
X-33996D01*
Y-21538D01*
Y-18426D01*
Y-18387D01*
D02*
G37*
G36*
X-108407Y-44040D02*
X-111450D01*
Y-46099D01*
X-108407D01*
Y-44040D01*
D02*
G37*
G36*
X-130516Y-102057D02*
X-132968D01*
Y-105100D01*
X-130516D01*
Y-102057D01*
D02*
G37*
G36*
X-133968D02*
X-136421D01*
Y-105100D01*
X-133968D01*
Y-102057D01*
D02*
G37*
G36*
X-47185Y-101852D02*
X-49244D01*
Y-104895D01*
X-47185D01*
Y-101852D01*
D02*
G37*
G36*
X-23639Y-96447D02*
X-27839D01*
Y-100646D01*
X-27105Y-100549D01*
X-25956Y-100073D01*
X-24969Y-99316D01*
X-24212Y-98329D01*
X-23736Y-97180D01*
X-23639Y-96447D01*
D02*
G37*
G36*
X-44126Y-101852D02*
X-46185D01*
Y-104895D01*
X-44126D01*
Y-101852D01*
D02*
G37*
G36*
X-133968Y-106100D02*
X-136421D01*
Y-109143D01*
X-133968D01*
Y-106100D01*
D02*
G37*
G36*
X-18496Y-101322D02*
X-19652Y-101474D01*
X-20730Y-101920D01*
X-21655Y-102630D01*
X-22365Y-103555D01*
X-22811Y-104633D01*
X-22963Y-105789D01*
X-22811Y-106945D01*
X-22365Y-108023D01*
X-21655Y-108948D01*
X-20730Y-109658D01*
X-19652Y-110104D01*
X-18496Y-110256D01*
X-17340Y-110104D01*
X-16262Y-109658D01*
X-15337Y-108948D01*
X-14627Y-108023D01*
X-14181Y-106945D01*
X-14029Y-105789D01*
X-14181Y-104633D01*
X-14627Y-103555D01*
X-15337Y-102630D01*
X-16262Y-101920D01*
X-17340Y-101474D01*
X-18496Y-101322D01*
D02*
G37*
G36*
X-130516Y-106100D02*
X-132968D01*
Y-109143D01*
X-130516D01*
Y-106100D01*
D02*
G37*
G36*
X-44126Y-105895D02*
X-46185D01*
Y-108939D01*
X-44126D01*
Y-105895D01*
D02*
G37*
G36*
X-47185D02*
X-49244D01*
Y-108939D01*
X-47185D01*
Y-105895D01*
D02*
G37*
G36*
X-9154Y-96447D02*
X-13353D01*
X-13256Y-97180D01*
X-12780Y-98329D01*
X-12023Y-99316D01*
X-11036Y-100073D01*
X-9887Y-100549D01*
X-9154Y-100646D01*
Y-96447D01*
D02*
G37*
G36*
X-28839Y-72037D02*
X-33038D01*
X-32941Y-72770D01*
X-32465Y-73920D01*
X-31708Y-74906D01*
X-30721Y-75664D01*
X-29572Y-76140D01*
X-28839Y-76236D01*
Y-72037D01*
D02*
G37*
G36*
X-132531Y-88189D02*
Y-90800D01*
X-129921D01*
X-129963Y-90478D01*
X-130280Y-89712D01*
X-130785Y-89054D01*
X-131443Y-88549D01*
X-132209Y-88231D01*
X-132531Y-88189D01*
D02*
G37*
G36*
X-9154Y-72037D02*
X-13353D01*
X-13256Y-72770D01*
X-12780Y-73920D01*
X-12023Y-74906D01*
X-11036Y-75664D01*
X-9887Y-76140D01*
X-9154Y-76236D01*
Y-72037D01*
D02*
G37*
G36*
X-27839Y-66838D02*
Y-71037D01*
X-23639D01*
X-23736Y-70304D01*
X-24212Y-69154D01*
X-24969Y-68168D01*
X-25956Y-67410D01*
X-27105Y-66934D01*
X-27839Y-66838D01*
D02*
G37*
G36*
X-28839D02*
X-29572Y-66934D01*
X-30721Y-67410D01*
X-31708Y-68168D01*
X-32465Y-69154D01*
X-32941Y-70304D01*
X-33038Y-71037D01*
X-28839D01*
Y-66838D01*
D02*
G37*
G36*
X-9154Y-91247D02*
X-9887Y-91344D01*
X-11036Y-91820D01*
X-12023Y-92577D01*
X-12780Y-93564D01*
X-13256Y-94713D01*
X-13353Y-95446D01*
X-9154D01*
Y-91247D01*
D02*
G37*
G36*
X-27839D02*
Y-95446D01*
X-23639D01*
X-23736Y-94713D01*
X-24212Y-93564D01*
X-24969Y-92577D01*
X-25956Y-91820D01*
X-27105Y-91344D01*
X-27839Y-91247D01*
D02*
G37*
G36*
X-133531Y-91800D02*
X-136143D01*
X-136100Y-92122D01*
X-135783Y-92888D01*
X-135278Y-93546D01*
X-134620Y-94051D01*
X-133854Y-94368D01*
X-133531Y-94411D01*
Y-91800D01*
D02*
G37*
G36*
Y-88189D02*
X-133854Y-88231D01*
X-134620Y-88549D01*
X-135278Y-89054D01*
X-135783Y-89712D01*
X-136100Y-90478D01*
X-136143Y-90800D01*
X-133531D01*
Y-88189D01*
D02*
G37*
G36*
X-129921Y-91800D02*
X-132531D01*
Y-94411D01*
X-132209Y-94368D01*
X-131443Y-94051D01*
X-130785Y-93546D01*
X-130280Y-92888D01*
X-129963Y-92122D01*
X-129921Y-91800D01*
D02*
G37*
%LPD*%
D14*
X-14968Y-188600D02*
D03*
X-7095D02*
D03*
X-16468Y-146600D02*
D03*
X-8595D02*
D03*
X-97768Y-13300D02*
D03*
X-89894D02*
D03*
X-76016Y-175080D02*
D03*
X-83890D02*
D03*
X-35465Y-40435D02*
D03*
X-27591D02*
D03*
X-46095Y-34923D02*
D03*
X-53969D02*
D03*
Y-25868D02*
D03*
X-46095D02*
D03*
X-39402Y-11694D02*
D03*
X-31528D02*
D03*
X-20369Y-9600D02*
D03*
X-12494D02*
D03*
X-125594Y-105600D02*
D03*
X-133468D02*
D03*
X-100594Y-175100D02*
D03*
X-108468D02*
D03*
D15*
X-12731Y-42437D02*
D03*
Y-34563D02*
D03*
X-9132Y-160163D02*
D03*
Y-168037D02*
D03*
X-23531Y-142237D02*
D03*
Y-134363D02*
D03*
X-128677Y-167891D02*
D03*
Y-160017D02*
D03*
X-131532Y-134163D02*
D03*
Y-142037D02*
D03*
D16*
X-39205Y-105395D02*
D03*
X-46685D02*
D03*
X-42945Y-95947D02*
D03*
D17*
X-107907Y-36060D02*
D03*
Y-43540D02*
D03*
X-117356Y-39800D02*
D03*
D20*
X-24890Y-11694D02*
X-22949Y-13635D01*
X-18296D01*
X-15732Y-16200D01*
X-10831D01*
X-16831Y-23710D02*
Y-17300D01*
X-15732Y-16200D01*
X-31528Y-11694D02*
X-24890D01*
X-12731Y-28100D02*
X-10831Y-26200D01*
X-12731Y-34563D02*
Y-28100D01*
X-11696Y-46635D02*
X-8331D01*
X-13870Y-48809D02*
X-11696Y-46635D01*
X-8331D02*
X-7063Y-45367D01*
X-35366Y-7659D02*
X-28672D01*
X-26732Y-9600D01*
X-20369D01*
X-7131Y-19900D02*
Y-11900D01*
X-8231Y-21000D02*
X-7131Y-19900D01*
X-12731Y-21000D02*
X-8231D01*
X-14863Y-23132D02*
X-12731Y-21000D01*
X-14863Y-25995D02*
Y-23132D01*
X-12394Y-9500D02*
X-9532D01*
X-12494Y-9600D02*
X-12394Y-9500D01*
X-9532D02*
X-7131Y-11900D01*
X-16831Y-27964D02*
X-14863Y-25995D01*
X-16831Y-30600D02*
Y-27964D01*
X-12494Y-10579D02*
Y-9600D01*
X-11032Y-34657D02*
X-10831Y-34457D01*
X-20768Y-36363D02*
Y-30600D01*
Y-36363D02*
X-18929Y-38202D01*
Y-42009D02*
Y-38202D01*
X-23806Y-16025D02*
X-18800Y-21032D01*
Y-23710D02*
Y-21032D01*
X-35071Y-16025D02*
X-23806D01*
X-62291Y-111433D02*
X-53673Y-102815D01*
Y-94491D01*
X-55642Y-102000D02*
Y-88510D01*
X-64260Y-110618D02*
X-55642Y-102000D01*
X-64260Y-164831D02*
Y-110618D01*
X-53463Y-43668D02*
X-50231Y-46900D01*
X-45300Y-39731D02*
X-42432Y-42600D01*
X-42472Y-42641D02*
X-42432Y-42682D01*
Y-47900D02*
Y-42682D01*
X-125232Y-130500D02*
X-101131D01*
X-95631Y-136000D01*
X-93731Y-134100D01*
X-99432Y-148500D02*
X-99331Y-148400D01*
X-125333Y-148500D02*
X-99432D01*
X-95631Y-160137D02*
Y-136000D01*
X-103386Y-167891D02*
X-95631Y-160137D01*
X-128677Y-167891D02*
X-103386D01*
X-121914Y-160017D02*
X-121832Y-160100D01*
X-128677Y-160017D02*
X-121914D01*
X-125631Y-154400D02*
X-125331Y-154100D01*
X-129131Y-154400D02*
X-125631D01*
X-131532Y-152000D02*
X-129131Y-154400D01*
X-84732Y-167261D02*
Y-147800D01*
X-109874Y-192403D02*
X-84732Y-167261D01*
X-91931Y-169600D02*
Y-147700D01*
X-97431Y-175100D02*
X-91931Y-169600D01*
Y-147700D02*
X-88332Y-144100D01*
X-93731Y-134100D02*
X-71894D01*
X-55642Y-88510D02*
X-21231Y-54100D01*
Y-53700D01*
X-94866Y-57462D02*
X-64732Y-87597D01*
Y-96900D02*
Y-87597D01*
X-79520Y-200395D02*
Y-191600D01*
X-16468Y-146600D02*
Y-143163D01*
X-17394Y-142237D02*
X-16468Y-143163D01*
X-23531Y-142237D02*
X-17394D01*
X-43931Y-204610D02*
Y-183300D01*
X-41131Y-180500D01*
X-49716Y-210395D02*
X-43931Y-204610D01*
X-128150Y-127582D02*
X-125232Y-130500D01*
X-83732Y-76600D02*
X-83631Y-76700D01*
Y-85200D02*
Y-76700D01*
X-88932Y-90500D02*
X-83631Y-85200D01*
X-130532Y-83500D02*
Y-56200D01*
Y-83500D02*
X-123531Y-90500D01*
X-125831Y-105363D02*
Y-92800D01*
X-123531Y-90500D01*
X-88932D01*
X-85732Y-39731D02*
X-45300D01*
X-97668Y-27795D02*
X-85732Y-39731D01*
X-97668Y-27795D02*
Y-21537D01*
X-105542Y-27590D02*
Y-21537D01*
Y-27590D02*
X-91431Y-41700D01*
X-107907Y-36060D02*
X-99932D01*
X-92323Y-43668D01*
X-53463D01*
X-97768Y-13300D02*
X-97668Y-13401D01*
Y-21537D02*
Y-13401D01*
X-109723Y-11514D02*
X-108199D01*
X-117892Y-19683D02*
X-109723Y-11514D01*
X-117892Y-39264D02*
Y-19683D01*
Y-39264D02*
X-117356Y-39800D01*
X-130532Y-23000D02*
X-114797Y-7265D01*
X-49231D01*
X-121432Y-44900D02*
X-108869Y-57462D01*
X-121432Y-44900D02*
Y-32100D01*
X-130532Y-23000D02*
X-121432Y-32100D01*
X-116935Y-192403D02*
X-109874D01*
X-30090Y-85458D02*
X-10952Y-66321D01*
X-7552D01*
X-52939Y-163784D02*
X-40237Y-151082D01*
X-52939Y-186907D02*
Y-163784D01*
X-67513Y-18781D02*
X-55150D01*
X-69962Y-21231D02*
X-67513Y-18781D01*
X-69962Y-27384D02*
Y-21231D01*
X-61301Y-12817D02*
X-55209D01*
X-55150Y-12876D01*
X-42998Y-96000D02*
X-42945Y-95947D01*
X-50032Y-96000D02*
X-42998D01*
X-40787Y-174655D02*
X-40731Y-174600D01*
X-131532Y-152000D02*
Y-142037D01*
X-125831Y-105363D02*
X-125594Y-105600D01*
X-126532Y-175100D02*
X-108468D01*
X-131468Y-134100D02*
X-117169D01*
X-131532Y-134163D02*
X-131468Y-134100D01*
X-125591Y-113242D02*
Y-105604D01*
X-125594Y-105600D02*
X-125591Y-105604D01*
X-128150Y-114718D02*
Y-113242D01*
X-132032Y-118600D02*
X-128150Y-114718D01*
X-132032Y-133663D02*
Y-118600D01*
Y-133663D02*
X-131532Y-134163D01*
X-128150Y-127582D02*
Y-122100D01*
X-123031D02*
Y-120100D01*
X-120531Y-117600D01*
X-31528Y-12520D02*
Y-11694D01*
X-39402D02*
Y-10513D01*
Y-11694D02*
X-35071Y-16025D01*
X-46488Y-49883D02*
Y-44125D01*
Y-49883D02*
X-44126Y-52246D01*
X-41370D01*
X-54559Y-12679D02*
X-54362Y-12876D01*
X-48063D02*
X-44913D01*
X-43732Y-11694D01*
X-39402D01*
X-131520Y-56962D02*
X-130740Y-56183D01*
X-39205Y-127327D02*
Y-105395D01*
X-36252Y-135218D02*
X-35858Y-135612D01*
X-71894Y-154100D02*
X-68815D01*
X-55543Y-149883D02*
X-55487Y-149940D01*
X-109716Y-200395D02*
X-104874Y-195553D01*
X-123031Y-113242D02*
Y-111466D01*
X-72079Y-154285D02*
X-71894Y-154100D01*
X-72079Y-164844D02*
Y-154285D01*
X-76016Y-175080D02*
Y-168781D01*
X-72079Y-164844D01*
X-79716Y-210395D02*
X-74835Y-205513D01*
X-48913Y-41700D02*
X-46488Y-44125D01*
X-91431Y-41700D02*
X-48913D01*
X-123031Y-111466D02*
X-115465Y-103900D01*
X-108869Y-57462D02*
X-94866D01*
X-53673Y-94491D02*
X-41841Y-82659D01*
X-114812Y-205300D02*
X-109716Y-210395D01*
X-121932Y-205300D02*
X-114812D01*
X-124632Y-202600D02*
X-121932Y-205300D01*
X-124632Y-202600D02*
Y-185700D01*
X-129732Y-180600D02*
X-124632Y-185700D01*
X-100594Y-175100D02*
X-97431D01*
X-37039Y-136005D02*
X-36154Y-136891D01*
X-33988Y-135447D02*
Y-91321D01*
X-34332Y-135790D02*
X-33988Y-135447D01*
X-54821Y-205500D02*
Y-188790D01*
X-59716Y-210395D02*
X-54821Y-205500D01*
X-39673Y-98705D02*
Y-87591D01*
Y-98705D02*
X-36154Y-102225D01*
Y-127059D02*
Y-102225D01*
X-40237Y-131143D02*
X-36154Y-127059D01*
X-40237Y-151082D02*
Y-131143D01*
X-42206Y-130327D02*
X-39205Y-127327D01*
X-42206Y-150267D02*
Y-130327D01*
X-55540Y-163601D02*
X-42206Y-150267D01*
X-64231Y-173500D02*
X-57508Y-166777D01*
Y-162485D01*
X-79520Y-191600D02*
X-66200Y-178280D01*
Y-172685D01*
X-59477Y-165961D01*
Y-153817D01*
X-55543Y-149883D01*
X-104874Y-195553D02*
X-86256D01*
X-68168Y-177465D01*
Y-171523D01*
X-103431Y-103800D02*
X-63332D01*
X-63282Y-103850D01*
X-40731Y-174600D02*
X-37431Y-177900D01*
Y-194400D02*
Y-177900D01*
Y-194400D02*
X-34732Y-197100D01*
Y-205410D02*
Y-197100D01*
X-39717Y-210395D02*
X-34732Y-205410D01*
X-39402Y-11694D02*
X-35366Y-7659D01*
X-42472Y-42641D02*
X-42432Y-42600D01*
X-41370Y-52246D02*
Y-52238D01*
X-41297Y-40435D02*
X-35465D01*
X-46095Y-35637D02*
X-41297Y-40435D01*
X-46095Y-35637D02*
Y-34923D01*
Y-25868D01*
X-48063Y-17768D02*
Y-12876D01*
Y-17768D02*
X-46095Y-19737D01*
Y-25868D02*
Y-19737D01*
X-48063Y-12876D02*
Y-8434D01*
X-49231Y-7265D02*
X-48063Y-8434D01*
X-22931Y-47600D02*
X-22831D01*
X-25332Y-45200D02*
X-22931Y-47600D01*
X-29064Y-45200D02*
X-25332D01*
X-33555Y-49691D02*
X-29064Y-45200D01*
X-7063Y-45367D02*
Y-30009D01*
X-13870Y-54013D02*
Y-48809D01*
X-11032Y-61607D02*
Y-61600D01*
X-41841Y-82659D02*
X-32083D01*
X-11032Y-61607D01*
X-39673Y-87591D02*
X-37540Y-85458D01*
X-36031Y-89277D02*
Y-89100D01*
Y-89277D02*
X-33988Y-91321D01*
X-41370Y-52246D02*
X-37777D01*
X-37031Y-51500D01*
Y-47899D01*
X-10814Y-57069D02*
X-7721D01*
X-5390Y-59400D01*
Y-64158D02*
Y-59400D01*
X-13870Y-54013D02*
X-10814Y-57069D01*
X-7552Y-66321D02*
X-5390Y-64158D01*
X-37540Y-85458D02*
X-30090D01*
X-63332Y-103800D02*
X-60510D01*
X-57610Y-100900D01*
Y-87695D01*
X-33555Y-63640D01*
Y-49691D01*
X-62291Y-165640D02*
Y-111433D01*
X-68168Y-171523D02*
X-62288Y-165643D01*
X-62291Y-165640D02*
X-62288Y-165643D01*
X-93339Y-191616D02*
X-85103D01*
X-70137Y-176650D01*
Y-170708D01*
X-64260Y-164831D01*
X-74835Y-205513D02*
Y-189699D01*
X-64231Y-179096D01*
Y-173500D01*
X-45832Y-113200D02*
X-45756Y-113276D01*
Y-150733D02*
Y-113276D01*
X-57172Y-162148D02*
X-45756Y-150733D01*
X-45832Y-113200D02*
Y-112800D01*
X-69717Y-200395D02*
Y-187365D01*
X-62263Y-179911D01*
Y-174315D01*
X-57508Y-162485D02*
X-57172Y-162148D01*
X-62263Y-174315D02*
X-55540Y-167592D01*
Y-163601D01*
X-59716Y-200395D02*
Y-178185D01*
X-57531Y-176000D01*
X-54821Y-188790D02*
X-52939Y-186907D01*
X-119717Y-200395D02*
Y-195185D01*
X-116935Y-192403D01*
X-120531Y-117600D02*
X-109432D01*
X-109332Y-117700D01*
X-88332Y-144100D02*
X-71894D01*
D22*
X-14598Y-205474D02*
Y-188970D01*
X-19520Y-210395D02*
X-14598Y-205474D01*
X-9677Y-210395D02*
X-9520D01*
X-14598Y-205474D02*
X-9677Y-210395D01*
D23*
X-23531Y-154100D02*
Y-142237D01*
X-38532Y-169600D02*
Y-162198D01*
X-33531Y-169600D02*
Y-162198D01*
X-36031Y-172100D02*
X-33531Y-169600D01*
X-38532D02*
X-36031Y-172100D01*
Y-173600D02*
Y-172100D01*
Y-173600D02*
X-34032Y-175600D01*
X-23531Y-162198D02*
Y-154100D01*
X-19520Y-210395D02*
Y-209805D01*
X-34032Y-175600D02*
X-21531D01*
X-14968Y-182163D01*
Y-188600D02*
Y-182163D01*
X-23921Y-154100D02*
X-23531D01*
X-14598Y-188970D02*
X-14205Y-189364D01*
X-14968Y-188600D02*
X-14598Y-188970D01*
X-34332Y-135790D02*
X-33886D01*
X-27439Y-142237D01*
X-23531D01*
D25*
X-33496Y-27442D02*
D03*
D26*
X-130532Y-56200D02*
D03*
D27*
Y-48326D02*
D03*
Y-40452D02*
D03*
Y-32578D02*
D03*
D28*
X-108199Y-11514D02*
D03*
D29*
X-100370Y-70750D02*
D03*
D30*
X-130532Y-13000D02*
D03*
D31*
Y-23000D02*
D03*
D32*
X-89794Y-21537D02*
D03*
X-97668D02*
D03*
X-105542D02*
D03*
X-113416D02*
D03*
D33*
X-129717Y-210395D02*
D03*
Y-200395D02*
D03*
X-119717Y-210395D02*
D03*
Y-200395D02*
D03*
X-109716Y-210395D02*
D03*
Y-200395D02*
D03*
X-99717Y-210395D02*
D03*
Y-200395D02*
D03*
X-89717Y-210395D02*
D03*
Y-200395D02*
D03*
X-79716Y-210395D02*
D03*
Y-200395D02*
D03*
X-69717Y-210395D02*
D03*
Y-200395D02*
D03*
X-59716Y-210395D02*
D03*
Y-200395D02*
D03*
X-49716Y-210395D02*
D03*
Y-200395D02*
D03*
X-39717Y-210395D02*
D03*
Y-200395D02*
D03*
X-29717Y-210395D02*
D03*
Y-200395D02*
D03*
X-19716Y-210395D02*
D03*
Y-200395D02*
D03*
X-9717Y-210395D02*
D03*
X-49716Y-190395D02*
D03*
D34*
X-9717Y-200395D02*
D03*
D35*
X-18496Y-105789D02*
D03*
Y-61695D02*
D03*
D36*
X-8653Y-95947D02*
D03*
X-28339D02*
D03*
Y-115631D02*
D03*
X-8653D02*
D03*
Y-51852D02*
D03*
X-28339D02*
D03*
Y-71537D02*
D03*
X-8653D02*
D03*
D37*
X-39402Y-21537D02*
D03*
X-33496D02*
D03*
X-27591D02*
D03*
Y-27442D02*
D03*
X-33496Y-33348D02*
D03*
X-39402D02*
D03*
X-27591D02*
D03*
X-39402Y-27442D02*
D03*
X-10831Y-26200D02*
D03*
X-7131Y-11900D02*
D03*
X-10831Y-16200D02*
D03*
X-133031Y-91300D02*
D03*
X-51832Y-112800D02*
D03*
X-50231Y-46900D02*
D03*
X-99331Y-148400D02*
D03*
X-115532Y-160000D02*
D03*
X-40731Y-174600D02*
D03*
X-64732Y-96900D02*
D03*
X-125333Y-148500D02*
D03*
X-125331Y-154100D02*
D03*
X-121832Y-160100D02*
D03*
X-109332Y-117700D02*
D03*
X-23531Y-154100D02*
D03*
X-50032Y-96000D02*
D03*
X-126532Y-175100D02*
D03*
X-91931Y-147700D02*
D03*
X-57531Y-176000D02*
D03*
X-48063Y-12876D02*
D03*
X-18929Y-42009D02*
D03*
X-55150Y-18781D02*
D03*
X-37031Y-47899D02*
D03*
X-42432Y-47900D02*
D03*
X-55150Y-12876D02*
D03*
X-11032Y-61600D02*
D03*
X-21231Y-53700D02*
D03*
X-22831Y-47600D02*
D03*
X-83732Y-76600D02*
D03*
X-36031Y-89100D02*
D03*
X-55543Y-149883D02*
D03*
X-93339Y-191616D02*
D03*
X-72079Y-164844D02*
D03*
X-115465Y-103900D02*
D03*
X-129732Y-180600D02*
D03*
X-84732Y-147800D02*
D03*
X-103431Y-103800D02*
D03*
X-41131Y-180500D02*
D03*
X-7063Y-30009D02*
D03*
X-45832Y-112800D02*
D03*
D38*
X-61301Y-12817D02*
D03*
X-69962Y-27384D02*
D03*
X-61301D02*
D03*
X-69962Y-12817D02*
D03*
D39*
X-38532Y-162198D02*
D03*
X-33531D02*
D03*
X-28532D02*
D03*
X-23531D02*
D03*
X-18531D02*
D03*
D40*
X-28532Y-187002D02*
D03*
D41*
X-34332Y-147010D02*
D03*
Y-135790D02*
D03*
D42*
X-117169Y-154100D02*
D03*
Y-144100D02*
D03*
Y-134100D02*
D03*
X-71894Y-154100D02*
D03*
Y-144100D02*
D03*
Y-134100D02*
D03*
D43*
X-123031Y-122100D02*
D03*
X-125591D02*
D03*
X-128150D02*
D03*
Y-113242D02*
D03*
X-123031D02*
D03*
X-125591D02*
D03*
D44*
X-16831Y-30600D02*
D03*
X-18800D02*
D03*
X-20768D02*
D03*
Y-23710D02*
D03*
X-18800D02*
D03*
X-16831D02*
D03*
D45*
X-9132Y-160163D02*
Y-156000D01*
X-11032Y-154100D02*
X-9132Y-156000D01*
X-18531Y-162198D02*
Y-155600D01*
X-17031Y-154100D01*
X-11032D01*
X-8595Y-151663D01*
Y-146600D01*
M02*
