%FSLAX25Y25*%
%MOIN*%
G70*
G01*
G75*
G04 Layer_Physical_Order=2*
G04 Layer_Color=16711680*
%ADD10C,0.05827*%
%ADD11C,0.05787*%
%ADD12R,0.05118X0.03937*%
%ADD13R,0.03937X0.01378*%
%ADD14R,0.04724X0.07874*%
%ADD15R,0.03937X0.05118*%
G04:AMPARAMS|DCode=16|XSize=78.74mil|YSize=23.62mil|CornerRadius=5.91mil|HoleSize=0mil|Usage=FLASHONLY|Rotation=270.000|XOffset=0mil|YOffset=0mil|HoleType=Round|Shape=RoundedRectangle|*
%AMROUNDEDRECTD16*
21,1,0.07874,0.01181,0,0,270.0*
21,1,0.06693,0.02362,0,0,270.0*
1,1,0.01181,-0.00591,-0.03347*
1,1,0.01181,-0.00591,0.03347*
1,1,0.01181,0.00591,0.03347*
1,1,0.01181,0.00591,-0.03347*
%
%ADD16ROUNDEDRECTD16*%
G04:AMPARAMS|DCode=17|XSize=78.74mil|YSize=23.62mil|CornerRadius=5.91mil|HoleSize=0mil|Usage=FLASHONLY|Rotation=0.000|XOffset=0mil|YOffset=0mil|HoleType=Round|Shape=RoundedRectangle|*
%AMROUNDEDRECTD17*
21,1,0.07874,0.01181,0,0,0.0*
21,1,0.06693,0.02362,0,0,0.0*
1,1,0.01181,0.03347,-0.00591*
1,1,0.01181,-0.03347,-0.00591*
1,1,0.01181,-0.03347,0.00591*
1,1,0.01181,0.03347,0.00591*
%
%ADD17ROUNDEDRECTD17*%
%ADD18R,0.03150X0.05118*%
%ADD19R,0.05118X0.03150*%
%ADD20R,0.05118X0.04331*%
%ADD21R,0.04331X0.05118*%
%ADD22O,0.00984X0.04724*%
%ADD23O,0.04724X0.00984*%
%ADD24C,0.00984*%
%ADD25C,0.02362*%
%ADD26C,0.00996*%
%ADD27C,0.01028*%
%ADD28C,0.05512*%
%ADD29C,0.06299*%
%ADD30C,0.07480*%
%ADD31C,0.06890*%
%ADD32C,0.05315*%
%ADD33R,0.05315X0.05315*%
%ADD34C,0.23622*%
%ADD35R,0.06299X0.06299*%
%ADD36R,0.16142X0.16142*%
%ADD37C,0.04331*%
%ADD38R,0.08858X0.08071*%
%ADD39R,0.01575X0.04921*%
%ADD40R,0.09843X0.03937*%
%ADD41R,0.12992X0.09843*%
%ADD42R,0.02559X0.09843*%
%ADD43C,0.01000*%
%ADD44C,0.02559*%
G36*
X-100269Y510338D02*
X-100864Y509743D01*
X-100998Y509543D01*
X-103237D01*
Y505999D01*
Y502457D01*
X-101930D01*
X-101739Y501995D01*
X-103883Y499850D01*
X-104463Y500090D01*
X-105542Y500233D01*
X-106621Y500090D01*
X-107626Y499674D01*
X-108490Y499011D01*
X-109153Y498148D01*
X-109229Y497964D01*
X-109729D01*
X-109805Y498148D01*
X-110468Y499011D01*
X-111331Y499674D01*
X-112337Y500090D01*
X-112916Y500167D01*
Y496062D01*
Y491959D01*
X-112337Y492035D01*
X-111331Y492452D01*
X-110468Y493115D01*
X-109805Y493978D01*
X-109729Y494162D01*
X-109229D01*
X-109153Y493978D01*
X-108490Y493115D01*
X-107626Y492452D01*
X-106621Y492035D01*
X-105542Y491893D01*
X-104463Y492035D01*
X-103457Y492452D01*
X-102593Y493115D01*
X-101931Y493978D01*
X-101855Y494162D01*
X-101355D01*
X-101279Y493978D01*
X-100616Y493115D01*
X-99752Y492452D01*
X-98747Y492035D01*
X-97668Y491893D01*
X-96589Y492035D01*
X-95583Y492452D01*
X-94719Y493115D01*
X-94057Y493978D01*
X-93981Y494162D01*
X-93481D01*
X-93405Y493978D01*
X-92742Y493115D01*
X-91878Y492452D01*
X-91299Y492212D01*
Y483168D01*
X-95559D01*
Y481130D01*
X-114943D01*
X-116536Y482724D01*
Y492682D01*
X-116088Y492903D01*
X-115500Y492452D01*
X-114495Y492035D01*
X-113916Y491959D01*
Y496062D01*
Y500167D01*
X-114495Y500090D01*
X-115500Y499674D01*
X-116088Y499223D01*
X-116536Y499444D01*
Y499559D01*
X-113495Y502600D01*
X-113114Y502443D01*
X-112138Y502314D01*
X-111161Y502443D01*
X-110252Y502820D01*
X-109470Y503419D01*
X-108871Y504200D01*
X-108494Y505110D01*
X-108365Y506087D01*
X-108494Y507063D01*
X-108871Y507973D01*
X-109470Y508754D01*
X-110252Y509354D01*
X-111161Y509730D01*
X-112138Y509859D01*
X-113114Y509730D01*
X-114024Y509354D01*
X-114805Y508754D01*
X-115405Y507973D01*
X-115782Y507063D01*
X-115910Y506087D01*
X-115782Y505110D01*
X-115624Y504729D01*
X-119106Y501247D01*
X-119432Y500759D01*
X-119547Y500183D01*
Y482100D01*
X-119432Y481524D01*
X-119106Y481036D01*
X-116630Y478560D01*
X-116142Y478234D01*
X-115566Y478119D01*
X-95559D01*
Y476081D01*
X-93104D01*
X-92912Y475619D01*
X-94164Y474367D01*
X-94491Y473879D01*
X-94523Y473719D01*
X-96240D01*
Y470175D01*
Y466632D01*
X-94605D01*
Y464600D01*
X-94491Y464024D01*
X-94164Y463536D01*
X-80805Y450176D01*
Y428500D01*
X-80691Y427924D01*
X-80364Y427436D01*
X-75634Y422705D01*
X-75669Y422622D01*
X-75777Y421800D01*
X-75669Y420978D01*
X-75351Y420212D01*
X-74846Y419554D01*
X-74188Y419049D01*
X-73422Y418731D01*
X-72600Y418623D01*
X-71778Y418731D01*
X-71012Y419049D01*
X-70912Y419125D01*
X-70464Y418904D01*
Y418415D01*
X-73573Y415305D01*
X-100646D01*
X-100680Y415388D01*
X-101185Y416046D01*
X-101843Y416551D01*
X-102609Y416868D01*
X-103431Y416977D01*
X-104254Y416868D01*
X-105020Y416551D01*
X-105678Y416046D01*
X-106183Y415388D01*
X-106500Y414622D01*
X-106608Y413800D01*
X-106500Y412978D01*
X-106183Y412212D01*
X-105678Y411554D01*
X-105020Y411049D01*
X-104254Y410732D01*
X-103431Y410623D01*
X-102609Y410732D01*
X-101843Y411049D01*
X-101185Y411554D01*
X-100680Y412212D01*
X-100646Y412295D01*
X-98315D01*
Y387066D01*
X-98777Y386874D01*
X-100067Y388164D01*
X-100555Y388491D01*
X-101131Y388605D01*
X-124608D01*
X-126644Y390642D01*
Y392055D01*
X-126091D01*
Y395501D01*
X-125091D01*
Y392055D01*
X-121260D01*
Y397143D01*
X-119908Y398495D01*
X-112159D01*
X-112083Y398312D01*
X-111578Y397654D01*
X-110920Y397149D01*
X-110154Y396831D01*
X-109332Y396723D01*
X-108509Y396831D01*
X-107743Y397149D01*
X-107085Y397654D01*
X-106580Y398312D01*
X-106263Y399078D01*
X-106155Y399900D01*
X-106263Y400722D01*
X-106580Y401488D01*
X-107085Y402146D01*
X-107743Y402651D01*
X-108509Y402969D01*
X-109332Y403077D01*
X-110154Y402969D01*
X-110920Y402651D01*
X-111578Y402146D01*
X-112070Y401505D01*
X-120531D01*
X-120873Y401437D01*
X-121260Y401755D01*
Y405777D01*
X-116371Y410666D01*
X-116288Y410632D01*
X-115465Y410523D01*
X-114643Y410632D01*
X-113877Y410949D01*
X-113219Y411454D01*
X-112714Y412112D01*
X-112397Y412878D01*
X-112289Y413700D01*
X-112397Y414522D01*
X-112714Y415288D01*
X-113219Y415946D01*
X-113877Y416451D01*
X-114643Y416769D01*
X-115465Y416877D01*
X-116288Y416769D01*
X-117054Y416451D01*
X-117712Y415946D01*
X-118217Y415288D01*
X-118534Y414522D01*
X-118642Y413700D01*
X-118534Y412878D01*
X-118500Y412795D01*
X-122180Y409114D01*
X-122642Y409306D01*
Y415543D01*
X-124326D01*
Y424177D01*
X-122908Y425595D01*
X-100200D01*
X-99624Y425709D01*
X-99136Y426036D01*
X-99136Y426036D01*
X-99136Y426036D01*
X-87205Y437966D01*
X-87122Y437931D01*
X-86300Y437823D01*
X-85478Y437931D01*
X-84712Y438249D01*
X-84054Y438754D01*
X-83549Y439412D01*
X-83232Y440178D01*
X-83123Y441000D01*
X-83232Y441822D01*
X-83549Y442588D01*
X-84054Y443246D01*
X-84712Y443751D01*
X-85478Y444068D01*
X-86300Y444177D01*
X-87122Y444068D01*
X-87454Y443931D01*
X-87834Y444256D01*
X-87693Y444843D01*
X-87535Y446850D01*
X-87693Y448858D01*
X-88163Y450817D01*
X-88934Y452677D01*
X-89986Y454394D01*
X-91294Y455926D01*
X-92826Y457234D01*
X-94543Y458286D01*
X-96404Y459057D01*
X-98362Y459527D01*
X-100370Y459685D01*
X-102378Y459527D01*
X-104336Y459057D01*
X-106197Y458286D01*
X-107914Y457234D01*
X-109446Y455926D01*
X-110754Y454394D01*
X-111806Y452677D01*
X-112577Y450817D01*
X-113047Y448858D01*
X-113205Y446850D01*
X-113047Y444843D01*
X-112577Y442884D01*
X-111806Y441023D01*
X-110754Y439306D01*
X-109446Y437775D01*
X-107914Y436467D01*
X-106197Y435415D01*
X-104336Y434644D01*
X-102378Y434174D01*
X-100370Y434016D01*
X-98362Y434174D01*
X-96404Y434644D01*
X-94824Y435298D01*
X-94547Y434882D01*
X-100823Y428605D01*
X-122908D01*
X-129026Y434724D01*
Y457266D01*
X-126398D01*
Y465534D01*
X-127837D01*
X-127998Y466007D01*
X-127583Y466326D01*
X-126921Y467189D01*
X-126504Y468195D01*
X-126362Y469274D01*
X-126504Y470353D01*
X-126921Y471359D01*
X-127583Y472222D01*
X-128447Y472885D01*
X-128630Y472961D01*
Y473461D01*
X-128447Y473537D01*
X-127583Y474200D01*
X-126921Y475063D01*
X-126504Y476069D01*
X-126362Y477148D01*
X-126504Y478227D01*
X-126921Y479233D01*
X-127583Y480096D01*
X-128447Y480759D01*
X-128630Y480835D01*
Y481335D01*
X-128447Y481411D01*
X-127583Y482074D01*
X-126921Y482937D01*
X-126504Y483943D01*
X-126428Y484522D01*
X-134635D01*
X-134559Y483943D01*
X-134142Y482937D01*
X-133480Y482074D01*
X-132616Y481411D01*
X-132432Y481335D01*
Y480835D01*
X-132616Y480759D01*
X-133480Y480096D01*
X-134142Y479233D01*
X-134559Y478227D01*
X-134701Y477148D01*
X-134559Y476069D01*
X-134142Y475063D01*
X-133480Y474200D01*
X-132616Y473537D01*
X-132433Y473461D01*
Y472961D01*
X-132616Y472885D01*
X-133480Y472222D01*
X-134142Y471359D01*
X-134559Y470353D01*
X-134701Y469274D01*
X-134559Y468195D01*
X-134142Y467189D01*
X-133480Y466326D01*
X-133065Y466007D01*
X-133226Y465534D01*
X-134665D01*
Y457266D01*
X-132037D01*
Y434100D01*
X-131922Y433524D01*
X-131596Y433036D01*
X-125660Y427100D01*
X-126896Y425864D01*
X-127222Y425376D01*
X-127337Y424800D01*
Y415543D01*
X-128547D01*
Y408457D01*
X-127096D01*
Y407803D01*
X-129921D01*
Y403239D01*
X-133096Y400064D01*
X-133422Y399576D01*
X-133537Y399000D01*
Y386390D01*
X-135075D01*
Y380484D01*
X-127988D01*
Y381995D01*
X-123075D01*
Y380547D01*
X-111264D01*
Y385595D01*
X-101755D01*
X-97137Y380977D01*
Y372051D01*
X-97585Y371830D01*
X-97743Y371951D01*
X-98509Y372269D01*
X-99331Y372377D01*
X-100154Y372269D01*
X-100920Y371951D01*
X-101578Y371446D01*
X-102083Y370788D01*
X-102158Y370605D01*
X-111264D01*
Y376453D01*
X-123075D01*
Y371902D01*
X-123523Y371681D01*
X-123745Y371851D01*
X-124511Y372168D01*
X-125333Y372277D01*
X-126155Y372168D01*
X-126921Y371851D01*
X-127579Y371346D01*
X-128084Y370688D01*
X-128402Y369922D01*
X-128510Y369100D01*
X-128402Y368278D01*
X-128084Y367512D01*
X-127579Y366854D01*
X-127183Y366549D01*
Y366049D01*
X-127578Y365746D01*
X-128083Y365088D01*
X-128147Y364932D01*
X-128638Y364835D01*
X-130026Y366224D01*
Y372610D01*
X-127988D01*
Y378516D01*
X-135075D01*
Y372610D01*
X-133037D01*
Y365600D01*
X-132922Y365024D01*
X-132596Y364536D01*
X-130196Y362136D01*
X-129708Y361809D01*
X-129131Y361695D01*
X-127916D01*
X-127578Y361254D01*
X-127259Y361009D01*
X-127419Y360535D01*
X-132220D01*
Y354630D01*
X-125134D01*
Y355961D01*
X-124644Y356058D01*
X-124583Y355912D01*
X-124078Y355254D01*
X-123420Y354749D01*
X-122654Y354432D01*
X-121832Y354323D01*
X-121009Y354432D01*
X-120243Y354749D01*
X-119585Y355254D01*
X-119080Y355912D01*
X-118911Y356321D01*
X-118411D01*
X-118283Y356012D01*
X-117778Y355354D01*
X-117120Y354849D01*
X-116354Y354532D01*
X-116032Y354489D01*
Y357601D01*
X-115533D01*
Y358100D01*
X-112421D01*
X-112463Y358422D01*
X-112780Y359188D01*
X-113285Y359846D01*
X-113943Y360351D01*
X-113904Y360547D01*
X-111264D01*
Y363000D01*
X-117170D01*
Y363499D01*
X-117669D01*
Y366453D01*
X-122779D01*
X-122919Y366635D01*
X-123050Y366901D01*
X-122582Y367512D01*
X-122547Y367595D01*
X-102070D01*
X-101578Y366954D01*
X-100920Y366449D01*
X-100154Y366131D01*
X-99331Y366023D01*
X-98509Y366131D01*
X-97743Y366449D01*
X-97585Y366570D01*
X-97137Y366349D01*
Y358086D01*
X-104009Y351214D01*
X-125134D01*
Y352661D01*
X-132220D01*
Y346756D01*
X-125134D01*
Y348203D01*
X-103386D01*
X-102810Y348318D01*
X-102321Y348644D01*
X-94567Y356399D01*
X-94241Y356887D01*
X-94126Y357463D01*
Y380977D01*
X-93108Y381995D01*
X-77799D01*
Y380547D01*
X-67001D01*
Y376453D01*
X-77799D01*
Y375005D01*
X-86500D01*
X-87076Y374891D01*
X-87564Y374564D01*
X-87767Y374261D01*
X-89195Y372833D01*
X-89278Y372868D01*
X-90100Y372976D01*
X-90922Y372868D01*
X-91688Y372550D01*
X-92346Y372045D01*
X-92851Y371388D01*
X-93168Y370621D01*
X-93277Y369799D01*
X-93168Y368977D01*
X-92851Y368211D01*
X-92346Y367553D01*
X-91688Y367048D01*
X-91605Y367014D01*
Y353024D01*
X-100624Y344005D01*
X-102210D01*
Y346043D01*
X-108116D01*
Y338957D01*
X-102210D01*
Y340995D01*
X-100000D01*
X-99424Y341109D01*
X-98936Y341436D01*
X-98936Y341436D01*
X-98936Y341436D01*
X-89036Y351336D01*
X-88709Y351824D01*
X-88595Y352400D01*
X-88595Y352400D01*
X-88595Y352400D01*
Y352400D01*
Y367014D01*
X-88512Y367048D01*
X-87854Y367553D01*
X-87665Y367798D01*
X-87165D01*
X-86978Y367554D01*
X-86320Y367049D01*
X-86237Y367014D01*
Y350963D01*
X-110497Y326702D01*
X-116935D01*
X-117511Y326588D01*
X-117999Y326261D01*
X-120781Y323479D01*
X-121107Y322991D01*
X-121222Y322415D01*
Y320523D01*
X-121553Y320386D01*
X-122314Y319802D01*
X-122653Y319360D01*
X-123126Y319521D01*
Y331900D01*
X-123241Y332476D01*
X-123567Y332964D01*
X-126697Y336095D01*
X-126663Y336178D01*
X-126555Y337000D01*
X-126663Y337822D01*
X-126980Y338588D01*
X-127260Y338953D01*
X-127010Y339386D01*
X-126532Y339323D01*
X-125709Y339432D01*
X-124943Y339749D01*
X-124285Y340254D01*
X-123780Y340912D01*
X-123746Y340995D01*
X-115990D01*
Y338957D01*
X-110084D01*
Y346043D01*
X-115990D01*
Y344005D01*
X-123746D01*
X-123780Y344088D01*
X-124285Y344746D01*
X-124943Y345251D01*
X-125709Y345568D01*
X-126532Y345677D01*
X-127354Y345568D01*
X-128120Y345251D01*
X-128778Y344746D01*
X-129283Y344088D01*
X-129600Y343322D01*
X-129708Y342500D01*
X-129600Y341678D01*
X-129283Y340912D01*
X-129003Y340547D01*
X-129253Y340114D01*
X-129732Y340177D01*
X-130554Y340069D01*
X-131320Y339751D01*
X-131978Y339246D01*
X-132483Y338588D01*
X-132800Y337822D01*
X-132908Y337000D01*
X-132800Y336178D01*
X-132483Y335412D01*
X-131978Y334754D01*
X-131320Y334249D01*
X-130554Y333931D01*
X-129732Y333823D01*
X-128909Y333931D01*
X-128826Y333966D01*
X-126137Y331276D01*
Y319299D01*
X-126610Y319139D01*
X-127119Y319802D01*
X-127880Y320386D01*
X-128766Y320753D01*
X-129217Y320812D01*
Y317204D01*
Y313597D01*
X-128766Y313657D01*
X-127880Y314024D01*
X-127119Y314607D01*
X-126610Y315271D01*
X-126137Y315110D01*
Y315000D01*
X-126022Y314424D01*
X-125696Y313936D01*
X-122996Y311236D01*
X-122508Y310909D01*
X-121932Y310795D01*
X-121798D01*
X-121637Y310321D01*
X-122314Y309802D01*
X-122898Y309041D01*
X-123265Y308155D01*
X-123390Y307205D01*
X-123265Y306254D01*
X-122898Y305368D01*
X-122314Y304607D01*
X-121553Y304024D01*
X-120667Y303657D01*
X-119717Y303532D01*
X-118766Y303657D01*
X-117880Y304024D01*
X-117119Y304607D01*
X-116535Y305368D01*
X-116169Y306254D01*
X-116043Y307205D01*
X-116169Y308155D01*
X-116535Y309041D01*
X-117119Y309802D01*
X-117880Y310386D01*
X-118766Y310753D01*
Y310753D01*
X-118763Y310795D01*
X-115435D01*
X-113127Y308487D01*
X-113265Y308155D01*
X-113390Y307205D01*
X-113265Y306254D01*
X-112898Y305368D01*
X-112314Y304607D01*
X-111553Y304024D01*
X-110667Y303657D01*
X-109716Y303532D01*
X-108766Y303657D01*
X-107880Y304024D01*
X-107119Y304607D01*
X-106535Y305368D01*
X-106169Y306254D01*
X-106043Y307205D01*
X-106169Y308155D01*
X-106535Y309041D01*
X-107119Y309802D01*
X-107880Y310386D01*
X-108766Y310753D01*
X-109716Y310878D01*
X-110667Y310753D01*
X-110998Y310615D01*
X-113747Y313364D01*
X-114236Y313691D01*
X-114812Y313805D01*
X-117387D01*
X-117548Y314279D01*
X-117119Y314607D01*
X-116535Y315368D01*
X-116169Y316254D01*
X-116043Y317205D01*
X-116169Y318155D01*
X-116535Y319041D01*
X-117119Y319802D01*
X-117880Y320386D01*
X-118211Y320523D01*
Y321791D01*
X-116311Y323692D01*
X-109874D01*
X-109298Y323806D01*
X-108810Y324132D01*
X-108810Y324132D01*
X-108810Y324132D01*
X-87305Y345638D01*
X-86843Y345446D01*
Y343020D01*
X-84390D01*
Y346063D01*
X-86226D01*
X-86417Y346525D01*
X-83667Y349275D01*
X-83341Y349763D01*
X-83226Y350339D01*
Y367014D01*
X-83143Y367049D01*
X-82485Y367554D01*
X-81980Y368212D01*
X-81663Y368978D01*
X-81555Y369800D01*
X-81663Y370622D01*
X-81980Y371388D01*
X-82102Y371546D01*
X-81880Y371995D01*
X-77799D01*
Y370547D01*
X-67001D01*
Y366453D01*
X-77799D01*
Y360547D01*
X-73584D01*
Y355541D01*
X-73667Y355507D01*
X-74325Y355002D01*
X-74830Y354344D01*
X-75147Y353578D01*
X-75256Y352756D01*
X-75147Y351934D01*
X-75113Y351851D01*
X-77080Y349883D01*
X-77407Y349395D01*
X-77521Y348819D01*
Y346063D01*
X-78969D01*
Y338976D01*
X-74893D01*
X-74702Y338514D01*
X-82085Y331131D01*
X-97295D01*
X-97871Y331017D01*
X-98360Y330690D01*
X-108435Y320616D01*
X-108766Y320753D01*
X-109716Y320878D01*
X-110667Y320753D01*
X-111553Y320386D01*
X-112314Y319802D01*
X-112898Y319041D01*
X-113265Y318155D01*
X-113390Y317205D01*
X-113265Y316254D01*
X-112898Y315368D01*
X-112314Y314607D01*
X-111553Y314024D01*
X-110667Y313657D01*
X-109716Y313532D01*
X-108766Y313657D01*
X-107880Y314024D01*
X-107119Y314607D01*
X-106535Y315368D01*
X-106169Y316254D01*
X-106043Y317205D01*
X-106169Y318155D01*
X-106306Y318487D01*
X-96682Y328110D01*
X-96189Y328029D01*
X-96013Y327672D01*
X-96090Y327573D01*
X-96407Y326806D01*
X-96515Y325984D01*
X-96407Y325162D01*
X-96090Y324396D01*
X-95585Y323738D01*
X-94927Y323233D01*
X-94161Y322916D01*
X-93339Y322808D01*
X-92516Y322916D01*
X-91750Y323233D01*
X-91092Y323738D01*
X-90587Y324396D01*
X-90553Y324479D01*
X-82319D01*
X-81743Y324593D01*
X-81466Y324779D01*
X-81025Y324543D01*
Y320604D01*
X-81553Y320386D01*
X-82314Y319802D01*
X-82898Y319041D01*
X-83264Y318155D01*
X-83390Y317205D01*
X-83264Y316254D01*
X-82898Y315368D01*
X-82314Y314607D01*
X-81553Y314024D01*
X-80667Y313657D01*
X-79716Y313532D01*
X-78766Y313657D01*
X-77880Y314024D01*
X-77119Y314607D01*
X-76535Y315368D01*
X-76169Y316254D01*
X-76043Y317205D01*
X-76169Y318155D01*
X-76535Y319041D01*
X-77119Y319802D01*
X-77880Y320386D01*
X-78014Y320441D01*
Y325377D01*
X-71684Y331707D01*
X-71222Y331516D01*
Y320523D01*
X-71553Y320386D01*
X-72314Y319802D01*
X-72898Y319041D01*
X-73264Y318155D01*
X-73390Y317205D01*
X-73264Y316254D01*
X-72898Y315368D01*
X-72314Y314607D01*
X-71607Y314065D01*
X-71768Y313592D01*
X-74835D01*
X-75411Y313477D01*
X-75899Y313151D01*
X-78435Y310615D01*
X-78766Y310753D01*
X-79716Y310878D01*
X-80667Y310753D01*
X-81553Y310386D01*
X-82314Y309802D01*
X-82898Y309041D01*
X-83264Y308155D01*
X-83390Y307205D01*
X-83264Y306254D01*
X-82898Y305368D01*
X-82314Y304607D01*
X-81553Y304024D01*
X-80667Y303657D01*
X-79716Y303532D01*
X-78766Y303657D01*
X-77880Y304024D01*
X-77119Y304607D01*
X-76535Y305368D01*
X-76169Y306254D01*
X-76043Y307205D01*
X-76169Y308155D01*
X-76306Y308487D01*
X-74211Y310581D01*
X-72076D01*
X-71915Y310108D01*
X-72314Y309802D01*
X-72898Y309041D01*
X-73264Y308155D01*
X-73324Y307705D01*
X-66109D01*
X-66169Y308155D01*
X-66536Y309041D01*
X-67119Y309802D01*
X-67880Y310386D01*
X-68421Y310610D01*
X-68412Y310696D01*
X-67924Y311022D01*
X-63536Y315411D01*
X-63447Y315543D01*
X-62950Y315494D01*
X-62898Y315368D01*
X-62314Y314607D01*
X-61553Y314024D01*
X-60667Y313657D01*
X-59716Y313532D01*
X-58766Y313657D01*
X-57880Y314024D01*
X-57119Y314607D01*
X-56536Y315368D01*
X-56169Y316254D01*
X-56043Y317205D01*
X-56169Y318155D01*
X-56536Y319041D01*
X-57119Y319802D01*
X-57880Y320386D01*
X-58211Y320523D01*
Y338134D01*
X-57835Y338463D01*
X-57531Y338423D01*
X-56709Y338531D01*
X-55943Y338849D01*
X-55285Y339354D01*
X-54780Y340012D01*
X-54463Y340778D01*
X-54355Y341600D01*
X-54463Y342422D01*
X-54780Y343188D01*
X-55285Y343846D01*
X-55943Y344351D01*
X-56709Y344669D01*
X-57531Y344777D01*
X-58039Y344710D01*
X-58261Y345158D01*
X-54475Y348944D01*
X-54149Y349432D01*
X-54034Y350008D01*
X-54034Y350008D01*
X-54034Y350008D01*
Y350008D01*
Y356103D01*
X-48325Y361812D01*
X-47999Y362300D01*
X-47885Y362876D01*
X-47884Y362876D01*
X-47885Y362876D01*
Y362876D01*
Y373495D01*
X-43730Y377649D01*
X-43268Y377458D01*
Y370063D01*
X-43268Y370063D01*
X-43268D01*
X-43154Y369487D01*
X-42827Y368999D01*
X-40064Y366236D01*
X-39576Y365909D01*
X-39000Y365795D01*
X-29190D01*
Y363757D01*
X-28508D01*
Y361507D01*
X-28936D01*
Y361507D01*
X-30700D01*
Y355601D01*
Y349696D01*
X-28936D01*
Y349696D01*
X-28936D01*
X-28936Y349696D01*
X-28464D01*
Y349696D01*
X-27705D01*
Y349300D01*
X-27591Y348724D01*
X-27264Y348236D01*
X-25664Y346636D01*
X-25176Y346309D01*
X-24600Y346195D01*
X-15800D01*
X-15224Y346309D01*
X-14736Y346636D01*
X-13676Y347695D01*
X-13349Y348184D01*
X-13235Y348760D01*
X-13235Y348760D01*
X-13235Y348760D01*
Y348760D01*
Y348957D01*
X-11787D01*
Y355030D01*
X-10870D01*
X-9819Y353979D01*
Y348957D01*
X-9243D01*
X-9007Y348516D01*
X-9098Y348379D01*
X-9117Y348283D01*
X-9213Y347800D01*
X-9264Y347790D01*
X-11243D01*
Y341884D01*
X-4925D01*
Y339916D01*
X-7200D01*
Y336962D01*
Y334010D01*
X-4925D01*
Y332543D01*
X-6594D01*
Y328999D01*
Y325457D01*
X-4925D01*
Y302980D01*
X-137627D01*
Y510800D01*
X-100461D01*
X-100269Y510338D01*
D02*
G37*
G36*
X-21632Y497447D02*
X-21667Y497364D01*
X-21775Y496542D01*
X-21667Y495719D01*
X-21350Y494953D01*
X-20845Y494295D01*
X-20187Y493791D01*
X-19421Y493473D01*
X-18598Y493365D01*
X-17776Y493473D01*
X-17010Y493791D01*
X-16596Y494109D01*
X-16147Y493888D01*
Y483406D01*
X-16746Y482946D01*
X-17251Y482288D01*
X-17569Y481522D01*
X-17677Y480700D01*
X-17569Y479878D01*
X-17251Y479112D01*
X-16746Y478454D01*
X-16088Y477949D01*
X-15322Y477632D01*
X-14500Y477523D01*
X-13678Y477632D01*
X-12912Y477949D01*
X-12254Y478454D01*
X-11749Y479112D01*
X-11432Y479878D01*
X-11323Y480700D01*
X-11432Y481522D01*
X-11749Y482288D01*
X-12254Y482946D01*
X-12912Y483451D01*
X-13136Y483544D01*
Y484804D01*
X-12688Y485025D01*
X-12588Y484949D01*
X-11822Y484631D01*
X-11000Y484523D01*
X-10178Y484631D01*
X-9412Y484949D01*
X-8754Y485454D01*
X-8249Y486112D01*
X-7931Y486878D01*
X-7823Y487700D01*
X-7931Y488522D01*
X-8249Y489288D01*
X-8754Y489946D01*
X-9412Y490451D01*
X-9537Y490503D01*
Y491904D01*
X-9088Y492125D01*
X-8988Y492049D01*
X-8222Y491732D01*
X-7400Y491623D01*
X-6578Y491732D01*
X-5812Y492049D01*
X-5373Y492385D01*
X-4925Y492164D01*
Y461533D01*
X-5373Y461312D01*
X-6271Y462001D01*
X-7420Y462477D01*
X-8153Y462573D01*
Y457873D01*
Y453175D01*
X-7420Y453271D01*
X-6271Y453747D01*
X-5373Y454436D01*
X-4925Y454215D01*
Y441848D01*
X-5373Y441627D01*
X-6271Y442316D01*
X-7420Y442792D01*
X-8153Y442888D01*
Y438188D01*
Y433490D01*
X-7420Y433586D01*
X-6271Y434062D01*
X-5373Y434751D01*
X-4925Y434530D01*
Y417439D01*
X-5373Y417217D01*
X-6271Y417906D01*
X-7420Y418382D01*
X-8153Y418479D01*
Y413778D01*
Y409080D01*
X-7420Y409177D01*
X-6271Y409653D01*
X-5373Y410342D01*
X-4925Y410121D01*
Y397753D01*
X-5373Y397532D01*
X-6271Y398221D01*
X-7420Y398697D01*
X-8153Y398794D01*
Y394093D01*
Y389395D01*
X-7420Y389492D01*
X-6271Y389968D01*
X-5373Y390657D01*
X-4925Y390436D01*
Y383930D01*
X-9000D01*
Y378909D01*
Y373891D01*
X-4925D01*
Y372709D01*
X-14913D01*
Y370843D01*
X-15410D01*
Y370843D01*
X-21316D01*
Y363757D01*
X-15410D01*
Y363757D01*
X-15267D01*
X-14913Y363403D01*
Y362670D01*
X-12440D01*
X-12219Y362222D01*
X-12351Y362049D01*
X-12668Y361283D01*
X-12777Y360461D01*
X-12668Y359638D01*
X-12351Y358872D01*
X-12069Y358505D01*
X-12291Y358057D01*
X-18936D01*
Y361507D01*
X-23464D01*
Y361507D01*
X-23538D01*
X-23892Y361861D01*
Y363757D01*
X-23284D01*
Y370843D01*
X-29190D01*
Y368805D01*
X-38377D01*
X-40258Y370687D01*
Y405882D01*
X-40372Y406458D01*
X-40699Y406946D01*
X-43259Y409506D01*
X-43608Y409740D01*
X-49248Y415379D01*
X-49056Y415841D01*
X-44632D01*
Y420959D01*
X-46381D01*
X-46542Y421432D01*
X-46254Y421654D01*
X-45749Y422312D01*
X-45432Y423078D01*
X-45323Y423900D01*
X-45432Y424722D01*
X-45749Y425488D01*
X-46254Y426146D01*
X-46912Y426651D01*
X-47678Y426968D01*
X-48500Y427077D01*
X-49322Y426968D01*
X-50088Y426651D01*
X-50746Y426146D01*
X-50746Y426146D01*
X-51195Y426368D01*
Y426500D01*
X-51309Y427076D01*
X-51636Y427564D01*
X-64266Y440195D01*
X-64231Y440278D01*
X-64123Y441100D01*
X-64231Y441922D01*
X-64549Y442688D01*
X-65054Y443346D01*
X-65712Y443851D01*
X-66478Y444169D01*
X-67300Y444277D01*
X-68122Y444169D01*
X-68888Y443851D01*
X-69546Y443346D01*
X-70051Y442688D01*
X-70368Y441922D01*
X-70477Y441100D01*
X-70368Y440278D01*
X-70051Y439512D01*
X-69546Y438854D01*
X-68888Y438349D01*
X-68122Y438031D01*
X-67300Y437923D01*
X-66478Y438031D01*
X-66395Y438066D01*
X-54205Y425877D01*
Y424699D01*
X-57124D01*
Y422139D01*
Y419581D01*
X-54205D01*
Y417219D01*
X-61168D01*
Y412101D01*
X-59130D01*
Y399924D01*
X-59015Y399348D01*
X-58689Y398860D01*
X-51724Y391895D01*
X-51981Y391466D01*
X-52499Y391624D01*
X-54024Y391774D01*
X-55548Y391624D01*
X-57014Y391179D01*
X-58364Y390457D01*
X-59548Y389485D01*
X-60520Y388301D01*
X-61242Y386951D01*
X-61528Y386009D01*
X-62022Y386083D01*
Y423446D01*
X-62137Y424021D01*
X-62463Y424510D01*
X-71889Y433936D01*
Y453448D01*
X-72004Y454024D01*
X-72330Y454512D01*
X-77757Y459939D01*
Y494914D01*
X-77218Y495453D01*
X-62091D01*
X-61515Y495568D01*
X-61027Y495894D01*
X-55966Y500955D01*
X-25141D01*
X-21632Y497447D01*
D02*
G37*
%LPC*%
G36*
X-10000Y378410D02*
X-14913D01*
Y373891D01*
X-10000D01*
Y378410D01*
D02*
G37*
G36*
X-15489Y374800D02*
X-18100D01*
Y372189D01*
X-17778Y372232D01*
X-17012Y372549D01*
X-16354Y373054D01*
X-15849Y373712D01*
X-15531Y374478D01*
X-15489Y374800D01*
D02*
G37*
G36*
X-10000Y383930D02*
X-14913D01*
Y379410D01*
X-10000D01*
Y383930D01*
D02*
G37*
G36*
X-18100Y378411D02*
Y375800D01*
X-15489D01*
X-15531Y376122D01*
X-15849Y376888D01*
X-16354Y377546D01*
X-17012Y378051D01*
X-17778Y378368D01*
X-18100Y378411D01*
D02*
G37*
G36*
X-19100D02*
X-19422Y378368D01*
X-20188Y378051D01*
X-20846Y377546D01*
X-21351Y376888D01*
X-21668Y376122D01*
X-21711Y375800D01*
X-19100D01*
Y378411D01*
D02*
G37*
G36*
Y374800D02*
X-21711D01*
X-21668Y374478D01*
X-21351Y373712D01*
X-20846Y373054D01*
X-20188Y372549D01*
X-19422Y372232D01*
X-19100Y372189D01*
Y374800D01*
D02*
G37*
G36*
X-80937Y346063D02*
X-83390D01*
Y343020D01*
X-80937D01*
Y346063D01*
D02*
G37*
G36*
Y342020D02*
X-83390D01*
Y338976D01*
X-80937D01*
Y342020D01*
D02*
G37*
G36*
X-84390D02*
X-86843D01*
Y338976D01*
X-84390D01*
Y342020D01*
D02*
G37*
G36*
X-111264Y366453D02*
X-116669D01*
Y364000D01*
X-111264D01*
Y366453D01*
D02*
G37*
G36*
X-33936Y361507D02*
Y361507D01*
X-38464D01*
D01*
D01*
X-38464Y361507D01*
X-38936D01*
Y361507D01*
X-43464D01*
Y355824D01*
X-43508Y355602D01*
Y349600D01*
X-43332Y348717D01*
X-42832Y347968D01*
X-40708Y345844D01*
Y344369D01*
X-40532Y343485D01*
X-40532Y343485D01*
X-40532Y343485D01*
X-40032Y342736D01*
X-37664Y340368D01*
X-36915Y339868D01*
X-36768Y339838D01*
X-36031Y339692D01*
X-22488D01*
X-17277Y334481D01*
Y332543D01*
X-17921D01*
Y325457D01*
X-16806D01*
Y320127D01*
X-17255Y319906D01*
X-17880Y320386D01*
X-18766Y320753D01*
X-19716Y320878D01*
X-20667Y320753D01*
X-21553Y320386D01*
X-22314Y319802D01*
X-22898Y319041D01*
X-23265Y318155D01*
X-23390Y317205D01*
X-23265Y316254D01*
X-22898Y315368D01*
X-22314Y314607D01*
X-21553Y314024D01*
X-20667Y313657D01*
X-19716Y313532D01*
X-18766Y313657D01*
X-17880Y314024D01*
X-17255Y314504D01*
X-16806Y314282D01*
Y313040D01*
X-19056Y310791D01*
X-19716Y310878D01*
X-20667Y310753D01*
X-21553Y310386D01*
X-22314Y309802D01*
X-22898Y309041D01*
X-23265Y308155D01*
X-23390Y307205D01*
X-23265Y306254D01*
X-22898Y305368D01*
X-22314Y304607D01*
X-21553Y304024D01*
X-20667Y303657D01*
X-19716Y303532D01*
X-18766Y303657D01*
X-17880Y304024D01*
X-17119Y304607D01*
X-16535Y305368D01*
X-16169Y306254D01*
X-16043Y307205D01*
X-16085Y307518D01*
X-14598Y309004D01*
X-13321Y307726D01*
X-13390Y307205D01*
X-13264Y306254D01*
X-12898Y305368D01*
X-12314Y304607D01*
X-11553Y304024D01*
X-10667Y303657D01*
X-9717Y303532D01*
X-8766Y303657D01*
X-7880Y304024D01*
X-7119Y304607D01*
X-6536Y305368D01*
X-6168Y306254D01*
X-6043Y307205D01*
X-6168Y308155D01*
X-6536Y309041D01*
X-7119Y309802D01*
X-7880Y310386D01*
X-8766Y310753D01*
X-9717Y310878D01*
X-10169Y310818D01*
X-12391Y313040D01*
Y313563D01*
X-6075D01*
Y320847D01*
X-12391D01*
Y325457D01*
X-12016D01*
Y327637D01*
X-11897Y328236D01*
X-12016Y328835D01*
Y332543D01*
X-12660D01*
Y335437D01*
X-12836Y336320D01*
X-13336Y337069D01*
X-19899Y343632D01*
X-20648Y344132D01*
X-21531Y344308D01*
X-35075D01*
X-36092Y345324D01*
Y345844D01*
X-34568Y347368D01*
X-34068Y348117D01*
X-33892Y349000D01*
Y349696D01*
X-33464D01*
Y349696D01*
X-31700D01*
Y355601D01*
Y361507D01*
X-33464D01*
D01*
D01*
X-33464Y361507D01*
X-33936D01*
D02*
G37*
G36*
X-112421Y357100D02*
X-115032D01*
Y354489D01*
X-114709Y354532D01*
X-113943Y354849D01*
X-113285Y355354D01*
X-112780Y356012D01*
X-112463Y356778D01*
X-112421Y357100D01*
D02*
G37*
G36*
X-28839Y393595D02*
X-33038D01*
X-32941Y392861D01*
X-32465Y391712D01*
X-31708Y390725D01*
X-30721Y389968D01*
X-29572Y389492D01*
X-28839Y389395D01*
Y393595D01*
D02*
G37*
G36*
X-23639Y413279D02*
X-27839D01*
Y409080D01*
X-27105Y409177D01*
X-25956Y409653D01*
X-24969Y410410D01*
X-24212Y411397D01*
X-23736Y412546D01*
X-23639Y413279D01*
D02*
G37*
G36*
X-28839D02*
X-33038D01*
X-32941Y412546D01*
X-32465Y411397D01*
X-31708Y410410D01*
X-30721Y409653D01*
X-29572Y409177D01*
X-28839Y409080D01*
Y413279D01*
D02*
G37*
G36*
X-130516Y411500D02*
X-132968D01*
Y408457D01*
X-130516D01*
Y411500D01*
D02*
G37*
G36*
Y415543D02*
X-132968D01*
Y412500D01*
X-130516D01*
Y415543D01*
D02*
G37*
G36*
X-133968D02*
X-136421D01*
Y412500D01*
X-133968D01*
Y415543D01*
D02*
G37*
G36*
X-9154Y413279D02*
X-13353D01*
X-13256Y412546D01*
X-12780Y411397D01*
X-12023Y410410D01*
X-11036Y409653D01*
X-9887Y409177D01*
X-9154Y409080D01*
Y413279D01*
D02*
G37*
G36*
X-133968Y411500D02*
X-136421D01*
Y408457D01*
X-133968D01*
Y411500D01*
D02*
G37*
G36*
X-28839Y398794D02*
X-29572Y398697D01*
X-30721Y398221D01*
X-31708Y397464D01*
X-32465Y396477D01*
X-32941Y395328D01*
X-33038Y394595D01*
X-28839D01*
Y398794D01*
D02*
G37*
G36*
X-9154Y393595D02*
X-13353D01*
X-13256Y392861D01*
X-12780Y391712D01*
X-12023Y390725D01*
X-11036Y389968D01*
X-9887Y389492D01*
X-9154Y389395D01*
Y393595D01*
D02*
G37*
G36*
X-23639D02*
X-27839D01*
Y389395D01*
X-27105Y389492D01*
X-25956Y389968D01*
X-24969Y390725D01*
X-24212Y391712D01*
X-23736Y392861D01*
X-23639Y393595D01*
D02*
G37*
G36*
X-18496Y408404D02*
X-19652Y408252D01*
X-20730Y407806D01*
X-21655Y407096D01*
X-22365Y406171D01*
X-22811Y405093D01*
X-22963Y403937D01*
X-22811Y402781D01*
X-22365Y401703D01*
X-21655Y400778D01*
X-20730Y400068D01*
X-19652Y399622D01*
X-18496Y399470D01*
X-17340Y399622D01*
X-16262Y400068D01*
X-15337Y400778D01*
X-14627Y401703D01*
X-14181Y402781D01*
X-14029Y403937D01*
X-14181Y405093D01*
X-14627Y406171D01*
X-15337Y407096D01*
X-16262Y407806D01*
X-17340Y408252D01*
X-18496Y408404D01*
D02*
G37*
G36*
X-9154Y398794D02*
X-9887Y398697D01*
X-11036Y398221D01*
X-12023Y397464D01*
X-12780Y396477D01*
X-13256Y395328D01*
X-13353Y394595D01*
X-9154D01*
Y398794D01*
D02*
G37*
G36*
X-27839D02*
Y394595D01*
X-23639D01*
X-23736Y395328D01*
X-24212Y396477D01*
X-24969Y397464D01*
X-25956Y398221D01*
X-27105Y398697D01*
X-27839Y398794D01*
D02*
G37*
G36*
X-100216Y310812D02*
X-100667Y310753D01*
X-101553Y310386D01*
X-102314Y309802D01*
X-102898Y309041D01*
X-103264Y308155D01*
X-103324Y307705D01*
X-100216D01*
Y310812D01*
D02*
G37*
G36*
X-26109Y306705D02*
X-29217D01*
Y303597D01*
X-28766Y303657D01*
X-27880Y304024D01*
X-27119Y304607D01*
X-26535Y305368D01*
X-26169Y306254D01*
X-26109Y306705D01*
D02*
G37*
G36*
X-30217D02*
X-33324D01*
X-33264Y306254D01*
X-32898Y305368D01*
X-32314Y304607D01*
X-31553Y304024D01*
X-30667Y303657D01*
X-30217Y303597D01*
Y306705D01*
D02*
G37*
G36*
X-29217Y310812D02*
Y307705D01*
X-26109D01*
X-26169Y308155D01*
X-26535Y309041D01*
X-27119Y309802D01*
X-27880Y310386D01*
X-28766Y310753D01*
X-29217Y310812D01*
D02*
G37*
G36*
X-30217D02*
X-30667Y310753D01*
X-31553Y310386D01*
X-32314Y309802D01*
X-32898Y309041D01*
X-33264Y308155D01*
X-33324Y307705D01*
X-30217D01*
Y310812D01*
D02*
G37*
G36*
X-99217D02*
Y307705D01*
X-96109D01*
X-96169Y308155D01*
X-96535Y309041D01*
X-97119Y309802D01*
X-97880Y310386D01*
X-98766Y310753D01*
X-99217Y310812D01*
D02*
G37*
G36*
X-66109Y306705D02*
X-69217D01*
Y303597D01*
X-68766Y303657D01*
X-67880Y304024D01*
X-67119Y304607D01*
X-66536Y305368D01*
X-66169Y306254D01*
X-66109Y306705D01*
D02*
G37*
G36*
X-59716Y310878D02*
X-60667Y310753D01*
X-61553Y310386D01*
X-62314Y309802D01*
X-62898Y309041D01*
X-63265Y308155D01*
X-63390Y307205D01*
X-63265Y306254D01*
X-62898Y305368D01*
X-62314Y304607D01*
X-61553Y304024D01*
X-60667Y303657D01*
X-59716Y303532D01*
X-58766Y303657D01*
X-57880Y304024D01*
X-57119Y304607D01*
X-56536Y305368D01*
X-56169Y306254D01*
X-56043Y307205D01*
X-56169Y308155D01*
X-56536Y309041D01*
X-57119Y309802D01*
X-57880Y310386D01*
X-58766Y310753D01*
X-59716Y310878D01*
D02*
G37*
G36*
X-89717D02*
X-90667Y310753D01*
X-91553Y310386D01*
X-92314Y309802D01*
X-92898Y309041D01*
X-93265Y308155D01*
X-93390Y307205D01*
X-93265Y306254D01*
X-92898Y305368D01*
X-92314Y304607D01*
X-91553Y304024D01*
X-90667Y303657D01*
X-89717Y303532D01*
X-88766Y303657D01*
X-87880Y304024D01*
X-87119Y304607D01*
X-86536Y305368D01*
X-86169Y306254D01*
X-86043Y307205D01*
X-86169Y308155D01*
X-86536Y309041D01*
X-87119Y309802D01*
X-87880Y310386D01*
X-88766Y310753D01*
X-89717Y310878D01*
D02*
G37*
G36*
X-129717D02*
X-130667Y310753D01*
X-131553Y310386D01*
X-132314Y309802D01*
X-132898Y309041D01*
X-133265Y308155D01*
X-133390Y307205D01*
X-133265Y306254D01*
X-132898Y305368D01*
X-132314Y304607D01*
X-131553Y304024D01*
X-130667Y303657D01*
X-129717Y303532D01*
X-128766Y303657D01*
X-127880Y304024D01*
X-127119Y304607D01*
X-126535Y305368D01*
X-126169Y306254D01*
X-126043Y307205D01*
X-126169Y308155D01*
X-126535Y309041D01*
X-127119Y309802D01*
X-127880Y310386D01*
X-128766Y310753D01*
X-129717Y310878D01*
D02*
G37*
G36*
X-70217Y306705D02*
X-73324D01*
X-73264Y306254D01*
X-72898Y305368D01*
X-72314Y304607D01*
X-71553Y304024D01*
X-70667Y303657D01*
X-70217Y303597D01*
Y306705D01*
D02*
G37*
G36*
X-96109D02*
X-99217D01*
Y303597D01*
X-98766Y303657D01*
X-97880Y304024D01*
X-97119Y304607D01*
X-96535Y305368D01*
X-96169Y306254D01*
X-96109Y306705D01*
D02*
G37*
G36*
X-100216D02*
X-103324D01*
X-103264Y306254D01*
X-102898Y305368D01*
X-102314Y304607D01*
X-101553Y304024D01*
X-100667Y303657D01*
X-100216Y303597D01*
Y306705D01*
D02*
G37*
G36*
X-41400Y341177D02*
X-42222Y341069D01*
X-42988Y340751D01*
X-43646Y340246D01*
X-44151Y339588D01*
X-44469Y338822D01*
X-44577Y338000D01*
X-44469Y337178D01*
X-44151Y336412D01*
X-43690Y335811D01*
X-43820Y335328D01*
X-44488Y335051D01*
X-45146Y334546D01*
X-45651Y333888D01*
X-45968Y333122D01*
X-46077Y332300D01*
X-45968Y331478D01*
X-45934Y331395D01*
X-45975Y331354D01*
X-46301Y330865D01*
X-46416Y330289D01*
Y329663D01*
X-46889Y329503D01*
X-47119Y329802D01*
X-47880Y330386D01*
X-48766Y330753D01*
X-49716Y330878D01*
X-50667Y330753D01*
X-51553Y330386D01*
X-52314Y329802D01*
X-52898Y329041D01*
X-53264Y328155D01*
X-53390Y327205D01*
X-53264Y326254D01*
X-52898Y325368D01*
X-52314Y324607D01*
X-51553Y324024D01*
X-50667Y323657D01*
X-49716Y323532D01*
X-48766Y323657D01*
X-47880Y324024D01*
X-47119Y324607D01*
X-46889Y324907D01*
X-46416Y324746D01*
Y319663D01*
X-46889Y319502D01*
X-47119Y319802D01*
X-47880Y320386D01*
X-48766Y320753D01*
X-49216Y320812D01*
Y317204D01*
Y313597D01*
X-48766Y313657D01*
X-47880Y314024D01*
X-47119Y314607D01*
X-46889Y314907D01*
X-46416Y314746D01*
Y312634D01*
X-48435Y310615D01*
X-48766Y310753D01*
X-49716Y310878D01*
X-50667Y310753D01*
X-51553Y310386D01*
X-52314Y309802D01*
X-52898Y309041D01*
X-53264Y308155D01*
X-53390Y307205D01*
X-53264Y306254D01*
X-52898Y305368D01*
X-52314Y304607D01*
X-51553Y304024D01*
X-50667Y303657D01*
X-49716Y303532D01*
X-48766Y303657D01*
X-47880Y304024D01*
X-47119Y304607D01*
X-46536Y305368D01*
X-46169Y306254D01*
X-46043Y307205D01*
X-46169Y308155D01*
X-46306Y308487D01*
X-43846Y310946D01*
X-43520Y311435D01*
X-43405Y312011D01*
X-43405Y312011D01*
X-43405Y312011D01*
Y312011D01*
Y315313D01*
X-42915Y315410D01*
X-42898Y315368D01*
X-42314Y314607D01*
X-41553Y314024D01*
X-40667Y313657D01*
X-39717Y313532D01*
X-38766Y313657D01*
X-37880Y314024D01*
X-37119Y314607D01*
X-36710Y315140D01*
X-36237Y314980D01*
Y312813D01*
X-38435Y310615D01*
X-38766Y310753D01*
X-39717Y310878D01*
X-40667Y310753D01*
X-41553Y310386D01*
X-42314Y309802D01*
X-42898Y309041D01*
X-43264Y308155D01*
X-43390Y307205D01*
X-43264Y306254D01*
X-42898Y305368D01*
X-42314Y304607D01*
X-41553Y304024D01*
X-40667Y303657D01*
X-39717Y303532D01*
X-38766Y303657D01*
X-37880Y304024D01*
X-37119Y304607D01*
X-36536Y305368D01*
X-36169Y306254D01*
X-36043Y307205D01*
X-36169Y308155D01*
X-36306Y308487D01*
X-33667Y311125D01*
X-33341Y311614D01*
X-33226Y312190D01*
X-33226Y312190D01*
X-33226Y312190D01*
Y312190D01*
Y315019D01*
X-32753Y315179D01*
X-32314Y314607D01*
X-31553Y314024D01*
X-30667Y313657D01*
X-29717Y313532D01*
X-28766Y313657D01*
X-27880Y314024D01*
X-27119Y314607D01*
X-26535Y315368D01*
X-26169Y316254D01*
X-26043Y317205D01*
X-26169Y318155D01*
X-26535Y319041D01*
X-27119Y319802D01*
X-27880Y320386D01*
X-28766Y320753D01*
X-29717Y320878D01*
X-30667Y320753D01*
X-31553Y320386D01*
X-32314Y319802D01*
X-32753Y319230D01*
X-33226Y319391D01*
Y320500D01*
X-33341Y321076D01*
X-33667Y321564D01*
X-36534Y324431D01*
X-36342Y324893D01*
X-31700D01*
Y330797D01*
Y336704D01*
X-38048D01*
X-38194Y336923D01*
X-38366Y337095D01*
X-38331Y337178D01*
X-38223Y338000D01*
X-38331Y338822D01*
X-38649Y339588D01*
X-39154Y340246D01*
X-39812Y340751D01*
X-40578Y341069D01*
X-41400Y341177D01*
D02*
G37*
G36*
X-7594Y332543D02*
X-10047D01*
Y329500D01*
X-7594D01*
Y332543D01*
D02*
G37*
G36*
Y328500D02*
X-10047D01*
Y325457D01*
X-7594D01*
Y328500D01*
D02*
G37*
G36*
X-8200Y339916D02*
X-11243D01*
Y337463D01*
X-8200D01*
Y339916D01*
D02*
G37*
G36*
Y336463D02*
X-11243D01*
Y334010D01*
X-8200D01*
Y336463D01*
D02*
G37*
G36*
X-23720Y336704D02*
X-30700D01*
Y331298D01*
X-23720D01*
Y336704D01*
D02*
G37*
G36*
Y330298D02*
X-30700D01*
Y324893D01*
X-23720D01*
Y330298D01*
D02*
G37*
G36*
X-130217Y316705D02*
X-133324D01*
X-133265Y316254D01*
X-132898Y315368D01*
X-132314Y314607D01*
X-131553Y314024D01*
X-130667Y313657D01*
X-130217Y313597D01*
Y316705D01*
D02*
G37*
G36*
X-89717Y320878D02*
X-90667Y320753D01*
X-91553Y320386D01*
X-92314Y319802D01*
X-92898Y319041D01*
X-93265Y318155D01*
X-93390Y317205D01*
X-93265Y316254D01*
X-92898Y315368D01*
X-92314Y314607D01*
X-91553Y314024D01*
X-90667Y313657D01*
X-89717Y313532D01*
X-88766Y313657D01*
X-87880Y314024D01*
X-87119Y314607D01*
X-86536Y315368D01*
X-86169Y316254D01*
X-86043Y317205D01*
X-86169Y318155D01*
X-86536Y319041D01*
X-87119Y319802D01*
X-87880Y320386D01*
X-88766Y320753D01*
X-89717Y320878D01*
D02*
G37*
G36*
X-99717D02*
X-100667Y320753D01*
X-101553Y320386D01*
X-102314Y319802D01*
X-102898Y319041D01*
X-103264Y318155D01*
X-103390Y317205D01*
X-103264Y316254D01*
X-102898Y315368D01*
X-102314Y314607D01*
X-101553Y314024D01*
X-100667Y313657D01*
X-99717Y313532D01*
X-98766Y313657D01*
X-97880Y314024D01*
X-97119Y314607D01*
X-96535Y315368D01*
X-96169Y316254D01*
X-96043Y317205D01*
X-96169Y318155D01*
X-96535Y319041D01*
X-97119Y319802D01*
X-97880Y320386D01*
X-98766Y320753D01*
X-99717Y320878D01*
D02*
G37*
G36*
X-50217Y320812D02*
X-50667Y320753D01*
X-51553Y320386D01*
X-52314Y319802D01*
X-52898Y319041D01*
X-53264Y318155D01*
X-53324Y317705D01*
X-50217D01*
Y320812D01*
D02*
G37*
G36*
X-130217D02*
X-130667Y320753D01*
X-131553Y320386D01*
X-132314Y319802D01*
X-132898Y319041D01*
X-133265Y318155D01*
X-133324Y317705D01*
X-130217D01*
Y320812D01*
D02*
G37*
G36*
X-50217Y316705D02*
X-53324D01*
X-53264Y316254D01*
X-52898Y315368D01*
X-52314Y314607D01*
X-51553Y314024D01*
X-50667Y313657D01*
X-50217Y313597D01*
Y316705D01*
D02*
G37*
G36*
X-47189Y466500D02*
X-49800D01*
Y463889D01*
X-49478Y463932D01*
X-48712Y464249D01*
X-48054Y464754D01*
X-47549Y465412D01*
X-47232Y466178D01*
X-47189Y466500D01*
D02*
G37*
G36*
X-50800D02*
X-53411D01*
X-53369Y466178D01*
X-53051Y465412D01*
X-52546Y464754D01*
X-51888Y464249D01*
X-51122Y463932D01*
X-50800Y463889D01*
Y466500D01*
D02*
G37*
G36*
X-9154Y462573D02*
X-9887Y462477D01*
X-11036Y462001D01*
X-12023Y461243D01*
X-12780Y460257D01*
X-13256Y459107D01*
X-13353Y458374D01*
X-9154D01*
Y462573D01*
D02*
G37*
G36*
X-49800Y470111D02*
Y467500D01*
X-47189D01*
X-47232Y467822D01*
X-47549Y468588D01*
X-48054Y469246D01*
X-48712Y469751D01*
X-49478Y470069D01*
X-49800Y470111D01*
D02*
G37*
G36*
X-50800D02*
X-51122Y470069D01*
X-51888Y469751D01*
X-52546Y469246D01*
X-53051Y468588D01*
X-53369Y467822D01*
X-53411Y467500D01*
X-50800D01*
Y470111D01*
D02*
G37*
G36*
X-97240Y469676D02*
X-99299D01*
Y466632D01*
X-97240D01*
Y469676D01*
D02*
G37*
G36*
X-27839Y462573D02*
Y458374D01*
X-23639D01*
X-23736Y459107D01*
X-24212Y460257D01*
X-24969Y461243D01*
X-25956Y462001D01*
X-27105Y462477D01*
X-27839Y462573D01*
D02*
G37*
G36*
X-47188Y457374D02*
X-49799D01*
Y454763D01*
X-49477Y454806D01*
X-48711Y455123D01*
X-48053Y455628D01*
X-47548Y456286D01*
X-47231Y457052D01*
X-47188Y457374D01*
D02*
G37*
G36*
X-50799D02*
X-53410D01*
X-53368Y457052D01*
X-53050Y456286D01*
X-52545Y455628D01*
X-51888Y455123D01*
X-51121Y454806D01*
X-50799Y454763D01*
Y457374D01*
D02*
G37*
G36*
X-9154D02*
X-13353D01*
X-13256Y456641D01*
X-12780Y455491D01*
X-12023Y454504D01*
X-11036Y453747D01*
X-9887Y453271D01*
X-9154Y453175D01*
Y457374D01*
D02*
G37*
G36*
X-28839Y462573D02*
X-29572Y462477D01*
X-30721Y462001D01*
X-31708Y461243D01*
X-32465Y460257D01*
X-32941Y459107D01*
X-33038Y458374D01*
X-28839D01*
Y462573D01*
D02*
G37*
G36*
X-49799Y460985D02*
Y458374D01*
X-47188D01*
X-47231Y458696D01*
X-47548Y459462D01*
X-48053Y460120D01*
X-48711Y460625D01*
X-49477Y460943D01*
X-49799Y460985D01*
D02*
G37*
G36*
X-50799D02*
X-51121Y460943D01*
X-51888Y460625D01*
X-52545Y460120D01*
X-53050Y459462D01*
X-53368Y458696D01*
X-53410Y458374D01*
X-50799D01*
Y460985D01*
D02*
G37*
G36*
X-45571Y498959D02*
X-48513D01*
Y496017D01*
X-48474Y496309D01*
X-45863D01*
Y498921D01*
X-45571Y498959D01*
D02*
G37*
G36*
X-39957D02*
X-45155D01*
X-44863Y498921D01*
Y495808D01*
X-45362D01*
Y495309D01*
X-48474D01*
X-48513Y495602D01*
Y490404D01*
X-39957D01*
Y495808D01*
Y498921D01*
Y498959D01*
D02*
G37*
G36*
X-33760D02*
X-38958D01*
Y498921D01*
Y495808D01*
Y490404D01*
X-30402D01*
Y495602D01*
X-30441Y495309D01*
X-33553D01*
Y495808D01*
X-34052D01*
Y498921D01*
X-33760Y498959D01*
D02*
G37*
G36*
X-104237Y509543D02*
X-106690D01*
Y506500D01*
X-104237D01*
Y509543D01*
D02*
G37*
G36*
Y505500D02*
X-106690D01*
Y502457D01*
X-104237D01*
Y505500D01*
D02*
G37*
G36*
X-30402Y498959D02*
X-33344D01*
X-33052Y498921D01*
Y496309D01*
X-30441D01*
X-30402Y496017D01*
Y498959D01*
D02*
G37*
G36*
X-130032Y489126D02*
Y485522D01*
X-126428D01*
X-126504Y486101D01*
X-126921Y487107D01*
X-127583Y487970D01*
X-128447Y488633D01*
X-129452Y489049D01*
X-130032Y489126D01*
D02*
G37*
G36*
X-39957Y489404D02*
X-48513D01*
Y484206D01*
X-48474Y484498D01*
X-45362D01*
Y483999D01*
X-44863D01*
Y480887D01*
X-45155Y480849D01*
X-39957D01*
Y480887D01*
Y483999D01*
Y489404D01*
D02*
G37*
G36*
X-48513Y483790D02*
Y480849D01*
X-45571D01*
X-45863Y480887D01*
Y483498D01*
X-48474D01*
X-48513Y483790D01*
D02*
G37*
G36*
X-97240Y473719D02*
X-99299D01*
Y470676D01*
X-97240D01*
Y473719D01*
D02*
G37*
G36*
X-131032Y489126D02*
X-131611Y489049D01*
X-132616Y488633D01*
X-133480Y487970D01*
X-134142Y487107D01*
X-134559Y486101D01*
X-134635Y485522D01*
X-131032D01*
Y489126D01*
D02*
G37*
G36*
X-30402Y489404D02*
X-38958D01*
Y480849D01*
X-33760D01*
X-34052Y480887D01*
Y483999D01*
X-33553D01*
Y484498D01*
X-30441D01*
X-30402Y484206D01*
Y489404D01*
D02*
G37*
G36*
Y483790D02*
X-30441Y483498D01*
X-33052D01*
Y480887D01*
X-33344Y480849D01*
X-30402D01*
Y483790D01*
D02*
G37*
G36*
X-28839Y437689D02*
X-33038D01*
X-32941Y436956D01*
X-32465Y435806D01*
X-31708Y434820D01*
X-30721Y434062D01*
X-29572Y433586D01*
X-28839Y433490D01*
Y437689D01*
D02*
G37*
G36*
X-132531Y429411D02*
Y426800D01*
X-129921D01*
X-129963Y427122D01*
X-130280Y427888D01*
X-130785Y428546D01*
X-131443Y429051D01*
X-132209Y429368D01*
X-132531Y429411D01*
D02*
G37*
G36*
X-133531D02*
X-133854Y429368D01*
X-134620Y429051D01*
X-135278Y428546D01*
X-135783Y427888D01*
X-136100Y427122D01*
X-136143Y426800D01*
X-133531D01*
Y429411D01*
D02*
G37*
G36*
X-44402Y437689D02*
X-47012D01*
X-46970Y437367D01*
X-46653Y436601D01*
X-46148Y435943D01*
X-45490Y435438D01*
X-44724Y435120D01*
X-44402Y435078D01*
Y437689D01*
D02*
G37*
G36*
X-9154D02*
X-13353D01*
X-13256Y436956D01*
X-12780Y435806D01*
X-12023Y434820D01*
X-11036Y434062D01*
X-9887Y433586D01*
X-9154Y433490D01*
Y437689D01*
D02*
G37*
G36*
X-23639D02*
X-27839D01*
Y433490D01*
X-27105Y433586D01*
X-25956Y434062D01*
X-24969Y434820D01*
X-24212Y435806D01*
X-23736Y436956D01*
X-23639Y437689D01*
D02*
G37*
G36*
X-129921Y425800D02*
X-132531D01*
Y423189D01*
X-132209Y423232D01*
X-131443Y423549D01*
X-130785Y424054D01*
X-130280Y424712D01*
X-129963Y425478D01*
X-129921Y425800D01*
D02*
G37*
G36*
X-9154Y418479D02*
X-9887Y418382D01*
X-11036Y417906D01*
X-12023Y417149D01*
X-12780Y416162D01*
X-13256Y415013D01*
X-13353Y414280D01*
X-9154D01*
Y418479D01*
D02*
G37*
G36*
X-27839D02*
Y414280D01*
X-23639D01*
X-23736Y415013D01*
X-24212Y416162D01*
X-24969Y417149D01*
X-25956Y417906D01*
X-27105Y418382D01*
X-27839Y418479D01*
D02*
G37*
G36*
X-28839D02*
X-29572Y418382D01*
X-30721Y417906D01*
X-31708Y417149D01*
X-32465Y416162D01*
X-32941Y415013D01*
X-33038Y414280D01*
X-28839D01*
Y418479D01*
D02*
G37*
G36*
X-133531Y425800D02*
X-136143D01*
X-136100Y425478D01*
X-135783Y424712D01*
X-135278Y424054D01*
X-134620Y423549D01*
X-133854Y423232D01*
X-133531Y423189D01*
Y425800D01*
D02*
G37*
G36*
X-58124Y424699D02*
X-61168D01*
Y422640D01*
X-58124D01*
Y424699D01*
D02*
G37*
G36*
Y421640D02*
X-61168D01*
Y419581D01*
X-58124D01*
Y421640D01*
D02*
G37*
G36*
X-50799Y451143D02*
X-51121Y451100D01*
X-51888Y450783D01*
X-52545Y450278D01*
X-53050Y449620D01*
X-53368Y448854D01*
X-53410Y448531D01*
X-50799D01*
Y451143D01*
D02*
G37*
G36*
X-47188Y447532D02*
X-49799D01*
Y444921D01*
X-49477Y444963D01*
X-48711Y445280D01*
X-48053Y445785D01*
X-47548Y446443D01*
X-47231Y447209D01*
X-47188Y447532D01*
D02*
G37*
G36*
X-50799D02*
X-53410D01*
X-53368Y447209D01*
X-53050Y446443D01*
X-52545Y445785D01*
X-51888Y445280D01*
X-51121Y444963D01*
X-50799Y444921D01*
Y447532D01*
D02*
G37*
G36*
X-23639Y457374D02*
X-27839D01*
Y453175D01*
X-27105Y453271D01*
X-25956Y453747D01*
X-24969Y454504D01*
X-24212Y455491D01*
X-23736Y456641D01*
X-23639Y457374D01*
D02*
G37*
G36*
X-28839D02*
X-33038D01*
X-32941Y456641D01*
X-32465Y455491D01*
X-31708Y454504D01*
X-30721Y453747D01*
X-29572Y453271D01*
X-28839Y453175D01*
Y457374D01*
D02*
G37*
G36*
X-49799Y451143D02*
Y448531D01*
X-47188D01*
X-47231Y448854D01*
X-47548Y449620D01*
X-48053Y450278D01*
X-48711Y450783D01*
X-49477Y451100D01*
X-49799Y451143D01*
D02*
G37*
G36*
X-18496Y454065D02*
X-19673Y453949D01*
X-20805Y453605D01*
X-21848Y453048D01*
X-22762Y452297D01*
X-23512Y451383D01*
X-24070Y450340D01*
X-24413Y449208D01*
X-24529Y448032D01*
X-24413Y446854D01*
X-24070Y445723D01*
X-23512Y444680D01*
X-22762Y443765D01*
X-21848Y443015D01*
X-20805Y442458D01*
X-19673Y442114D01*
X-18496Y441998D01*
X-17319Y442114D01*
X-16187Y442458D01*
X-15144Y443015D01*
X-14230Y443765D01*
X-13480Y444680D01*
X-12922Y445723D01*
X-12579Y446854D01*
X-12463Y448032D01*
X-12579Y449208D01*
X-12922Y450340D01*
X-13480Y451383D01*
X-14230Y452297D01*
X-15144Y453048D01*
X-16187Y453605D01*
X-17319Y453949D01*
X-18496Y454065D01*
D02*
G37*
G36*
X-43402Y441300D02*
Y438689D01*
X-40791D01*
X-40833Y439011D01*
X-41150Y439777D01*
X-41655Y440435D01*
X-42313Y440940D01*
X-43079Y441257D01*
X-43402Y441300D01*
D02*
G37*
G36*
X-44402D02*
X-44724Y441257D01*
X-45490Y440940D01*
X-46148Y440435D01*
X-46653Y439777D01*
X-46970Y439011D01*
X-47012Y438689D01*
X-44402D01*
Y441300D01*
D02*
G37*
G36*
X-40791Y437689D02*
X-43402D01*
Y435078D01*
X-43079Y435120D01*
X-42313Y435438D01*
X-41655Y435943D01*
X-41150Y436601D01*
X-40833Y437367D01*
X-40791Y437689D01*
D02*
G37*
G36*
X-9154Y442888D02*
X-9887Y442792D01*
X-11036Y442316D01*
X-12023Y441559D01*
X-12780Y440572D01*
X-13256Y439422D01*
X-13353Y438689D01*
X-9154D01*
Y442888D01*
D02*
G37*
G36*
X-27839D02*
Y438689D01*
X-23639D01*
X-23736Y439422D01*
X-24212Y440572D01*
X-24969Y441559D01*
X-25956Y442316D01*
X-27105Y442792D01*
X-27839Y442888D01*
D02*
G37*
G36*
X-28839D02*
X-29572Y442792D01*
X-30721Y442316D01*
X-31708Y441559D01*
X-32465Y440572D01*
X-32941Y439422D01*
X-33038Y438689D01*
X-28839D01*
Y442888D01*
D02*
G37*
%LPD*%
D12*
X-131532Y375563D02*
D03*
Y383437D02*
D03*
X-128677Y357583D02*
D03*
Y349709D02*
D03*
X-7700Y336963D02*
D03*
Y344837D02*
D03*
D15*
X-18363Y367300D02*
D03*
X-26237D02*
D03*
X-113037Y342500D02*
D03*
X-105163D02*
D03*
X-133468Y412000D02*
D03*
X-125594D02*
D03*
X-83890Y342520D02*
D03*
X-76016D02*
D03*
X-103737Y506000D02*
D03*
X-95863D02*
D03*
X-6866Y352500D02*
D03*
X-14740D02*
D03*
X-7095Y329000D02*
D03*
X-14968D02*
D03*
D18*
X-93000Y479624D02*
D03*
X-96740Y470176D02*
D03*
X-89260D02*
D03*
D19*
X-48176Y418400D02*
D03*
X-57624Y422140D02*
D03*
Y414660D02*
D03*
D24*
X-45365Y484000D02*
X-45363Y483998D01*
X-50400Y484000D02*
X-45365D01*
X-50509Y484109D02*
X-50400Y484000D01*
X-50509Y484109D02*
Y495809D01*
X-45363D01*
X-33552Y479548D02*
Y483998D01*
X-33800Y479300D02*
X-33552Y479548D01*
X-45200Y479300D02*
X-33800D01*
X-45363Y479463D02*
X-45200Y479300D01*
X-45363Y479463D02*
Y483998D01*
X-33552D02*
X-29021D01*
X-28609Y484409D01*
Y495809D01*
X-33552D02*
X-28609D01*
X-48500Y418724D02*
Y423900D01*
X-79520Y317205D02*
Y326000D01*
X-13732Y508366D02*
X-11042Y505676D01*
Y487742D02*
Y505676D01*
X-16400Y506398D02*
X-14642Y504639D01*
X-78219Y506398D02*
X-16400D01*
X-14642Y480842D02*
Y504639D01*
X-57624Y399924D02*
Y414660D01*
Y399924D02*
X-45756Y388056D01*
X-67300Y441100D02*
X-52700Y426500D01*
Y416703D02*
X-44439Y408442D01*
X-52700Y416703D02*
Y426500D01*
X-44439Y408442D02*
X-44323D01*
X-41763Y405882D01*
Y370063D02*
Y405882D01*
Y370063D02*
X-39000Y367300D01*
X-26237D01*
X-14740Y348760D02*
Y352500D01*
X-15800Y347700D02*
X-14740Y348760D01*
X-24600Y347700D02*
X-15800D01*
X-26200Y349300D02*
X-24600Y347700D01*
X-26200Y349300D02*
Y355602D01*
X-39258Y325027D02*
Y335858D01*
Y325027D02*
X-34732Y320500D01*
X-41400Y338000D02*
X-39258Y335858D01*
X-44911Y312011D02*
Y330289D01*
X-42900Y332300D01*
X-43731Y379777D02*
Y387800D01*
X-43787Y387856D02*
X-43731Y387800D01*
X-45832Y390915D02*
Y404800D01*
X-43787Y387856D02*
Y388871D01*
X-45832Y390915D02*
X-43787Y388871D01*
X-45756Y384356D02*
Y388056D01*
Y384356D02*
X-45700Y384300D01*
X-63528Y350372D02*
Y423446D01*
X-65496Y351187D02*
Y422630D01*
X-68958Y417792D02*
Y423308D01*
X-72950Y413800D02*
X-68958Y417792D01*
X-68989Y312087D02*
X-64600Y316475D01*
Y335352D01*
X-62263Y337689D01*
Y343285D01*
X-49390Y374118D02*
X-43731Y379777D01*
X-49390Y362876D02*
Y374118D01*
X-55540Y356726D02*
X-49390Y362876D01*
X-55540Y350008D02*
Y356726D01*
X-62263Y343285D02*
X-55540Y350008D01*
X-74835Y312087D02*
X-68989D01*
X-45700Y380592D02*
Y384300D01*
X-51358Y374934D02*
X-45700Y380592D01*
X-51358Y363692D02*
Y374934D01*
X-57508Y357542D02*
X-51358Y363692D01*
X-57508Y350823D02*
Y357542D01*
X-64231Y344100D02*
X-57508Y350823D01*
X-64231Y338504D02*
Y344100D01*
X-69717Y333019D02*
X-64231Y338504D01*
X-69717Y317205D02*
Y333019D01*
X-73395Y433312D02*
Y453448D01*
X-79262Y459315D02*
X-73395Y453448D01*
X-79262Y495538D02*
X-77842Y496958D01*
X-79262Y459315D02*
Y495538D01*
X-81231Y458500D02*
X-75363Y452632D01*
Y432497D02*
Y452632D01*
X-81231Y497818D02*
X-78448Y500600D01*
X-81231Y458500D02*
Y497818D01*
X-77332Y431682D02*
Y451615D01*
X-83199Y457483D02*
X-77332Y451615D01*
X-83199Y498633D02*
X-77403Y504429D01*
X-83199Y457483D02*
Y498633D01*
X-90100Y352400D02*
Y369799D01*
X-100000Y342500D02*
X-90100Y352400D01*
X-105163Y342500D02*
X-100000D01*
X-86500Y373399D02*
Y373500D01*
X-90100Y369799D02*
X-86500Y373399D01*
X-126532Y342500D02*
X-113037D01*
X-86500Y373500D02*
X-71894D01*
X-93100Y473303D02*
X-89794Y476609D01*
X-118042Y482100D02*
X-115566Y479624D01*
X-118042Y482100D02*
Y500183D01*
X-115566Y479624D02*
X-93000D01*
X-75363Y432497D02*
X-65496Y422630D01*
X-85168Y478432D02*
Y499448D01*
X-89260Y474340D02*
X-85168Y478432D01*
X-89260Y470176D02*
Y474340D01*
X-93100Y464600D02*
Y473303D01*
Y464600D02*
X-79300Y450800D01*
Y428500D02*
Y450800D01*
Y428500D02*
X-72600Y421800D01*
X-89794Y476609D02*
Y496063D01*
X-100200Y427100D02*
X-86300Y441000D01*
X-123531Y427100D02*
X-100200D01*
X-73395Y433312D02*
X-63528Y423446D01*
X-77842Y496958D02*
X-62091D01*
X-78448Y500600D02*
X-63600D01*
X-77332Y431682D02*
X-68958Y423308D01*
X-77403Y504429D02*
X-20329D01*
X-49716Y307205D02*
X-44911Y312011D01*
X-59477Y360723D02*
X-55000Y365200D01*
X-59477Y351639D02*
Y360723D01*
X-68168Y345731D02*
X-63528Y350372D01*
X-70137Y346546D02*
X-65496Y351187D01*
X-103431Y413800D02*
X-72950D01*
X-24517Y502461D02*
X-18598Y496542D01*
X-56589Y502461D02*
X-24517D01*
X-62091Y496958D02*
X-56589Y502461D01*
X-20329Y504429D02*
X-18600Y502700D01*
X-70137Y340950D02*
Y346546D01*
X-81461Y329626D02*
X-70137Y340950D01*
X-97295Y329626D02*
X-81461D01*
X-109716Y317205D02*
X-97295Y329626D01*
X-68168Y340135D02*
Y345731D01*
X-82319Y325984D02*
X-68168Y340135D01*
X-93339Y325984D02*
X-82319D01*
X-85168Y499448D02*
X-78219Y506398D01*
X-97668Y496063D02*
X-96336D01*
X-79034Y508366D02*
X-13732D01*
X-12917Y510335D02*
X-7400Y504818D01*
X-98144Y510335D02*
X-12917D01*
X-7400Y494800D02*
Y504818D01*
X-14642Y480842D02*
X-14500Y480700D01*
X-11042Y487742D02*
X-11000Y487700D01*
X-109432Y400000D02*
X-109332Y399900D01*
X-120531Y400000D02*
X-109432D01*
X-119717Y322415D02*
X-116935Y325197D01*
X-119717Y317205D02*
Y322415D01*
X-59716Y339415D02*
X-57531Y341600D01*
X-59716Y317205D02*
Y339415D01*
X-39717Y307205D02*
X-34732Y312190D01*
Y320500D01*
X-66200Y344915D02*
X-59477Y351639D01*
X-66200Y339320D02*
Y344915D01*
X-79520Y326000D02*
X-66200Y339320D01*
X-129732Y337000D02*
X-124632Y331900D01*
Y315000D02*
Y331900D01*
Y315000D02*
X-121932Y312300D01*
X-114812D01*
X-109716Y307205D01*
X-123031Y406134D02*
X-115465Y413700D01*
X-79716Y307205D02*
X-74835Y312087D01*
X-76016Y348819D02*
X-72079Y352756D01*
X-76016Y342520D02*
Y348819D01*
X-72079Y352756D02*
Y363315D01*
X-71894Y363500D01*
X-123031Y404358D02*
Y406134D01*
X-71894Y363500D02*
X-68815D01*
X-131520Y460638D02*
X-130740Y461417D01*
X-123031Y397500D02*
X-120531Y400000D01*
X-123031Y395500D02*
Y397500D01*
X-128150Y390018D02*
Y395500D01*
X-132032Y383937D02*
X-131532Y383437D01*
X-132032Y383937D02*
Y399000D01*
X-128150Y402882D01*
Y404358D01*
X-125594Y412000D02*
X-125591Y411996D01*
Y404358D02*
Y411996D01*
X-131532Y383437D02*
X-131468Y383500D01*
X-117169D01*
X-125831Y412237D02*
X-125594Y412000D01*
X-131532Y365600D02*
Y375563D01*
X-116935Y325197D02*
X-109874D01*
X-125831Y424800D02*
X-123531Y427100D01*
X-125831Y412237D02*
Y424800D01*
X-130532Y434100D02*
X-123531Y427100D01*
X-130532Y434100D02*
Y461400D01*
X-128150Y390018D02*
X-125232Y387100D01*
X-93731Y383500D02*
X-71894D01*
X-109874Y325197D02*
X-84732Y350339D01*
Y369800D01*
X-131532Y365600D02*
X-129131Y363200D01*
X-125631D01*
X-125331Y363500D01*
X-128677Y357583D02*
X-121914D01*
X-121832Y357500D01*
X-128677Y349709D02*
X-103386D01*
X-95631Y357463D01*
Y381600D01*
X-125333Y369100D02*
X-99432D01*
X-99331Y369200D01*
X-95631Y381600D02*
X-93731Y383500D01*
X-101131Y387100D02*
X-95631Y381600D01*
X-125232Y387100D02*
X-101131D01*
X-118042Y500183D02*
X-112138Y506087D01*
X-95863Y506000D02*
X-81400D01*
X-79034Y508366D01*
X-97668Y496063D02*
Y500232D01*
X-95863Y502037D01*
Y506000D01*
X-105542Y496063D02*
X-99800Y501805D01*
Y508678D01*
X-98144Y510335D01*
D25*
X-9600Y360461D02*
X-9500Y360561D01*
Y367690D01*
X-9890Y367300D02*
X-9500Y367690D01*
X-18363Y367300D02*
X-9890D01*
X-14598Y312126D02*
X-9677Y307205D01*
X-9520D01*
X-19520D02*
X-14598Y312126D01*
Y328630D01*
D28*
X-112138Y506087D02*
D03*
D29*
X-113416Y496063D02*
D03*
X-105542D02*
D03*
X-97668D02*
D03*
X-89794D02*
D03*
X-130532Y485022D02*
D03*
Y477148D02*
D03*
Y469274D02*
D03*
D30*
X-8653Y438189D02*
D03*
X-28339D02*
D03*
Y457874D02*
D03*
X-8653D02*
D03*
Y394094D02*
D03*
X-28339D02*
D03*
Y413779D02*
D03*
X-8653D02*
D03*
D31*
X-18496Y448032D02*
D03*
Y403937D02*
D03*
D32*
X-49716Y327205D02*
D03*
X-9717Y307205D02*
D03*
X-19716Y317205D02*
D03*
Y307205D02*
D03*
X-29717Y317205D02*
D03*
Y307205D02*
D03*
X-39717Y317205D02*
D03*
Y307205D02*
D03*
X-49716Y317205D02*
D03*
Y307205D02*
D03*
X-59716Y317205D02*
D03*
Y307205D02*
D03*
X-69717Y317205D02*
D03*
Y307205D02*
D03*
X-79716Y317205D02*
D03*
Y307205D02*
D03*
X-89717Y317205D02*
D03*
Y307205D02*
D03*
X-99717Y317205D02*
D03*
Y307205D02*
D03*
X-109716Y317205D02*
D03*
Y307205D02*
D03*
X-119717Y317205D02*
D03*
Y307205D02*
D03*
X-129717Y317205D02*
D03*
Y307205D02*
D03*
D33*
X-9717Y317205D02*
D03*
D34*
X-100370Y446850D02*
D03*
D35*
X-130532Y461400D02*
D03*
D36*
X-39457Y489904D02*
D03*
D37*
X-50299Y457874D02*
D03*
X-18600Y375300D02*
D03*
X-9600Y360461D02*
D03*
X-67300Y441100D02*
D03*
X-48500Y423900D02*
D03*
X-43902Y438189D02*
D03*
X-50299Y448032D02*
D03*
X-41400Y338000D02*
D03*
X-42900Y332300D02*
D03*
X-63600Y500600D02*
D03*
X-50300Y467000D02*
D03*
X-45832Y404800D02*
D03*
X-103431Y413800D02*
D03*
X-84732Y369800D02*
D03*
X-129732Y337000D02*
D03*
X-115465Y413700D02*
D03*
X-72079Y352756D02*
D03*
X-93339Y325984D02*
D03*
X-55000Y365200D02*
D03*
X-86300Y441000D02*
D03*
X-57531Y341600D02*
D03*
X-90100Y369799D02*
D03*
X-126532Y342500D02*
D03*
X-109332Y399900D02*
D03*
X-121832Y357500D02*
D03*
X-125331Y363500D02*
D03*
X-125333Y369100D02*
D03*
X-72600Y421800D02*
D03*
X-115532Y357600D02*
D03*
X-99331Y369200D02*
D03*
X-133031Y426300D02*
D03*
X-39457Y483998D02*
D03*
X-33552Y495809D02*
D03*
Y483998D02*
D03*
Y489904D02*
D03*
X-39457Y495809D02*
D03*
X-45363D02*
D03*
Y489904D02*
D03*
Y483998D02*
D03*
X-7400Y494800D02*
D03*
X-11000Y487700D02*
D03*
X-14500Y480700D02*
D03*
X-18600Y502700D02*
D03*
X-18598Y496542D02*
D03*
D38*
X-9500Y367690D02*
D03*
Y378910D02*
D03*
D39*
X-125591Y404358D02*
D03*
X-123031D02*
D03*
X-128150D02*
D03*
Y395500D02*
D03*
X-125591D02*
D03*
X-123031D02*
D03*
D40*
X-71894Y383500D02*
D03*
Y373500D02*
D03*
Y363500D02*
D03*
X-117169Y383500D02*
D03*
Y373500D02*
D03*
Y363500D02*
D03*
D41*
X-31200Y330798D02*
D03*
D42*
X-21200Y355602D02*
D03*
X-26200D02*
D03*
X-31200D02*
D03*
X-36200D02*
D03*
X-41200D02*
D03*
D43*
X-6866Y352500D02*
Y353166D01*
X-10243Y356543D02*
X-6866Y353166D01*
X-20258Y356543D02*
X-10243D01*
X-21200Y355602D02*
X-20258Y356543D01*
X-6866Y348634D02*
Y352500D01*
X-7700Y347800D02*
X-6866Y348634D01*
X-7700Y344837D02*
Y347800D01*
D44*
X-26200Y355602D02*
Y366163D01*
X-19520Y307205D02*
Y307795D01*
X-36200Y349000D02*
Y355602D01*
X-38400Y346800D02*
X-36200Y349000D01*
X-41200Y349600D02*
Y355602D01*
Y349600D02*
X-38400Y346800D01*
Y344369D02*
Y346800D01*
Y344369D02*
X-36031Y342000D01*
X-21531D01*
X-14968Y329000D02*
X-14598Y328630D01*
X-14205Y328236D01*
X-14968Y329000D02*
Y335437D01*
X-21531Y342000D02*
X-14968Y335437D01*
M02*
