M48
;Layer_Color=9474304
;FILE_FORMAT=2:5
INCH,LZ
;TYPE=PLATED
T1F00S00C0.02756
T2F00S00C0.04331
T3F00S00C0.05118
T4F00S00C0.05512
T5F00S00C0.05906
T6F00S00C0.06496
T7F00S00C0.11417
%
T01
X-0129732Y0337
X-0126532Y03425
X-0121832Y03575
X-0115532Y03576
X-0125331Y03635
X-0125333Y03691
X-0099331Y03692
X-00901Y0369799
X-0084732Y03698
X-0072079Y0352756
X-0057531Y03416
X-00414Y0338
X-00429Y03323
X-0055Y03652
X-0045832Y04048
X-00485Y04239
X-0043902Y0438189
X-0050299Y0448032
Y0457874
X-00503Y0467
X-00673Y04411
X-00863Y0441
X-00726Y04218
X-0103431Y04138
X-0115465Y04137
X-0109332Y03999
X-0133031Y04263
X-0093339Y0325984
X-00096Y0360461
X-00186Y03753
X-00145Y04807
X-0011Y04877
X-00074Y04948
X-0018598Y0496542
X-00186Y05027
X-0033552Y0495809
Y0489904
Y0483998
X-0039457
X-0045363
Y0489904
Y0495809
X-0039457
X-00636Y05006
T02
X-0019716Y0307205
X-0009717
X-0029717
X-0039717
X-0049716
X-0059716
X-0069717
X-0079716
X-0089717
X-0099717
X-0109716
X-0119717
X-0129717
Y0317205
X-0119717
X-0109716
X-0099717
X-0089717
X-0079716
X-0069717
X-0059716
X-0049716
Y0327205
X-0039717Y0317205
X-0029717
X-0019716
X-0009717
X-0112138Y0506087
T03
X-0130532Y04614
Y0469274
Y0477148
Y0485022
X-0113416Y0496063
X-0105542
X-0097668
X-0089794
T04
X-0018496Y0403937
Y0448032
T05
X-0039457Y0489904
T06
X-0028339Y0394094
X-0008653
Y0413779
X-0028339
Y0438189
X-0008653
Y0457874
X-0028339
T07
X-010037Y044685
M30
