%FSLAX25Y25*%
%MOIN*%
G70*
G01*
G75*
G04 Layer_Physical_Order=1*
G04 Layer_Color=255*
%ADD10O,0.00984X0.04724*%
%ADD11O,0.04724X0.00984*%
%ADD12R,0.04331X0.05118*%
%ADD13R,0.05118X0.04331*%
%ADD14R,0.03937X0.05118*%
%ADD15R,0.05118X0.03937*%
%ADD16R,0.03150X0.05118*%
%ADD17R,0.05118X0.03150*%
G04:AMPARAMS|DCode=18|XSize=78.74mil|YSize=23.62mil|CornerRadius=5.91mil|HoleSize=0mil|Usage=FLASHONLY|Rotation=90.000|XOffset=0mil|YOffset=0mil|HoleType=Round|Shape=RoundedRectangle|*
%AMROUNDEDRECTD18*
21,1,0.07874,0.01181,0,0,90.0*
21,1,0.06693,0.02362,0,0,90.0*
1,1,0.01181,0.00591,0.03347*
1,1,0.01181,0.00591,-0.03347*
1,1,0.01181,-0.00591,-0.03347*
1,1,0.01181,-0.00591,0.03347*
%
%ADD18ROUNDEDRECTD18*%
G04:AMPARAMS|DCode=19|XSize=78.74mil|YSize=23.62mil|CornerRadius=5.91mil|HoleSize=0mil|Usage=FLASHONLY|Rotation=0.000|XOffset=0mil|YOffset=0mil|HoleType=Round|Shape=RoundedRectangle|*
%AMROUNDEDRECTD19*
21,1,0.07874,0.01181,0,0,0.0*
21,1,0.06693,0.02362,0,0,0.0*
1,1,0.01181,0.03347,-0.00591*
1,1,0.01181,-0.03347,-0.00591*
1,1,0.01181,-0.03347,0.00591*
1,1,0.01181,0.03347,0.00591*
%
%ADD19ROUNDEDRECTD19*%
%ADD20C,0.00984*%
%ADD21C,0.01055*%
%ADD22C,0.02362*%
%ADD23C,0.02559*%
%ADD24C,0.06850*%
%ADD25R,0.16142X0.16142*%
%ADD26R,0.06299X0.06299*%
%ADD27C,0.06299*%
%ADD28C,0.05512*%
%ADD29C,0.23622*%
%ADD30R,0.05906X0.05906*%
%ADD31C,0.05906*%
%ADD32C,0.06000*%
%ADD33C,0.05315*%
%ADD34R,0.05315X0.05315*%
%ADD35C,0.06890*%
%ADD36C,0.07480*%
%ADD37C,0.04331*%
G36*
X-22946Y-25554D02*
X-22458Y-25881D01*
X-22200Y-25932D01*
X-22305Y-26458D01*
X-22190Y-27034D01*
X-21917Y-27442D01*
X-22190Y-27851D01*
X-22305Y-28427D01*
X-22190Y-29003D01*
X-21917Y-29411D01*
X-22190Y-29819D01*
X-22305Y-30395D01*
X-22190Y-30971D01*
X-21917Y-31380D01*
X-22190Y-31788D01*
X-22305Y-32364D01*
X-22190Y-32940D01*
X-21917Y-33348D01*
X-22190Y-33756D01*
X-22305Y-34332D01*
X-22190Y-34908D01*
X-21917Y-35317D01*
X-22190Y-35725D01*
X-22305Y-36301D01*
X-22190Y-36877D01*
X-21917Y-37285D01*
X-22190Y-37693D01*
X-22305Y-38269D01*
X-22302Y-38283D01*
X-22655Y-38637D01*
X-22669Y-38634D01*
X-23245Y-38749D01*
X-23654Y-39021D01*
X-24062Y-38749D01*
X-24638Y-38634D01*
X-25214Y-38749D01*
X-25622Y-39021D01*
X-26030Y-38749D01*
X-26606Y-38634D01*
X-26683Y-38649D01*
X-27070Y-38332D01*
Y-38269D01*
X-27184Y-37693D01*
X-27510Y-37205D01*
X-27660Y-37055D01*
X-27591Y-36525D01*
X-28091Y-36459D01*
Y-33347D01*
X-27592D01*
Y-32848D01*
X-24479D01*
X-24441Y-33140D01*
Y-27942D01*
X-33497D01*
Y-26943D01*
X-24441D01*
Y-24713D01*
X-23979Y-24521D01*
X-22946Y-25554D01*
D02*
G37*
G36*
X-40640Y-90491D02*
X-40064Y-90605D01*
X-38817D01*
X-38783Y-90688D01*
X-38331Y-91276D01*
Y-102703D01*
X-40835D01*
X-41449Y-102825D01*
X-41970Y-103173D01*
X-42318Y-103694D01*
X-42440Y-104309D01*
Y-105490D01*
X-42318Y-106104D01*
X-41970Y-106625D01*
Y-107110D01*
X-42318Y-107631D01*
X-42440Y-108246D01*
Y-109427D01*
X-42318Y-110041D01*
X-41970Y-110562D01*
Y-111047D01*
X-42117Y-111268D01*
X-43057D01*
X-43080Y-111212D01*
X-43585Y-110554D01*
X-44243Y-110049D01*
X-45009Y-109731D01*
X-45832Y-109623D01*
X-46654Y-109731D01*
X-47420Y-110049D01*
X-48078Y-110554D01*
X-48581Y-111210D01*
X-49082D01*
X-49585Y-110554D01*
X-50243Y-110049D01*
X-51009Y-109731D01*
X-51332Y-109689D01*
Y-112801D01*
Y-115911D01*
X-51009Y-115868D01*
X-50243Y-115551D01*
X-49585Y-115046D01*
X-49082Y-114390D01*
X-48581D01*
X-48078Y-115046D01*
X-47420Y-115551D01*
X-46654Y-115868D01*
X-45832Y-115977D01*
X-45009Y-115868D01*
X-44243Y-115551D01*
X-43585Y-115046D01*
X-43080Y-114388D01*
X-43035Y-114278D01*
X-42117D01*
X-41970Y-114499D01*
Y-114984D01*
X-42318Y-115505D01*
X-42440Y-116120D01*
Y-116210D01*
X-37487D01*
Y-117210D01*
X-42440D01*
Y-117301D01*
X-42318Y-117915D01*
X-41970Y-118436D01*
Y-118921D01*
X-42318Y-119442D01*
X-42440Y-120057D01*
Y-120147D01*
X-37487D01*
Y-121147D01*
X-42440D01*
Y-121238D01*
X-42318Y-121852D01*
X-41970Y-122373D01*
Y-122858D01*
X-42318Y-123379D01*
X-42440Y-123994D01*
Y-124084D01*
X-37487D01*
Y-125084D01*
X-42440D01*
Y-125175D01*
X-42318Y-125789D01*
X-41970Y-126310D01*
Y-126795D01*
X-42318Y-127316D01*
X-42339Y-127424D01*
X-42818Y-127569D01*
X-53968Y-116419D01*
Y-115696D01*
X-53519Y-115475D01*
X-53420Y-115551D01*
X-52654Y-115868D01*
X-52332Y-115911D01*
Y-112801D01*
Y-109689D01*
X-51832Y-109623D01*
X-52051Y-109178D01*
X-41732Y-98859D01*
X-41406Y-98371D01*
X-41292Y-97795D01*
X-41291Y-97795D01*
X-41292Y-97795D01*
Y-97795D01*
Y-90586D01*
X-40851Y-90350D01*
X-40640Y-90491D01*
D02*
G37*
G36*
X-4925Y-32904D02*
Y-48193D01*
X-5373Y-48414D01*
X-6271Y-47725D01*
X-7420Y-47249D01*
X-8153Y-47153D01*
Y-51853D01*
Y-56551D01*
X-7420Y-56455D01*
X-6271Y-55979D01*
X-5373Y-55290D01*
X-4925Y-55511D01*
Y-67878D01*
X-5373Y-68099D01*
X-6271Y-67410D01*
X-7420Y-66934D01*
X-8153Y-66838D01*
Y-71538D01*
Y-76236D01*
X-7420Y-76140D01*
X-6271Y-75664D01*
X-5373Y-74975D01*
X-4925Y-75196D01*
Y-83800D01*
X-27063D01*
Y-83043D01*
X-25616D01*
Y-75957D01*
X-25616D01*
X-25616Y-75403D01*
X-24969Y-74906D01*
X-24212Y-73920D01*
X-23736Y-72770D01*
X-23639Y-72037D01*
X-33038D01*
X-32941Y-72770D01*
X-32465Y-73920D01*
X-31708Y-74906D01*
X-30957Y-75483D01*
X-31117Y-75957D01*
X-31521D01*
Y-77995D01*
X-32142D01*
Y-75957D01*
X-33589D01*
Y-73482D01*
X-33704Y-72906D01*
X-34030Y-72417D01*
X-37550Y-68898D01*
X-38038Y-68572D01*
X-38614Y-68457D01*
X-39402D01*
Y-67010D01*
X-46488D01*
Y-72915D01*
X-39402D01*
Y-71957D01*
X-38940Y-71766D01*
X-36600Y-74105D01*
Y-75957D01*
X-38047D01*
Y-83043D01*
X-32142D01*
Y-81005D01*
X-31521D01*
Y-83043D01*
X-30074D01*
Y-83800D01*
X-38232D01*
X-38331Y-83900D01*
Y-86924D01*
X-38783Y-87512D01*
X-38817Y-87595D01*
X-39440D01*
X-43530Y-83505D01*
X-43338Y-83043D01*
X-40016D01*
Y-75957D01*
X-45921D01*
Y-77676D01*
X-46383Y-77868D01*
X-50888Y-73363D01*
Y-73112D01*
X-49441D01*
Y-66025D01*
X-55347D01*
Y-73112D01*
X-53899D01*
Y-73986D01*
X-53899Y-73986D01*
X-53899D01*
X-53784Y-74562D01*
X-53458Y-75051D01*
X-52148Y-76361D01*
X-52339Y-76823D01*
X-80359D01*
X-80555Y-76600D01*
X-80663Y-75778D01*
X-80980Y-75012D01*
X-81485Y-74354D01*
X-82143Y-73849D01*
X-82909Y-73532D01*
X-83732Y-73423D01*
X-84554Y-73532D01*
X-84942Y-73272D01*
Y-70218D01*
X-84555Y-69901D01*
X-84031Y-70005D01*
X-84021D01*
Y-72043D01*
X-78116D01*
Y-64957D01*
D01*
Y-64957D01*
X-78116Y-64957D01*
Y-64843D01*
X-78116D01*
Y-57943D01*
Y-50857D01*
X-84021D01*
Y-57943D01*
Y-61975D01*
X-84483Y-62166D01*
X-88126Y-58523D01*
Y-56980D01*
X-86088D01*
Y-50681D01*
X-93175D01*
Y-55605D01*
X-93637Y-55797D01*
X-94188Y-55245D01*
Y-50681D01*
X-101275D01*
Y-56980D01*
X-96711D01*
X-95166Y-58525D01*
X-95444Y-58941D01*
X-96404Y-58543D01*
X-98362Y-58073D01*
X-100370Y-57915D01*
X-102378Y-58073D01*
X-104336Y-58543D01*
X-106197Y-59314D01*
X-107914Y-60366D01*
X-109446Y-61674D01*
X-110754Y-63205D01*
X-111806Y-64923D01*
X-112533Y-66678D01*
X-113024Y-66581D01*
Y-64132D01*
X-118142D01*
Y-70995D01*
X-120504D01*
Y-68176D01*
X-123064D01*
Y-67677D01*
X-123563D01*
Y-64132D01*
X-123035D01*
X-123226Y-63670D01*
X-122362Y-62806D01*
X-114992D01*
X-114416Y-62691D01*
X-113928Y-62365D01*
X-111369Y-59806D01*
X-111369Y-59806D01*
X-110975Y-59412D01*
X-110649Y-58924D01*
X-110534Y-58348D01*
Y-56970D01*
X-109480D01*
Y-50601D01*
X-108529D01*
X-107118Y-52012D01*
Y-56970D01*
X-102000D01*
Y-49883D01*
X-104989D01*
X-106841Y-48032D01*
X-107329Y-47705D01*
X-107905Y-47591D01*
X-107836Y-47521D01*
X-105740D01*
Y-45483D01*
X-104592D01*
X-103852Y-46224D01*
X-103364Y-46550D01*
X-102787Y-46664D01*
X-101275D01*
Y-48319D01*
X-94188D01*
Y-42020D01*
X-97013D01*
Y-41599D01*
X-97013D01*
Y-39540D01*
X-104099D01*
Y-41599D01*
X-101275D01*
Y-42020D01*
X-101275D01*
Y-43654D01*
X-102164D01*
X-102904Y-42913D01*
X-103393Y-42587D01*
X-103969Y-42473D01*
X-105740D01*
Y-40435D01*
X-110858D01*
Y-47237D01*
X-110858Y-47237D01*
X-110858D01*
X-110858Y-47521D01*
X-110928Y-47591D01*
X-115779D01*
X-116356Y-47705D01*
X-116520Y-47815D01*
X-116961Y-47579D01*
Y-45659D01*
X-120505D01*
Y-44659D01*
X-116961D01*
Y-42206D01*
D01*
Y-42206D01*
X-116860Y-42105D01*
X-115631D01*
X-115055Y-41991D01*
X-114567Y-41664D01*
X-114567Y-41664D01*
X-114567Y-41664D01*
X-113167Y-40264D01*
X-112841Y-39776D01*
X-112726Y-39200D01*
X-112726Y-39200D01*
X-112726Y-39200D01*
Y-39200D01*
Y-38860D01*
X-107315D01*
Y-36822D01*
X-104099D01*
Y-38540D01*
X-97013D01*
Y-36822D01*
X-94650D01*
Y-37859D01*
X-92678D01*
X-92629Y-37908D01*
X-92629Y-37908D01*
D01*
X-92514Y-38484D01*
X-92188Y-38972D01*
X-91059Y-40101D01*
X-90570Y-40428D01*
X-89995Y-40542D01*
X-86375D01*
Y-41990D01*
D01*
Y-41990D01*
X-86405Y-42020D01*
X-93175D01*
Y-48319D01*
X-87899D01*
X-86353Y-49865D01*
X-86353Y-49865D01*
X-86353D01*
X-86353Y-49865D01*
X-86353D01*
X-86353Y-49865D01*
Y-49865D01*
Y-49865D01*
D01*
D01*
X-86353D01*
Y-49865D01*
X-85865Y-50191D01*
X-85289Y-50306D01*
X-80129D01*
X-79553Y-50191D01*
X-79064Y-49865D01*
X-77707Y-48508D01*
X-77574Y-48309D01*
X-75335D01*
Y-44766D01*
Y-41222D01*
X-77266D01*
Y-35764D01*
X-74208Y-32705D01*
X-72775D01*
Y-38290D01*
X-70737D01*
Y-39300D01*
X-70737Y-39300D01*
X-70737D01*
X-70622Y-39876D01*
X-70296Y-40364D01*
X-69965Y-40695D01*
X-70157Y-41157D01*
X-70221D01*
Y-48243D01*
X-66417D01*
X-66037Y-48623D01*
Y-50710D01*
X-68075D01*
Y-52158D01*
X-70242D01*
Y-50857D01*
X-76147D01*
Y-57943D01*
Y-60800D01*
X-70242D01*
Y-57943D01*
Y-55168D01*
X-68075D01*
Y-56616D01*
X-60988D01*
Y-50710D01*
X-63026D01*
Y-48000D01*
X-63141Y-47424D01*
X-63467Y-46936D01*
X-64316Y-46087D01*
Y-41157D01*
X-65784D01*
X-65878Y-40687D01*
X-66204Y-40199D01*
X-67726Y-38677D01*
Y-38290D01*
X-64379D01*
X-64322Y-38576D01*
X-63996Y-39064D01*
X-62217Y-40843D01*
X-62347Y-41157D01*
X-62347D01*
X-62347Y-41157D01*
Y-48243D01*
X-58517D01*
X-57537Y-49224D01*
Y-50710D01*
X-59575D01*
Y-56616D01*
X-52488D01*
Y-55168D01*
X-51121D01*
Y-57743D01*
X-45216D01*
Y-50657D01*
X-51121D01*
Y-52158D01*
X-52488D01*
Y-50710D01*
X-54526D01*
Y-48600D01*
X-54641Y-48024D01*
X-54967Y-47536D01*
X-56442Y-46061D01*
Y-41790D01*
X-55331D01*
Y-38836D01*
X-54331D01*
Y-41790D01*
X-51288D01*
Y-39670D01*
X-50847Y-39434D01*
X-50509Y-39660D01*
X-49933Y-39775D01*
X-46193D01*
X-46179Y-39772D01*
X-45825Y-40125D01*
X-45828Y-40139D01*
Y-42009D01*
Y-43880D01*
Y-43945D01*
X-46993Y-45110D01*
X-47205Y-45197D01*
X-47587Y-45172D01*
X-47985Y-44654D01*
X-48643Y-44149D01*
X-49409Y-43832D01*
X-50231Y-43723D01*
X-51054Y-43832D01*
X-51820Y-44149D01*
X-52478Y-44654D01*
X-52983Y-45312D01*
X-53300Y-46078D01*
X-53408Y-46900D01*
X-53300Y-47722D01*
X-52983Y-48488D01*
X-52478Y-49146D01*
X-51820Y-49651D01*
X-51054Y-49968D01*
X-50231Y-50077D01*
X-49409Y-49968D01*
X-48643Y-49651D01*
X-47985Y-49146D01*
X-47480Y-48488D01*
X-47446Y-48405D01*
X-46654D01*
X-46078Y-48291D01*
X-45993Y-48234D01*
X-45537Y-48440D01*
X-45500Y-48722D01*
X-45183Y-49488D01*
X-44678Y-50146D01*
X-44020Y-50651D01*
X-43254Y-50968D01*
X-43247Y-50969D01*
Y-53700D01*
X-37342D01*
Y-51348D01*
X-37031Y-51076D01*
X-36209Y-50968D01*
X-35443Y-50650D01*
X-34785Y-50146D01*
X-34280Y-49488D01*
X-33963Y-48721D01*
X-33855Y-47899D01*
X-33963Y-47077D01*
X-34280Y-46311D01*
X-34585Y-45913D01*
X-34480Y-45385D01*
X-34980Y-45286D01*
Y-44065D01*
X-34943Y-43880D01*
Y-42008D01*
X-34017D01*
Y-43880D01*
X-33980Y-44065D01*
Y-45285D01*
X-33904Y-45270D01*
X-33496Y-44998D01*
X-33088Y-45270D01*
X-32512Y-45385D01*
X-31936Y-45270D01*
X-31528Y-44998D01*
X-31119Y-45270D01*
X-30543Y-45385D01*
X-29967Y-45270D01*
X-29559Y-44998D01*
X-29151Y-45270D01*
X-28575Y-45385D01*
X-27999Y-45270D01*
X-27591Y-44998D01*
X-27182Y-45270D01*
X-26606Y-45385D01*
X-26030Y-45270D01*
X-25816Y-45127D01*
X-25357Y-45326D01*
X-25304Y-45649D01*
X-25583Y-46012D01*
X-25900Y-46778D01*
X-25968Y-47291D01*
X-26401Y-47541D01*
X-27105Y-47249D01*
X-27839Y-47153D01*
Y-51853D01*
Y-56551D01*
X-27105Y-56455D01*
X-25956Y-55979D01*
X-24969Y-55221D01*
X-24651Y-54807D01*
X-24155Y-54872D01*
X-23983Y-55288D01*
X-23478Y-55946D01*
X-22820Y-56451D01*
X-22054Y-56769D01*
X-21231Y-56877D01*
X-20409Y-56769D01*
X-19643Y-56451D01*
X-18985Y-55946D01*
X-18480Y-55288D01*
X-18163Y-54522D01*
X-18055Y-53700D01*
X-18132Y-53111D01*
X-17648Y-52627D01*
X-17186Y-52819D01*
Y-56950D01*
X-17178Y-56990D01*
X-17179Y-56992D01*
X-17520Y-57356D01*
X-18496Y-57227D01*
X-19652Y-57379D01*
X-20730Y-57826D01*
X-21655Y-58536D01*
X-22365Y-59461D01*
X-22811Y-60538D01*
X-22817Y-60583D01*
X-23850D01*
Y-58545D01*
X-29756D01*
Y-65632D01*
X-23850D01*
Y-63594D01*
X-22503D01*
X-22365Y-63928D01*
X-21655Y-64853D01*
X-20730Y-65563D01*
X-19652Y-66010D01*
X-18496Y-66162D01*
X-17340Y-66010D01*
X-16262Y-65563D01*
X-15337Y-64853D01*
X-14627Y-63928D01*
X-14302Y-63142D01*
X-13802D01*
X-13783Y-63188D01*
X-13278Y-63846D01*
X-12620Y-64351D01*
X-11854Y-64669D01*
X-11032Y-64777D01*
X-10209Y-64669D01*
X-9443Y-64351D01*
X-8785Y-63846D01*
X-8280Y-63188D01*
X-7963Y-62422D01*
X-7855Y-61600D01*
X-7963Y-60778D01*
X-8280Y-60012D01*
X-8785Y-59354D01*
X-9443Y-58849D01*
X-10209Y-58531D01*
X-11032Y-58423D01*
X-11854Y-58531D01*
X-11937Y-58566D01*
X-14176Y-56327D01*
Y-50103D01*
X-12970Y-48897D01*
X-12594Y-49227D01*
X-12780Y-49469D01*
X-13256Y-50619D01*
X-13353Y-51352D01*
X-9154D01*
Y-47153D01*
X-9887Y-47249D01*
X-11036Y-47725D01*
X-11279Y-47911D01*
X-11608Y-47535D01*
X-8121Y-44048D01*
X-7794Y-43559D01*
X-7680Y-42983D01*
X-7680Y-42983D01*
X-7680Y-42983D01*
Y-42983D01*
Y-33484D01*
X-7304Y-33154D01*
X-7063Y-33186D01*
X-6241Y-33078D01*
X-5475Y-32761D01*
X-5373Y-32683D01*
X-4925Y-32904D01*
D02*
G37*
G36*
X-116516Y-93316D02*
X-116425D01*
X-115811Y-93194D01*
X-115290Y-92846D01*
X-114805D01*
X-114284Y-93194D01*
X-113669Y-93316D01*
X-112488D01*
X-111874Y-93194D01*
X-111353Y-92846D01*
X-110868D01*
X-110347Y-93194D01*
X-109732Y-93316D01*
X-108551D01*
X-107937Y-93194D01*
X-107416Y-92846D01*
X-106931D01*
X-106410Y-93194D01*
X-105795Y-93316D01*
X-104614D01*
X-104000Y-93194D01*
X-103479Y-92846D01*
X-102994D01*
X-102473Y-93194D01*
X-101858Y-93316D01*
X-100677D01*
X-100063Y-93194D01*
X-99542Y-92846D01*
X-99057D01*
X-98536Y-93194D01*
X-97921Y-93316D01*
X-96740D01*
X-96126Y-93194D01*
X-95605Y-92846D01*
X-95120D01*
X-94599Y-93194D01*
X-93984Y-93316D01*
X-92803D01*
X-92189Y-93194D01*
X-91668Y-92846D01*
X-91183D01*
X-90662Y-93194D01*
X-90047Y-93316D01*
X-88866D01*
X-88252Y-93194D01*
X-87731Y-92846D01*
X-87246D01*
X-86725Y-93194D01*
X-86110Y-93316D01*
X-84929D01*
X-84315Y-93194D01*
X-83794Y-92846D01*
X-83309D01*
X-83088Y-92993D01*
Y-93033D01*
X-82973Y-93609D01*
X-82647Y-94097D01*
X-71277Y-105467D01*
Y-143589D01*
X-71277Y-143589D01*
X-71277D01*
X-71162Y-144165D01*
X-70836Y-144654D01*
X-59037Y-156453D01*
Y-173214D01*
X-59120Y-173249D01*
X-59778Y-173754D01*
X-60283Y-174412D01*
X-60600Y-175178D01*
X-60708Y-176000D01*
X-60600Y-176822D01*
X-60283Y-177588D01*
X-59778Y-178246D01*
X-59120Y-178751D01*
X-58551Y-178987D01*
Y-178988D01*
X-58600Y-179484D01*
X-59166Y-179597D01*
X-59686Y-179945D01*
X-60172D01*
X-60693Y-179597D01*
X-61307Y-179475D01*
X-62488D01*
X-63103Y-179597D01*
X-63624Y-179945D01*
X-64109D01*
X-64630Y-179597D01*
X-65244Y-179475D01*
X-66425D01*
X-67040Y-179597D01*
X-67561Y-179945D01*
X-68046D01*
X-68567Y-179597D01*
X-69181Y-179475D01*
X-70362D01*
X-70977Y-179597D01*
X-71498Y-179945D01*
X-71983D01*
X-72504Y-179597D01*
X-73118Y-179475D01*
X-73209D01*
Y-184428D01*
Y-189379D01*
X-73118D01*
X-72504Y-189257D01*
X-71983Y-188909D01*
X-71498D01*
X-70977Y-189257D01*
X-70362Y-189379D01*
X-69181D01*
X-68567Y-189257D01*
X-68046Y-188909D01*
X-67561D01*
X-67040Y-189257D01*
X-66425Y-189379D01*
X-65244D01*
X-64630Y-189257D01*
X-64109Y-188909D01*
X-63624D01*
X-63103Y-189257D01*
X-62488Y-189379D01*
X-61307D01*
X-60693Y-189257D01*
X-60172Y-188909D01*
X-59686D01*
X-59166Y-189257D01*
X-58551Y-189379D01*
X-57370D01*
X-56756Y-189257D01*
X-56235Y-188909D01*
X-55749D01*
X-55229Y-189257D01*
X-54614Y-189379D01*
X-53635D01*
X-53374Y-189677D01*
X-53326Y-189915D01*
X-53390Y-190395D01*
X-53264Y-191346D01*
X-52898Y-192232D01*
X-52314Y-192993D01*
X-51553Y-193576D01*
X-50667Y-193943D01*
X-49716Y-194068D01*
X-48766Y-193943D01*
X-47880Y-193576D01*
X-47119Y-192993D01*
X-46536Y-192232D01*
X-46169Y-191346D01*
X-46043Y-190395D01*
X-46169Y-189445D01*
X-46536Y-188559D01*
X-47119Y-187798D01*
X-47880Y-187214D01*
X-48211Y-187077D01*
Y-183802D01*
X-47749Y-183611D01*
X-40896Y-190464D01*
X-40408Y-190791D01*
X-39832Y-190905D01*
X-13940D01*
X-11222Y-193623D01*
Y-196754D01*
X-13358D01*
Y-204037D01*
X-6075D01*
Y-196754D01*
X-8211D01*
Y-193000D01*
X-8326Y-192424D01*
X-8652Y-191936D01*
X-12252Y-188336D01*
X-12741Y-188009D01*
X-13317Y-187895D01*
X-39208D01*
X-45663Y-181439D01*
Y-178952D01*
X-45201Y-178761D01*
X-44210Y-179752D01*
X-44308Y-180500D01*
X-44200Y-181322D01*
X-43883Y-182088D01*
X-43378Y-182746D01*
X-42720Y-183251D01*
X-41954Y-183569D01*
X-41131Y-183677D01*
X-40309Y-183569D01*
X-39543Y-183251D01*
X-38885Y-182746D01*
X-38380Y-182088D01*
X-38063Y-181322D01*
X-37955Y-180500D01*
X-38063Y-179678D01*
X-38380Y-178912D01*
X-38885Y-178254D01*
X-39543Y-177749D01*
Y-177517D01*
X-39143Y-177351D01*
X-38485Y-176846D01*
X-37980Y-176188D01*
X-37663Y-175422D01*
X-37555Y-174600D01*
X-37663Y-173778D01*
X-37980Y-173012D01*
X-38485Y-172354D01*
X-39143Y-171849D01*
X-39909Y-171531D01*
X-40731Y-171423D01*
X-41554Y-171531D01*
X-41637Y-171566D01*
X-46234Y-166968D01*
Y-143016D01*
X-42902Y-139683D01*
X-42441Y-139875D01*
Y-139832D01*
X-37487D01*
Y-140832D01*
X-42440D01*
Y-140923D01*
X-42318Y-141537D01*
X-41970Y-142058D01*
Y-142543D01*
X-42318Y-143064D01*
X-42440Y-143679D01*
Y-143769D01*
X-37487D01*
Y-144769D01*
X-42440D01*
Y-144860D01*
X-42318Y-145474D01*
X-41970Y-145995D01*
Y-146480D01*
X-42318Y-147001D01*
X-42440Y-147616D01*
Y-148797D01*
X-42318Y-149411D01*
X-41970Y-149932D01*
Y-150417D01*
X-42318Y-150938D01*
X-42440Y-151553D01*
Y-152734D01*
X-42318Y-153348D01*
X-41970Y-153869D01*
Y-154354D01*
X-42318Y-154875D01*
X-42440Y-155490D01*
Y-156671D01*
X-42318Y-157285D01*
X-41970Y-157806D01*
Y-158291D01*
X-42318Y-158812D01*
X-42440Y-159427D01*
Y-159517D01*
X-32536D01*
Y-159427D01*
X-32268Y-159100D01*
X-25368D01*
Y-162057D01*
X-27012D01*
Y-169143D01*
X-20713D01*
Y-162057D01*
X-22357D01*
Y-159100D01*
X-4925D01*
Y-214620D01*
X-137627D01*
Y-170337D01*
X-137240Y-170019D01*
X-136898Y-170088D01*
X-130205D01*
X-129590Y-169965D01*
X-129069Y-169617D01*
X-128721Y-169096D01*
X-128599Y-168482D01*
Y-167301D01*
X-128714Y-166723D01*
X-128466Y-166590D01*
X-128037Y-166847D01*
Y-172314D01*
X-128120Y-172349D01*
X-128778Y-172854D01*
X-129283Y-173512D01*
X-129600Y-174278D01*
X-129708Y-175100D01*
X-129600Y-175922D01*
X-129283Y-176688D01*
X-129003Y-177053D01*
X-129253Y-177486D01*
X-129732Y-177423D01*
X-130554Y-177532D01*
X-131320Y-177849D01*
X-131978Y-178354D01*
X-132483Y-179012D01*
X-132800Y-179778D01*
X-132908Y-180600D01*
X-132800Y-181422D01*
X-132483Y-182188D01*
X-131978Y-182846D01*
X-131320Y-183351D01*
X-130554Y-183668D01*
X-129732Y-183777D01*
X-128909Y-183668D01*
X-128143Y-183351D01*
X-127485Y-182846D01*
X-126980Y-182188D01*
X-126978Y-182183D01*
X-126493Y-182062D01*
X-126137Y-182354D01*
Y-198301D01*
X-126610Y-198461D01*
X-127119Y-197798D01*
X-127880Y-197214D01*
X-128766Y-196847D01*
X-129217Y-196788D01*
Y-200396D01*
Y-204003D01*
X-128766Y-203943D01*
X-127880Y-203576D01*
X-127119Y-202993D01*
X-126610Y-202329D01*
X-126137Y-202490D01*
Y-205283D01*
X-126022Y-205859D01*
X-125696Y-206348D01*
X-123070Y-208974D01*
X-123265Y-209445D01*
X-123390Y-210395D01*
X-123265Y-211346D01*
X-122898Y-212232D01*
X-122314Y-212993D01*
X-121553Y-213576D01*
X-120667Y-213943D01*
X-119717Y-214068D01*
X-118766Y-213943D01*
X-117880Y-213576D01*
X-117119Y-212993D01*
X-116535Y-212232D01*
X-116169Y-211346D01*
X-116043Y-210395D01*
X-116169Y-209445D01*
X-116535Y-208559D01*
X-117119Y-207798D01*
X-117880Y-207214D01*
X-118766Y-206847D01*
X-119717Y-206722D01*
X-120667Y-206847D01*
X-120859Y-206927D01*
X-123126Y-204660D01*
Y-202712D01*
X-122653Y-202551D01*
X-122314Y-202993D01*
X-121553Y-203576D01*
X-120667Y-203943D01*
X-119717Y-204068D01*
X-118766Y-203943D01*
X-117880Y-203576D01*
X-117119Y-202993D01*
X-116610Y-202329D01*
X-116137Y-202490D01*
Y-203300D01*
X-116137Y-203300D01*
X-116137D01*
X-116022Y-203876D01*
X-115696Y-204364D01*
X-113325Y-206735D01*
X-112837Y-207062D01*
X-112261Y-207176D01*
X-112261Y-207757D01*
X-112314Y-207798D01*
X-112898Y-208559D01*
X-113265Y-209445D01*
X-113390Y-210395D01*
X-113265Y-211346D01*
X-112898Y-212232D01*
X-112314Y-212993D01*
X-111553Y-213576D01*
X-110667Y-213943D01*
X-109716Y-214068D01*
X-108766Y-213943D01*
X-107880Y-213576D01*
X-107119Y-212993D01*
X-106535Y-212232D01*
X-106169Y-211346D01*
X-106043Y-210395D01*
X-106169Y-209445D01*
X-106535Y-208559D01*
X-107119Y-207798D01*
X-107880Y-207214D01*
X-107872Y-207176D01*
X-102281D01*
X-102120Y-207650D01*
X-102314Y-207798D01*
X-102898Y-208559D01*
X-103264Y-209445D01*
X-103324Y-209895D01*
X-96109D01*
X-96169Y-209445D01*
X-96535Y-208559D01*
X-97119Y-207798D01*
X-97880Y-207214D01*
X-97872Y-207176D01*
X-94868D01*
X-93070Y-208974D01*
X-93265Y-209445D01*
X-93390Y-210395D01*
X-93265Y-211346D01*
X-92898Y-212232D01*
X-92314Y-212993D01*
X-91553Y-213576D01*
X-90667Y-213943D01*
X-89717Y-214068D01*
X-88766Y-213943D01*
X-87880Y-213576D01*
X-87119Y-212993D01*
X-86536Y-212232D01*
X-86169Y-211346D01*
X-86043Y-210395D01*
X-86169Y-209445D01*
X-86536Y-208559D01*
X-87119Y-207798D01*
X-87880Y-207214D01*
X-88766Y-206847D01*
X-89717Y-206722D01*
X-90667Y-206847D01*
X-90859Y-206927D01*
X-93180Y-204607D01*
X-93668Y-204280D01*
X-94244Y-204166D01*
X-98021D01*
X-98119Y-203675D01*
X-97880Y-203576D01*
X-97119Y-202993D01*
X-96535Y-202232D01*
X-96169Y-201346D01*
X-96043Y-200395D01*
X-96169Y-199445D01*
X-96535Y-198559D01*
X-97119Y-197798D01*
X-97880Y-197214D01*
X-98211Y-197077D01*
Y-194680D01*
X-96652Y-193121D01*
X-96124D01*
X-96090Y-193204D01*
X-95585Y-193862D01*
X-94927Y-194367D01*
X-94161Y-194684D01*
X-93339Y-194792D01*
X-92516Y-194684D01*
X-91750Y-194367D01*
X-91092Y-193862D01*
X-90587Y-193204D01*
X-90270Y-192438D01*
X-90162Y-191616D01*
X-90270Y-190794D01*
X-90587Y-190027D01*
X-90840Y-189698D01*
X-90576Y-189274D01*
X-90047Y-189379D01*
X-88866D01*
X-88252Y-189257D01*
X-87731Y-188909D01*
X-87246D01*
X-86725Y-189257D01*
X-86110Y-189379D01*
X-84929D01*
X-84315Y-189257D01*
X-83794Y-188909D01*
X-83309D01*
X-82788Y-189257D01*
X-82173Y-189379D01*
X-80992D01*
X-80378Y-189257D01*
X-79857Y-188909D01*
X-79372D01*
X-78851Y-189257D01*
X-78236Y-189379D01*
X-78146D01*
Y-184428D01*
Y-179475D01*
X-78236D01*
X-78851Y-179597D01*
X-79372Y-179945D01*
X-79857D01*
X-80378Y-179597D01*
X-80992Y-179475D01*
X-82173D01*
X-82788Y-179597D01*
X-83309Y-179945D01*
X-83794D01*
X-84315Y-179597D01*
X-84929Y-179475D01*
X-86110D01*
X-86725Y-179597D01*
X-87246Y-179945D01*
X-87731D01*
X-88252Y-179597D01*
X-88866Y-179475D01*
X-90047D01*
X-90662Y-179597D01*
X-91183Y-179945D01*
X-91668D01*
X-92189Y-179597D01*
X-92803Y-179475D01*
X-93984D01*
X-94599Y-179597D01*
X-95120Y-179945D01*
X-95605D01*
X-96126Y-179597D01*
X-96740Y-179475D01*
X-97921D01*
X-98536Y-179597D01*
X-99057Y-179945D01*
X-99542D01*
X-100063Y-179597D01*
X-100677Y-179475D01*
X-100768D01*
Y-184428D01*
Y-189379D01*
X-100677D01*
X-100063Y-189257D01*
X-99542Y-188909D01*
X-99057D01*
X-98536Y-189257D01*
X-97921Y-189379D01*
X-96740D01*
X-96126Y-189257D01*
X-96114Y-189249D01*
X-95773Y-189614D01*
X-96090Y-190027D01*
X-96124Y-190111D01*
X-97276D01*
X-97852Y-190225D01*
X-98340Y-190551D01*
X-100781Y-192992D01*
X-101107Y-193481D01*
X-101222Y-194057D01*
Y-197077D01*
X-101553Y-197214D01*
X-102314Y-197798D01*
X-102898Y-198559D01*
X-103264Y-199445D01*
X-103390Y-200395D01*
X-103264Y-201346D01*
X-102898Y-202232D01*
X-102314Y-202993D01*
X-101553Y-203576D01*
X-101314Y-203675D01*
X-101412Y-204166D01*
X-108021D01*
X-108119Y-203675D01*
X-107880Y-203576D01*
X-107119Y-202993D01*
X-106535Y-202232D01*
X-106169Y-201346D01*
X-106043Y-200395D01*
X-106169Y-199445D01*
X-106535Y-198559D01*
X-107119Y-197798D01*
X-107880Y-197214D01*
X-108766Y-196847D01*
X-109716Y-196722D01*
X-110667Y-196847D01*
X-111553Y-197214D01*
X-112314Y-197798D01*
X-112653Y-198240D01*
X-113126Y-198079D01*
Y-196072D01*
X-113241Y-195496D01*
X-113567Y-195008D01*
X-118999Y-189576D01*
Y-189267D01*
X-118558Y-189032D01*
X-118221Y-189257D01*
X-117606Y-189379D01*
X-116425D01*
X-115811Y-189257D01*
X-115290Y-188909D01*
X-114805D01*
X-114284Y-189257D01*
X-113669Y-189379D01*
X-112488D01*
X-111874Y-189257D01*
X-111353Y-188909D01*
X-110868D01*
X-110347Y-189257D01*
X-109732Y-189379D01*
X-108551D01*
X-107937Y-189257D01*
X-107416Y-188909D01*
X-106931D01*
X-106410Y-189257D01*
X-105795Y-189379D01*
X-104614D01*
X-104000Y-189257D01*
X-103479Y-188909D01*
X-102994D01*
X-102473Y-189257D01*
X-101858Y-189379D01*
X-101768D01*
Y-184428D01*
Y-179475D01*
X-101858D01*
X-102473Y-179597D01*
X-102994Y-179945D01*
X-103479D01*
X-104000Y-179597D01*
X-104614Y-179475D01*
X-105795D01*
X-106410Y-179597D01*
X-106931Y-179945D01*
X-107416D01*
X-107937Y-179597D01*
X-108551Y-179475D01*
X-109732D01*
X-110347Y-179597D01*
X-110868Y-179945D01*
X-111353D01*
X-111874Y-179597D01*
X-112488Y-179475D01*
X-113669D01*
X-114284Y-179597D01*
X-114805Y-179945D01*
X-115290D01*
X-115811Y-179597D01*
X-116425Y-179475D01*
X-117392D01*
X-117583Y-179013D01*
X-106841Y-168271D01*
X-106515Y-167782D01*
X-106400Y-167206D01*
Y-147628D01*
X-106515Y-147052D01*
X-106841Y-146564D01*
X-118168Y-135237D01*
Y-106301D01*
X-117712Y-106146D01*
X-117054Y-106651D01*
X-116971Y-106686D01*
Y-132266D01*
X-116971Y-132266D01*
X-116971D01*
X-116856Y-132842D01*
X-116530Y-133331D01*
X-102366Y-147495D01*
X-102400Y-147578D01*
X-102508Y-148400D01*
X-102400Y-149222D01*
X-102083Y-149988D01*
X-101578Y-150646D01*
X-100920Y-151151D01*
X-100154Y-151469D01*
X-99331Y-151577D01*
X-98509Y-151469D01*
X-98426Y-151434D01*
X-83952Y-165909D01*
X-83464Y-166235D01*
X-82887Y-166349D01*
X-74864D01*
X-74830Y-166432D01*
X-74325Y-167090D01*
X-73667Y-167595D01*
X-72901Y-167913D01*
X-72079Y-168021D01*
X-71257Y-167913D01*
X-70490Y-167595D01*
X-69832Y-167090D01*
X-69328Y-166432D01*
X-69010Y-165666D01*
X-68902Y-164844D01*
X-69010Y-164022D01*
X-69328Y-163256D01*
X-69832Y-162598D01*
X-70490Y-162093D01*
X-71257Y-161776D01*
X-72079Y-161667D01*
X-72901Y-161776D01*
X-73667Y-162093D01*
X-74325Y-162598D01*
X-74830Y-163256D01*
X-74864Y-163339D01*
X-82264D01*
X-96297Y-149305D01*
X-96263Y-149222D01*
X-96155Y-148400D01*
X-96263Y-147578D01*
X-96580Y-146812D01*
X-97085Y-146154D01*
X-97743Y-145649D01*
X-98509Y-145332D01*
X-99331Y-145223D01*
X-100154Y-145332D01*
X-100237Y-145366D01*
X-113960Y-131643D01*
Y-106686D01*
X-113877Y-106651D01*
X-113219Y-106146D01*
X-112714Y-105488D01*
X-112397Y-104722D01*
X-112289Y-103900D01*
X-112397Y-103078D01*
X-112714Y-102312D01*
X-113219Y-101654D01*
X-113877Y-101149D01*
X-114643Y-100831D01*
X-115465Y-100723D01*
X-116288Y-100831D01*
X-117054Y-101149D01*
X-117712Y-101654D01*
X-118168Y-101499D01*
Y-93598D01*
X-117781Y-93281D01*
X-117606Y-93316D01*
X-117516D01*
Y-88363D01*
X-116516D01*
Y-93316D01*
D02*
G37*
G36*
X-135737Y-64307D02*
Y-80362D01*
X-135622Y-80938D01*
X-135296Y-81427D01*
X-129052Y-87670D01*
Y-102654D01*
X-129493Y-102890D01*
X-129590Y-102825D01*
X-130205Y-102703D01*
X-133051D01*
Y-104900D01*
X-134051D01*
Y-102703D01*
X-136898D01*
X-137240Y-102771D01*
X-137627Y-102454D01*
Y-63071D01*
X-137165Y-62880D01*
X-135737Y-64307D01*
D02*
G37*
G36*
X-113348Y-149883D02*
Y-157140D01*
X-113796Y-157361D01*
X-113943Y-157249D01*
X-114709Y-156931D01*
X-115032Y-156889D01*
Y-160001D01*
Y-163111D01*
X-114709Y-163068D01*
X-113943Y-162751D01*
X-113796Y-162638D01*
X-113348Y-162860D01*
Y-164952D01*
X-122971Y-174576D01*
X-123445Y-174415D01*
X-123463Y-174278D01*
X-123780Y-173512D01*
X-124285Y-172854D01*
X-124943Y-172349D01*
X-125026Y-172314D01*
Y-166100D01*
X-125141Y-165524D01*
X-125467Y-165036D01*
X-127613Y-162890D01*
X-128101Y-162564D01*
X-128677Y-162449D01*
X-128922D01*
X-129069Y-162228D01*
Y-161743D01*
X-128922Y-161523D01*
X-124651D01*
X-124583Y-161688D01*
X-124078Y-162346D01*
X-123420Y-162851D01*
X-122654Y-163169D01*
X-121832Y-163277D01*
X-121009Y-163169D01*
X-120243Y-162851D01*
X-119585Y-162346D01*
X-119080Y-161688D01*
X-118911Y-161279D01*
X-118411D01*
X-118283Y-161588D01*
X-117778Y-162246D01*
X-117120Y-162751D01*
X-116354Y-163068D01*
X-116032Y-163111D01*
Y-160001D01*
Y-156889D01*
X-116354Y-156931D01*
X-117120Y-157249D01*
X-117778Y-157754D01*
X-118283Y-158412D01*
X-118452Y-158821D01*
X-118952D01*
X-119080Y-158512D01*
X-119585Y-157854D01*
X-120243Y-157349D01*
X-121009Y-157032D01*
X-121832Y-156923D01*
X-122654Y-157032D01*
X-123420Y-157349D01*
X-124078Y-157854D01*
X-124583Y-158512D01*
X-124583Y-158512D01*
X-128922D01*
X-129069Y-158291D01*
Y-157806D01*
X-128922Y-157586D01*
X-127612D01*
X-127036Y-157471D01*
X-126547Y-157145D01*
X-126449Y-157046D01*
X-126154Y-157168D01*
X-125331Y-157277D01*
X-124509Y-157168D01*
X-123743Y-156851D01*
X-123085Y-156346D01*
X-122580Y-155688D01*
X-122263Y-154922D01*
X-122155Y-154100D01*
X-122263Y-153278D01*
X-122580Y-152512D01*
X-123085Y-151854D01*
X-123743Y-151349D01*
X-123745Y-151348D01*
Y-151251D01*
X-123087Y-150746D01*
X-122582Y-150088D01*
X-122265Y-149322D01*
X-122156Y-148500D01*
X-122265Y-147678D01*
X-122582Y-146912D01*
X-123087Y-146254D01*
X-123745Y-145749D01*
X-124511Y-145431D01*
X-125333Y-145323D01*
X-126155Y-145431D01*
X-126921Y-145749D01*
X-127579Y-146254D01*
X-128084Y-146912D01*
X-128197Y-147184D01*
X-128695Y-147135D01*
X-128721Y-147001D01*
X-129069Y-146480D01*
Y-145995D01*
X-128904Y-145748D01*
X-128460Y-145660D01*
X-127972Y-145334D01*
X-124514Y-141876D01*
X-124188Y-141388D01*
X-124073Y-140812D01*
Y-139810D01*
X-123611Y-139619D01*
X-113348Y-149883D01*
D02*
G37*
G36*
X-4925Y-9058D02*
X-5373Y-9279D01*
X-5543Y-9149D01*
X-6309Y-8832D01*
X-7131Y-8723D01*
X-7954Y-8832D01*
X-8720Y-9149D01*
X-9378Y-9654D01*
X-9883Y-10312D01*
X-9917Y-10395D01*
X-13231D01*
X-13808Y-10509D01*
X-14296Y-10836D01*
X-15996Y-12536D01*
X-16322Y-13024D01*
X-16437Y-13600D01*
Y-14840D01*
X-16823Y-15157D01*
X-17059Y-15111D01*
X-20799D01*
X-20813Y-15113D01*
X-21167Y-14760D01*
X-21164Y-14746D01*
Y-11005D01*
X-21279Y-10430D01*
X-21605Y-9941D01*
X-22093Y-9615D01*
X-22669Y-9500D01*
X-23245Y-9615D01*
X-23654Y-9888D01*
X-24062Y-9615D01*
X-24638Y-9500D01*
X-25214Y-9615D01*
X-25622Y-9888D01*
X-26030Y-9615D01*
X-26606Y-9500D01*
X-27182Y-9615D01*
X-27591Y-9888D01*
X-27999Y-9615D01*
X-28575Y-9500D01*
X-29151Y-9615D01*
X-29559Y-9888D01*
X-29967Y-9615D01*
X-30543Y-9500D01*
X-31119Y-9615D01*
X-31528Y-9888D01*
X-31936Y-9615D01*
X-32512Y-9500D01*
X-33088Y-9615D01*
X-33496Y-9888D01*
X-33904Y-9615D01*
X-34480Y-9500D01*
X-35056Y-9615D01*
X-35465Y-9888D01*
X-35873Y-9615D01*
X-36449Y-9500D01*
X-37025Y-9615D01*
X-37433Y-9888D01*
X-37841Y-9615D01*
X-38417Y-9500D01*
X-38522Y-9521D01*
X-38937Y-9243D01*
X-38995Y-8953D01*
X-39321Y-8465D01*
X-39912Y-7874D01*
X-40400Y-7548D01*
X-40976Y-7433D01*
X-46882D01*
X-47458Y-7548D01*
X-47946Y-7874D01*
X-49127Y-9055D01*
X-49454Y-9544D01*
X-49562Y-10087D01*
X-49651Y-10124D01*
X-50309Y-10629D01*
X-50814Y-11287D01*
X-51131Y-12053D01*
X-51240Y-12876D01*
X-51131Y-13698D01*
X-50867Y-14335D01*
X-51283Y-14613D01*
X-52115Y-13781D01*
X-52081Y-13698D01*
X-51973Y-12876D01*
X-52081Y-12053D01*
X-52398Y-11287D01*
X-52903Y-10629D01*
X-53561Y-10124D01*
X-54327Y-9807D01*
X-55150Y-9699D01*
X-55972Y-9807D01*
X-56457Y-10008D01*
X-56525Y-9995D01*
X-58542D01*
Y-7957D01*
X-64447D01*
Y-15043D01*
X-64402D01*
Y-15238D01*
X-64402D01*
Y-21607D01*
X-66370D01*
Y-19281D01*
X-72276D01*
Y-22324D01*
X-70136D01*
X-69945Y-22786D01*
X-70296Y-23137D01*
X-70622Y-23626D01*
X-70737Y-24202D01*
Y-24510D01*
X-72775D01*
Y-29695D01*
X-74831D01*
X-75408Y-29809D01*
X-75896Y-30136D01*
X-78826Y-33066D01*
X-79288Y-32875D01*
Y-28210D01*
X-81326D01*
Y-27800D01*
X-81441Y-27224D01*
X-81767Y-26736D01*
X-82967Y-25536D01*
X-83455Y-25209D01*
X-84031Y-25095D01*
X-87108D01*
X-87268Y-24621D01*
X-86952Y-24379D01*
X-86313Y-23546D01*
X-85912Y-22577D01*
X-85775Y-21537D01*
X-85912Y-20497D01*
X-86313Y-19528D01*
X-86952Y-18695D01*
X-87784Y-18057D01*
X-88754Y-17655D01*
X-89794Y-17518D01*
X-90834Y-17655D01*
X-91338Y-17864D01*
X-93766Y-15436D01*
X-94255Y-15109D01*
X-94831Y-14995D01*
X-105814D01*
X-105974Y-14521D01*
X-105532Y-14182D01*
X-104932Y-13400D01*
X-104555Y-12490D01*
X-104427Y-11514D01*
X-104555Y-10538D01*
X-104932Y-9628D01*
X-105532Y-8847D01*
X-106313Y-8247D01*
X-107223Y-7870D01*
X-108199Y-7742D01*
X-109176Y-7870D01*
X-110085Y-8247D01*
X-110867Y-8847D01*
X-111466Y-9628D01*
X-111843Y-10538D01*
X-111972Y-11514D01*
X-111843Y-12490D01*
X-111466Y-13400D01*
X-110867Y-14182D01*
X-110424Y-14521D01*
X-110585Y-14995D01*
X-117608D01*
X-120667Y-11936D01*
X-121155Y-11609D01*
X-121731Y-11495D01*
X-126594D01*
Y-9063D01*
X-134468D01*
Y-16937D01*
X-126594D01*
Y-14505D01*
X-122355D01*
X-119296Y-17564D01*
X-119296D01*
X-119296Y-17564D01*
X-119296Y-17564D01*
Y-17564D01*
X-118807Y-17891D01*
X-118231Y-18005D01*
X-116136D01*
X-115975Y-18479D01*
X-116257Y-18695D01*
X-116896Y-19528D01*
X-117297Y-20497D01*
X-117369Y-21037D01*
X-113415D01*
Y-21536D01*
X-112916D01*
Y-25490D01*
X-112376Y-25419D01*
X-111406Y-25017D01*
X-110574Y-24379D01*
X-109935Y-23546D01*
X-109729Y-23047D01*
X-109229D01*
X-109022Y-23546D01*
X-108383Y-24379D01*
X-107551Y-25017D01*
X-107047Y-25226D01*
Y-25690D01*
X-106932Y-26266D01*
X-106606Y-26754D01*
X-105696Y-27664D01*
X-105208Y-27991D01*
X-104631Y-28105D01*
X-86375D01*
Y-28210D01*
X-86375D01*
Y-34116D01*
X-80393D01*
X-80157Y-34557D01*
X-80162Y-34564D01*
X-80277Y-35140D01*
Y-36084D01*
X-86375D01*
Y-37532D01*
X-87564D01*
Y-32741D01*
X-94650D01*
Y-33811D01*
X-97013D01*
Y-29001D01*
X-104099D01*
Y-29776D01*
X-112848D01*
X-113424Y-29890D01*
X-113912Y-30217D01*
X-115296Y-31600D01*
X-115411Y-31773D01*
X-116636D01*
Y-27190D01*
X-116751Y-26614D01*
X-117077Y-26125D01*
X-121267Y-21936D01*
X-121755Y-21609D01*
X-122332Y-21495D01*
X-126894D01*
X-127093Y-21014D01*
X-127724Y-20192D01*
X-128546Y-19561D01*
X-129504Y-19164D01*
X-130532Y-19029D01*
X-131559Y-19164D01*
X-132517Y-19561D01*
X-133339Y-20192D01*
X-133970Y-21014D01*
X-134367Y-21972D01*
X-134502Y-23000D01*
X-134367Y-24028D01*
X-133970Y-24985D01*
X-133339Y-25808D01*
X-132517Y-26439D01*
X-131559Y-26836D01*
X-130532Y-26971D01*
X-129504Y-26836D01*
X-128546Y-26439D01*
X-127724Y-25808D01*
X-127093Y-24985D01*
X-126894Y-24505D01*
X-122955D01*
X-119647Y-27813D01*
Y-31773D01*
X-121095D01*
Y-38860D01*
D01*
Y-38860D01*
X-121329Y-39095D01*
X-123831D01*
X-124407Y-39209D01*
X-124896Y-39536D01*
X-125898Y-40538D01*
X-126372Y-40377D01*
X-126504Y-39373D01*
X-126921Y-38367D01*
X-127583Y-37504D01*
X-128447Y-36841D01*
X-128630Y-36765D01*
Y-36265D01*
X-128447Y-36189D01*
X-127583Y-35526D01*
X-126921Y-34663D01*
X-126504Y-33657D01*
X-126428Y-33078D01*
X-134635D01*
X-134559Y-33657D01*
X-134142Y-34663D01*
X-133480Y-35526D01*
X-132616Y-36189D01*
X-132432Y-36265D01*
Y-36765D01*
X-132616Y-36841D01*
X-133480Y-37504D01*
X-134142Y-38367D01*
X-134559Y-39373D01*
X-134701Y-40452D01*
X-134559Y-41531D01*
X-134539Y-41579D01*
X-137165Y-44204D01*
X-137627Y-44013D01*
Y-6800D01*
X-4925D01*
Y-9058D01*
D02*
G37*
%LPC*%
G36*
X-50217Y-200895D02*
X-53324D01*
X-53264Y-201346D01*
X-52898Y-202232D01*
X-52314Y-202993D01*
X-51553Y-203576D01*
X-50667Y-203943D01*
X-50217Y-204003D01*
Y-200895D01*
D02*
G37*
G36*
X-130217Y-196788D02*
X-130667Y-196847D01*
X-131553Y-197214D01*
X-132314Y-197798D01*
X-132898Y-198559D01*
X-133265Y-199445D01*
X-133324Y-199895D01*
X-130217D01*
Y-196788D01*
D02*
G37*
G36*
X-46109Y-200895D02*
X-49216D01*
Y-204003D01*
X-48766Y-203943D01*
X-47880Y-203576D01*
X-47119Y-202993D01*
X-46536Y-202232D01*
X-46169Y-201346D01*
X-46109Y-200895D01*
D02*
G37*
G36*
X-130217D02*
X-133324D01*
X-133265Y-201346D01*
X-132898Y-202232D01*
X-132314Y-202993D01*
X-131553Y-203576D01*
X-130667Y-203943D01*
X-130217Y-204003D01*
Y-200895D01*
D02*
G37*
G36*
X-29717Y-196722D02*
X-30667Y-196847D01*
X-31553Y-197214D01*
X-32314Y-197798D01*
X-32898Y-198559D01*
X-33264Y-199445D01*
X-33390Y-200395D01*
X-33264Y-201346D01*
X-32898Y-202232D01*
X-32314Y-202993D01*
X-31553Y-203576D01*
X-30667Y-203943D01*
X-29717Y-204068D01*
X-28766Y-203943D01*
X-27880Y-203576D01*
X-27119Y-202993D01*
X-26535Y-202232D01*
X-26169Y-201346D01*
X-26043Y-200395D01*
X-26169Y-199445D01*
X-26535Y-198559D01*
X-27119Y-197798D01*
X-27880Y-197214D01*
X-28766Y-196847D01*
X-29717Y-196722D01*
D02*
G37*
G36*
X-19716D02*
X-20667Y-196847D01*
X-21553Y-197214D01*
X-22314Y-197798D01*
X-22898Y-198559D01*
X-23265Y-199445D01*
X-23390Y-200395D01*
X-23265Y-201346D01*
X-22898Y-202232D01*
X-22314Y-202993D01*
X-21553Y-203576D01*
X-20667Y-203943D01*
X-19716Y-204068D01*
X-18766Y-203943D01*
X-17880Y-203576D01*
X-17119Y-202993D01*
X-16535Y-202232D01*
X-16169Y-201346D01*
X-16043Y-200395D01*
X-16169Y-199445D01*
X-16535Y-198559D01*
X-17119Y-197798D01*
X-17880Y-197214D01*
X-18766Y-196847D01*
X-19716Y-196722D01*
D02*
G37*
G36*
X-59716D02*
X-60667Y-196847D01*
X-61553Y-197214D01*
X-62314Y-197798D01*
X-62898Y-198559D01*
X-63265Y-199445D01*
X-63390Y-200395D01*
X-63265Y-201346D01*
X-62898Y-202232D01*
X-62314Y-202993D01*
X-61553Y-203576D01*
X-60667Y-203943D01*
X-59716Y-204068D01*
X-58766Y-203943D01*
X-57880Y-203576D01*
X-57119Y-202993D01*
X-56536Y-202232D01*
X-56169Y-201346D01*
X-56043Y-200395D01*
X-56169Y-199445D01*
X-56536Y-198559D01*
X-57119Y-197798D01*
X-57880Y-197214D01*
X-58766Y-196847D01*
X-59716Y-196722D01*
D02*
G37*
G36*
X-39717D02*
X-40667Y-196847D01*
X-41553Y-197214D01*
X-42314Y-197798D01*
X-42898Y-198559D01*
X-43264Y-199445D01*
X-43390Y-200395D01*
X-43264Y-201346D01*
X-42898Y-202232D01*
X-42314Y-202993D01*
X-41553Y-203576D01*
X-40667Y-203943D01*
X-39717Y-204068D01*
X-38766Y-203943D01*
X-37880Y-203576D01*
X-37119Y-202993D01*
X-36536Y-202232D01*
X-36169Y-201346D01*
X-36043Y-200395D01*
X-36169Y-199445D01*
X-36536Y-198559D01*
X-37119Y-197798D01*
X-37880Y-197214D01*
X-38766Y-196847D01*
X-39717Y-196722D01*
D02*
G37*
G36*
X-5488Y-173663D02*
X-8531D01*
Y-176116D01*
X-5488D01*
Y-173663D01*
D02*
G37*
G36*
X-9532D02*
X-12575D01*
Y-176116D01*
X-9532D01*
Y-173663D01*
D02*
G37*
G36*
Y-170210D02*
X-12575D01*
Y-172663D01*
X-9532D01*
Y-170210D01*
D02*
G37*
G36*
X-32536Y-164454D02*
X-42440D01*
Y-164545D01*
X-42318Y-165159D01*
X-41970Y-165680D01*
Y-166165D01*
X-42318Y-166686D01*
X-42440Y-167301D01*
Y-168482D01*
X-42318Y-169096D01*
X-41970Y-169617D01*
X-41449Y-169965D01*
X-40835Y-170088D01*
X-34142D01*
X-33527Y-169965D01*
X-33006Y-169617D01*
X-32859Y-169397D01*
X-31364D01*
X-30761Y-169999D01*
Y-170750D01*
X-32709D01*
Y-175868D01*
X-25622D01*
Y-170750D01*
X-27751D01*
Y-169376D01*
X-27865Y-168799D01*
X-28192Y-168311D01*
X-29676Y-166827D01*
X-30164Y-166501D01*
X-30740Y-166386D01*
X-32859D01*
X-33006Y-166165D01*
Y-165680D01*
X-32658Y-165159D01*
X-32536Y-164545D01*
Y-164454D01*
D02*
G37*
G36*
X-49216Y-196788D02*
Y-199895D01*
X-46109D01*
X-46169Y-199445D01*
X-46536Y-198559D01*
X-47119Y-197798D01*
X-47880Y-197214D01*
X-48766Y-196847D01*
X-49216Y-196788D01*
D02*
G37*
G36*
X-50217D02*
X-50667Y-196847D01*
X-51553Y-197214D01*
X-52314Y-197798D01*
X-52898Y-198559D01*
X-53264Y-199445D01*
X-53324Y-199895D01*
X-50217D01*
Y-196788D01*
D02*
G37*
G36*
X-12051Y-162057D02*
X-18350D01*
Y-169143D01*
X-16706D01*
Y-173146D01*
X-18050Y-174490D01*
X-23260D01*
Y-179335D01*
X-25622D01*
Y-178230D01*
X-32709D01*
Y-183348D01*
X-25622D01*
Y-182345D01*
X-12575D01*
Y-183990D01*
X-5488D01*
Y-178084D01*
X-12575D01*
Y-179335D01*
X-16173D01*
Y-176871D01*
X-14136Y-174834D01*
X-13810Y-174345D01*
X-13695Y-173769D01*
Y-169143D01*
X-12051D01*
Y-162057D01*
D02*
G37*
G36*
X-74209Y-179475D02*
X-74299D01*
X-74914Y-179597D01*
X-75435Y-179945D01*
X-75920D01*
X-76441Y-179597D01*
X-77055Y-179475D01*
X-77146D01*
Y-184428D01*
Y-189379D01*
X-77055D01*
X-76441Y-189257D01*
X-75920Y-188909D01*
X-75435D01*
X-74914Y-189257D01*
X-74299Y-189379D01*
X-74209D01*
Y-184428D01*
Y-179475D01*
D02*
G37*
G36*
X-9717Y-206722D02*
X-10667Y-206847D01*
X-11553Y-207214D01*
X-12314Y-207798D01*
X-12898Y-208559D01*
X-13264Y-209445D01*
X-13390Y-210395D01*
X-13264Y-211346D01*
X-12898Y-212232D01*
X-12314Y-212993D01*
X-11553Y-213576D01*
X-10667Y-213943D01*
X-9717Y-214068D01*
X-8766Y-213943D01*
X-7880Y-213576D01*
X-7119Y-212993D01*
X-6536Y-212232D01*
X-6168Y-211346D01*
X-6043Y-210395D01*
X-6168Y-209445D01*
X-6536Y-208559D01*
X-7119Y-207798D01*
X-7880Y-207214D01*
X-8766Y-206847D01*
X-9717Y-206722D01*
D02*
G37*
G36*
X-19716D02*
X-20667Y-206847D01*
X-21553Y-207214D01*
X-22314Y-207798D01*
X-22898Y-208559D01*
X-23265Y-209445D01*
X-23390Y-210395D01*
X-23265Y-211346D01*
X-22898Y-212232D01*
X-22314Y-212993D01*
X-21553Y-213576D01*
X-20667Y-213943D01*
X-19716Y-214068D01*
X-18766Y-213943D01*
X-17880Y-213576D01*
X-17119Y-212993D01*
X-16535Y-212232D01*
X-16169Y-211346D01*
X-16043Y-210395D01*
X-16169Y-209445D01*
X-16535Y-208559D01*
X-17119Y-207798D01*
X-17880Y-207214D01*
X-18766Y-206847D01*
X-19716Y-206722D01*
D02*
G37*
G36*
X-100216Y-210895D02*
X-103324D01*
X-103264Y-211346D01*
X-102898Y-212232D01*
X-102314Y-212993D01*
X-101553Y-213576D01*
X-100667Y-213943D01*
X-100216Y-214003D01*
Y-210895D01*
D02*
G37*
G36*
X-70217D02*
X-73324D01*
X-73264Y-211346D01*
X-72898Y-212232D01*
X-72314Y-212993D01*
X-71553Y-213576D01*
X-70667Y-213943D01*
X-70217Y-214003D01*
Y-210895D01*
D02*
G37*
G36*
X-96109D02*
X-99217D01*
Y-214003D01*
X-98766Y-213943D01*
X-97880Y-213576D01*
X-97119Y-212993D01*
X-96535Y-212232D01*
X-96169Y-211346D01*
X-96109Y-210895D01*
D02*
G37*
G36*
X-79716Y-206722D02*
X-80667Y-206847D01*
X-81553Y-207214D01*
X-82314Y-207798D01*
X-82898Y-208559D01*
X-83264Y-209445D01*
X-83390Y-210395D01*
X-83264Y-211346D01*
X-82898Y-212232D01*
X-82314Y-212993D01*
X-81553Y-213576D01*
X-80667Y-213943D01*
X-79716Y-214068D01*
X-78766Y-213943D01*
X-77880Y-213576D01*
X-77119Y-212993D01*
X-76535Y-212232D01*
X-76169Y-211346D01*
X-76043Y-210395D01*
X-76169Y-209445D01*
X-76535Y-208559D01*
X-77119Y-207798D01*
X-77880Y-207214D01*
X-78766Y-206847D01*
X-79716Y-206722D01*
D02*
G37*
G36*
X-129717D02*
X-130667Y-206847D01*
X-131553Y-207214D01*
X-132314Y-207798D01*
X-132898Y-208559D01*
X-133265Y-209445D01*
X-133390Y-210395D01*
X-133265Y-211346D01*
X-132898Y-212232D01*
X-132314Y-212993D01*
X-131553Y-213576D01*
X-130667Y-213943D01*
X-129717Y-214068D01*
X-128766Y-213943D01*
X-127880Y-213576D01*
X-127119Y-212993D01*
X-126535Y-212232D01*
X-126169Y-211346D01*
X-126043Y-210395D01*
X-126169Y-209445D01*
X-126535Y-208559D01*
X-127119Y-207798D01*
X-127880Y-207214D01*
X-128766Y-206847D01*
X-129717Y-206722D01*
D02*
G37*
G36*
X-59716D02*
X-60667Y-206847D01*
X-61553Y-207214D01*
X-62314Y-207798D01*
X-62898Y-208559D01*
X-63265Y-209445D01*
X-63390Y-210395D01*
X-63265Y-211346D01*
X-62898Y-212232D01*
X-62314Y-212993D01*
X-61553Y-213576D01*
X-60667Y-213943D01*
X-59716Y-214068D01*
X-58766Y-213943D01*
X-57880Y-213576D01*
X-57119Y-212993D01*
X-56536Y-212232D01*
X-56169Y-211346D01*
X-56043Y-210395D01*
X-56169Y-209445D01*
X-56536Y-208559D01*
X-57119Y-207798D01*
X-57880Y-207214D01*
X-58766Y-206847D01*
X-59716Y-206722D01*
D02*
G37*
G36*
X-39717D02*
X-40667Y-206847D01*
X-41553Y-207214D01*
X-42314Y-207798D01*
X-42898Y-208559D01*
X-43264Y-209445D01*
X-43390Y-210395D01*
X-43264Y-211346D01*
X-42898Y-212232D01*
X-42314Y-212993D01*
X-41553Y-213576D01*
X-40667Y-213943D01*
X-39717Y-214068D01*
X-38766Y-213943D01*
X-37880Y-213576D01*
X-37119Y-212993D01*
X-36536Y-212232D01*
X-36169Y-211346D01*
X-36043Y-210395D01*
X-36169Y-209445D01*
X-36536Y-208559D01*
X-37119Y-207798D01*
X-37880Y-207214D01*
X-38766Y-206847D01*
X-39717Y-206722D01*
D02*
G37*
G36*
X-49716D02*
X-50667Y-206847D01*
X-51553Y-207214D01*
X-52314Y-207798D01*
X-52898Y-208559D01*
X-53264Y-209445D01*
X-53390Y-210395D01*
X-53264Y-211346D01*
X-52898Y-212232D01*
X-52314Y-212993D01*
X-51553Y-213576D01*
X-50667Y-213943D01*
X-49716Y-214068D01*
X-48766Y-213943D01*
X-47880Y-213576D01*
X-47119Y-212993D01*
X-46536Y-212232D01*
X-46169Y-211346D01*
X-46043Y-210395D01*
X-46169Y-209445D01*
X-46536Y-208559D01*
X-47119Y-207798D01*
X-47880Y-207214D01*
X-48766Y-206847D01*
X-49716Y-206722D01*
D02*
G37*
G36*
X-29217Y-206788D02*
Y-209895D01*
X-26109D01*
X-26169Y-209445D01*
X-26535Y-208559D01*
X-27119Y-207798D01*
X-27880Y-207214D01*
X-28766Y-206847D01*
X-29217Y-206788D01*
D02*
G37*
G36*
X-30217D02*
X-30667Y-206847D01*
X-31553Y-207214D01*
X-32314Y-207798D01*
X-32898Y-208559D01*
X-33264Y-209445D01*
X-33324Y-209895D01*
X-30217D01*
Y-206788D01*
D02*
G37*
G36*
X-89717Y-196722D02*
X-90667Y-196847D01*
X-91553Y-197214D01*
X-92314Y-197798D01*
X-92898Y-198559D01*
X-93265Y-199445D01*
X-93390Y-200395D01*
X-93265Y-201346D01*
X-92898Y-202232D01*
X-92314Y-202993D01*
X-91553Y-203576D01*
X-90667Y-203943D01*
X-89717Y-204068D01*
X-88766Y-203943D01*
X-87880Y-203576D01*
X-87119Y-202993D01*
X-86536Y-202232D01*
X-86169Y-201346D01*
X-86043Y-200395D01*
X-86169Y-199445D01*
X-86536Y-198559D01*
X-87119Y-197798D01*
X-87880Y-197214D01*
X-88766Y-196847D01*
X-89717Y-196722D01*
D02*
G37*
G36*
X-69717D02*
X-70667Y-196847D01*
X-71553Y-197214D01*
X-72314Y-197798D01*
X-72898Y-198559D01*
X-73264Y-199445D01*
X-73390Y-200395D01*
X-73264Y-201346D01*
X-72898Y-202232D01*
X-72314Y-202993D01*
X-71553Y-203576D01*
X-70667Y-203943D01*
X-69717Y-204068D01*
X-68766Y-203943D01*
X-67880Y-203576D01*
X-67119Y-202993D01*
X-66536Y-202232D01*
X-66169Y-201346D01*
X-66043Y-200395D01*
X-66169Y-199445D01*
X-66536Y-198559D01*
X-67119Y-197798D01*
X-67880Y-197214D01*
X-68766Y-196847D01*
X-69717Y-196722D01*
D02*
G37*
G36*
X-79716D02*
X-80667Y-196847D01*
X-81553Y-197214D01*
X-82314Y-197798D01*
X-82898Y-198559D01*
X-83264Y-199445D01*
X-83390Y-200395D01*
X-83264Y-201346D01*
X-82898Y-202232D01*
X-82314Y-202993D01*
X-81553Y-203576D01*
X-80667Y-203943D01*
X-79716Y-204068D01*
X-78766Y-203943D01*
X-77880Y-203576D01*
X-77119Y-202993D01*
X-76535Y-202232D01*
X-76169Y-201346D01*
X-76043Y-200395D01*
X-76169Y-199445D01*
X-76535Y-198559D01*
X-77119Y-197798D01*
X-77880Y-197214D01*
X-78766Y-196847D01*
X-79716Y-196722D01*
D02*
G37*
G36*
X-30217Y-210895D02*
X-33324D01*
X-33264Y-211346D01*
X-32898Y-212232D01*
X-32314Y-212993D01*
X-31553Y-213576D01*
X-30667Y-213943D01*
X-30217Y-214003D01*
Y-210895D01*
D02*
G37*
G36*
X-66109D02*
X-69217D01*
Y-214003D01*
X-68766Y-213943D01*
X-67880Y-213576D01*
X-67119Y-212993D01*
X-66536Y-212232D01*
X-66169Y-211346D01*
X-66109Y-210895D01*
D02*
G37*
G36*
X-26109D02*
X-29217D01*
Y-214003D01*
X-28766Y-213943D01*
X-27880Y-213576D01*
X-27119Y-212993D01*
X-26535Y-212232D01*
X-26169Y-211346D01*
X-26109Y-210895D01*
D02*
G37*
G36*
X-69217Y-206788D02*
Y-209895D01*
X-66109D01*
X-66169Y-209445D01*
X-66536Y-208559D01*
X-67119Y-207798D01*
X-67880Y-207214D01*
X-68766Y-206847D01*
X-69217Y-206788D01*
D02*
G37*
G36*
X-70217D02*
X-70667Y-206847D01*
X-71553Y-207214D01*
X-72314Y-207798D01*
X-72898Y-208559D01*
X-73264Y-209445D01*
X-73324Y-209895D01*
X-70217D01*
Y-206788D01*
D02*
G37*
G36*
X-28839Y-52352D02*
X-33038D01*
X-32941Y-53085D01*
X-32465Y-54235D01*
X-31708Y-55221D01*
X-30721Y-55979D01*
X-29572Y-56455D01*
X-28839Y-56551D01*
Y-52352D01*
D02*
G37*
G36*
X-37342Y-54700D02*
X-39794D01*
Y-57743D01*
X-37342D01*
Y-54700D01*
D02*
G37*
G36*
X-28839Y-47153D02*
X-29572Y-47249D01*
X-30721Y-47725D01*
X-31708Y-48482D01*
X-32465Y-49469D01*
X-32941Y-50619D01*
X-33038Y-51352D01*
X-28839D01*
Y-47153D01*
D02*
G37*
G36*
X-9154Y-52352D02*
X-13353D01*
X-13256Y-53085D01*
X-12780Y-54235D01*
X-12023Y-55221D01*
X-11036Y-55979D01*
X-9887Y-56455D01*
X-9154Y-56551D01*
Y-52352D01*
D02*
G37*
G36*
X-40795Y-54700D02*
X-43247D01*
Y-57743D01*
X-40795D01*
Y-54700D01*
D02*
G37*
G36*
X-120504Y-64132D02*
X-122563D01*
Y-67176D01*
X-120504D01*
Y-64132D01*
D02*
G37*
G36*
X-70242Y-61800D02*
X-76147D01*
Y-64603D01*
X-76147Y-64603D01*
X-76147D01*
X-76147Y-64843D01*
Y-64957D01*
Y-64957D01*
D01*
D01*
X-76147D01*
D01*
Y-68000D01*
X-70242D01*
Y-65197D01*
X-70242Y-65197D01*
D01*
D01*
X-70242Y-64957D01*
Y-64948D01*
Y-64900D01*
X-70242Y-64843D01*
X-70242Y-64603D01*
X-70242Y-64603D01*
X-70242D01*
Y-61800D01*
D02*
G37*
G36*
X-31724Y-58545D02*
X-37630D01*
Y-60583D01*
X-39402D01*
Y-59135D01*
X-46488D01*
Y-65041D01*
X-39402D01*
Y-63594D01*
X-37630D01*
Y-65632D01*
X-31724D01*
Y-58545D01*
D02*
G37*
G36*
X-52488Y-58584D02*
X-59575D01*
Y-62416D01*
X-60331Y-63172D01*
X-60988Y-62515D01*
Y-58584D01*
X-68075D01*
Y-64490D01*
X-63270D01*
X-62197Y-65563D01*
X-62388Y-66025D01*
X-63221D01*
Y-73112D01*
X-57315D01*
Y-66025D01*
X-58273D01*
X-58464Y-65563D01*
X-57391Y-64490D01*
X-52488D01*
Y-58584D01*
D02*
G37*
G36*
X-66416Y-12000D02*
X-72321D01*
Y-14884D01*
X-72321Y-14884D01*
X-72321D01*
X-72321Y-15043D01*
X-72276Y-15238D01*
D01*
X-72276Y-15238D01*
X-72276Y-15238D01*
Y-18281D01*
X-66370D01*
Y-15397D01*
X-66370Y-15397D01*
D01*
D01*
X-66370Y-15397D01*
X-66370Y-15238D01*
X-66406Y-15083D01*
X-66406Y-15083D01*
X-66416Y-15043D01*
Y-15043D01*
X-66416Y-14884D01*
X-66416Y-14884D01*
X-66416D01*
Y-12000D01*
D02*
G37*
G36*
X-113916Y-22037D02*
X-117369D01*
X-117297Y-22577D01*
X-116896Y-23546D01*
X-116257Y-24379D01*
X-115425Y-25017D01*
X-114456Y-25419D01*
X-113916Y-25490D01*
Y-22037D01*
D02*
G37*
G36*
X-66416Y-7957D02*
X-68868D01*
Y-11000D01*
X-66416D01*
Y-7957D01*
D02*
G37*
G36*
X-69868D02*
X-72321D01*
Y-11000D01*
X-69868D01*
Y-7957D01*
D02*
G37*
G36*
X-130032Y-28474D02*
Y-32078D01*
X-126428D01*
X-126504Y-31499D01*
X-126921Y-30493D01*
X-127583Y-29630D01*
X-128447Y-28967D01*
X-129452Y-28550D01*
X-130032Y-28474D01*
D02*
G37*
G36*
X-71882Y-41222D02*
X-74335D01*
Y-44265D01*
X-71882D01*
Y-41222D01*
D02*
G37*
G36*
Y-45265D02*
X-74335D01*
Y-48309D01*
X-71882D01*
Y-45265D01*
D02*
G37*
G36*
X-131032Y-28474D02*
X-131611Y-28550D01*
X-132616Y-28967D01*
X-133480Y-29630D01*
X-134142Y-30493D01*
X-134559Y-31499D01*
X-134635Y-32078D01*
X-131032D01*
Y-28474D01*
D02*
G37*
G36*
X-24441Y-33556D02*
X-24479Y-33848D01*
X-27091D01*
Y-36459D01*
X-27383Y-36498D01*
X-24441D01*
Y-33556D01*
D02*
G37*
G36*
X-133531Y-88189D02*
X-133854Y-88231D01*
X-134620Y-88549D01*
X-135278Y-89054D01*
X-135783Y-89712D01*
X-136100Y-90478D01*
X-136143Y-90800D01*
X-133531D01*
Y-88189D01*
D02*
G37*
G36*
X-129921Y-91800D02*
X-132531D01*
Y-94411D01*
X-132209Y-94368D01*
X-131443Y-94051D01*
X-130785Y-93546D01*
X-130280Y-92888D01*
X-129963Y-92122D01*
X-129921Y-91800D01*
D02*
G37*
G36*
X-21194Y-80000D02*
X-23647D01*
Y-83043D01*
X-21194D01*
Y-80000D01*
D02*
G37*
G36*
X-132531Y-88189D02*
Y-90800D01*
X-129921D01*
X-129963Y-90478D01*
X-130280Y-89712D01*
X-130785Y-89054D01*
X-131443Y-88549D01*
X-132209Y-88231D01*
X-132531Y-88189D01*
D02*
G37*
G36*
X-133531Y-91800D02*
X-136143D01*
X-136100Y-92122D01*
X-135783Y-92888D01*
X-135278Y-93546D01*
X-134620Y-94051D01*
X-133854Y-94368D01*
X-133531Y-94411D01*
Y-91800D01*
D02*
G37*
G36*
X-32536Y-160517D02*
X-42440D01*
Y-160608D01*
X-42318Y-161222D01*
X-41970Y-161743D01*
Y-162228D01*
X-42318Y-162749D01*
X-42440Y-163364D01*
Y-163454D01*
X-32536D01*
Y-163364D01*
X-32658Y-162749D01*
X-33006Y-162228D01*
Y-161743D01*
X-32658Y-161222D01*
X-32536Y-160608D01*
Y-160517D01*
D02*
G37*
G36*
X-5488Y-170210D02*
X-8531D01*
Y-172663D01*
X-5488D01*
Y-170210D01*
D02*
G37*
G36*
X-72724Y-105096D02*
X-98315D01*
Y-130687D01*
X-72724D01*
Y-105096D01*
D02*
G37*
G36*
X-103431Y-100623D02*
X-104254Y-100732D01*
X-105020Y-101049D01*
X-105678Y-101554D01*
X-106183Y-102212D01*
X-106500Y-102978D01*
X-106608Y-103800D01*
X-106500Y-104622D01*
X-106183Y-105388D01*
X-105678Y-106046D01*
X-105020Y-106551D01*
X-104937Y-106586D01*
Y-129100D01*
X-104937Y-129100D01*
X-104937D01*
X-104822Y-129676D01*
X-104496Y-130164D01*
X-90171Y-144489D01*
X-90449Y-144905D01*
X-91109Y-144632D01*
X-91931Y-144523D01*
X-92754Y-144632D01*
X-92837Y-144666D01*
X-107826Y-129676D01*
Y-120486D01*
X-107743Y-120451D01*
X-107085Y-119946D01*
X-106580Y-119288D01*
X-106263Y-118522D01*
X-106155Y-117700D01*
X-106263Y-116878D01*
X-106580Y-116112D01*
X-107085Y-115454D01*
X-107743Y-114949D01*
X-108509Y-114631D01*
X-109332Y-114523D01*
X-110154Y-114631D01*
X-110920Y-114949D01*
X-111578Y-115454D01*
X-112083Y-116112D01*
X-112400Y-116878D01*
X-112508Y-117700D01*
X-112400Y-118522D01*
X-112083Y-119288D01*
X-111578Y-119946D01*
X-110920Y-120451D01*
X-110837Y-120486D01*
Y-130300D01*
X-110837Y-130300D01*
X-110837D01*
X-110722Y-130876D01*
X-110396Y-131364D01*
X-94966Y-146795D01*
X-95000Y-146878D01*
X-95108Y-147700D01*
X-95000Y-148522D01*
X-94683Y-149288D01*
X-94178Y-149946D01*
X-93520Y-150451D01*
X-92754Y-150768D01*
X-91931Y-150877D01*
X-91109Y-150768D01*
X-90343Y-150451D01*
X-89685Y-149946D01*
X-89180Y-149288D01*
X-88863Y-148522D01*
X-88755Y-147700D01*
X-88863Y-146878D01*
X-89137Y-146217D01*
X-88721Y-145940D01*
X-87766Y-146895D01*
X-87800Y-146978D01*
X-87908Y-147800D01*
X-87800Y-148622D01*
X-87483Y-149388D01*
X-86978Y-150046D01*
X-86320Y-150551D01*
X-85554Y-150868D01*
X-84732Y-150977D01*
X-83909Y-150868D01*
X-83143Y-150551D01*
X-82485Y-150046D01*
X-81980Y-149388D01*
X-81663Y-148622D01*
X-81555Y-147800D01*
X-81663Y-146978D01*
X-81980Y-146212D01*
X-82485Y-145554D01*
X-83143Y-145049D01*
X-83909Y-144731D01*
X-84732Y-144623D01*
X-85554Y-144731D01*
X-85637Y-144766D01*
X-101926Y-128477D01*
Y-106586D01*
X-101843Y-106551D01*
X-101185Y-106046D01*
X-100680Y-105388D01*
X-100363Y-104622D01*
X-100255Y-103800D01*
X-100363Y-102978D01*
X-100680Y-102212D01*
X-101185Y-101554D01*
X-101843Y-101049D01*
X-102609Y-100732D01*
X-103431Y-100623D01*
D02*
G37*
G36*
X-28839Y-66838D02*
X-29572Y-66934D01*
X-30721Y-67410D01*
X-31708Y-68168D01*
X-32465Y-69154D01*
X-32941Y-70304D01*
X-33038Y-71037D01*
X-28839D01*
Y-66838D01*
D02*
G37*
G36*
X-70242Y-69000D02*
X-72694D01*
Y-72043D01*
X-70242D01*
Y-69000D01*
D02*
G37*
G36*
X-9154Y-66838D02*
X-9887Y-66934D01*
X-11036Y-67410D01*
X-12023Y-68168D01*
X-12780Y-69154D01*
X-13256Y-70304D01*
X-13353Y-71037D01*
X-9154D01*
Y-66838D01*
D02*
G37*
G36*
X-27839D02*
Y-71037D01*
X-23639D01*
X-23736Y-70304D01*
X-24212Y-69154D01*
X-24969Y-68168D01*
X-25956Y-67410D01*
X-27105Y-66934D01*
X-27839Y-66838D01*
D02*
G37*
G36*
X-73694Y-69000D02*
X-76147D01*
Y-72043D01*
X-73694D01*
Y-69000D01*
D02*
G37*
G36*
X-21194Y-75957D02*
X-23647D01*
Y-79000D01*
X-21194D01*
Y-75957D01*
D02*
G37*
G36*
X-17742Y-80000D02*
X-20195D01*
Y-83043D01*
X-17742D01*
Y-80000D01*
D02*
G37*
G36*
X-9154Y-72037D02*
X-13353D01*
X-13256Y-72770D01*
X-12780Y-73920D01*
X-12023Y-74906D01*
X-11036Y-75664D01*
X-9887Y-76140D01*
X-9154Y-76236D01*
Y-72037D01*
D02*
G37*
G36*
X-17742Y-75957D02*
X-20195D01*
Y-79000D01*
X-17742D01*
Y-75957D01*
D02*
G37*
%LPD*%
D10*
X-22669Y-42009D02*
D03*
X-24638D02*
D03*
X-26606D02*
D03*
X-28575D02*
D03*
X-30543D02*
D03*
X-32512D02*
D03*
X-34480D02*
D03*
X-36449D02*
D03*
X-38417D02*
D03*
X-40386D02*
D03*
X-42354D02*
D03*
X-44323D02*
D03*
Y-12876D02*
D03*
X-42354D02*
D03*
X-40386D02*
D03*
X-38417D02*
D03*
X-36449D02*
D03*
X-34480D02*
D03*
X-32512D02*
D03*
X-30543D02*
D03*
X-28575D02*
D03*
X-26606D02*
D03*
X-24638D02*
D03*
X-22669D02*
D03*
D11*
X-48063Y-38269D02*
D03*
Y-36301D02*
D03*
Y-34332D02*
D03*
Y-32364D02*
D03*
Y-30395D02*
D03*
Y-28427D02*
D03*
Y-26458D02*
D03*
Y-24490D02*
D03*
Y-22521D02*
D03*
Y-20553D02*
D03*
Y-18584D02*
D03*
Y-16616D02*
D03*
X-18929D02*
D03*
Y-18584D02*
D03*
Y-20553D02*
D03*
Y-22521D02*
D03*
Y-24490D02*
D03*
Y-26458D02*
D03*
Y-28427D02*
D03*
Y-30395D02*
D03*
Y-32364D02*
D03*
Y-34332D02*
D03*
Y-36301D02*
D03*
Y-38269D02*
D03*
D12*
X-23862Y-165600D02*
D03*
X-15201D02*
D03*
D13*
X-97732Y-45169D02*
D03*
Y-53831D02*
D03*
X-89631D02*
D03*
Y-45169D02*
D03*
D14*
X-118142Y-35317D02*
D03*
X-110268D02*
D03*
X-82709Y-44765D02*
D03*
X-74835D02*
D03*
X-26803Y-62088D02*
D03*
X-34677D02*
D03*
X-40295Y-54200D02*
D03*
X-48169D02*
D03*
X-52394Y-69569D02*
D03*
X-60268D02*
D03*
X-81068Y-61300D02*
D03*
X-73194D02*
D03*
X-81068Y-54400D02*
D03*
X-73194D02*
D03*
X-67269Y-44700D02*
D03*
X-59395D02*
D03*
X-18535Y-136498D02*
D03*
X-26409D02*
D03*
X-17068Y-126100D02*
D03*
X-9194D02*
D03*
X-17594Y-148100D02*
D03*
X-25469D02*
D03*
X-61494Y-11500D02*
D03*
X-69368D02*
D03*
X-61449Y-18781D02*
D03*
X-69323D02*
D03*
X-28569Y-88100D02*
D03*
X-20695D02*
D03*
X-28569Y-79500D02*
D03*
X-20695D02*
D03*
X-35094D02*
D03*
X-42968D02*
D03*
X-81068Y-68500D02*
D03*
X-73194D02*
D03*
D15*
X-42945Y-62088D02*
D03*
Y-69962D02*
D03*
X-56032Y-61537D02*
D03*
Y-53663D02*
D03*
X-64531Y-61537D02*
D03*
Y-53663D02*
D03*
X-120504Y-53033D02*
D03*
Y-45159D02*
D03*
X-62932Y-35337D02*
D03*
Y-27463D02*
D03*
X-9532Y-143663D02*
D03*
Y-151537D02*
D03*
X-82832Y-39037D02*
D03*
Y-31163D02*
D03*
X-9031Y-181037D02*
D03*
Y-173163D02*
D03*
X-69231Y-35337D02*
D03*
Y-27463D02*
D03*
X-54831Y-30963D02*
D03*
Y-38837D02*
D03*
D16*
X-115583Y-67676D02*
D03*
X-123063D02*
D03*
X-119323Y-77124D02*
D03*
X-112039Y-53427D02*
D03*
X-104559D02*
D03*
X-108299Y-43978D02*
D03*
D17*
X-29165Y-173309D02*
D03*
Y-180789D02*
D03*
X-19716Y-177049D02*
D03*
X-100556Y-31560D02*
D03*
Y-39040D02*
D03*
X-91107Y-35300D02*
D03*
D18*
X-54024Y-184427D02*
D03*
X-57961D02*
D03*
X-61898D02*
D03*
X-65835D02*
D03*
X-69772D02*
D03*
X-73709D02*
D03*
X-77646D02*
D03*
X-81583D02*
D03*
X-85520D02*
D03*
X-89457D02*
D03*
X-93394D02*
D03*
X-97331D02*
D03*
X-101268D02*
D03*
X-105205D02*
D03*
X-109142D02*
D03*
X-113079D02*
D03*
X-117016D02*
D03*
X-54024Y-88364D02*
D03*
X-57961D02*
D03*
X-61898D02*
D03*
X-65835D02*
D03*
X-69772D02*
D03*
X-73709D02*
D03*
X-77646D02*
D03*
X-81583D02*
D03*
X-85520D02*
D03*
X-89457D02*
D03*
X-93394D02*
D03*
X-97331D02*
D03*
X-101268D02*
D03*
X-105205D02*
D03*
X-109142D02*
D03*
X-113079D02*
D03*
X-117016D02*
D03*
D19*
X-133551Y-167891D02*
D03*
Y-163954D02*
D03*
Y-160017D02*
D03*
Y-156080D02*
D03*
Y-152143D02*
D03*
Y-148206D02*
D03*
Y-144269D02*
D03*
Y-140332D02*
D03*
Y-136395D02*
D03*
Y-132458D02*
D03*
Y-128521D02*
D03*
Y-124584D02*
D03*
Y-120647D02*
D03*
Y-116710D02*
D03*
Y-112773D02*
D03*
Y-108836D02*
D03*
Y-104899D02*
D03*
X-37488Y-167891D02*
D03*
Y-163954D02*
D03*
Y-160017D02*
D03*
Y-156080D02*
D03*
Y-152143D02*
D03*
Y-148206D02*
D03*
Y-144269D02*
D03*
Y-140332D02*
D03*
Y-136395D02*
D03*
Y-132458D02*
D03*
Y-128521D02*
D03*
Y-124584D02*
D03*
Y-120647D02*
D03*
Y-116710D02*
D03*
Y-112773D02*
D03*
Y-108836D02*
D03*
Y-104899D02*
D03*
D20*
X-9717Y-200395D02*
Y-193000D01*
X-13317Y-189400D02*
X-9717Y-193000D01*
X-39832Y-189400D02*
X-13317D01*
X-47168Y-182063D02*
X-39832Y-189400D01*
X-18929Y-26458D02*
X-11090D01*
X-13231Y-11900D02*
X-7131D01*
X-14931Y-13600D02*
X-13231Y-11900D01*
X-14931Y-17272D02*
Y-13600D01*
X-16244Y-18584D02*
X-14931Y-17272D01*
X-18929Y-18584D02*
X-16244D01*
X-18929Y-20553D02*
X-15184D01*
X-10831Y-16200D01*
X-11090Y-26458D02*
X-10831Y-26200D01*
X-18929Y-22521D02*
X-8510D01*
X-7063Y-23968D01*
Y-30009D02*
Y-23968D01*
X-56525Y-11500D02*
X-55150Y-12876D01*
X-61494Y-11500D02*
X-56525D01*
X-52394Y-117338D02*
Y-110176D01*
X-57469Y-109683D02*
X-44765Y-96979D01*
X-57469Y-117831D02*
Y-109683D01*
Y-117831D02*
X-45200Y-130099D01*
Y-137068D02*
Y-130099D01*
X-55500Y-110498D02*
X-42797Y-97795D01*
X-55473Y-117042D02*
Y-110525D01*
Y-117042D02*
X-43231Y-129284D01*
X-20695Y-88100D02*
Y-79500D01*
X-9194Y-116172D02*
X-8653Y-115631D01*
X-9194Y-126100D02*
Y-116172D01*
X-8832Y-172963D02*
Y-162900D01*
X-9532Y-162200D02*
X-8832Y-162900D01*
X-9532Y-162200D02*
Y-151537D01*
X-9031Y-152037D01*
X-46654Y-46900D02*
X-44323Y-44568D01*
X-50231Y-46900D02*
X-46654D01*
X-42432Y-47900D02*
X-40386Y-45854D01*
Y-42009D01*
X-56032Y-53663D02*
X-48706D01*
X-34480Y-45300D02*
X-33606Y-46174D01*
X-28557D01*
X-34480Y-45300D02*
Y-42009D01*
X-28557Y-46174D02*
X-28339Y-46393D01*
Y-51852D02*
Y-46393D01*
X-125579Y-140812D02*
Y-86231D01*
X-129036Y-144269D02*
X-125579Y-140812D01*
X-133551Y-144269D02*
X-129036D01*
X-82887Y-164844D02*
X-72079D01*
X-99331Y-148400D02*
X-82887Y-164844D01*
X-115465Y-132266D02*
X-99331Y-148400D01*
X-133551Y-148206D02*
X-130190D01*
X-126841Y-144858D01*
X-119027D01*
X-128575Y-152143D02*
X-125333Y-148902D01*
Y-148500D01*
X-127612Y-156080D02*
X-125631Y-154100D01*
X-125331D01*
X-115532Y-160000D02*
Y-148354D01*
X-119027Y-144858D02*
X-115532Y-148354D01*
X-133551Y-152143D02*
X-128575D01*
X-121914Y-160017D02*
X-121832Y-160100D01*
X-133551Y-160017D02*
X-121914D01*
X-47740Y-167592D02*
X-40731Y-174600D01*
X-47740Y-167592D02*
Y-142392D01*
X-43231Y-137884D01*
Y-129284D01*
X-41333Y-180500D02*
X-41131D01*
X-49933Y-171900D02*
X-41333Y-180500D01*
X-49933Y-171900D02*
Y-141802D01*
X-45200Y-137068D01*
X-43431Y-160100D02*
Y-144400D01*
Y-162700D02*
Y-160100D01*
X-43349Y-160017D01*
X-37488D01*
X-43431Y-144400D02*
Y-141600D01*
Y-144400D02*
X-43301Y-144269D01*
X-37488D01*
X-42164Y-140332D02*
X-37488D01*
X-43431Y-141600D02*
X-42164Y-140332D01*
X-43431Y-162700D02*
X-42177Y-163954D01*
X-37488D01*
X-51902Y-172878D02*
Y-148375D01*
X-62291Y-137985D02*
X-51902Y-148375D01*
Y-172878D02*
X-47168Y-177611D01*
Y-182063D02*
Y-177611D01*
X-55354Y-172209D02*
Y-155223D01*
X-67803Y-142774D02*
X-55354Y-155223D01*
Y-172209D02*
X-49716Y-177847D01*
Y-190395D02*
Y-177847D01*
X-38165Y-95947D02*
X-28339D01*
X-52394Y-110176D02*
X-38165Y-95947D01*
X-52394Y-117338D02*
X-41210Y-128521D01*
X-37488D02*
X-32610D01*
X-31732Y-129400D01*
Y-131700D02*
Y-129400D01*
X-32490Y-132458D02*
X-31732Y-131700D01*
X-37488Y-132458D02*
X-32490D01*
X-41210Y-128521D02*
X-37488D01*
X-81583Y-93033D02*
X-69772Y-104844D01*
X-81583Y-93033D02*
Y-88364D01*
X-69772Y-143589D02*
Y-104844D01*
X-103431Y-129100D02*
X-84732Y-147800D01*
X-109332Y-130300D02*
Y-117700D01*
Y-130300D02*
X-91931Y-147700D01*
X-77646Y-94186D02*
X-67803Y-104028D01*
X-77646Y-94186D02*
Y-88364D01*
X-67803Y-142774D02*
Y-104028D01*
X-81068Y-61300D02*
Y-54400D01*
X-74094Y-54100D02*
X-73658Y-53663D01*
X-73194Y-54400D02*
X-72457Y-53663D01*
X-64531D01*
X-85289Y-48801D02*
X-80129D01*
X-88920Y-45169D02*
X-85289Y-48801D01*
X-89631Y-45169D02*
X-88920D01*
X-84031Y-68500D02*
X-81068D01*
X-84478Y-68053D02*
X-84031Y-68500D01*
X-84478Y-68053D02*
Y-64300D01*
X-89631Y-59147D02*
X-84478Y-64300D01*
X-80129Y-48801D02*
X-78772Y-47444D01*
Y-35140D01*
X-89631Y-59147D02*
Y-53831D01*
X-50748Y-32364D02*
X-48063D01*
X-52149Y-30963D02*
X-50748Y-32364D01*
X-54831Y-30963D02*
X-52149D01*
X-21231Y-53700D02*
X-20850D01*
X-17650Y-50500D01*
Y-48664D01*
X-11154Y-42168D01*
X-64732Y-96900D02*
X-62291Y-99340D01*
Y-137985D02*
Y-99340D01*
X-65835Y-139297D02*
Y-100947D01*
X-68373Y-98409D02*
X-65835Y-100947D01*
X-68373Y-98409D02*
Y-95391D01*
X-65835Y-92853D01*
Y-88364D01*
X-81666Y-78328D02*
X-50835D01*
X-83394Y-76600D02*
X-81666Y-78328D01*
X-83732Y-76600D02*
X-83394D01*
X-97732Y-53831D02*
X-86447Y-65115D01*
Y-74385D02*
Y-65115D01*
Y-74385D02*
X-84232Y-76600D01*
X-83732D01*
X-84513Y-75818D02*
X-83732Y-76600D01*
X-94831Y-16500D02*
X-89794Y-21537D01*
X-118231Y-16500D02*
X-94831D01*
X-104631Y-26600D02*
X-84031D01*
X-105542Y-25690D02*
Y-21537D01*
Y-25690D02*
X-104631Y-26600D01*
X-82832Y-31163D02*
Y-27800D01*
X-84031Y-26600D02*
X-82832Y-27800D01*
X-118142Y-35317D02*
Y-27190D01*
X-122332Y-23000D02*
X-118142Y-27190D01*
X-130532Y-23000D02*
X-122332D01*
X-121731Y-13000D02*
X-118231Y-16500D01*
X-130532Y-13000D02*
X-121731D01*
X-56032Y-53663D02*
Y-48600D01*
X-59395Y-45237D02*
X-56032Y-48600D01*
X-59395Y-45237D02*
Y-44700D01*
X-64531Y-53663D02*
Y-48000D01*
X-67269Y-45263D02*
X-64531Y-48000D01*
X-67269Y-45263D02*
Y-44700D01*
X-78772Y-35140D02*
X-74831Y-31200D01*
X-59832D01*
X-69231Y-39300D02*
X-67269Y-41263D01*
Y-44700D02*
Y-41263D01*
X-51553Y-96000D02*
X-50032D01*
X-54024Y-93529D02*
X-51553Y-96000D01*
X-49716Y-210395D02*
X-49327D01*
X-82832Y-44642D02*
X-82709Y-44765D01*
X-82832Y-44642D02*
Y-39037D01*
X-91124Y-35317D02*
X-91107Y-35300D01*
X-110268Y-35317D02*
X-91124D01*
X-33531Y-136395D02*
X-30736Y-133600D01*
X-33531Y-136395D02*
X-30531Y-139395D01*
X-33531Y-136395D02*
X-33427D01*
X-107905Y-167206D02*
Y-147628D01*
X-130740Y-50918D02*
Y-49096D01*
X-114992Y-61301D02*
X-112433Y-58742D01*
X-34087Y-62482D02*
X-33968Y-62600D01*
X-60331Y-69506D02*
X-60268Y-69569D01*
X-60331Y-69506D02*
Y-65301D01*
X-64095Y-61537D02*
X-60331Y-65301D01*
X-57118Y-62088D01*
X-56583D01*
X-56032Y-61537D01*
X-64531D02*
X-64095D01*
X-23862Y-154431D02*
X-23531Y-154100D01*
X-23862Y-165600D02*
Y-154431D01*
X-37488Y-167891D02*
X-30740D01*
X-29256Y-169376D01*
Y-173360D02*
Y-169376D01*
X-15201Y-165600D02*
X-15032Y-165769D01*
X-19807Y-177100D02*
X-18531D01*
X-15201Y-173769D01*
Y-165600D01*
X-29256Y-180840D02*
X-9228D01*
X-9031Y-181037D01*
X-133551Y-163954D02*
X-128677D01*
X-126532Y-166100D01*
Y-175100D02*
Y-166100D01*
X-18929Y-32364D02*
X-15985D01*
X-44323Y-44568D02*
Y-42009D01*
X-53890Y-26458D02*
X-48063D01*
X-53772Y-24490D02*
X-48063D01*
X-55150Y-23112D02*
X-53772Y-24490D01*
X-68142Y-23112D02*
X-55150D01*
X-69231Y-24202D02*
X-68142Y-23112D01*
X-54874Y-27442D02*
X-53890Y-26458D01*
X-28575Y-42009D02*
Y-38269D01*
X-29559Y-37285D02*
X-28575Y-38269D01*
X-36449Y-42009D02*
Y-37482D01*
X-41883Y-37285D02*
X-29559D01*
X-48063Y-34332D02*
X-43535D01*
X-48063Y-28427D02*
X-43535D01*
X-48063Y-30395D02*
X-43535D01*
X-48063Y-20553D02*
X-43535D01*
X-48063Y-22521D02*
X-43535D01*
X-40386Y-17403D02*
Y-12876D01*
X-21882Y-24490D02*
X-18929D01*
X-23653Y-22718D02*
X-21882Y-24490D01*
X-23654Y-22718D02*
X-23653D01*
X-40386Y-12876D02*
Y-9529D01*
X-40976Y-8939D02*
X-40386Y-9529D01*
X-46882Y-8939D02*
X-40976D01*
X-48063Y-10120D02*
X-46882Y-8939D01*
X-48063Y-12876D02*
Y-10120D01*
X-54953Y-18584D02*
X-48063D01*
X-55150Y-18781D02*
X-54953Y-18584D01*
X-51410Y-16616D02*
X-48063D01*
X-55150Y-12876D02*
X-51410Y-16616D01*
X-55150Y-12876D02*
Y-12482D01*
X-61449Y-18781D02*
X-55150D01*
X-108299Y-43978D02*
X-103969D01*
X-102787Y-45159D01*
X-97276D01*
X-112433Y-58742D02*
X-112433D01*
X-112039Y-58348D01*
Y-53427D01*
X-120504Y-53033D02*
X-119717D01*
X-115779Y-49096D01*
X-107905D01*
X-104559Y-52443D01*
Y-53427D02*
Y-52443D01*
X-120504Y-179805D02*
X-107905Y-167206D01*
X-112261Y-205671D02*
X-94244D01*
X-26803Y-62088D02*
X-19323D01*
X-18531Y-62600D02*
X-18032Y-62100D01*
X-42945Y-69962D02*
X-38614D01*
X-42945Y-62088D02*
X-34677D01*
X-26409Y-141922D02*
Y-136498D01*
X-24668Y-143663D02*
X-9532D01*
X-54024Y-93529D02*
Y-88364D01*
X-65835Y-139297D02*
X-55543Y-149588D01*
Y-149883D02*
Y-149588D01*
X-99717Y-200395D02*
Y-194057D01*
X-97276Y-191616D01*
X-93339D01*
X-44765Y-96979D02*
Y-89966D01*
X-18929Y-34332D02*
X-16244D01*
X-15091Y-35485D01*
Y-39085D02*
Y-35485D01*
X-18015Y-42009D02*
X-15091Y-39085D01*
X-18929Y-42009D02*
X-18015D01*
X-18929Y-32364D02*
X-18929Y-32364D01*
X-15428D01*
X-13122Y-34670D01*
Y-41353D02*
Y-34670D01*
X-18929Y-30395D02*
X-14613D01*
X-11154Y-33855D01*
X-23654Y-22718D02*
Y-18673D01*
X-24726Y-17600D02*
X-23654Y-18673D01*
X-41764Y-17600D02*
X-24726D01*
X-43339Y-19055D02*
X-41883Y-17600D01*
X-43339Y-35830D02*
Y-19055D01*
Y-35830D02*
X-41883Y-37285D01*
X-50752Y-36301D02*
X-48063D01*
X-51661Y-35392D02*
X-50752Y-36301D01*
X-57704Y-35392D02*
X-51661D01*
X-58696Y-34400D02*
X-57704Y-35392D01*
X-59832Y-31200D02*
X-58867Y-32165D01*
Y-34229D02*
Y-32165D01*
X-69231Y-27463D02*
Y-24202D01*
Y-39300D02*
Y-35337D01*
X-100835Y-31281D02*
X-100556Y-31560D01*
X-125580Y-42348D02*
X-123831Y-40600D01*
X-119673Y-135861D02*
Y-83785D01*
Y-135861D02*
X-107905Y-147628D01*
X-122986Y-61301D02*
X-114992D01*
X-126114Y-64429D02*
X-122986Y-61301D01*
X-126114Y-80128D02*
Y-64429D01*
Y-80128D02*
X-121642Y-84600D01*
Y-136676D02*
Y-84600D01*
Y-136676D02*
X-109874Y-148444D01*
Y-166391D02*
Y-148444D01*
X-123610Y-137491D02*
Y-85416D01*
Y-137491D02*
X-111843Y-149259D01*
Y-165576D02*
Y-149259D01*
X-131253Y-48309D02*
X-130740D01*
X-133551Y-140332D02*
X-128680D01*
X-127547Y-139200D01*
Y-87046D01*
X-131045Y-48326D02*
X-130532D01*
X-135158Y-52439D02*
X-131045Y-48326D01*
X-135158Y-59974D02*
Y-52439D01*
X-81921Y-69569D02*
Y-68734D01*
X-81068Y-68500D02*
Y-67710D01*
X-64595Y-53600D02*
X-64531Y-53663D01*
X-126867Y-180600D02*
X-111843Y-165576D01*
X-129732Y-180600D02*
X-126867D01*
X-133551Y-156080D02*
X-127612D01*
X-51616Y-80331D02*
X-42797Y-89151D01*
X-89457Y-88364D02*
Y-83025D01*
X-85520Y-88364D02*
Y-83488D01*
X-84332Y-82300D01*
X-52431D01*
X-44765Y-89966D01*
X-89457Y-83025D02*
X-86763Y-80331D01*
X-51616D01*
X-37080Y-88032D02*
X-37039Y-88072D01*
X-35094Y-79500D02*
Y-73482D01*
X-38614Y-69962D02*
X-35094Y-73482D01*
X-46880Y-79500D02*
X-42968D01*
X-52394Y-73986D02*
X-46880Y-79500D01*
X-52394Y-73986D02*
Y-69569D01*
X-35094Y-79500D02*
X-28569D01*
Y-88100D02*
Y-79500D01*
X-103431Y-129100D02*
Y-103800D01*
X-42797Y-97795D02*
Y-89151D01*
X-18929Y-28427D02*
X-18929Y-28427D01*
X-13798D01*
X-9185Y-33039D01*
Y-42983D02*
Y-33039D01*
X-38417Y-46513D02*
Y-42009D01*
Y-46513D02*
X-37031Y-47899D01*
X-11154Y-42168D02*
Y-33855D01*
X-15681Y-49479D02*
X-9185Y-42983D01*
X-15681Y-56950D02*
Y-49479D01*
X-22831Y-47600D02*
X-19369D01*
X-13122Y-41353D01*
X-8222Y-30009D02*
X-7063D01*
X-15681Y-56950D02*
X-11032Y-61600D01*
X-50835Y-78328D02*
X-40064Y-89100D01*
X-36031D01*
X-115465Y-132266D02*
Y-103900D01*
X-114232Y-39200D02*
Y-32665D01*
X-115631Y-40600D02*
X-114232Y-39200D01*
X-123831Y-40600D02*
X-115631D01*
X-114232Y-32665D02*
X-112848Y-31281D01*
X-100835D01*
X-89995Y-39037D02*
X-82832D01*
X-91124Y-37908D02*
X-89995Y-39037D01*
X-91124Y-37908D02*
Y-35317D01*
X-62932Y-38000D02*
Y-35337D01*
Y-38000D02*
X-59395Y-41537D01*
Y-44700D02*
Y-41537D01*
X-62932Y-27463D02*
X-54895D01*
X-131283Y-40452D02*
X-130532D01*
X-137126Y-46295D02*
X-131283Y-40452D01*
X-137126Y-60789D02*
Y-46295D01*
X-121932Y-72500D02*
X-116431D01*
X-115583Y-71651D01*
Y-67676D01*
X-119323Y-77124D02*
X-114607D01*
X-113079Y-78653D01*
Y-88364D02*
Y-78653D01*
X-123231Y-80227D02*
X-119673Y-83785D01*
X-123231Y-80227D02*
Y-73800D01*
X-121932Y-72500D01*
X-134231Y-80362D02*
X-127547Y-87046D01*
X-137126Y-60789D02*
X-134231Y-63684D01*
Y-80362D02*
Y-63684D01*
X-131471Y-80339D02*
X-125579Y-86231D01*
X-131471Y-80339D02*
Y-63661D01*
X-135158Y-59974D02*
X-131471Y-63661D01*
X-128732Y-80295D02*
X-123610Y-85416D01*
X-128732Y-80295D02*
Y-63800D01*
X-125580Y-60648D01*
Y-42348D01*
X-124632Y-205283D02*
Y-181148D01*
X-109874Y-166391D01*
X-124632Y-205283D02*
X-119520Y-210395D01*
X-114631Y-203300D02*
X-112261Y-205671D01*
X-114631Y-203300D02*
Y-196072D01*
X-120504Y-190200D02*
Y-179805D01*
Y-190200D02*
X-114631Y-196072D01*
X-94244Y-205671D02*
X-89520Y-210395D01*
X-26409Y-141922D02*
X-24668Y-143663D01*
X-45805Y-112773D02*
X-37488D01*
X-45832Y-112800D02*
X-45805Y-112773D01*
X-69772Y-143589D02*
X-57531Y-155829D01*
Y-176000D02*
Y-155829D01*
X-134539Y-220200D02*
X-136900D01*
X-134539Y-217839D01*
Y-217248D01*
X-135129Y-216658D01*
X-136310D01*
X-136900Y-217248D01*
X-133358D02*
X-132767Y-216658D01*
X-131587D01*
X-130996Y-217248D01*
Y-219610D01*
X-131587Y-220200D01*
X-132767D01*
X-133358Y-219610D01*
Y-217248D01*
X-129816Y-220200D02*
X-128635D01*
X-129225D01*
Y-216658D01*
X-129816Y-217248D01*
X-126864D02*
X-126274Y-216658D01*
X-125093D01*
X-124502Y-217248D01*
Y-217839D01*
X-125093Y-218429D01*
X-125683D01*
X-125093D01*
X-124502Y-219019D01*
Y-219610D01*
X-125093Y-220200D01*
X-126274D01*
X-126864Y-219610D01*
X-123322Y-220200D02*
X-120960Y-217839D01*
X-119780Y-217248D02*
X-119189Y-216658D01*
X-118008D01*
X-117418Y-217248D01*
Y-219610D01*
X-118008Y-220200D01*
X-119189D01*
X-119780Y-219610D01*
Y-217248D01*
X-114466Y-220200D02*
Y-216658D01*
X-116237Y-218429D01*
X-113876D01*
X-9631Y-217839D02*
X-8451Y-220201D01*
X-7270Y-217839D01*
X-6089Y-216659D02*
Y-220201D01*
X-4318D01*
X-3728Y-219610D01*
Y-219020D01*
X-4318Y-218430D01*
X-6089D01*
X-4318D01*
X-3728Y-217839D01*
Y-217249D01*
X-4318Y-216659D01*
X-6089D01*
X-91439Y-217839D02*
X-93210D01*
X-93800Y-218430D01*
Y-219610D01*
X-93210Y-220201D01*
X-91439D01*
X-89667D02*
X-88487D01*
X-87896Y-219610D01*
Y-218430D01*
X-88487Y-217839D01*
X-89667D01*
X-90258Y-218430D01*
Y-219610D01*
X-89667Y-220201D01*
X-86716D02*
Y-217839D01*
X-84945D01*
X-84354Y-218430D01*
Y-220201D01*
X-80812Y-217839D02*
X-82583D01*
X-83174Y-218430D01*
Y-219610D01*
X-82583Y-220201D01*
X-80812D01*
X-77860D02*
X-79041D01*
X-79631Y-219610D01*
Y-218430D01*
X-79041Y-217839D01*
X-77860D01*
X-77270Y-218430D01*
Y-219020D01*
X-79631D01*
X-76089Y-220201D02*
Y-217839D01*
X-74318D01*
X-73728Y-218430D01*
Y-220201D01*
X-71957Y-217249D02*
Y-217839D01*
X-72547D01*
X-71366D01*
X-71957D01*
Y-219610D01*
X-71366Y-220201D01*
X-69595Y-217839D02*
Y-220201D01*
Y-219020D01*
X-69005Y-218430D01*
X-68414Y-217839D01*
X-67824D01*
X-65463D02*
X-64282D01*
X-63692Y-218430D01*
Y-220201D01*
X-65463D01*
X-66053Y-219610D01*
X-65463Y-219020D01*
X-63692D01*
X-61921Y-217249D02*
Y-217839D01*
X-62511D01*
X-61330D01*
X-61921D01*
Y-219610D01*
X-61330Y-220201D01*
X-58969D02*
X-57788D01*
X-57198Y-219610D01*
Y-218430D01*
X-57788Y-217839D01*
X-58969D01*
X-59559Y-218430D01*
Y-219610D01*
X-58969Y-220201D01*
X-56017Y-217839D02*
Y-220201D01*
Y-219020D01*
X-55427Y-218430D01*
X-54836Y-217839D01*
X-54246D01*
X-48933D02*
X-47752Y-220201D01*
X-46571Y-217839D01*
X-45390Y-220201D02*
X-44210D01*
X-44800D01*
Y-216659D01*
X-45390Y-217249D01*
D21*
X-30531Y-139395D02*
X-28631D01*
X-30736Y-133600D02*
X-28532D01*
D22*
X-33427Y-136395D02*
X-26512D01*
X-37488D02*
X-33531D01*
X-26512D02*
X-26409Y-136498D01*
X-37488Y-156080D02*
X-32012D01*
X-30031Y-154100D01*
X-37488Y-152143D02*
X-30488D01*
X-30031Y-151687D01*
X-37488Y-148206D02*
X-31638D01*
X-30031Y-154100D02*
Y-151687D01*
X-31638Y-148206D02*
X-30031Y-149813D01*
Y-151687D02*
Y-149813D01*
X-28532Y-148313D01*
X-25681D01*
X-25469Y-148100D01*
D23*
X-23531Y-154100D02*
Y-154037D01*
Y-154100D02*
X-18732D01*
X-17594Y-152963D01*
Y-148100D01*
D24*
X-18535Y-136498D02*
Y-105789D01*
X-28669Y-136498D02*
X-26409D01*
D25*
X-33496Y-27442D02*
D03*
D26*
X-130532Y-56200D02*
D03*
D27*
Y-48326D02*
D03*
Y-40452D02*
D03*
Y-32578D02*
D03*
D28*
X-108199Y-11514D02*
D03*
D29*
X-100370Y-70750D02*
D03*
D30*
X-130532Y-13000D02*
D03*
D31*
Y-23000D02*
D03*
D32*
X-89794Y-21537D02*
D03*
X-97668D02*
D03*
X-105542D02*
D03*
X-113416D02*
D03*
D33*
X-129717Y-210395D02*
D03*
Y-200395D02*
D03*
X-119717Y-210395D02*
D03*
Y-200395D02*
D03*
X-109716Y-210395D02*
D03*
Y-200395D02*
D03*
X-99717Y-210395D02*
D03*
Y-200395D02*
D03*
X-89717Y-210395D02*
D03*
Y-200395D02*
D03*
X-79716Y-210395D02*
D03*
Y-200395D02*
D03*
X-69717Y-210395D02*
D03*
Y-200395D02*
D03*
X-59716Y-210395D02*
D03*
Y-200395D02*
D03*
X-49716Y-210395D02*
D03*
Y-200395D02*
D03*
X-39717Y-210395D02*
D03*
Y-200395D02*
D03*
X-29717Y-210395D02*
D03*
Y-200395D02*
D03*
X-19716Y-210395D02*
D03*
Y-200395D02*
D03*
X-9717Y-210395D02*
D03*
X-49716Y-190395D02*
D03*
D34*
X-9717Y-200395D02*
D03*
D35*
X-18496Y-105789D02*
D03*
Y-61695D02*
D03*
D36*
X-8653Y-95947D02*
D03*
X-28339D02*
D03*
Y-115631D02*
D03*
X-8653D02*
D03*
Y-51852D02*
D03*
X-28339D02*
D03*
Y-71537D02*
D03*
X-8653D02*
D03*
D37*
X-39402Y-21537D02*
D03*
X-33496D02*
D03*
X-27591D02*
D03*
Y-27442D02*
D03*
X-33496Y-33348D02*
D03*
X-39402D02*
D03*
X-27591D02*
D03*
X-39402Y-27442D02*
D03*
X-10831Y-26200D02*
D03*
X-7131Y-11900D02*
D03*
X-10831Y-16200D02*
D03*
X-133031Y-91300D02*
D03*
X-51832Y-112800D02*
D03*
X-50231Y-46900D02*
D03*
X-99331Y-148400D02*
D03*
X-115532Y-160000D02*
D03*
X-40731Y-174600D02*
D03*
X-64732Y-96900D02*
D03*
X-125333Y-148500D02*
D03*
X-125331Y-154100D02*
D03*
X-121832Y-160100D02*
D03*
X-109332Y-117700D02*
D03*
X-23531Y-154100D02*
D03*
X-50032Y-96000D02*
D03*
X-126532Y-175100D02*
D03*
X-91931Y-147700D02*
D03*
X-57531Y-176000D02*
D03*
X-48063Y-12876D02*
D03*
X-18929Y-42009D02*
D03*
X-55150Y-18781D02*
D03*
X-37031Y-47899D02*
D03*
X-42432Y-47900D02*
D03*
X-55150Y-12876D02*
D03*
X-11032Y-61600D02*
D03*
X-21231Y-53700D02*
D03*
X-22831Y-47600D02*
D03*
X-83732Y-76600D02*
D03*
X-36031Y-89100D02*
D03*
X-55543Y-149883D02*
D03*
X-93339Y-191616D02*
D03*
X-72079Y-164844D02*
D03*
X-115465Y-103900D02*
D03*
X-129732Y-180600D02*
D03*
X-84732Y-147800D02*
D03*
X-103431Y-103800D02*
D03*
X-41131Y-180500D02*
D03*
X-7063Y-30009D02*
D03*
X-45832Y-112800D02*
D03*
M02*
