%FSLAX25Y25*%
%MOIN*%
G70*
G01*
G75*
G04 Layer_Color=12632256*
%ADD10O,0.00984X0.04724*%
%ADD11O,0.04724X0.00984*%
%ADD12R,0.04331X0.05118*%
%ADD13R,0.05118X0.04331*%
%ADD14R,0.03937X0.05118*%
%ADD15R,0.05118X0.03937*%
%ADD16R,0.03150X0.05118*%
%ADD17R,0.05118X0.03150*%
G04:AMPARAMS|DCode=18|XSize=78.74mil|YSize=23.62mil|CornerRadius=5.91mil|HoleSize=0mil|Usage=FLASHONLY|Rotation=90.000|XOffset=0mil|YOffset=0mil|HoleType=Round|Shape=RoundedRectangle|*
%AMROUNDEDRECTD18*
21,1,0.07874,0.01181,0,0,90.0*
21,1,0.06693,0.02362,0,0,90.0*
1,1,0.01181,0.00591,0.03347*
1,1,0.01181,0.00591,-0.03347*
1,1,0.01181,-0.00591,-0.03347*
1,1,0.01181,-0.00591,0.03347*
%
%ADD18ROUNDEDRECTD18*%
G04:AMPARAMS|DCode=19|XSize=78.74mil|YSize=23.62mil|CornerRadius=5.91mil|HoleSize=0mil|Usage=FLASHONLY|Rotation=0.000|XOffset=0mil|YOffset=0mil|HoleType=Round|Shape=RoundedRectangle|*
%AMROUNDEDRECTD19*
21,1,0.07874,0.01181,0,0,0.0*
21,1,0.06693,0.02362,0,0,0.0*
1,1,0.01181,0.03347,-0.00591*
1,1,0.01181,-0.03347,-0.00591*
1,1,0.01181,-0.03347,0.00591*
1,1,0.01181,0.03347,0.00591*
%
%ADD19ROUNDEDRECTD19*%
%ADD20C,0.00984*%
%ADD21C,0.01055*%
%ADD22C,0.02362*%
%ADD23C,0.02559*%
%ADD24C,0.06850*%
%ADD25R,0.16142X0.16142*%
%ADD26R,0.06299X0.06299*%
%ADD27C,0.06299*%
%ADD28C,0.05512*%
%ADD29C,0.23622*%
%ADD30R,0.05906X0.05906*%
%ADD31C,0.05906*%
%ADD32C,0.06000*%
%ADD33C,0.05315*%
%ADD34R,0.05315X0.05315*%
%ADD35C,0.06890*%
%ADD36C,0.07480*%
%ADD37C,0.04331*%
%ADD38R,0.04724X0.07874*%
%ADD39R,0.02559X0.09843*%
%ADD40R,0.12992X0.09843*%
%ADD41R,0.08858X0.08071*%
%ADD42R,0.09843X0.03937*%
%ADD43R,0.01575X0.04921*%
%ADD44R,0.00984X0.03347*%
%ADD45C,0.01000*%
%ADD46O,0.01772X0.05512*%
%ADD47O,0.05512X0.01772*%
%ADD48R,0.05131X0.05918*%
%ADD49R,0.05918X0.05131*%
%ADD50R,0.04737X0.05918*%
%ADD51R,0.05918X0.04737*%
%ADD52R,0.03950X0.05918*%
%ADD53R,0.05918X0.03950*%
G04:AMPARAMS|DCode=54|XSize=86.74mil|YSize=31.62mil|CornerRadius=9.91mil|HoleSize=0mil|Usage=FLASHONLY|Rotation=90.000|XOffset=0mil|YOffset=0mil|HoleType=Round|Shape=RoundedRectangle|*
%AMROUNDEDRECTD54*
21,1,0.08674,0.01181,0,0,90.0*
21,1,0.06693,0.03162,0,0,90.0*
1,1,0.01981,0.00591,0.03347*
1,1,0.01981,0.00591,-0.03347*
1,1,0.01981,-0.00591,-0.03347*
1,1,0.01981,-0.00591,0.03347*
%
%ADD54ROUNDEDRECTD54*%
G04:AMPARAMS|DCode=55|XSize=86.74mil|YSize=31.62mil|CornerRadius=9.91mil|HoleSize=0mil|Usage=FLASHONLY|Rotation=0.000|XOffset=0mil|YOffset=0mil|HoleType=Round|Shape=RoundedRectangle|*
%AMROUNDEDRECTD55*
21,1,0.08674,0.01181,0,0,0.0*
21,1,0.06693,0.03162,0,0,0.0*
1,1,0.01981,0.03347,-0.00591*
1,1,0.01981,-0.03347,-0.00591*
1,1,0.01981,-0.03347,0.00591*
1,1,0.01981,0.03347,0.00591*
%
%ADD55ROUNDEDRECTD55*%
%ADD56R,0.16942X0.16942*%
%ADD57R,0.07099X0.07099*%
%ADD58C,0.07099*%
%ADD59C,0.06312*%
%ADD60C,0.24422*%
%ADD61R,0.06706X0.06706*%
%ADD62C,0.06706*%
%ADD63C,0.06800*%
%ADD64C,0.06115*%
%ADD65R,0.06115X0.06115*%
%ADD66C,0.07690*%
%ADD67C,0.08280*%
%ADD68C,0.05131*%
%ADD69R,0.05524X0.08674*%
%ADD70R,0.03359X0.10642*%
%ADD71R,0.13792X0.10642*%
%ADD72R,0.09658X0.08871*%
%ADD73R,0.10642X0.04737*%
%ADD74R,0.01969X0.05315*%
%ADD75R,0.01378X0.03740*%
D50*
X-14968Y-188600D02*
D03*
X-7095D02*
D03*
X-16468Y-146600D02*
D03*
X-8595D02*
D03*
X-97768Y-13300D02*
D03*
X-89894D02*
D03*
X-76016Y-175080D02*
D03*
X-83890D02*
D03*
X-35465Y-40435D02*
D03*
X-27591D02*
D03*
X-46095Y-34923D02*
D03*
X-53969D02*
D03*
Y-25868D02*
D03*
X-46095D02*
D03*
X-39402Y-11694D02*
D03*
X-31528D02*
D03*
X-20369Y-9600D02*
D03*
X-12494D02*
D03*
X-125594Y-105600D02*
D03*
X-133468D02*
D03*
X-100594Y-175100D02*
D03*
X-108468D02*
D03*
D51*
X-12731Y-42437D02*
D03*
Y-34563D02*
D03*
X-9132Y-160163D02*
D03*
Y-168037D02*
D03*
X-23531Y-142237D02*
D03*
Y-134363D02*
D03*
X-128677Y-167891D02*
D03*
Y-160017D02*
D03*
X-131532Y-134163D02*
D03*
Y-142037D02*
D03*
D52*
X-39205Y-105395D02*
D03*
X-46685D02*
D03*
X-42945Y-95947D02*
D03*
D53*
X-107907Y-36060D02*
D03*
Y-43540D02*
D03*
X-117356Y-39800D02*
D03*
D56*
X-33496Y-27442D02*
D03*
D57*
X-130532Y-56200D02*
D03*
D58*
Y-48326D02*
D03*
Y-40452D02*
D03*
Y-32578D02*
D03*
D59*
X-108199Y-11514D02*
D03*
D60*
X-100370Y-70750D02*
D03*
D61*
X-130532Y-13000D02*
D03*
D62*
Y-23000D02*
D03*
D63*
X-89794Y-21537D02*
D03*
X-97668D02*
D03*
X-105542D02*
D03*
X-113416D02*
D03*
D64*
X-129717Y-210395D02*
D03*
Y-200395D02*
D03*
X-119717Y-210395D02*
D03*
Y-200395D02*
D03*
X-109716Y-210395D02*
D03*
Y-200395D02*
D03*
X-99717Y-210395D02*
D03*
Y-200395D02*
D03*
X-89717Y-210395D02*
D03*
Y-200395D02*
D03*
X-79716Y-210395D02*
D03*
Y-200395D02*
D03*
X-69717Y-210395D02*
D03*
Y-200395D02*
D03*
X-59716Y-210395D02*
D03*
Y-200395D02*
D03*
X-49716Y-210395D02*
D03*
Y-200395D02*
D03*
X-39717Y-210395D02*
D03*
Y-200395D02*
D03*
X-29717Y-210395D02*
D03*
Y-200395D02*
D03*
X-19716Y-210395D02*
D03*
Y-200395D02*
D03*
X-9717Y-210395D02*
D03*
X-49716Y-190395D02*
D03*
D65*
X-9717Y-200395D02*
D03*
D66*
X-18496Y-105789D02*
D03*
Y-61695D02*
D03*
D67*
X-8653Y-95947D02*
D03*
X-28339D02*
D03*
Y-115631D02*
D03*
X-8653D02*
D03*
Y-51852D02*
D03*
X-28339D02*
D03*
Y-71537D02*
D03*
X-8653D02*
D03*
D68*
X-39402Y-21537D02*
D03*
X-33496D02*
D03*
X-27591D02*
D03*
Y-27442D02*
D03*
X-33496Y-33348D02*
D03*
X-39402D02*
D03*
X-27591D02*
D03*
X-39402Y-27442D02*
D03*
X-10831Y-26200D02*
D03*
X-7131Y-11900D02*
D03*
X-10831Y-16200D02*
D03*
X-133031Y-91300D02*
D03*
X-51832Y-112800D02*
D03*
X-50231Y-46900D02*
D03*
X-99331Y-148400D02*
D03*
X-115532Y-160000D02*
D03*
X-40731Y-174600D02*
D03*
X-64732Y-96900D02*
D03*
X-125333Y-148500D02*
D03*
X-125331Y-154100D02*
D03*
X-121832Y-160100D02*
D03*
X-109332Y-117700D02*
D03*
X-23531Y-154100D02*
D03*
X-50032Y-96000D02*
D03*
X-126532Y-175100D02*
D03*
X-91931Y-147700D02*
D03*
X-57531Y-176000D02*
D03*
X-48063Y-12876D02*
D03*
X-18929Y-42009D02*
D03*
X-55150Y-18781D02*
D03*
X-37031Y-47899D02*
D03*
X-42432Y-47900D02*
D03*
X-55150Y-12876D02*
D03*
X-11032Y-61600D02*
D03*
X-21231Y-53700D02*
D03*
X-22831Y-47600D02*
D03*
X-83732Y-76600D02*
D03*
X-36031Y-89100D02*
D03*
X-55543Y-149883D02*
D03*
X-93339Y-191616D02*
D03*
X-72079Y-164844D02*
D03*
X-115465Y-103900D02*
D03*
X-129732Y-180600D02*
D03*
X-84732Y-147800D02*
D03*
X-103431Y-103800D02*
D03*
X-41131Y-180500D02*
D03*
X-7063Y-30009D02*
D03*
X-45832Y-112800D02*
D03*
D69*
X-61301Y-12817D02*
D03*
X-69962Y-27384D02*
D03*
X-61301D02*
D03*
X-69962Y-12817D02*
D03*
D70*
X-38532Y-162198D02*
D03*
X-33531D02*
D03*
X-28532D02*
D03*
X-23531D02*
D03*
X-18531D02*
D03*
D71*
X-28532Y-187002D02*
D03*
D72*
X-34332Y-147010D02*
D03*
Y-135790D02*
D03*
D73*
X-117169Y-154100D02*
D03*
Y-144100D02*
D03*
Y-134100D02*
D03*
X-71894Y-154100D02*
D03*
Y-144100D02*
D03*
Y-134100D02*
D03*
D74*
X-123031Y-122100D02*
D03*
X-125591D02*
D03*
X-128150D02*
D03*
Y-113242D02*
D03*
X-123031D02*
D03*
X-125591D02*
D03*
D75*
X-16831Y-30600D02*
D03*
X-18800D02*
D03*
X-20768D02*
D03*
Y-23710D02*
D03*
X-18800D02*
D03*
X-16831D02*
D03*
M02*
