%FSLAX25Y25*%
%MOIN*%
G70*
G01*
G75*
G04 Layer_Physical_Order=1*
G04 Layer_Color=255*
%ADD10R,0.05118X0.03937*%
%ADD11R,0.03937X0.05118*%
%ADD12R,0.00984X0.03347*%
%ADD13R,0.04724X0.10039*%
%ADD14R,0.04331X0.05906*%
%ADD15O,0.04724X0.00984*%
%ADD16O,0.00984X0.04724*%
%ADD17R,0.07874X0.04724*%
%ADD18R,0.05118X0.04331*%
%ADD19R,0.05118X0.07874*%
%ADD20R,0.09055X0.07087*%
%ADD21R,0.03937X0.01378*%
%ADD22R,0.03937X0.01969*%
%ADD23C,0.00984*%
%ADD24C,0.01969*%
%ADD25C,0.05787*%
%ADD26C,0.01043*%
%ADD27R,0.07874X0.27559*%
%ADD28R,0.72870X0.07874*%
%ADD29R,0.07874X0.35433*%
%ADD30R,1.49606X0.07874*%
%ADD31R,1.25984X0.07874*%
%ADD32R,0.07874X0.27559*%
%ADD33C,0.04843*%
%ADD34C,0.07874*%
%ADD35C,0.13780*%
%ADD36C,0.06693*%
%ADD37R,0.16142X0.16142*%
%ADD38C,0.06299*%
%ADD39C,0.04331*%
G36*
X74995Y-113715D02*
X73905D01*
Y-105700D01*
X73791Y-105124D01*
X73464Y-104636D01*
X72023Y-103194D01*
X71534Y-102868D01*
X70958Y-102753D01*
X68477D01*
X68256Y-102304D01*
X68651Y-101789D01*
X68968Y-101023D01*
X69077Y-100201D01*
X68968Y-99379D01*
X68651Y-98612D01*
X68146Y-97954D01*
X67488Y-97450D01*
X66722Y-97132D01*
X65900Y-97024D01*
X65078Y-97132D01*
X64995Y-97167D01*
X63188Y-95360D01*
Y-91705D01*
X63655Y-91346D01*
X64313Y-91851D01*
X65079Y-92168D01*
X65902Y-92277D01*
X66724Y-92168D01*
X67490Y-91851D01*
X68148Y-91346D01*
X68653Y-90688D01*
X68970Y-89922D01*
X69078Y-89100D01*
X68970Y-88278D01*
X68936Y-88195D01*
X73464Y-83666D01*
X73791Y-83178D01*
X73905Y-82602D01*
Y-51904D01*
X74995D01*
Y-113715D01*
D02*
G37*
G36*
X60177Y-79905D02*
Y-81898D01*
X55284D01*
Y-88985D01*
X56732D01*
Y-90798D01*
X55285D01*
Y-92879D01*
X54971Y-92942D01*
X54924Y-92951D01*
X54436Y-93277D01*
X53778Y-93935D01*
X53316Y-93743D01*
Y-90798D01*
X47411D01*
Y-97515D01*
X46963Y-97736D01*
X46588Y-97449D01*
X45822Y-97132D01*
X45000Y-97023D01*
X44178Y-97132D01*
X43412Y-97449D01*
X43212Y-97602D01*
X42764Y-97381D01*
Y-97048D01*
X42649Y-96472D01*
X42323Y-95984D01*
X30391Y-84052D01*
X30582Y-83590D01*
X41743D01*
X41995Y-83842D01*
X41995Y-83842D01*
D01*
X42109Y-84418D01*
X42436Y-84906D01*
X44036Y-86506D01*
X44524Y-86832D01*
X45100Y-86947D01*
X47410D01*
Y-88985D01*
X53316D01*
Y-81898D01*
X47410D01*
Y-81898D01*
X47397D01*
X47043Y-81545D01*
Y-78205D01*
X58477D01*
X60177Y-79905D01*
D02*
G37*
G36*
X50805Y-100375D02*
Y-104109D01*
X55726D01*
Y-101597D01*
X55755Y-101452D01*
Y-101451D01*
X56718D01*
Y-104109D01*
X57695D01*
X57695Y-104110D01*
Y-104110D01*
X57755Y-104084D01*
X58994Y-105323D01*
X59482Y-105649D01*
X60058Y-105764D01*
X63111D01*
X63332Y-106212D01*
X62949Y-106712D01*
X62897Y-106836D01*
X57695D01*
Y-105684D01*
X54742D01*
Y-108196D01*
X54713Y-108342D01*
X54713Y-108343D01*
X54742Y-108487D01*
Y-110999D01*
X57695D01*
Y-109847D01*
X62932D01*
X62949Y-109888D01*
X63454Y-110546D01*
X64112Y-111051D01*
X64878Y-111369D01*
X65700Y-111477D01*
X66522Y-111369D01*
X67288Y-111051D01*
X67946Y-110546D01*
X68451Y-109888D01*
X68769Y-109122D01*
X68877Y-108300D01*
X68769Y-107478D01*
X68451Y-106712D01*
X67946Y-106054D01*
X68045Y-105764D01*
X70335D01*
X70895Y-106324D01*
Y-113715D01*
X68857D01*
Y-117131D01*
X68260D01*
X65506Y-114377D01*
X65018Y-114051D01*
X64442Y-113936D01*
X61190D01*
Y-111898D01*
X55285D01*
Y-118985D01*
D01*
Y-118985D01*
X55128Y-119142D01*
X53316D01*
Y-118985D01*
X53316D01*
Y-111912D01*
X53346Y-111883D01*
X53672Y-111395D01*
X53750Y-110999D01*
X53758D01*
Y-110964D01*
X53787Y-110819D01*
Y-108343D01*
Y-108342D01*
X53786Y-108341D01*
X53758Y-108196D01*
Y-105684D01*
X50805D01*
Y-108196D01*
X50776Y-108342D01*
Y-110195D01*
X49299Y-111672D01*
X49148Y-111898D01*
X47411D01*
Y-118985D01*
D01*
Y-118985D01*
X47254Y-119142D01*
X42764D01*
Y-111337D01*
X43212Y-111116D01*
X43312Y-111192D01*
X44078Y-111510D01*
X44400Y-111552D01*
Y-108442D01*
Y-105330D01*
X44078Y-105372D01*
X43312Y-105690D01*
X43212Y-105766D01*
X42764Y-105545D01*
Y-103019D01*
X43212Y-102798D01*
X43412Y-102951D01*
X44178Y-103269D01*
X45000Y-103377D01*
X45822Y-103269D01*
X46588Y-102951D01*
X47246Y-102446D01*
X47751Y-101788D01*
X47786Y-101705D01*
X47969D01*
X48545Y-101591D01*
X49034Y-101264D01*
X50364Y-99934D01*
X50805Y-100375D01*
D02*
G37*
G36*
X-36012Y-80536D02*
Y-88002D01*
X-32005D01*
Y-88642D01*
X-32005Y-88642D01*
X-32005D01*
X-31891Y-89218D01*
X-31564Y-89706D01*
X-30479Y-90792D01*
X-31564Y-91877D01*
X-31891Y-92366D01*
X-32005Y-92942D01*
Y-95482D01*
X-36012D01*
Y-98474D01*
X-36460Y-98695D01*
X-36912Y-98349D01*
X-36995Y-98314D01*
Y-80865D01*
X-36474Y-80344D01*
X-36012Y-80536D01*
D02*
G37*
G36*
X-20786Y-84885D02*
X-20297Y-85211D01*
X-19721Y-85326D01*
X-17272D01*
X-16955Y-85712D01*
X-16970Y-85789D01*
X-16855Y-86365D01*
X-16582Y-86773D01*
X-16855Y-87181D01*
X-16870Y-87257D01*
X-15651D01*
X-15465Y-87295D01*
X-13593D01*
Y-88221D01*
X-16878D01*
X-16955Y-87834D01*
X-17272Y-88221D01*
X-24988D01*
Y-88002D01*
X-24988D01*
Y-81336D01*
X-24526Y-81144D01*
X-20786Y-84885D01*
D02*
G37*
G36*
X74995Y-1039D02*
Y-42061D01*
X68857D01*
Y-51904D01*
X70895D01*
Y-81978D01*
X66807Y-86066D01*
X66724Y-86032D01*
X65902Y-85923D01*
X65079Y-86032D01*
X64313Y-86349D01*
X63655Y-86854D01*
X63187Y-86695D01*
Y-79282D01*
X63073Y-78706D01*
X62746Y-78218D01*
X60164Y-75636D01*
X59676Y-75309D01*
X59100Y-75195D01*
X47043D01*
Y-73263D01*
X43499D01*
Y-72764D01*
X43000D01*
Y-69810D01*
X38000D01*
Y-72764D01*
X37000D01*
Y-69810D01*
X37840D01*
X37695Y-69333D01*
X37701Y-69327D01*
X37701Y-69327D01*
X41264Y-65764D01*
X41484Y-65436D01*
X41962Y-65581D01*
Y-66377D01*
X46384D01*
Y-63032D01*
Y-59684D01*
X42898D01*
X42707Y-59222D01*
X44213Y-57716D01*
X51805D01*
Y-51023D01*
X41962D01*
Y-55709D01*
X39136Y-58536D01*
X38809Y-59024D01*
X38695Y-59600D01*
Y-64077D01*
X37700Y-65071D01*
X37238Y-64880D01*
Y-59684D01*
X27395D01*
Y-61632D01*
X26243D01*
Y-60184D01*
X19157D01*
Y-61632D01*
X17779D01*
X17203Y-61746D01*
X16715Y-62073D01*
X9858Y-68929D01*
X9396Y-68738D01*
Y-66449D01*
Y-65276D01*
X6442D01*
Y-64276D01*
X9396D01*
Y-63890D01*
Y-62717D01*
X6442D01*
Y-62217D01*
X5943D01*
Y-60543D01*
X5160D01*
X4939Y-60095D01*
X4991Y-60027D01*
X5301Y-59277D01*
X5407Y-58473D01*
X5407Y-58473D01*
Y-57793D01*
X5472Y-57300D01*
Y-1352D01*
X5786Y-1112D01*
X5937Y-915D01*
X74995Y-1039D01*
D02*
G37*
G36*
X-5739Y-1112D02*
X-5527Y-1274D01*
Y-57300D01*
X-5507Y-57452D01*
Y-58400D01*
X-5507Y-58400D01*
X-5401Y-59204D01*
X-5171Y-59761D01*
Y-61460D01*
X-5578Y-61731D01*
X-5900Y-61689D01*
Y-64801D01*
Y-67911D01*
X-5578Y-67869D01*
X-4812Y-67551D01*
X-4154Y-67046D01*
X-4070Y-66937D01*
X-3596Y-67097D01*
Y-69008D01*
X-1101D01*
X256Y-70365D01*
X20Y-70806D01*
X-12Y-70799D01*
X-588Y-70914D01*
X-996Y-71187D01*
X-1404Y-70914D01*
X-1980Y-70799D01*
X-1980Y-70799D01*
X-1980Y-70799D01*
D01*
X-2557Y-70913D01*
X-2884Y-70425D01*
X-2884D01*
X-2884Y-70425D01*
X-2884Y-70425D01*
X-4038Y-69272D01*
X-4526Y-68945D01*
X-5102Y-68831D01*
X-7598D01*
X-12210Y-64219D01*
Y-60357D01*
X-18116D01*
Y-66436D01*
X-20084D01*
Y-64400D01*
X-25990D01*
Y-65170D01*
X-26452Y-65361D01*
X-27095Y-64718D01*
Y-48442D01*
X-27209Y-47866D01*
X-27536Y-47377D01*
X-29136Y-45777D01*
X-29624Y-45451D01*
X-30200Y-45336D01*
X-31210D01*
Y-43298D01*
X-37116D01*
Y-50385D01*
X-31210D01*
Y-48614D01*
X-30748Y-48422D01*
X-30105Y-49065D01*
Y-52161D01*
X-30557D01*
Y-52161D01*
X-37643D01*
D01*
X-37643D01*
X-37910Y-51894D01*
Y-51698D01*
X-43816D01*
Y-58785D01*
X-37910D01*
Y-58461D01*
X-37643D01*
Y-58461D01*
X-30557D01*
Y-58461D01*
X-30459D01*
X-30105Y-58814D01*
Y-60823D01*
X-30557D01*
Y-60823D01*
X-37643D01*
Y-67122D01*
X-35605D01*
Y-69536D01*
X-35491Y-70112D01*
X-35164Y-70601D01*
X-33527Y-72237D01*
X-33719Y-72699D01*
X-38031D01*
X-38607Y-72814D01*
X-39095Y-73140D01*
X-45914Y-79960D01*
X-46241Y-80448D01*
X-46355Y-81024D01*
Y-105992D01*
X-46355Y-105992D01*
X-46355D01*
X-46241Y-106568D01*
X-45914Y-107056D01*
X-45434Y-107536D01*
X-45469Y-107620D01*
X-45577Y-108442D01*
X-45469Y-109264D01*
X-45151Y-110030D01*
X-44646Y-110688D01*
X-43988Y-111193D01*
X-43222Y-111510D01*
X-42400Y-111618D01*
X-41578Y-111510D01*
X-40812Y-111193D01*
X-40595Y-111027D01*
X-40457Y-111095D01*
X-40376Y-111589D01*
X-41495Y-112708D01*
X-41578Y-112673D01*
X-42400Y-112565D01*
X-43222Y-112673D01*
X-43988Y-112991D01*
X-44646Y-113495D01*
X-45151Y-114153D01*
X-45469Y-114919D01*
X-45577Y-115742D01*
X-45469Y-116564D01*
X-45151Y-117330D01*
X-44646Y-117988D01*
X-43988Y-118493D01*
X-43606Y-118651D01*
X-43703Y-119142D01*
X-54279D01*
Y-114557D01*
X-54394Y-113981D01*
X-54720Y-113493D01*
X-56636Y-111577D01*
X-57124Y-111251D01*
X-57700Y-111136D01*
X-57810D01*
Y-109098D01*
X-63716D01*
Y-116185D01*
X-57810D01*
Y-115314D01*
X-57706Y-115270D01*
X-57290Y-115548D01*
Y-119142D01*
X-74754D01*
Y-106442D01*
X-51000D01*
X-50900Y-60599D01*
X-74754D01*
Y-1039D01*
X-5894Y-909D01*
X-5739Y-1112D01*
D02*
G37*
G36*
X-29991Y-65918D02*
X-29664Y-66406D01*
X-27064Y-69006D01*
X-26576Y-69332D01*
X-26000Y-69447D01*
X-14024D01*
X-11360Y-72111D01*
Y-72305D01*
Y-74175D01*
Y-76045D01*
X-11357Y-76059D01*
X-11710Y-76412D01*
X-11724Y-76410D01*
X-16652D01*
X-21890Y-71172D01*
X-22378Y-70846D01*
X-22954Y-70731D01*
X-30777D01*
X-32595Y-68913D01*
Y-67122D01*
X-30557D01*
Y-65623D01*
X-30059Y-65574D01*
X-29991Y-65918D01*
D02*
G37*
G36*
X27957Y-69810D02*
X27957D01*
Y-72263D01*
X31501D01*
Y-73263D01*
X27957D01*
Y-75456D01*
X27688Y-75636D01*
X26705Y-76618D01*
X26243Y-76427D01*
Y-76637D01*
X19157D01*
Y-77011D01*
X18678Y-77156D01*
X18474Y-76851D01*
X17986Y-76524D01*
X17410Y-76410D01*
X13669D01*
X13655Y-76412D01*
X13302Y-76059D01*
X13305Y-76045D01*
Y-72524D01*
X16060Y-69768D01*
X19157D01*
Y-71216D01*
X26243D01*
Y-69768D01*
X27957D01*
Y-69810D01*
D02*
G37*
G36*
X-23505Y-105955D02*
Y-107356D01*
X-23588Y-107391D01*
X-24246Y-107895D01*
X-24750Y-108553D01*
X-25068Y-109319D01*
X-25176Y-110142D01*
X-25068Y-110964D01*
X-24750Y-111730D01*
X-24246Y-112388D01*
X-23588Y-112893D01*
X-22821Y-113210D01*
X-21999Y-113319D01*
X-21177Y-113210D01*
X-20411Y-112893D01*
X-20181Y-112717D01*
X-19852Y-113093D01*
X-20995Y-114236D01*
X-32314D01*
X-32349Y-114153D01*
X-32854Y-113495D01*
X-33512Y-112991D01*
X-34278Y-112673D01*
X-35100Y-112565D01*
X-35922Y-112673D01*
X-36688Y-112991D01*
X-37224Y-113401D01*
X-37577Y-113048D01*
X-37251Y-112559D01*
X-37137Y-111984D01*
Y-111338D01*
X-36688Y-111117D01*
X-36588Y-111193D01*
X-35822Y-111510D01*
X-35000Y-111618D01*
X-34178Y-111510D01*
X-33412Y-111193D01*
X-32754Y-110688D01*
X-32249Y-110030D01*
X-32214Y-109947D01*
X-28773D01*
X-28197Y-109832D01*
X-27709Y-109506D01*
X-23966Y-105763D01*
X-23505Y-105955D01*
D02*
G37*
G36*
X-11357Y-101425D02*
X-11360Y-101439D01*
Y-103309D01*
Y-104601D01*
X-19048Y-112289D01*
X-19424Y-111960D01*
X-19248Y-111730D01*
X-18931Y-110964D01*
X-18822Y-110142D01*
X-18931Y-109319D01*
X-19248Y-108553D01*
X-19753Y-107895D01*
X-20411Y-107391D01*
X-20494Y-107356D01*
Y-105075D01*
X-16493Y-101074D01*
X-11724D01*
X-11710Y-101071D01*
X-11357Y-101425D01*
D02*
G37*
G36*
X13669Y-101074D02*
X18445D01*
X20066Y-102695D01*
X20031Y-102778D01*
X19923Y-103600D01*
X20031Y-104422D01*
X20349Y-105188D01*
X20854Y-105846D01*
X21118Y-106049D01*
Y-106549D01*
X20852Y-106754D01*
X20347Y-107412D01*
X20313Y-107495D01*
X15082D01*
X13305Y-105717D01*
Y-103309D01*
Y-101439D01*
X13302Y-101425D01*
X13655Y-101071D01*
X13669Y-101074D01*
D02*
G37*
%LPC*%
G36*
X31817Y-51023D02*
X27395D01*
Y-53869D01*
X31817D01*
Y-51023D01*
D02*
G37*
G36*
X22200Y-55763D02*
X19157D01*
Y-58216D01*
X22200D01*
Y-55763D01*
D02*
G37*
G36*
X-45784Y-55742D02*
X-48237D01*
Y-58785D01*
X-45784D01*
Y-55742D01*
D02*
G37*
G36*
X37238Y-51023D02*
X32816D01*
Y-53869D01*
X37238D01*
Y-51023D01*
D02*
G37*
G36*
X9396Y-60543D02*
X6943D01*
Y-61717D01*
X9396D01*
Y-60543D01*
D02*
G37*
G36*
X-49237Y-55742D02*
X-51690D01*
Y-58785D01*
X-49237D01*
Y-55742D01*
D02*
G37*
G36*
Y-51698D02*
X-51690D01*
Y-54742D01*
X-49237D01*
Y-51698D01*
D02*
G37*
G36*
X26243Y-52310D02*
X23200D01*
Y-54763D01*
X26243D01*
Y-52310D01*
D02*
G37*
G36*
X22200D02*
X19157D01*
Y-54763D01*
X22200D01*
Y-52310D01*
D02*
G37*
G36*
X-45784Y-51698D02*
X-48237D01*
Y-54742D01*
X-45784D01*
Y-51698D01*
D02*
G37*
G36*
X26243Y-55763D02*
X23200D01*
Y-58216D01*
X26243D01*
Y-55763D01*
D02*
G37*
G36*
X31817Y-54869D02*
X27395D01*
Y-57716D01*
X31817D01*
Y-54869D01*
D02*
G37*
G36*
X37238D02*
X32816D01*
Y-57716D01*
X37238D01*
Y-54869D01*
D02*
G37*
G36*
X51805Y-59684D02*
X47383D01*
Y-62531D01*
X51805D01*
Y-59684D01*
D02*
G37*
G36*
X48011Y-108941D02*
X45400D01*
Y-111552D01*
X45722Y-111510D01*
X46488Y-111192D01*
X47146Y-110687D01*
X47651Y-110029D01*
X47969Y-109263D01*
X48011Y-108941D01*
D02*
G37*
G36*
X45400Y-105330D02*
Y-107941D01*
X48011D01*
X47969Y-107619D01*
X47651Y-106852D01*
X47146Y-106195D01*
X46488Y-105690D01*
X45722Y-105372D01*
X45400Y-105330D01*
D02*
G37*
G36*
X22200Y-73184D02*
X19157D01*
Y-75637D01*
X22200D01*
Y-73184D01*
D02*
G37*
G36*
X-65684Y-109098D02*
X-68137D01*
Y-112142D01*
X-65684D01*
Y-109098D01*
D02*
G37*
G36*
X-69137Y-113142D02*
X-71590D01*
Y-116185D01*
X-69137D01*
Y-113142D01*
D02*
G37*
G36*
X-65684D02*
X-68137D01*
Y-116185D01*
X-65684D01*
Y-113142D01*
D02*
G37*
G36*
X-69137Y-109098D02*
X-71590D01*
Y-112142D01*
X-69137D01*
Y-109098D01*
D02*
G37*
G36*
X-6900Y-61689D02*
X-7222Y-61731D01*
X-7988Y-62049D01*
X-8646Y-62554D01*
X-9151Y-63212D01*
X-9469Y-63978D01*
X-9511Y-64300D01*
X-6900D01*
Y-61689D01*
D02*
G37*
G36*
X-23537Y-60357D02*
X-25990D01*
Y-63400D01*
X-23537D01*
Y-60357D01*
D02*
G37*
G36*
X-20084D02*
X-22537D01*
Y-63400D01*
X-20084D01*
Y-60357D01*
D02*
G37*
G36*
X51805Y-63531D02*
X47383D01*
Y-66377D01*
X51805D01*
Y-63531D01*
D02*
G37*
G36*
X26243Y-73184D02*
X23200D01*
Y-75637D01*
X26243D01*
Y-73184D01*
D02*
G37*
G36*
X47043Y-69810D02*
X44000D01*
Y-72263D01*
X47043D01*
Y-69810D01*
D02*
G37*
G36*
X-6900Y-65300D02*
X-9511D01*
X-9469Y-65622D01*
X-9151Y-66388D01*
X-8646Y-67046D01*
X-7988Y-67551D01*
X-7222Y-67869D01*
X-6900Y-67911D01*
Y-65300D01*
D02*
G37*
G36*
X13400Y-47800D02*
X10789D01*
X10831Y-48122D01*
X11149Y-48888D01*
X11654Y-49546D01*
X12312Y-50051D01*
X13078Y-50368D01*
X13400Y-50411D01*
Y-47800D01*
D02*
G37*
G36*
X57472Y-9642D02*
X54861D01*
X54904Y-9964D01*
X55221Y-10730D01*
X55726Y-11388D01*
X56384Y-11893D01*
X57150Y-12210D01*
X57472Y-12253D01*
Y-9642D01*
D02*
G37*
G36*
X-22216D02*
X-24827D01*
Y-12253D01*
X-24505Y-12210D01*
X-23738Y-11893D01*
X-23080Y-11388D01*
X-22576Y-10730D01*
X-22258Y-9964D01*
X-22216Y-9642D01*
D02*
G37*
G36*
X61083D02*
X58472D01*
Y-12253D01*
X58795Y-12210D01*
X59561Y-11893D01*
X60219Y-11388D01*
X60724Y-10730D01*
X61041Y-9964D01*
X61083Y-9642D01*
D02*
G37*
G36*
X-54917Y-9640D02*
X-57528D01*
Y-12251D01*
X-57205Y-12209D01*
X-56439Y-11891D01*
X-55781Y-11387D01*
X-55276Y-10729D01*
X-54959Y-9962D01*
X-54917Y-9640D01*
D02*
G37*
G36*
X-58528D02*
X-61138D01*
X-61096Y-9962D01*
X-60779Y-10729D01*
X-60274Y-11387D01*
X-59616Y-11891D01*
X-58850Y-12209D01*
X-58528Y-12251D01*
Y-9640D01*
D02*
G37*
G36*
X41400Y-23988D02*
Y-26598D01*
X44011D01*
X43968Y-26276D01*
X43651Y-25510D01*
X43146Y-24852D01*
X42488Y-24347D01*
X41722Y-24030D01*
X41400Y-23988D01*
D02*
G37*
G36*
X40400D02*
X40078Y-24030D01*
X39312Y-24347D01*
X38654Y-24852D01*
X38149Y-25510D01*
X37832Y-26276D01*
X37789Y-26598D01*
X40400D01*
Y-23988D01*
D02*
G37*
G36*
X57472D02*
X57150Y-24030D01*
X56384Y-24347D01*
X55726Y-24852D01*
X55221Y-25510D01*
X54904Y-26276D01*
X54861Y-26598D01*
X57472D01*
Y-23988D01*
D02*
G37*
G36*
X-25827Y-9642D02*
X-28438D01*
X-28395Y-9964D01*
X-28078Y-10730D01*
X-27573Y-11388D01*
X-26915Y-11893D01*
X-26149Y-12210D01*
X-25827Y-12253D01*
Y-9642D01*
D02*
G37*
G36*
X58472Y-23988D02*
Y-26598D01*
X61083D01*
X61041Y-26276D01*
X60724Y-25510D01*
X60219Y-24852D01*
X59561Y-24347D01*
X58795Y-24030D01*
X58472Y-23988D01*
D02*
G37*
G36*
X-58528Y-6029D02*
X-58850Y-6072D01*
X-59616Y-6389D01*
X-60274Y-6894D01*
X-60779Y-7552D01*
X-61096Y-8318D01*
X-61138Y-8640D01*
X-58528D01*
Y-6029D01*
D02*
G37*
G36*
X58472Y-6031D02*
Y-8642D01*
X61083D01*
X61041Y-8320D01*
X60724Y-7553D01*
X60219Y-6895D01*
X59561Y-6391D01*
X58795Y-6073D01*
X58472Y-6031D01*
D02*
G37*
G36*
X-57528Y-6029D02*
Y-8640D01*
X-54917D01*
X-54959Y-8318D01*
X-55276Y-7552D01*
X-55781Y-6894D01*
X-56439Y-6389D01*
X-57205Y-6072D01*
X-57528Y-6029D01*
D02*
G37*
G36*
X25772D02*
Y-8640D01*
X28383D01*
X28341Y-8318D01*
X28024Y-7552D01*
X27519Y-6894D01*
X26861Y-6389D01*
X26095Y-6072D01*
X25772Y-6029D01*
D02*
G37*
G36*
X24772D02*
X24450Y-6072D01*
X23684Y-6389D01*
X23026Y-6894D01*
X22521Y-7552D01*
X22204Y-8318D01*
X22162Y-8640D01*
X24772D01*
Y-6029D01*
D02*
G37*
G36*
X28383Y-9640D02*
X25772D01*
Y-12251D01*
X26095Y-12209D01*
X26861Y-11891D01*
X27519Y-11387D01*
X28024Y-10729D01*
X28341Y-9962D01*
X28383Y-9640D01*
D02*
G37*
G36*
X24772D02*
X22162D01*
X22204Y-9962D01*
X22521Y-10729D01*
X23026Y-11387D01*
X23684Y-11891D01*
X24450Y-12209D01*
X24772Y-12251D01*
Y-9640D01*
D02*
G37*
G36*
X-25827Y-6031D02*
X-26149Y-6073D01*
X-26915Y-6391D01*
X-27573Y-6895D01*
X-28078Y-7553D01*
X-28395Y-8320D01*
X-28438Y-8642D01*
X-25827D01*
Y-6031D01*
D02*
G37*
G36*
X57472D02*
X57150Y-6073D01*
X56384Y-6391D01*
X55726Y-6895D01*
X55221Y-7553D01*
X54904Y-8320D01*
X54861Y-8642D01*
X57472D01*
Y-6031D01*
D02*
G37*
G36*
X-24827D02*
Y-8642D01*
X-22216D01*
X-22258Y-8320D01*
X-22576Y-7553D01*
X-23080Y-6895D01*
X-23738Y-6391D01*
X-24505Y-6073D01*
X-24827Y-6031D01*
D02*
G37*
G36*
X-14100Y-44188D02*
Y-46799D01*
X-11489D01*
X-11531Y-46477D01*
X-11849Y-45711D01*
X-12354Y-45053D01*
X-13012Y-44548D01*
X-13778Y-44231D01*
X-14100Y-44188D01*
D02*
G37*
G36*
X-15100D02*
X-15422Y-44231D01*
X-16188Y-44548D01*
X-16846Y-45053D01*
X-17351Y-45711D01*
X-17669Y-46477D01*
X-17711Y-46799D01*
X-15100D01*
Y-44188D01*
D02*
G37*
G36*
X-39084Y-43298D02*
X-44990D01*
Y-45336D01*
X-50814D01*
X-50849Y-45253D01*
X-51354Y-44595D01*
X-52012Y-44091D01*
X-52778Y-43773D01*
X-53600Y-43665D01*
X-54422Y-43773D01*
X-55188Y-44091D01*
X-55846Y-44595D01*
X-56351Y-45253D01*
X-56669Y-46020D01*
X-56777Y-46842D01*
X-56669Y-47664D01*
X-56351Y-48430D01*
X-55846Y-49088D01*
X-55188Y-49593D01*
X-54422Y-49910D01*
X-53600Y-50019D01*
X-52778Y-49910D01*
X-52012Y-49593D01*
X-51354Y-49088D01*
X-50849Y-48430D01*
X-50814Y-48347D01*
X-44990D01*
Y-50385D01*
X-39084D01*
Y-43298D01*
D02*
G37*
G36*
X-11488Y-27600D02*
X-14098D01*
Y-30211D01*
X-13776Y-30169D01*
X-13010Y-29851D01*
X-12352Y-29346D01*
X-11847Y-28688D01*
X-11530Y-27922D01*
X-11488Y-27600D01*
D02*
G37*
G36*
X-15098D02*
X-17709D01*
X-17667Y-27922D01*
X-17350Y-28688D01*
X-16845Y-29346D01*
X-16187Y-29851D01*
X-15421Y-30169D01*
X-15098Y-30211D01*
Y-27600D01*
D02*
G37*
G36*
X-15100Y-47799D02*
X-17711D01*
X-17669Y-48121D01*
X-17351Y-48888D01*
X-16846Y-49545D01*
X-16188Y-50050D01*
X-15422Y-50368D01*
X-15100Y-50410D01*
Y-47799D01*
D02*
G37*
G36*
X17011Y-47800D02*
X14400D01*
Y-50411D01*
X14722Y-50368D01*
X15488Y-50051D01*
X16146Y-49546D01*
X16651Y-48888D01*
X16969Y-48122D01*
X17011Y-47800D01*
D02*
G37*
G36*
X-11489Y-47799D02*
X-14100D01*
Y-50410D01*
X-13778Y-50368D01*
X-13012Y-50050D01*
X-12354Y-49545D01*
X-11849Y-48888D01*
X-11531Y-48121D01*
X-11489Y-47799D01*
D02*
G37*
G36*
X14400Y-44189D02*
Y-46800D01*
X17011D01*
X16969Y-46478D01*
X16651Y-45712D01*
X16146Y-45054D01*
X15488Y-44549D01*
X14722Y-44232D01*
X14400Y-44189D01*
D02*
G37*
G36*
X13400D02*
X13078Y-44232D01*
X12312Y-44549D01*
X11654Y-45054D01*
X11149Y-45712D01*
X10831Y-46478D01*
X10789Y-46800D01*
X13400D01*
Y-44189D01*
D02*
G37*
G36*
X-15098Y-23989D02*
X-15421Y-24032D01*
X-16187Y-24349D01*
X-16845Y-24854D01*
X-17350Y-25512D01*
X-17667Y-26278D01*
X-17709Y-26600D01*
X-15098D01*
Y-23989D01*
D02*
G37*
G36*
X61083Y-27598D02*
X58472D01*
Y-30209D01*
X58795Y-30167D01*
X59561Y-29850D01*
X60219Y-29345D01*
X60724Y-28687D01*
X61041Y-27921D01*
X61083Y-27598D01*
D02*
G37*
G36*
X-14098Y-23989D02*
Y-26600D01*
X-11488D01*
X-11530Y-26278D01*
X-11847Y-25512D01*
X-12352Y-24854D01*
X-13010Y-24349D01*
X-13776Y-24032D01*
X-14098Y-23989D01*
D02*
G37*
G36*
X14402Y-23988D02*
Y-26598D01*
X17012D01*
X16970Y-26276D01*
X16653Y-25510D01*
X16148Y-24852D01*
X15490Y-24347D01*
X14724Y-24030D01*
X14402Y-23988D01*
D02*
G37*
G36*
X13402D02*
X13079Y-24030D01*
X12313Y-24347D01*
X11655Y-24852D01*
X11150Y-25510D01*
X10833Y-26276D01*
X10791Y-26598D01*
X13402D01*
Y-23988D01*
D02*
G37*
G36*
X17012Y-27598D02*
X14402D01*
Y-30209D01*
X14724Y-30167D01*
X15490Y-29850D01*
X16148Y-29345D01*
X16653Y-28687D01*
X16970Y-27921D01*
X17012Y-27598D01*
D02*
G37*
G36*
X13402D02*
X10791D01*
X10833Y-27921D01*
X11150Y-28687D01*
X11655Y-29345D01*
X12313Y-29850D01*
X13079Y-30167D01*
X13402Y-30209D01*
Y-27598D01*
D02*
G37*
G36*
X40400D02*
X37789D01*
X37832Y-27921D01*
X38149Y-28687D01*
X38654Y-29345D01*
X39312Y-29850D01*
X40078Y-30167D01*
X40400Y-30209D01*
Y-27598D01*
D02*
G37*
G36*
X57472D02*
X54861D01*
X54904Y-27921D01*
X55221Y-28687D01*
X55726Y-29345D01*
X56384Y-29850D01*
X57150Y-30167D01*
X57472Y-30209D01*
Y-27598D01*
D02*
G37*
G36*
X44011D02*
X41400D01*
Y-30209D01*
X41722Y-30167D01*
X42488Y-29850D01*
X43146Y-29345D01*
X43651Y-28687D01*
X43968Y-27921D01*
X44011Y-27598D01*
D02*
G37*
%LPD*%
D10*
X37500Y-72763D02*
D03*
Y-80637D02*
D03*
X31500Y-72763D02*
D03*
Y-80637D02*
D03*
X43500D02*
D03*
Y-72763D02*
D03*
X-27400Y-128779D02*
D03*
Y-120905D02*
D03*
X22700Y-76137D02*
D03*
Y-68263D02*
D03*
Y-55263D02*
D03*
Y-63137D02*
D03*
X-35600Y-120905D02*
D03*
Y-128779D02*
D03*
X-51400Y-150005D02*
D03*
Y-157879D02*
D03*
X-43200Y-132679D02*
D03*
Y-124805D02*
D03*
D11*
X50363Y-85442D02*
D03*
X58237D02*
D03*
X58238Y-115442D02*
D03*
X50364D02*
D03*
X58238Y-94342D02*
D03*
X50364D02*
D03*
X-55437Y-140342D02*
D03*
X-47563D02*
D03*
X-4337Y-118642D02*
D03*
X3537D02*
D03*
X-23037Y-63900D02*
D03*
X-15163D02*
D03*
X-40863Y-55242D02*
D03*
X-48737D02*
D03*
X-68637Y-112642D02*
D03*
X-60763D02*
D03*
X-42037Y-46842D02*
D03*
X-34163D02*
D03*
D12*
X52281Y-108342D02*
D03*
X54250D02*
D03*
X56218D02*
D03*
Y-101452D02*
D03*
X54250D02*
D03*
X52281D02*
D03*
D13*
X-64300Y-140314D02*
D03*
Y-174369D02*
D03*
D14*
X-55785Y-124742D02*
D03*
X-72615D02*
D03*
D15*
X-13595Y-99568D02*
D03*
Y-97600D02*
D03*
Y-95631D02*
D03*
Y-93663D02*
D03*
Y-91694D02*
D03*
Y-89726D02*
D03*
Y-87757D02*
D03*
Y-85789D02*
D03*
Y-83820D02*
D03*
Y-81852D02*
D03*
Y-79883D02*
D03*
Y-77915D02*
D03*
X15539D02*
D03*
Y-79883D02*
D03*
Y-81852D02*
D03*
Y-83820D02*
D03*
Y-85789D02*
D03*
Y-87757D02*
D03*
Y-89726D02*
D03*
Y-91694D02*
D03*
Y-93663D02*
D03*
Y-95631D02*
D03*
Y-97600D02*
D03*
Y-99568D02*
D03*
D16*
X-9854Y-74175D02*
D03*
X-7886D02*
D03*
X-5917D02*
D03*
X-3949D02*
D03*
X-1980D02*
D03*
X-12D02*
D03*
X1957D02*
D03*
X3925D02*
D03*
X5894D02*
D03*
X7862D02*
D03*
X9831D02*
D03*
X11799D02*
D03*
Y-103309D02*
D03*
X9831D02*
D03*
X7862D02*
D03*
X5894D02*
D03*
X3925D02*
D03*
X1957D02*
D03*
X-12D02*
D03*
X-1980D02*
D03*
X-3949D02*
D03*
X-5917D02*
D03*
X-7886D02*
D03*
X-9854D02*
D03*
D17*
X46883Y-63031D02*
D03*
X32316Y-54369D02*
D03*
Y-63031D02*
D03*
X46883Y-54369D02*
D03*
D18*
X-34100Y-63972D02*
D03*
Y-55311D02*
D03*
D19*
X72400Y-46983D02*
D03*
Y-118636D02*
D03*
D20*
X-30500Y-100010D02*
D03*
Y-83474D02*
D03*
D21*
X6443Y-62217D02*
D03*
Y-64776D02*
D03*
Y-67335D02*
D03*
X-643D02*
D03*
Y-64776D02*
D03*
Y-62217D02*
D03*
D22*
X87Y-42D02*
D03*
D23*
X-13595Y-87757D02*
X-12D01*
X54250Y-105750D02*
X56218Y-103782D01*
X53299Y-104800D02*
X54250Y-105750D01*
X44900Y-104800D02*
X53299D01*
X44900Y-108441D02*
Y-104800D01*
X22863Y-72763D02*
X31500D01*
X22700Y-76137D02*
Y-72926D01*
X22863Y-72763D01*
X37500Y-80637D02*
X43500D01*
X31500D02*
X37500D01*
X22700Y-76137D02*
X23463D01*
X37500Y-72763D02*
X43500D01*
X31500D02*
X37500D01*
X-13Y-61587D02*
Y-60787D01*
X-643Y-64776D02*
X6443D01*
X-19700Y-152600D02*
X-17797Y-150697D01*
X-37100Y-152600D02*
X-19700D01*
X-43200Y-153100D02*
X-39900Y-156400D01*
X-54278Y-153742D02*
X-47358D01*
X-42731Y-158369D01*
X-14685D01*
X-10185Y-153868D01*
X59173D01*
X54273Y-151900D02*
X57006Y-149167D01*
X-11000Y-151900D02*
X54273D01*
X-15500Y-156400D02*
X-11000Y-151900D01*
X-39900Y-156400D02*
X-15500D01*
X-17797Y-150697D02*
Y-146784D01*
X-38500Y-101100D02*
Y-80242D01*
X-36400Y-78142D01*
X-68637Y-118142D02*
X-65600D01*
X-65500Y-118242D01*
Y-124442D02*
Y-118242D01*
X-65800Y-124742D02*
X-65500Y-124442D01*
X-72615Y-124742D02*
X-65800D01*
X-72615Y-194848D02*
Y-124742D01*
Y-194848D02*
X-56000Y-211464D01*
X-4337Y-124405D02*
Y-118642D01*
X-68637Y-118142D02*
Y-112642D01*
Y-106579D01*
X-68500Y-106442D01*
X-51000D01*
X-50337Y-107105D01*
Y-120905D02*
Y-107105D01*
Y-120905D02*
X-35600D01*
X-27400D01*
X-55785Y-124742D02*
Y-114557D01*
X-57700Y-112642D02*
X-55785Y-114557D01*
X-60763Y-112642D02*
X-57700D01*
X-51400Y-150005D02*
Y-135242D01*
X-55785Y-130857D02*
X-51400Y-135242D01*
X-55785Y-130857D02*
Y-124742D01*
X-55722Y-124805D01*
X-22000Y-124442D02*
Y-120154D01*
X-21999Y-104451D02*
X-17116Y-99568D01*
X-21999Y-110142D02*
Y-104451D01*
X-21989Y-95631D02*
X-13595D01*
X-21999Y-95642D02*
X-21989Y-95631D01*
X-35100Y-115742D02*
X-20372D01*
X-28773Y-108442D02*
X-17932Y-97600D01*
X-35000Y-108442D02*
X-28773D01*
X-17932Y-97600D02*
X-13595D01*
X-44850Y-81024D02*
X-38031Y-74205D01*
X-44850Y-105992D02*
X-42400Y-108442D01*
X-44850Y-105992D02*
Y-81024D01*
X-42542Y-103150D02*
X-38642Y-107050D01*
X-42542Y-103150D02*
Y-81500D01*
X-37215Y-76173D01*
X-38642Y-111984D02*
Y-107050D01*
X-42400Y-115742D02*
X-38642Y-111984D01*
X58237Y-94341D02*
Y-85442D01*
X72400Y-136042D02*
Y-118636D01*
X54250Y-95592D02*
X55500Y-94342D01*
X54250Y-101452D02*
Y-95592D01*
X50364Y-97806D02*
X52281Y-99723D01*
X-17116Y-99568D02*
X-13595D01*
X-13400Y-67942D02*
X-9854Y-71487D01*
X-26000Y-67942D02*
X-13400D01*
X-9854Y-74175D02*
Y-71487D01*
X49001Y-134842D02*
X53069Y-138910D01*
X43911Y-134842D02*
X49001D01*
X41258Y-132189D02*
X43911Y-134842D01*
X41258Y-132189D02*
Y-97048D01*
X28031Y-83820D02*
X41258Y-97048D01*
X15539Y-85789D02*
X27215D01*
X39290Y-133005D02*
X45195Y-138910D01*
X39290Y-133005D02*
Y-97863D01*
X27215Y-85789D02*
X39290Y-97863D01*
X-13860Y-136302D02*
X-11100Y-133542D01*
X-13860Y-142847D02*
Y-136302D01*
X-12Y-121708D02*
Y-103309D01*
Y-121708D02*
X2722Y-124442D01*
X3800D01*
X1957Y-112642D02*
Y-103309D01*
Y-112642D02*
X3537Y-114222D01*
Y-118642D02*
Y-114222D01*
X-2049Y-138910D02*
X8025Y-128836D01*
X25484D01*
X-3949Y-107670D02*
Y-103309D01*
X7862Y-113220D02*
Y-103309D01*
X5894Y-114035D02*
Y-103309D01*
X9831Y-111072D02*
Y-103309D01*
X11799Y-106341D02*
X14458Y-109000D01*
X11799Y-106341D02*
Y-103309D01*
X27479Y-126842D02*
Y-102756D01*
X25484Y-128836D02*
X27479Y-126842D01*
X27500Y-130805D02*
X29447Y-128858D01*
X13931Y-130805D02*
X27500D01*
X5825Y-138910D02*
X13931Y-130805D01*
X31416Y-131342D02*
Y-101125D01*
X29984Y-132773D02*
X31416Y-131342D01*
X19836Y-132773D02*
X29984D01*
X13699Y-138910D02*
X19836Y-132773D01*
X30832Y-134742D02*
X33384Y-132189D01*
X25742Y-134742D02*
X30832D01*
X21573Y-138910D02*
X25742Y-134742D01*
X33384Y-132189D02*
Y-100310D01*
X24769Y-91694D02*
X33384Y-100310D01*
X15539Y-89726D02*
X25585D01*
X29447Y-138910D02*
X35353Y-133005D01*
Y-99494D01*
X25585Y-89726D02*
X35353Y-99494D01*
X22919Y-87757D02*
X26400D01*
X37321Y-98679D01*
Y-138910D02*
Y-98679D01*
X15539Y-87757D02*
X22919D01*
X29019Y-138482D02*
X29447Y-138910D01*
X20000Y-91694D02*
X21288D01*
X15539D02*
X20000D01*
X20000Y-91694D01*
X24769D01*
X15539Y-93663D02*
X15539Y-93663D01*
X-8000Y-99042D02*
X3925D01*
Y-103309D02*
Y-99042D01*
X-13595Y-93663D02*
X-10279D01*
X-9400Y-94542D01*
Y-97642D02*
Y-94542D01*
Y-97642D02*
X-8000Y-99042D01*
X11310Y-81852D02*
X15539D01*
X11300Y-96644D02*
Y-79942D01*
X5894Y-78235D02*
Y-74175D01*
X-7300Y-78342D02*
X9700D01*
X7862Y-78180D02*
Y-74175D01*
X-1980Y-78322D02*
Y-74175D01*
X-12Y-78130D02*
Y-74175D01*
X-5917Y-78024D02*
Y-74175D01*
X-13595Y-85789D02*
X-10547D01*
X-9200Y-84442D01*
Y-80242D01*
X-7300Y-78342D01*
X9700D02*
X11300Y-79942D01*
X3925Y-99042D02*
X8902D01*
X11300Y-96644D01*
X-30500Y-100010D02*
X-29468D01*
X-30500Y-83474D02*
X-29268D01*
X-13860Y-142847D02*
X-9923Y-146784D01*
X-1980Y-108486D02*
Y-103309D01*
X16100Y-83820D02*
X28031D01*
X7862Y-103309D02*
X7862Y-103309D01*
X-18906Y-81852D02*
X-13595D01*
X-24585Y-76173D02*
X-18906Y-81852D01*
X-37215Y-76173D02*
X-24585D01*
X-36400Y-78142D02*
X-25400D01*
X-19721Y-83820D02*
X-13595D01*
X-25400Y-78142D02*
X-19721Y-83820D01*
X-55585Y-123757D02*
Y-123042D01*
X-56000Y-203590D02*
X-55348D01*
X-64300Y-148942D02*
Y-140314D01*
Y-174369D02*
Y-165142D01*
X-28600Y-65342D02*
X-26000Y-67942D01*
X-34163Y-46842D02*
X-30200D01*
X-28600Y-48442D01*
X-53600Y-46842D02*
X-42037D01*
X-28600Y-65342D02*
Y-48442D01*
X-40863Y-55242D02*
X-40794Y-55311D01*
X-40863Y-55242D02*
X-34169D01*
X-11100Y-114822D02*
X-3949Y-107670D01*
X-11100Y-133542D02*
Y-114822D01*
X-5986Y-142847D02*
X-2049Y-146784D01*
X-5986Y-142847D02*
Y-136542D01*
X-9132Y-133396D02*
X-5986Y-136542D01*
X-5917Y-106855D02*
Y-103309D01*
X-13069Y-114006D02*
X-5917Y-106855D01*
X-13069Y-126210D02*
Y-114006D01*
X-15637Y-128779D02*
X-13069Y-126210D01*
X-27400Y-128779D02*
X-15637D01*
X-9132Y-133396D02*
Y-115637D01*
X-1980Y-108486D01*
X-64300Y-140314D02*
X-55465D01*
X-18090Y-79883D02*
X-13595D01*
X-17275Y-77915D02*
X-13595D01*
X-34100Y-63972D02*
X-33769D01*
X-29384Y-89726D02*
X-13595D01*
X-29400Y-89742D02*
X-29384Y-89726D01*
X-30500Y-88642D02*
Y-83474D01*
Y-88642D02*
X-29400Y-89742D01*
X-28569Y-91694D02*
X-13595D01*
X-28585Y-91710D02*
X-28569Y-91694D01*
X-29269Y-91710D02*
X-28585D01*
X-30500Y-100010D02*
Y-92942D01*
X-29269Y-91710D01*
X-7886Y-106040D02*
Y-103309D01*
X-9854Y-105224D02*
Y-103309D01*
X-20372Y-115742D02*
X-9854Y-105224D01*
X-22000Y-120154D02*
X-7886Y-106040D01*
X-47563Y-140342D02*
Y-130005D01*
X-46337Y-128779D01*
X-35600D01*
X-55722Y-124805D02*
X-43200D01*
X-35600Y-128779D02*
X-27400D01*
X-43200Y-153100D02*
Y-132679D01*
X-55437Y-140342D02*
X-55435Y-140343D01*
Y-152585D02*
Y-140343D01*
Y-152585D02*
X-54278Y-153742D01*
X60943Y-138910D02*
X69532D01*
X72400Y-136042D01*
X60943Y-152098D02*
Y-146784D01*
X59173Y-153868D02*
X60943Y-152098D01*
X-38031Y-74205D02*
X-23769D01*
X-18090Y-79883D01*
X56218Y-103782D02*
Y-101452D01*
X-62600Y-196990D02*
X-56000Y-203590D01*
X-62600Y-196990D02*
Y-185900D01*
X-51400Y-174700D01*
Y-157879D01*
X-49858Y-181700D02*
X-3000D01*
X-56000Y-187842D02*
X-49858Y-181700D01*
X1957Y-74175D02*
Y-69937D01*
X-582Y-67398D02*
X1957Y-69937D01*
X3925Y-74175D02*
Y-69937D01*
X6143Y-67719D01*
X15539Y-93663D02*
X17619D01*
X17619Y-93663D01*
X19185D01*
X19185Y-93663D01*
X23954D01*
X31416Y-101125D01*
X15539Y-95631D02*
X23138D01*
X29447Y-101940D01*
X15539Y-97600D02*
X22323D01*
X27479Y-102756D01*
X-34100Y-69536D02*
Y-63972D01*
Y-69536D02*
X-31400Y-72236D01*
X-22954D02*
X-17275Y-77915D01*
X-31400Y-72236D02*
X-22954D01*
X-15163Y-63900D02*
X-14658D01*
X-8222Y-70336D01*
X-5102D01*
X-3949Y-71489D01*
Y-74175D02*
Y-71489D01*
Y-74175D02*
X-3949Y-74175D01*
X15539Y-99568D02*
X19069D01*
X9831Y-111072D02*
X13158Y-114400D01*
X7862Y-113220D02*
X14384Y-119742D01*
X29447Y-128858D02*
Y-101940D01*
X19069Y-99568D02*
X23100Y-103600D01*
X14458Y-109000D02*
X23098D01*
X13158Y-114400D02*
X23098D01*
X14384Y-119742D02*
X23098D01*
X16958Y-125100D02*
X23098D01*
X5894Y-114035D02*
X16958Y-125100D01*
X67636Y-118636D02*
X72400D01*
X64442Y-115442D02*
X67636Y-118636D01*
X11799Y-74175D02*
Y-71901D01*
X9831Y-74175D02*
Y-71085D01*
X11799Y-71901D02*
X15437Y-68263D01*
X22700D01*
Y-63137D02*
X32210D01*
X9831Y-71085D02*
X17779Y-63137D01*
X22700D01*
Y-68263D02*
X36637D01*
X40200Y-64700D01*
Y-59600D01*
X45431Y-54369D01*
X46883D01*
X15539Y-79883D02*
X25569D01*
X28752Y-76700D01*
X43500Y-83842D02*
Y-80637D01*
Y-83842D02*
X45100Y-85442D01*
X15539Y-81852D02*
X26384D01*
X27599Y-80637D01*
X31500D01*
X28752Y-76700D02*
X59100D01*
X50364Y-115442D02*
Y-112736D01*
X52281Y-110819D01*
Y-108342D01*
X55500Y-94342D02*
X58238D01*
X45100Y-85442D02*
X50363D01*
X33345Y-142887D02*
X54605D01*
X56967Y-140525D01*
Y-136929D01*
X57006Y-149167D02*
Y-143269D01*
X60943Y-139332D01*
Y-138910D01*
X29447Y-146784D02*
X33345Y-142887D01*
X50364Y-130326D02*
Y-115442D01*
Y-130326D02*
X56967Y-136929D01*
X50364Y-97806D02*
Y-94600D01*
Y-94342D01*
X58238Y-115442D02*
X64442D01*
X54250Y-108342D02*
Y-105750D01*
X45000Y-100200D02*
X47969D01*
X50364Y-97806D01*
Y-94600D02*
X51105D01*
X59100Y-76700D02*
X61682Y-79282D01*
Y-90755D02*
Y-79282D01*
X58238Y-102438D02*
Y-94342D01*
X72400Y-118636D02*
Y-105700D01*
X70958Y-104258D02*
X72400Y-105700D01*
X60058Y-104258D02*
X70958D01*
X58238Y-102438D02*
X60058Y-104258D01*
X56218Y-108342D02*
X65658D01*
X65700Y-108300D01*
X61682Y-90755D02*
X61683Y-90756D01*
Y-95983D02*
Y-90756D01*
Y-95983D02*
X65900Y-100201D01*
X65902Y-89100D02*
X72400Y-82602D01*
Y-46983D01*
X-10734Y-64276D02*
X-10234Y-64776D01*
X-10734Y-64276D02*
Y-62934D01*
X-6400Y-64800D02*
X-668D01*
X-6400D02*
Y-59873D01*
X-10210Y-64800D02*
X-6400D01*
D24*
X15609Y-211464D02*
X26072Y-201000D01*
X-56000Y-211464D02*
X15609D01*
X-5900Y-158700D02*
X14300D01*
X26072Y-170472D01*
Y-201000D02*
Y-170472D01*
X30300Y-158598D02*
X61498D01*
X63400Y-160500D01*
Y-169842D02*
Y-160500D01*
X-56000Y-217042D02*
Y-211464D01*
X-58163Y-219205D02*
X-56000Y-217042D01*
X-58163Y-223842D02*
Y-219205D01*
X-58263Y-233142D02*
Y-223942D01*
X-66137Y-237205D02*
X-64700Y-238642D01*
X-66137Y-237205D02*
Y-233142D01*
X-64700Y-238642D02*
X46472D01*
X50000Y-235114D01*
Y-169642D01*
D25*
X-28Y-57300D02*
Y1900D01*
D26*
X2300Y-58473D02*
Y-56400D01*
X-2400Y-58400D02*
X-13Y-60787D01*
X-2400Y-58400D02*
Y-56400D01*
X-13Y-60787D02*
X2300Y-58473D01*
D27*
X70890Y42052D02*
D03*
Y81422D02*
D03*
D28*
X38392Y32209D02*
D03*
D29*
X24Y18430D02*
D03*
D30*
X24Y71579D02*
D03*
Y51894D02*
D03*
D31*
X11835Y91265D02*
D03*
D32*
X-70842Y61737D02*
D03*
D33*
X-33545Y-146784D02*
D03*
Y-138910D02*
D03*
X-25671Y-146784D02*
D03*
Y-138910D02*
D03*
X-17797Y-146784D02*
D03*
Y-138910D02*
D03*
X-9923Y-146784D02*
D03*
Y-138910D02*
D03*
X-2049Y-146784D02*
D03*
Y-138910D02*
D03*
X5825Y-146784D02*
D03*
Y-138910D02*
D03*
X13699Y-146784D02*
D03*
Y-138910D02*
D03*
X21573Y-146784D02*
D03*
Y-138910D02*
D03*
X29447Y-146784D02*
D03*
Y-138910D02*
D03*
X37321Y-146784D02*
D03*
Y-138910D02*
D03*
X45195Y-146784D02*
D03*
Y-138910D02*
D03*
X53069Y-146784D02*
D03*
Y-138910D02*
D03*
X60943Y-146784D02*
D03*
Y-138910D02*
D03*
D34*
X38400Y-169842D02*
D03*
X-11600D02*
D03*
X-64000Y-93184D02*
D03*
Y-73499D02*
D03*
D35*
X63400Y-169842D02*
D03*
X-36600D02*
D03*
D36*
X-66137Y-233142D02*
D03*
X-58263D02*
D03*
D37*
X972Y-88742D02*
D03*
D38*
X-56000Y-211464D02*
D03*
Y-203590D02*
D03*
Y-195716D02*
D03*
Y-187842D02*
D03*
D39*
X-5900Y-158700D02*
D03*
X-37100Y-152600D02*
D03*
X26000Y-201400D02*
D03*
X57972Y-9142D02*
D03*
X25272Y-9140D02*
D03*
X-25327Y-9142D02*
D03*
X-58028Y-9140D02*
D03*
X-65500Y-124442D02*
D03*
X50000Y-169642D02*
D03*
X65700Y-108300D02*
D03*
X45000Y-100200D02*
D03*
X65902Y-89100D02*
D03*
X3800Y-124442D02*
D03*
X-4300D02*
D03*
X23098Y-125100D02*
D03*
Y-119742D02*
D03*
X-42400Y-115742D02*
D03*
X-38500Y-101100D02*
D03*
X-35100Y-115742D02*
D03*
X-64400Y-149042D02*
D03*
Y-165042D02*
D03*
X6878Y-82836D02*
D03*
Y-88742D02*
D03*
Y-94647D02*
D03*
X972D02*
D03*
X-4933Y-88742D02*
D03*
Y-82836D02*
D03*
Y-94647D02*
D03*
X972Y-82836D02*
D03*
X-53600Y-46842D02*
D03*
X-42400Y-108442D02*
D03*
X-22000Y-124442D02*
D03*
X-21999Y-95642D02*
D03*
X-35000Y-108442D02*
D03*
X-21999Y-110142D02*
D03*
X44900Y-108441D02*
D03*
X-3000Y-181700D02*
D03*
X30300Y-158598D02*
D03*
X23098Y-109000D02*
D03*
X23100Y-103600D02*
D03*
X23098Y-114400D02*
D03*
X65900Y-100201D02*
D03*
X-6400Y-64800D02*
D03*
X-14600Y-47299D02*
D03*
X-14598Y-27100D02*
D03*
X13900Y-47300D02*
D03*
X13902Y-27098D02*
D03*
X40900D02*
D03*
X57972D02*
D03*
M02*
