%FSLAX25Y25*%
%MOIN*%
G70*
G01*
G75*
G04 Layer_Color=8388736*
%ADD10R,0.05118X0.03937*%
%ADD11R,0.03937X0.05118*%
%ADD12R,0.00984X0.03347*%
%ADD13R,0.04724X0.10039*%
%ADD14R,0.04331X0.05906*%
%ADD15O,0.04724X0.00984*%
%ADD16O,0.00984X0.04724*%
%ADD17R,0.07874X0.04724*%
%ADD18R,0.05118X0.04331*%
%ADD19R,0.05118X0.07874*%
%ADD20R,0.09055X0.07087*%
%ADD21R,0.03937X0.01378*%
%ADD22R,0.03937X0.01969*%
%ADD23C,0.00984*%
%ADD24C,0.01969*%
%ADD25C,0.05787*%
%ADD26C,0.01043*%
%ADD27R,0.07874X0.27559*%
%ADD28R,0.72870X0.07874*%
%ADD29R,0.07874X0.35433*%
%ADD30R,1.49606X0.07874*%
%ADD31R,1.25984X0.07874*%
%ADD32R,0.07874X0.27559*%
%ADD33C,0.04843*%
%ADD34C,0.07874*%
%ADD35C,0.13780*%
%ADD36C,0.06693*%
%ADD37R,0.16142X0.16142*%
%ADD38C,0.06299*%
%ADD39C,0.04331*%
%ADD40R,0.02362X0.03937*%
%ADD41R,0.03937X0.02362*%
%ADD42R,0.05906X0.02362*%
%ADD43R,0.05118X0.03150*%
%ADD44R,0.03150X0.05118*%
%ADD45R,0.06693X0.10236*%
%ADD46C,0.06693*%
%ADD47R,0.05918X0.04737*%
%ADD48R,0.04737X0.05918*%
%ADD49R,0.01378X0.03740*%
%ADD50R,0.05524X0.10839*%
%ADD51R,0.05131X0.06706*%
%ADD52O,0.05512X0.01772*%
%ADD53O,0.01772X0.05512*%
%ADD54R,0.08674X0.05524*%
%ADD55R,0.05918X0.05131*%
%ADD56R,0.05918X0.08674*%
%ADD57R,0.09855X0.07887*%
%ADD58R,0.04737X0.02178*%
%ADD59R,0.04737X0.02769*%
%ADD60C,0.05643*%
%ADD61C,0.08674*%
%ADD62C,0.14579*%
%ADD63C,0.07493*%
%ADD64R,0.16942X0.16942*%
%ADD65C,0.07099*%
%ADD66C,0.05131*%
D23*
X-78128Y-255572D02*
Y98791D01*
X78369D01*
Y-255572D02*
Y98791D01*
X-78128Y-255572D02*
X78072D01*
D47*
X37500Y-72763D02*
D03*
Y-80637D02*
D03*
X31500Y-72763D02*
D03*
Y-80637D02*
D03*
X43500D02*
D03*
Y-72763D02*
D03*
X-27400Y-128779D02*
D03*
Y-120905D02*
D03*
X22700Y-76137D02*
D03*
Y-68263D02*
D03*
Y-55263D02*
D03*
Y-63137D02*
D03*
X-35600Y-120905D02*
D03*
Y-128779D02*
D03*
X-51400Y-150005D02*
D03*
Y-157879D02*
D03*
X-43200Y-132679D02*
D03*
Y-124805D02*
D03*
D48*
X50363Y-85442D02*
D03*
X58237D02*
D03*
X58238Y-115442D02*
D03*
X50364D02*
D03*
X58238Y-94342D02*
D03*
X50364D02*
D03*
X-55437Y-140342D02*
D03*
X-47563D02*
D03*
X-4337Y-118642D02*
D03*
X3537D02*
D03*
X-23037Y-63900D02*
D03*
X-15163D02*
D03*
X-40863Y-55242D02*
D03*
X-48737D02*
D03*
X-68637Y-112642D02*
D03*
X-60763D02*
D03*
X-42037Y-46842D02*
D03*
X-34163D02*
D03*
D49*
X52281Y-108342D02*
D03*
X54250D02*
D03*
X56218D02*
D03*
Y-101452D02*
D03*
X54250D02*
D03*
X52281D02*
D03*
D50*
X-64300Y-140314D02*
D03*
Y-174369D02*
D03*
D51*
X-55785Y-124742D02*
D03*
X-72615D02*
D03*
D52*
X-13595Y-99568D02*
D03*
Y-97600D02*
D03*
Y-95631D02*
D03*
Y-93663D02*
D03*
Y-91694D02*
D03*
Y-89726D02*
D03*
Y-87757D02*
D03*
Y-85789D02*
D03*
Y-83820D02*
D03*
Y-81852D02*
D03*
Y-79883D02*
D03*
Y-77915D02*
D03*
X15539D02*
D03*
Y-79883D02*
D03*
Y-81852D02*
D03*
Y-83820D02*
D03*
Y-85789D02*
D03*
Y-87757D02*
D03*
Y-89726D02*
D03*
Y-91694D02*
D03*
Y-93663D02*
D03*
Y-95631D02*
D03*
Y-97600D02*
D03*
Y-99568D02*
D03*
D53*
X-9854Y-74175D02*
D03*
X-7886D02*
D03*
X-5917D02*
D03*
X-3949D02*
D03*
X-1980D02*
D03*
X-12D02*
D03*
X1957D02*
D03*
X3925D02*
D03*
X5894D02*
D03*
X7862D02*
D03*
X9831D02*
D03*
X11799D02*
D03*
Y-103309D02*
D03*
X9831D02*
D03*
X7862D02*
D03*
X5894D02*
D03*
X3925D02*
D03*
X1957D02*
D03*
X-12D02*
D03*
X-1980D02*
D03*
X-3949D02*
D03*
X-5917D02*
D03*
X-7886D02*
D03*
X-9854D02*
D03*
D54*
X46883Y-63031D02*
D03*
X32316Y-54369D02*
D03*
Y-63031D02*
D03*
X46883Y-54369D02*
D03*
D55*
X-34100Y-63972D02*
D03*
Y-55311D02*
D03*
D56*
X72400Y-46983D02*
D03*
Y-118636D02*
D03*
D57*
X-30500Y-100010D02*
D03*
Y-83474D02*
D03*
D58*
X6443Y-62217D02*
D03*
Y-64776D02*
D03*
Y-67335D02*
D03*
X-643D02*
D03*
Y-64776D02*
D03*
Y-62217D02*
D03*
D59*
X87Y-42D02*
D03*
D60*
X-33545Y-146784D02*
D03*
Y-138910D02*
D03*
X-25671Y-146784D02*
D03*
Y-138910D02*
D03*
X-17797Y-146784D02*
D03*
Y-138910D02*
D03*
X-9923Y-146784D02*
D03*
Y-138910D02*
D03*
X-2049Y-146784D02*
D03*
Y-138910D02*
D03*
X5825Y-146784D02*
D03*
Y-138910D02*
D03*
X13699Y-146784D02*
D03*
Y-138910D02*
D03*
X21573Y-146784D02*
D03*
Y-138910D02*
D03*
X29447Y-146784D02*
D03*
Y-138910D02*
D03*
X37321Y-146784D02*
D03*
Y-138910D02*
D03*
X45195Y-146784D02*
D03*
Y-138910D02*
D03*
X53069Y-146784D02*
D03*
Y-138910D02*
D03*
X60943Y-146784D02*
D03*
Y-138910D02*
D03*
D61*
X38400Y-169842D02*
D03*
X-11600D02*
D03*
X-64000Y-93184D02*
D03*
Y-73499D02*
D03*
D62*
X63400Y-169842D02*
D03*
X-36600D02*
D03*
D63*
X-66137Y-233142D02*
D03*
X-58263D02*
D03*
D64*
X972Y-88742D02*
D03*
D65*
X-56000Y-211464D02*
D03*
Y-203590D02*
D03*
Y-195716D02*
D03*
Y-187842D02*
D03*
D66*
X-5900Y-158700D02*
D03*
X-37100Y-152600D02*
D03*
X26000Y-201400D02*
D03*
X57972Y-9142D02*
D03*
X25272Y-9140D02*
D03*
X-25327Y-9142D02*
D03*
X-58028Y-9140D02*
D03*
X-65500Y-124442D02*
D03*
X50000Y-169642D02*
D03*
X65700Y-108300D02*
D03*
X45000Y-100200D02*
D03*
X65902Y-89100D02*
D03*
X3800Y-124442D02*
D03*
X-4300D02*
D03*
X23098Y-125100D02*
D03*
Y-119742D02*
D03*
X-42400Y-115742D02*
D03*
X-38500Y-101100D02*
D03*
X-35100Y-115742D02*
D03*
X-64400Y-149042D02*
D03*
Y-165042D02*
D03*
X6878Y-82836D02*
D03*
Y-88742D02*
D03*
Y-94647D02*
D03*
X972D02*
D03*
X-4933Y-88742D02*
D03*
Y-82836D02*
D03*
Y-94647D02*
D03*
X972Y-82836D02*
D03*
X-53600Y-46842D02*
D03*
X-42400Y-108442D02*
D03*
X-22000Y-124442D02*
D03*
X-21999Y-95642D02*
D03*
X-35000Y-108442D02*
D03*
X-21999Y-110142D02*
D03*
X44900Y-108441D02*
D03*
X-3000Y-181700D02*
D03*
X30300Y-158598D02*
D03*
X23098Y-109000D02*
D03*
X23100Y-103600D02*
D03*
X23098Y-114400D02*
D03*
X65900Y-100201D02*
D03*
X-6400Y-64800D02*
D03*
X-14600Y-47299D02*
D03*
X-14598Y-27100D02*
D03*
X13900Y-47300D02*
D03*
X13902Y-27098D02*
D03*
X40900D02*
D03*
X57972D02*
D03*
M02*
