%FSLAX25Y25*%
%MOIN*%
G70*
G01*
G75*
G04 Layer_Color=16711935*
%ADD10R,0.05118X0.03937*%
%ADD11R,0.03937X0.05118*%
%ADD12R,0.00984X0.03347*%
%ADD13R,0.04724X0.10039*%
%ADD14R,0.04331X0.05906*%
%ADD15O,0.04724X0.00984*%
%ADD16O,0.00984X0.04724*%
%ADD17R,0.07874X0.04724*%
%ADD18R,0.05118X0.04331*%
%ADD19R,0.05118X0.07874*%
%ADD20R,0.09055X0.07087*%
%ADD21R,0.03937X0.01378*%
%ADD22R,0.03937X0.01969*%
%ADD23C,0.00984*%
%ADD24C,0.01969*%
%ADD25C,0.05787*%
%ADD26C,0.01043*%
%ADD27R,0.07874X0.27559*%
%ADD28R,0.72870X0.07874*%
%ADD29R,0.07874X0.35433*%
%ADD30R,1.49606X0.07874*%
%ADD31R,1.25984X0.07874*%
%ADD32R,0.07874X0.27559*%
%ADD33C,0.04843*%
%ADD34C,0.07874*%
%ADD35C,0.13780*%
%ADD36C,0.06693*%
%ADD37R,0.16142X0.16142*%
%ADD38C,0.06299*%
%ADD39C,0.04331*%
%ADD40R,0.02362X0.03937*%
%ADD41R,0.03937X0.02362*%
%ADD42R,0.05906X0.02362*%
%ADD43R,0.05118X0.03150*%
%ADD44R,0.03150X0.05118*%
%ADD45R,0.06693X0.10236*%
%ADD46C,0.06693*%
%ADD47R,0.05918X0.04737*%
%ADD48R,0.04737X0.05918*%
%ADD49R,0.01378X0.03740*%
%ADD50R,0.05524X0.10839*%
%ADD51R,0.05131X0.06706*%
%ADD52O,0.05512X0.01772*%
%ADD53O,0.01772X0.05512*%
%ADD54R,0.08674X0.05524*%
%ADD55R,0.05918X0.05131*%
%ADD56R,0.05918X0.08674*%
%ADD57R,0.09855X0.07887*%
%ADD58R,0.04737X0.02178*%
%ADD59R,0.04737X0.02769*%
%ADD60C,0.05643*%
%ADD61C,0.08674*%
%ADD62C,0.14579*%
%ADD63C,0.07493*%
%ADD64R,0.16942X0.16942*%
%ADD65C,0.07099*%
%ADD66C,0.05131*%
%ADD67R,0.03162X0.04737*%
%ADD68R,0.04737X0.03162*%
%ADD69R,0.06706X0.03162*%
%ADD70R,0.05918X0.03950*%
%ADD71R,0.03950X0.05918*%
%ADD72R,0.07493X0.11036*%
D47*
X-38000Y-195663D02*
D03*
Y-203537D02*
D03*
X-25800Y-213163D02*
D03*
Y-221037D02*
D03*
X-17200Y-213163D02*
D03*
Y-221037D02*
D03*
X18000Y-193463D02*
D03*
Y-201337D02*
D03*
X54900Y-93063D02*
D03*
Y-100937D02*
D03*
D48*
X-3937Y-233400D02*
D03*
X3937D02*
D03*
X20337Y-220900D02*
D03*
X12463D02*
D03*
X-58037Y-116942D02*
D03*
X-50163D02*
D03*
X-65839Y-137742D02*
D03*
X-57965D02*
D03*
X-57963Y-130842D02*
D03*
X-65837D02*
D03*
D60*
X-33545Y-146784D02*
D03*
Y-138910D02*
D03*
X-25671Y-146784D02*
D03*
Y-138910D02*
D03*
X-17797Y-146784D02*
D03*
Y-138910D02*
D03*
X-9923Y-146784D02*
D03*
Y-138910D02*
D03*
X-2049Y-146784D02*
D03*
Y-138910D02*
D03*
X5825Y-146784D02*
D03*
Y-138910D02*
D03*
X13699Y-146784D02*
D03*
Y-138910D02*
D03*
X21573Y-146784D02*
D03*
Y-138910D02*
D03*
X29447Y-146784D02*
D03*
Y-138910D02*
D03*
X37321Y-146784D02*
D03*
Y-138910D02*
D03*
X45195Y-146784D02*
D03*
Y-138910D02*
D03*
X53069Y-146784D02*
D03*
Y-138910D02*
D03*
X60943Y-146784D02*
D03*
Y-138910D02*
D03*
D61*
X38400Y-169842D02*
D03*
X-11600D02*
D03*
X-64000Y-93184D02*
D03*
Y-73499D02*
D03*
D62*
X63400Y-169842D02*
D03*
X-36600D02*
D03*
D63*
X-66137Y-233142D02*
D03*
X-58263D02*
D03*
D64*
X972Y-88742D02*
D03*
D65*
X-56000Y-211464D02*
D03*
Y-203590D02*
D03*
Y-195716D02*
D03*
Y-187842D02*
D03*
D66*
X-5900Y-158700D02*
D03*
X-37100Y-152600D02*
D03*
X26000Y-201400D02*
D03*
X57972Y-9142D02*
D03*
X25272Y-9140D02*
D03*
X-25327Y-9142D02*
D03*
X-58028Y-9140D02*
D03*
X-65500Y-124442D02*
D03*
X50000Y-169642D02*
D03*
X65700Y-108300D02*
D03*
X45000Y-100200D02*
D03*
X65902Y-89100D02*
D03*
X3800Y-124442D02*
D03*
X-4300D02*
D03*
X23098Y-125100D02*
D03*
Y-119742D02*
D03*
X-42400Y-115742D02*
D03*
X-38500Y-101100D02*
D03*
X-35100Y-115742D02*
D03*
X-64400Y-149042D02*
D03*
Y-165042D02*
D03*
X6878Y-82836D02*
D03*
Y-88742D02*
D03*
Y-94647D02*
D03*
X972D02*
D03*
X-4933Y-88742D02*
D03*
Y-82836D02*
D03*
Y-94647D02*
D03*
X972Y-82836D02*
D03*
X-53600Y-46842D02*
D03*
X-42400Y-108442D02*
D03*
X-22000Y-124442D02*
D03*
X-21999Y-95642D02*
D03*
X-35000Y-108442D02*
D03*
X-21999Y-110142D02*
D03*
X44900Y-108441D02*
D03*
X-3000Y-181700D02*
D03*
X30300Y-158598D02*
D03*
X23098Y-109000D02*
D03*
X23100Y-103600D02*
D03*
X23098Y-114400D02*
D03*
X65900Y-100201D02*
D03*
X-6400Y-64800D02*
D03*
X-14600Y-47299D02*
D03*
X-14598Y-27100D02*
D03*
X13900Y-47300D02*
D03*
X13902Y-27098D02*
D03*
X40900D02*
D03*
X57972D02*
D03*
D67*
X6957Y-187025D02*
D03*
Y-197261D02*
D03*
D68*
X51675Y-218558D02*
D03*
X41439D02*
D03*
D69*
X-7700Y-220900D02*
D03*
Y-217160D02*
D03*
Y-213420D02*
D03*
X3324D02*
D03*
Y-220900D02*
D03*
D70*
X11924Y-165960D02*
D03*
Y-173440D02*
D03*
X2476Y-169700D02*
D03*
X-2876Y-188960D02*
D03*
Y-196440D02*
D03*
X-12324Y-192700D02*
D03*
D71*
X50240Y-205124D02*
D03*
X42760D02*
D03*
X46500Y-195676D02*
D03*
D72*
X-33900Y-60500D02*
D03*
X-63900Y-26642D02*
D03*
X-53900D02*
D03*
X-43900D02*
D03*
X-33900D02*
D03*
X-63900Y-60500D02*
D03*
X-43900D02*
D03*
M02*
