%FSLAX25Y25*%
%MOIN*%
G70*
G01*
G75*
G04 Layer_Physical_Order=2*
G04 Layer_Color=16711680*
%ADD10R,0.05118X0.03937*%
%ADD11R,0.03937X0.05118*%
%ADD12R,0.00984X0.03347*%
%ADD13R,0.04724X0.10039*%
%ADD14R,0.04331X0.05906*%
%ADD15O,0.04724X0.00984*%
%ADD16O,0.00984X0.04724*%
%ADD17R,0.07874X0.04724*%
%ADD18R,0.05118X0.04331*%
%ADD19R,0.05118X0.07874*%
%ADD20R,0.09055X0.07087*%
%ADD21R,0.03937X0.01378*%
%ADD22R,0.03937X0.01969*%
%ADD23C,0.00984*%
%ADD24C,0.01969*%
%ADD25C,0.05787*%
%ADD26C,0.01043*%
%ADD27R,0.07874X0.27559*%
%ADD28R,0.72870X0.07874*%
%ADD29R,0.07874X0.35433*%
%ADD30R,1.49606X0.07874*%
%ADD31R,1.25984X0.07874*%
%ADD32R,0.07874X0.27559*%
%ADD33C,0.04843*%
%ADD34C,0.07874*%
%ADD35C,0.13780*%
%ADD36C,0.06693*%
%ADD37R,0.16142X0.16142*%
%ADD38C,0.06299*%
%ADD39C,0.04331*%
%ADD40R,0.02362X0.03937*%
%ADD41R,0.03937X0.02362*%
%ADD42R,0.05906X0.02362*%
%ADD43R,0.05118X0.03150*%
%ADD44R,0.03150X0.05118*%
%ADD45R,0.06693X0.10236*%
%ADD46C,0.06693*%
G36*
X74995Y-119142D02*
X36858D01*
Y-109195D01*
X36744Y-108618D01*
X36417Y-108130D01*
X30823Y-102536D01*
X30334Y-102209D01*
X29758Y-102095D01*
X26158D01*
X25894Y-101670D01*
X25996Y-101463D01*
X42114D01*
X42249Y-101788D01*
X42754Y-102446D01*
X43412Y-102951D01*
X44178Y-103269D01*
X45000Y-103377D01*
X45822Y-103269D01*
X46588Y-102951D01*
X47246Y-102446D01*
X47751Y-101788D01*
X48068Y-101022D01*
X48177Y-100200D01*
X48068Y-99378D01*
X47751Y-98612D01*
X47675Y-98512D01*
X47896Y-98063D01*
X51357D01*
Y-100437D01*
X58443D01*
Y-98063D01*
X61634D01*
X62866Y-99296D01*
X62831Y-99379D01*
X62723Y-100201D01*
X62831Y-101023D01*
X63149Y-101789D01*
X63654Y-102447D01*
X64312Y-102952D01*
X65078Y-103269D01*
X65900Y-103378D01*
X66722Y-103269D01*
X67488Y-102952D01*
X67590Y-102874D01*
X67734Y-102945D01*
X67815Y-103439D01*
X66081Y-105173D01*
X65700Y-105123D01*
X64878Y-105231D01*
X64112Y-105549D01*
X63454Y-106054D01*
X62949Y-106712D01*
X62631Y-107478D01*
X62523Y-108300D01*
X62631Y-109122D01*
X62949Y-109888D01*
X63454Y-110546D01*
X64112Y-111051D01*
X64878Y-111369D01*
X65700Y-111477D01*
X66522Y-111369D01*
X67288Y-111051D01*
X67946Y-110546D01*
X68451Y-109888D01*
X68769Y-109122D01*
X68877Y-108300D01*
X68769Y-107478D01*
X68553Y-106958D01*
X70608Y-104904D01*
X70934Y-104415D01*
X71049Y-103839D01*
X71049Y-103839D01*
X71049Y-103839D01*
Y-103839D01*
Y-87591D01*
X70934Y-87015D01*
X70608Y-86527D01*
X68474Y-84394D01*
X67986Y-84068D01*
X67410Y-83953D01*
X55889D01*
X55313Y-84068D01*
X54825Y-84394D01*
X49800Y-89419D01*
X49686Y-89589D01*
X22104D01*
X21528Y-89704D01*
X21039Y-90030D01*
X2433Y-108636D01*
X-19214D01*
X-19248Y-108553D01*
X-19753Y-107895D01*
X-20411Y-107391D01*
X-21177Y-107073D01*
X-21999Y-106965D01*
X-22821Y-107073D01*
X-23588Y-107391D01*
X-24246Y-107895D01*
X-24246Y-107895D01*
X-24695Y-107675D01*
Y-100466D01*
X-22905Y-98676D01*
X-22821Y-98710D01*
X-21999Y-98818D01*
X-21177Y-98710D01*
X-20411Y-98393D01*
X-19753Y-97888D01*
X-19248Y-97230D01*
X-18931Y-96464D01*
X-18822Y-95642D01*
X-18931Y-94819D01*
X-19248Y-94053D01*
X-19753Y-93395D01*
X-20411Y-92891D01*
X-21177Y-92573D01*
X-21999Y-92465D01*
X-22821Y-92573D01*
X-23588Y-92891D01*
X-24246Y-93395D01*
X-24750Y-94053D01*
X-25068Y-94819D01*
X-25176Y-95642D01*
X-25068Y-96464D01*
X-25033Y-96547D01*
X-26620Y-98133D01*
X-27082Y-97942D01*
X-27100Y-44200D01*
Y-43900D01*
X-52395D01*
Y-32744D01*
X-49569D01*
Y-20539D01*
X-58231D01*
Y-32744D01*
X-55405D01*
Y-43900D01*
X-74754D01*
Y-942D01*
X74995D01*
Y-119142D01*
D02*
G37*
G36*
X-49882Y-106500D02*
X-49691Y-106962D01*
X-55164Y-112436D01*
X-55491Y-112924D01*
X-55585Y-113398D01*
X-57537D01*
Y-116943D01*
X-58036D01*
Y-117442D01*
X-60990D01*
Y-119142D01*
X-74754D01*
Y-106853D01*
X-74401Y-106500D01*
X-49882Y-106500D01*
D02*
G37*
%LPC*%
G36*
X-11489Y-47799D02*
X-14100D01*
Y-50410D01*
X-13778Y-50368D01*
X-13012Y-50050D01*
X-12354Y-49545D01*
X-11849Y-48888D01*
X-11531Y-48121D01*
X-11489Y-47799D01*
D02*
G37*
G36*
X14400Y-44189D02*
Y-46800D01*
X17011D01*
X16969Y-46478D01*
X16651Y-45712D01*
X16146Y-45054D01*
X15488Y-44549D01*
X14722Y-44232D01*
X14400Y-44189D01*
D02*
G37*
G36*
X13400D02*
X13078Y-44232D01*
X12312Y-44549D01*
X11654Y-45054D01*
X11149Y-45712D01*
X10831Y-46478D01*
X10789Y-46800D01*
X13400D01*
Y-44189D01*
D02*
G37*
G36*
X-15100Y-47799D02*
X-17711D01*
X-17669Y-48121D01*
X-17351Y-48888D01*
X-16846Y-49545D01*
X-16188Y-50050D01*
X-15422Y-50368D01*
X-15100Y-50410D01*
Y-47799D01*
D02*
G37*
G36*
X-5900Y-61689D02*
Y-64300D01*
X-3289D01*
X-3331Y-63978D01*
X-3649Y-63212D01*
X-4154Y-62554D01*
X-4812Y-62049D01*
X-5578Y-61731D01*
X-5900Y-61689D01*
D02*
G37*
G36*
X-6900D02*
X-7222Y-61731D01*
X-7988Y-62049D01*
X-8646Y-62554D01*
X-9151Y-63212D01*
X-9469Y-63978D01*
X-9511Y-64300D01*
X-6900D01*
Y-61689D01*
D02*
G37*
G36*
X17011Y-47800D02*
X14400D01*
Y-50411D01*
X14722Y-50368D01*
X15488Y-50051D01*
X16146Y-49546D01*
X16651Y-48888D01*
X16969Y-48122D01*
X17011Y-47800D01*
D02*
G37*
G36*
X13400D02*
X10789D01*
X10831Y-48122D01*
X11149Y-48888D01*
X11654Y-49546D01*
X12312Y-50051D01*
X13078Y-50368D01*
X13400Y-50411D01*
Y-47800D01*
D02*
G37*
G36*
X-15100Y-44188D02*
X-15422Y-44231D01*
X-16188Y-44548D01*
X-16846Y-45053D01*
X-17351Y-45711D01*
X-17669Y-46477D01*
X-17711Y-46799D01*
X-15100D01*
Y-44188D01*
D02*
G37*
G36*
X-34400Y-27142D02*
X-38231D01*
Y-32744D01*
X-34400D01*
Y-27142D01*
D02*
G37*
G36*
X-39569D02*
X-43400D01*
Y-32744D01*
X-39569D01*
Y-27142D01*
D02*
G37*
G36*
X-15098Y-27600D02*
X-17709D01*
X-17667Y-27922D01*
X-17350Y-28688D01*
X-16845Y-29346D01*
X-16187Y-29851D01*
X-15421Y-30169D01*
X-15098Y-30211D01*
Y-27600D01*
D02*
G37*
G36*
X-29569Y-27142D02*
X-33400D01*
Y-32744D01*
X-29569D01*
Y-27142D01*
D02*
G37*
G36*
X-64400D02*
X-68231D01*
Y-32744D01*
X-64400D01*
Y-27142D01*
D02*
G37*
G36*
X-14100Y-44188D02*
Y-46799D01*
X-11489D01*
X-11531Y-46477D01*
X-11849Y-45711D01*
X-12354Y-45053D01*
X-13012Y-44548D01*
X-13778Y-44231D01*
X-14100Y-44188D01*
D02*
G37*
G36*
X-44400Y-27142D02*
X-48231D01*
Y-32744D01*
X-44400D01*
Y-27142D01*
D02*
G37*
G36*
X-59569D02*
X-63400D01*
Y-32744D01*
X-59569D01*
Y-27142D01*
D02*
G37*
G36*
X54400Y-101437D02*
X51357D01*
Y-103890D01*
X54400D01*
Y-101437D01*
D02*
G37*
G36*
X45400Y-105330D02*
Y-107941D01*
X48011D01*
X47969Y-107619D01*
X47651Y-106852D01*
X47146Y-106195D01*
X46488Y-105690D01*
X45722Y-105372D01*
X45400Y-105330D01*
D02*
G37*
G36*
X-8083Y-94855D02*
Y-97797D01*
X-5141D01*
X-5433Y-97758D01*
Y-95147D01*
X-8044D01*
X-8083Y-94855D01*
D02*
G37*
G36*
X58443Y-101437D02*
X55400D01*
Y-103890D01*
X58443D01*
Y-101437D01*
D02*
G37*
G36*
X44400Y-108941D02*
X41789D01*
X41831Y-109263D01*
X42149Y-110029D01*
X42654Y-110687D01*
X43312Y-111192D01*
X44078Y-111510D01*
X44400Y-111552D01*
Y-108941D01*
D02*
G37*
G36*
X-58537Y-113398D02*
X-60990D01*
Y-116442D01*
X-58537D01*
Y-113398D01*
D02*
G37*
G36*
X44400Y-105330D02*
X44078Y-105372D01*
X43312Y-105690D01*
X42654Y-106195D01*
X42149Y-106852D01*
X41831Y-107619D01*
X41789Y-107941D01*
X44400D01*
Y-105330D01*
D02*
G37*
G36*
X48011Y-108941D02*
X45400D01*
Y-111552D01*
X45722Y-111510D01*
X46488Y-111192D01*
X47146Y-110687D01*
X47651Y-110029D01*
X47969Y-109263D01*
X48011Y-108941D01*
D02*
G37*
G36*
X472Y-89242D02*
X-8083D01*
Y-94439D01*
X-8044Y-94147D01*
X-4932D01*
Y-94646D01*
X-4433D01*
Y-97758D01*
X-4725Y-97797D01*
X472D01*
Y-97758D01*
Y-94646D01*
Y-89242D01*
D02*
G37*
G36*
X10028Y-79687D02*
X7086D01*
X7378Y-79725D01*
Y-82336D01*
X9989D01*
X10028Y-82628D01*
Y-79687D01*
D02*
G37*
G36*
X-5141D02*
X-8083D01*
Y-82628D01*
X-8044Y-82336D01*
X-5433D01*
Y-79725D01*
X-5141Y-79687D01*
D02*
G37*
G36*
X-3289Y-65300D02*
X-5900D01*
Y-67911D01*
X-5578Y-67869D01*
X-4812Y-67551D01*
X-4154Y-67046D01*
X-3649Y-66388D01*
X-3331Y-65622D01*
X-3289Y-65300D01*
D02*
G37*
G36*
X-6900D02*
X-9511D01*
X-9469Y-65622D01*
X-9151Y-66388D01*
X-8646Y-67046D01*
X-7988Y-67551D01*
X-7222Y-67869D01*
X-6900Y-67911D01*
Y-65300D01*
D02*
G37*
G36*
X10028Y-89242D02*
X1472D01*
Y-97797D01*
X6670D01*
X6378Y-97758D01*
Y-94646D01*
X6877D01*
Y-94147D01*
X9989D01*
X10028Y-94439D01*
Y-89242D01*
D02*
G37*
G36*
Y-94855D02*
X9989Y-95147D01*
X7378D01*
Y-97758D01*
X7086Y-97797D01*
X10028D01*
Y-94855D01*
D02*
G37*
G36*
X472Y-79687D02*
X-4725D01*
X-4433Y-79725D01*
Y-82837D01*
X-4932D01*
Y-83336D01*
X-8044D01*
X-8083Y-83044D01*
Y-88242D01*
X472D01*
Y-82837D01*
Y-79725D01*
Y-79687D01*
D02*
G37*
G36*
X6670D02*
X1472D01*
Y-79725D01*
Y-82837D01*
Y-88242D01*
X10028D01*
Y-83044D01*
X9989Y-83336D01*
X6877D01*
Y-82837D01*
X6378D01*
Y-79725D01*
X6670Y-79687D01*
D02*
G37*
G36*
X-11488Y-27600D02*
X-14098D01*
Y-30211D01*
X-13776Y-30169D01*
X-13010Y-29851D01*
X-12352Y-29346D01*
X-11847Y-28688D01*
X-11530Y-27922D01*
X-11488Y-27600D01*
D02*
G37*
G36*
X-58528Y-9640D02*
X-61138D01*
X-61096Y-9962D01*
X-60779Y-10729D01*
X-60274Y-11387D01*
X-59616Y-11891D01*
X-58850Y-12209D01*
X-58528Y-12251D01*
Y-9640D01*
D02*
G37*
G36*
X61083Y-9642D02*
X58472D01*
Y-12253D01*
X58795Y-12210D01*
X59561Y-11893D01*
X60219Y-11388D01*
X60724Y-10730D01*
X61041Y-9964D01*
X61083Y-9642D01*
D02*
G37*
G36*
X24772Y-9640D02*
X22162D01*
X22204Y-9962D01*
X22521Y-10729D01*
X23026Y-11387D01*
X23684Y-11891D01*
X24450Y-12209D01*
X24772Y-12251D01*
Y-9640D01*
D02*
G37*
G36*
X-54917D02*
X-57528D01*
Y-12251D01*
X-57205Y-12209D01*
X-56439Y-11891D01*
X-55781Y-11387D01*
X-55276Y-10729D01*
X-54959Y-9962D01*
X-54917Y-9640D01*
D02*
G37*
G36*
X57472Y-9642D02*
X54861D01*
X54904Y-9964D01*
X55221Y-10730D01*
X55726Y-11388D01*
X56384Y-11893D01*
X57150Y-12210D01*
X57472Y-12253D01*
Y-9642D01*
D02*
G37*
G36*
X-29569Y-20539D02*
X-33400D01*
Y-26142D01*
X-29569D01*
Y-20539D01*
D02*
G37*
G36*
X-34400D02*
X-38231D01*
Y-26142D01*
X-34400D01*
Y-20539D01*
D02*
G37*
G36*
X-22216Y-9642D02*
X-24827D01*
Y-12253D01*
X-24505Y-12210D01*
X-23738Y-11893D01*
X-23080Y-11388D01*
X-22576Y-10730D01*
X-22258Y-9964D01*
X-22216Y-9642D01*
D02*
G37*
G36*
X-25827D02*
X-28438D01*
X-28395Y-9964D01*
X-28078Y-10730D01*
X-27573Y-11388D01*
X-26915Y-11893D01*
X-26149Y-12210D01*
X-25827Y-12253D01*
Y-9642D01*
D02*
G37*
G36*
X-57528Y-6029D02*
Y-8640D01*
X-54917D01*
X-54959Y-8318D01*
X-55276Y-7552D01*
X-55781Y-6894D01*
X-56439Y-6389D01*
X-57205Y-6072D01*
X-57528Y-6029D01*
D02*
G37*
G36*
X-58528D02*
X-58850Y-6072D01*
X-59616Y-6389D01*
X-60274Y-6894D01*
X-60779Y-7552D01*
X-61096Y-8318D01*
X-61138Y-8640D01*
X-58528D01*
Y-6029D01*
D02*
G37*
G36*
X25772D02*
Y-8640D01*
X28383D01*
X28341Y-8318D01*
X28024Y-7552D01*
X27519Y-6894D01*
X26861Y-6389D01*
X26095Y-6072D01*
X25772Y-6029D01*
D02*
G37*
G36*
X24772D02*
X24450Y-6072D01*
X23684Y-6389D01*
X23026Y-6894D01*
X22521Y-7552D01*
X22204Y-8318D01*
X22162Y-8640D01*
X24772D01*
Y-6029D01*
D02*
G37*
G36*
X58472Y-6031D02*
Y-8642D01*
X61083D01*
X61041Y-8320D01*
X60724Y-7553D01*
X60219Y-6895D01*
X59561Y-6391D01*
X58795Y-6073D01*
X58472Y-6031D01*
D02*
G37*
G36*
X-25827D02*
X-26149Y-6073D01*
X-26915Y-6391D01*
X-27573Y-6895D01*
X-28078Y-7553D01*
X-28395Y-8320D01*
X-28438Y-8642D01*
X-25827D01*
Y-6031D01*
D02*
G37*
G36*
X28383Y-9640D02*
X25772D01*
Y-12251D01*
X26095Y-12209D01*
X26861Y-11891D01*
X27519Y-11387D01*
X28024Y-10729D01*
X28341Y-9962D01*
X28383Y-9640D01*
D02*
G37*
G36*
X57472Y-6031D02*
X57150Y-6073D01*
X56384Y-6391D01*
X55726Y-6895D01*
X55221Y-7553D01*
X54904Y-8320D01*
X54861Y-8642D01*
X57472D01*
Y-6031D01*
D02*
G37*
G36*
X-24827D02*
Y-8642D01*
X-22216D01*
X-22258Y-8320D01*
X-22576Y-7553D01*
X-23080Y-6895D01*
X-23738Y-6391D01*
X-24505Y-6073D01*
X-24827Y-6031D01*
D02*
G37*
G36*
X-15098Y-23989D02*
X-15421Y-24032D01*
X-16187Y-24349D01*
X-16845Y-24854D01*
X-17350Y-25512D01*
X-17667Y-26278D01*
X-17709Y-26600D01*
X-15098D01*
Y-23989D01*
D02*
G37*
G36*
X61083Y-27598D02*
X58472D01*
Y-30209D01*
X58795Y-30167D01*
X59561Y-29850D01*
X60219Y-29345D01*
X60724Y-28687D01*
X61041Y-27921D01*
X61083Y-27598D01*
D02*
G37*
G36*
X13402Y-23988D02*
X13079Y-24030D01*
X12313Y-24347D01*
X11655Y-24852D01*
X11150Y-25510D01*
X10833Y-26276D01*
X10791Y-26598D01*
X13402D01*
Y-23988D01*
D02*
G37*
G36*
X-14098Y-23989D02*
Y-26600D01*
X-11488D01*
X-11530Y-26278D01*
X-11847Y-25512D01*
X-12352Y-24854D01*
X-13010Y-24349D01*
X-13776Y-24032D01*
X-14098Y-23989D01*
D02*
G37*
G36*
X57472Y-27598D02*
X54861D01*
X54904Y-27921D01*
X55221Y-28687D01*
X55726Y-29345D01*
X56384Y-29850D01*
X57150Y-30167D01*
X57472Y-30209D01*
Y-27598D01*
D02*
G37*
G36*
X17012D02*
X14402D01*
Y-30209D01*
X14724Y-30167D01*
X15490Y-29850D01*
X16148Y-29345D01*
X16653Y-28687D01*
X16970Y-27921D01*
X17012Y-27598D01*
D02*
G37*
G36*
X13402D02*
X10791D01*
X10833Y-27921D01*
X11150Y-28687D01*
X11655Y-29345D01*
X12313Y-29850D01*
X13079Y-30167D01*
X13402Y-30209D01*
Y-27598D01*
D02*
G37*
G36*
X44011D02*
X41400D01*
Y-30209D01*
X41722Y-30167D01*
X42488Y-29850D01*
X43146Y-29345D01*
X43651Y-28687D01*
X43968Y-27921D01*
X44011Y-27598D01*
D02*
G37*
G36*
X40400D02*
X37789D01*
X37832Y-27921D01*
X38149Y-28687D01*
X38654Y-29345D01*
X39312Y-29850D01*
X40078Y-30167D01*
X40400Y-30209D01*
Y-27598D01*
D02*
G37*
G36*
X-59569Y-20539D02*
X-63400D01*
Y-26142D01*
X-59569D01*
Y-20539D01*
D02*
G37*
G36*
X-64400D02*
X-68231D01*
Y-26142D01*
X-64400D01*
Y-20539D01*
D02*
G37*
G36*
X-39569D02*
X-43400D01*
Y-26142D01*
X-39569D01*
Y-20539D01*
D02*
G37*
G36*
X-44400D02*
X-48231D01*
Y-26142D01*
X-44400D01*
Y-20539D01*
D02*
G37*
G36*
X58472Y-23988D02*
Y-26598D01*
X61083D01*
X61041Y-26276D01*
X60724Y-25510D01*
X60219Y-24852D01*
X59561Y-24347D01*
X58795Y-24030D01*
X58472Y-23988D01*
D02*
G37*
G36*
X40400D02*
X40078Y-24030D01*
X39312Y-24347D01*
X38654Y-24852D01*
X38149Y-25510D01*
X37832Y-26276D01*
X37789Y-26598D01*
X40400D01*
Y-23988D01*
D02*
G37*
G36*
X14402D02*
Y-26598D01*
X17012D01*
X16970Y-26276D01*
X16653Y-25510D01*
X16148Y-24852D01*
X15490Y-24347D01*
X14724Y-24030D01*
X14402Y-23988D01*
D02*
G37*
G36*
X57472D02*
X57150Y-24030D01*
X56384Y-24347D01*
X55726Y-24852D01*
X55221Y-25510D01*
X54904Y-26276D01*
X54861Y-26598D01*
X57472D01*
Y-23988D01*
D02*
G37*
G36*
X41400D02*
Y-26598D01*
X44011D01*
X43968Y-26276D01*
X43651Y-25510D01*
X43146Y-24852D01*
X42488Y-24347D01*
X41722Y-24030D01*
X41400Y-23988D01*
D02*
G37*
%LPD*%
D10*
X-38000Y-195663D02*
D03*
Y-203537D02*
D03*
X-25800Y-213163D02*
D03*
Y-221037D02*
D03*
X-17200Y-213163D02*
D03*
Y-221037D02*
D03*
X18000Y-193463D02*
D03*
Y-201337D02*
D03*
X54900Y-93063D02*
D03*
Y-100937D02*
D03*
D11*
X-3937Y-233400D02*
D03*
X3937D02*
D03*
X20337Y-220900D02*
D03*
X12463D02*
D03*
X-58037Y-116942D02*
D03*
X-50163D02*
D03*
X-65839Y-137742D02*
D03*
X-57965D02*
D03*
X-57963Y-130842D02*
D03*
X-65837D02*
D03*
D23*
X-10453Y-82953D02*
X-4817D01*
X6878Y-82836D02*
X11742D01*
X11853Y-82947D01*
Y-94647D02*
Y-82947D01*
X6878Y-94647D02*
X11853D01*
X6878Y-98822D02*
Y-94647D01*
X6700Y-99000D02*
X6878Y-98822D01*
X-4666Y-99000D02*
X6700D01*
X-4933Y-98733D02*
X-4666Y-99000D01*
X-4933Y-98733D02*
Y-94647D01*
X-4817Y-82953D02*
X972Y-88742D01*
X-10453Y-94647D02*
Y-82953D01*
Y-94647D02*
X-4933D01*
X-17700Y-194100D02*
X1620Y-213420D01*
X-17700Y-194100D02*
Y-183900D01*
X-10842Y-177042D01*
X-5900Y-158700D02*
X3700D01*
X7889Y-162889D01*
X-5946Y-158653D02*
Y-130942D01*
X-39669Y-150031D02*
X-37100Y-152600D01*
X-33545Y-138910D02*
Y-125179D01*
X-28168Y-119802D01*
X25937Y-201337D02*
X26000Y-201400D01*
X-4668Y-202832D02*
X5931D01*
X12463Y-209363D01*
Y-220900D02*
Y-209363D01*
X3324Y-220900D02*
X12463D01*
X13263D02*
X13300Y-220937D01*
X11800Y-219800D02*
X12163D01*
X46500Y-195676D02*
X46700Y-195476D01*
Y-188100D01*
X50240Y-211240D02*
Y-205124D01*
Y-211240D02*
X51675Y-212675D01*
Y-218558D02*
Y-212675D01*
X42760Y-211140D02*
Y-205124D01*
X41439Y-212461D02*
X42760Y-211140D01*
X41439Y-218558D02*
Y-212461D01*
X-56000Y-195716D02*
X-55947Y-195663D01*
X-38000D01*
X-7837Y-221037D02*
X-7700Y-220900D01*
X-17200Y-221037D02*
X-7837D01*
X-25800D02*
X-17200D01*
X-69832Y-211210D02*
X-60005Y-221037D01*
X-25800D01*
X3937Y-233792D02*
Y-233400D01*
X-235Y-237965D02*
X3937Y-233792D01*
X-60261Y-237965D02*
X-235D01*
X-65083Y-233142D02*
X-60261Y-237965D01*
X-66137Y-233142D02*
X-65083D01*
X-4195D02*
X-3937Y-233400D01*
X-58263Y-233142D02*
X-4195D01*
X51675Y-228000D02*
Y-218558D01*
X46275Y-233400D02*
X51675Y-228000D01*
X3937Y-233400D02*
X46275D01*
X41439Y-222361D02*
Y-218558D01*
X36900Y-226900D02*
X41439Y-222361D01*
X-58442Y-226900D02*
X36900D01*
X-71800Y-213542D02*
X-58442Y-226900D01*
X-7700Y-220900D02*
X-3700D01*
X-2300Y-219500D01*
Y-215300D01*
X-4180Y-213420D02*
X-2300Y-215300D01*
X-7700Y-213420D02*
X-4180D01*
X-36953Y-195716D02*
X-36900Y-195663D01*
X-58263Y-233142D02*
X-57842Y-233563D01*
X46700Y-188100D02*
X48600Y-186200D01*
X56700D01*
X63400Y-179500D01*
Y-169842D01*
X-54100Y-119642D02*
Y-113500D01*
X-41700Y-101100D01*
X-38500D01*
X-28168Y-119802D02*
Y-109089D01*
X-42400Y-108442D02*
X-38758Y-104800D01*
X-32458D01*
X-28168Y-109089D01*
X-65837Y-130842D02*
X-65500Y-130505D01*
Y-124442D01*
X-57963Y-137740D02*
Y-130842D01*
X-52500D01*
X-70969Y-137642D02*
X-70868Y-137742D01*
X-65839D01*
X-50163Y-128505D02*
Y-116942D01*
X-52500Y-130842D02*
X-50163Y-128505D01*
X-73769Y-225510D02*
Y-140442D01*
X-70969Y-137642D01*
X-65100Y-116942D02*
X-58037D01*
X-65500Y-124442D02*
Y-117342D01*
X-65100Y-116942D01*
X-33545Y-139388D02*
Y-138910D01*
X-5946Y-130942D02*
X-4300Y-129295D01*
Y-124442D01*
X3800Y-128630D02*
Y-124442D01*
X1888Y-142847D02*
Y-130542D01*
X3800Y-128630D01*
X-27302Y-142847D02*
X-13860D01*
X-9923Y-138910D01*
X-73769Y-225510D02*
X-66137Y-233142D01*
X1888Y-142847D02*
X5825Y-146784D01*
X54100Y-177342D02*
Y-164242D01*
X50362Y-181079D02*
X54100Y-177342D01*
X-42400Y-148142D02*
Y-115742D01*
X-50163Y-113505D02*
X-48758Y-112100D01*
X-50163Y-116942D02*
Y-113505D01*
X-62308Y-127850D02*
X-54100Y-119642D01*
X-62308Y-145984D02*
Y-127850D01*
X-26200Y-99843D02*
X-21999Y-95642D01*
X-26200Y-120618D02*
Y-99843D01*
X-35000Y-108442D02*
X-31600D01*
X-30137Y-109905D01*
Y-118942D02*
Y-109905D01*
X-32858Y-121663D02*
X-30137Y-118942D01*
X-32858Y-121708D02*
Y-121663D01*
X-29608Y-124026D02*
X-26200Y-120618D01*
X-38742Y-112100D02*
X-35100Y-115742D01*
X-48758Y-112100D02*
X-38742D01*
X64880Y-153461D02*
Y-142847D01*
X54100Y-164242D02*
X64880Y-153461D01*
X60943Y-138910D02*
X64880Y-142847D01*
X-39669Y-150031D02*
Y-128518D01*
X-32858Y-121708D01*
X-56263Y-162005D02*
X-42400Y-148142D01*
X37321Y-138910D02*
X38210Y-138021D01*
X-56263Y-172773D02*
Y-162005D01*
X-65895Y-182404D02*
X-56263Y-172773D01*
X-65895Y-191542D02*
Y-182404D01*
Y-191542D02*
X-61721Y-195716D01*
X-56000D01*
X-62308Y-145984D02*
X-58232Y-150060D01*
Y-171957D02*
Y-150060D01*
X-67863Y-181589D02*
X-58232Y-171957D01*
X-67863Y-200442D02*
Y-181589D01*
Y-200442D02*
X-64715Y-203590D01*
X-56000D01*
X-69832Y-211210D02*
Y-180773D01*
X-60200Y-171142D01*
X-71800Y-213542D02*
Y-172442D01*
X-60200Y-171142D02*
Y-153242D01*
X-64400Y-149042D02*
X-60200Y-153242D01*
X-71800Y-172442D02*
X-64400Y-165042D01*
X63400Y-169842D02*
X64700D01*
X-53900Y-46542D02*
Y-26642D01*
Y-46542D02*
X-53600Y-46842D01*
X33384Y-142847D02*
Y-112626D01*
Y-142847D02*
X37321Y-146784D01*
X25510Y-142847D02*
X29447Y-146784D01*
X31316Y-131526D02*
Y-115858D01*
X17636Y-142847D02*
X21573Y-146784D01*
X17636Y-142847D02*
Y-136805D01*
X29300Y-125142D01*
X41258Y-156483D02*
Y-137279D01*
X25510Y-142847D02*
Y-137279D01*
X27817Y-134973D01*
X27869D01*
X31316Y-131526D01*
X9762Y-142847D02*
X13699Y-146784D01*
X9762Y-142847D02*
Y-128879D01*
X-29608Y-140541D02*
X-27302Y-142847D01*
X-29608Y-140541D02*
Y-124026D01*
X-36600Y-169842D02*
X-30758Y-164000D01*
X1100D01*
X2476Y-165376D01*
Y-169700D02*
Y-165376D01*
X-2876Y-188960D02*
X1440D01*
X3375Y-187025D01*
X6957D01*
Y-197261D02*
X22518D01*
X38700Y-181079D01*
X50362D01*
X6957Y-187025D02*
X15525D01*
X18000Y-189500D01*
Y-193463D02*
Y-189500D01*
Y-201337D02*
X18237Y-201574D01*
X-12324Y-195176D02*
X-4668Y-202832D01*
X-12324Y-195176D02*
Y-192700D01*
X3261Y-197261D02*
X6957D01*
X2440Y-196440D02*
X3261Y-197261D01*
X-2876Y-196440D02*
X2440D01*
X-2876Y-188960D02*
Y-181824D01*
X11084Y-172600D02*
X11924Y-173440D01*
X10200Y-172600D02*
X11084D01*
X7889Y-170289D02*
X10200Y-172600D01*
X7889Y-170289D02*
Y-162889D01*
X35353Y-131374D02*
Y-109195D01*
Y-131374D02*
X41258Y-137279D01*
X-10842Y-177042D02*
X20700D01*
X41258Y-156483D01*
X29758Y-103600D02*
X35353Y-109195D01*
X23100Y-103600D02*
X29758D01*
Y-109000D02*
X33384Y-112626D01*
X23098Y-109000D02*
X29758D01*
X29858Y-114400D02*
X31316Y-115858D01*
X23098Y-114400D02*
X29858D01*
X29300Y-125142D02*
Y-121100D01*
X27942Y-119742D02*
X29300Y-121100D01*
X23098Y-119742D02*
X27942D01*
X9762Y-128879D02*
X13542Y-125100D01*
X23098D01*
Y-114400D02*
Y-114150D01*
Y-119742D02*
Y-119550D01*
X19457Y-115908D02*
X23098Y-119550D01*
X19457Y-115908D02*
Y-102093D01*
X21592Y-99958D01*
X44158D01*
X22919Y-93063D02*
X54900D01*
X65900Y-100201D02*
Y-98958D01*
X62257Y-96558D02*
X65900Y-100201D01*
X54900Y-93063D02*
X61939D01*
X65902Y-89100D01*
X22208Y-96558D02*
X62257D01*
X-2034Y-120800D02*
X22208Y-96558D01*
X-1509Y-117491D02*
X22919Y-93063D01*
X-7561Y-120800D02*
X-2034D01*
X-25671Y-138910D02*
X-7561Y-120800D01*
X-15049Y-117491D02*
X-1509D01*
X-22000Y-124442D02*
X-15049Y-117491D01*
X-21999Y-110142D02*
X3056D01*
X22104Y-91094D01*
X50500D01*
X50865Y-90730D01*
Y-90483D01*
X55889Y-85458D01*
X67410D01*
X69543Y-87591D01*
Y-103839D02*
Y-87591D01*
X65700Y-107683D02*
X69543Y-103839D01*
X65700Y-108300D02*
Y-107683D01*
X8872Y-252742D02*
Y-250380D01*
X7101D01*
X6511Y-250971D01*
Y-252742D01*
X4740D02*
X3559D01*
X2969Y-252151D01*
Y-250971D01*
X3559Y-250380D01*
X4740D01*
X5330Y-250971D01*
Y-252151D01*
X4740Y-252742D01*
X-573Y-249200D02*
Y-252742D01*
X1198D01*
X1788Y-252151D01*
Y-250971D01*
X1198Y-250380D01*
X-573D01*
X-3525Y-252742D02*
X-2344D01*
X-1754Y-252151D01*
Y-250971D01*
X-2344Y-250380D01*
X-3525D01*
X-4115Y-250971D01*
Y-251561D01*
X-1754D01*
X-8838Y-250380D02*
X-10019Y-252742D01*
X-11200Y-250380D01*
X-12381Y-252742D02*
X-13561D01*
X-12971D01*
Y-249200D01*
X-12381Y-249790D01*
X-15332Y-252742D02*
Y-252151D01*
X-15923D01*
Y-252742D01*
X-15332D01*
X-18284D02*
X-19465D01*
X-18875D01*
Y-249200D01*
X-18284Y-249790D01*
X-69228Y-250280D02*
X-70408Y-252642D01*
X-71589Y-250280D01*
X-72770Y-249100D02*
Y-252642D01*
X-74541D01*
X-75131Y-252051D01*
Y-251461D01*
X-74541Y-250871D01*
X-72770D01*
X-74541D01*
X-75131Y-250280D01*
Y-249690D01*
X-74541Y-249100D01*
X-72770D01*
X73111Y-252642D02*
X75472D01*
X73111Y-250280D01*
Y-249690D01*
X73701Y-249100D01*
X74882D01*
X75472Y-249690D01*
X71930D02*
X71340Y-249100D01*
X70159D01*
X69569Y-249690D01*
Y-252051D01*
X70159Y-252642D01*
X71340D01*
X71930Y-252051D01*
Y-249690D01*
X68388Y-252642D02*
X67207D01*
X67798D01*
Y-249100D01*
X68388Y-249690D01*
X63665Y-252642D02*
Y-249100D01*
X65436Y-250871D01*
X63075D01*
X61894Y-252642D02*
X59533Y-250280D01*
X58352Y-249690D02*
X57762Y-249100D01*
X56581D01*
X55991Y-249690D01*
Y-252051D01*
X56581Y-252642D01*
X57762D01*
X58352Y-252051D01*
Y-249690D01*
X53039Y-252642D02*
Y-249100D01*
X54810Y-250871D01*
X52448D01*
D24*
X-21629Y-158700D02*
X-5900D01*
X-33545Y-146784D02*
X-21629Y-158700D01*
X11924Y-165960D02*
X22939D01*
X11924D02*
X12184Y-165700D01*
X22939Y-165960D02*
X30300Y-158598D01*
X-16737Y-213163D02*
X-12740Y-217160D01*
X-7700D01*
X-17200Y-213163D02*
X-16737D01*
X-25800D02*
X-17200D01*
X-38000Y-209028D02*
Y-203537D01*
X-40436Y-211464D02*
X-38000Y-209028D01*
X-38737Y-213163D02*
X-25800D01*
X-40436Y-211464D02*
X-38737Y-213163D01*
X-56000Y-211464D02*
X-40436D01*
X26000Y-219200D02*
Y-201400D01*
X24300Y-220900D02*
X26000Y-219200D01*
X20337Y-220900D02*
X24300D01*
X18000Y-201337D02*
X25937D01*
X50000Y-169642D02*
Y-164142D01*
X53069Y-161073D01*
Y-146784D01*
D33*
X-33545D02*
D03*
Y-138910D02*
D03*
X-25671Y-146784D02*
D03*
Y-138910D02*
D03*
X-17797Y-146784D02*
D03*
Y-138910D02*
D03*
X-9923Y-146784D02*
D03*
Y-138910D02*
D03*
X-2049Y-146784D02*
D03*
Y-138910D02*
D03*
X5825Y-146784D02*
D03*
Y-138910D02*
D03*
X13699Y-146784D02*
D03*
Y-138910D02*
D03*
X21573Y-146784D02*
D03*
Y-138910D02*
D03*
X29447Y-146784D02*
D03*
Y-138910D02*
D03*
X37321Y-146784D02*
D03*
Y-138910D02*
D03*
X45195Y-146784D02*
D03*
Y-138910D02*
D03*
X53069Y-146784D02*
D03*
Y-138910D02*
D03*
X60943Y-146784D02*
D03*
Y-138910D02*
D03*
D34*
X38400Y-169842D02*
D03*
X-11600D02*
D03*
X-64000Y-93184D02*
D03*
Y-73499D02*
D03*
D35*
X63400Y-169842D02*
D03*
X-36600D02*
D03*
D36*
X-66137Y-233142D02*
D03*
X-58263D02*
D03*
D37*
X972Y-88742D02*
D03*
D38*
X-56000Y-211464D02*
D03*
Y-203590D02*
D03*
Y-195716D02*
D03*
Y-187842D02*
D03*
D39*
X-5900Y-158700D02*
D03*
X-37100Y-152600D02*
D03*
X26000Y-201400D02*
D03*
X57972Y-9142D02*
D03*
X25272Y-9140D02*
D03*
X-25327Y-9142D02*
D03*
X-58028Y-9140D02*
D03*
X-65500Y-124442D02*
D03*
X50000Y-169642D02*
D03*
X65700Y-108300D02*
D03*
X45000Y-100200D02*
D03*
X65902Y-89100D02*
D03*
X3800Y-124442D02*
D03*
X-4300D02*
D03*
X23098Y-125100D02*
D03*
Y-119742D02*
D03*
X-42400Y-115742D02*
D03*
X-38500Y-101100D02*
D03*
X-35100Y-115742D02*
D03*
X-64400Y-149042D02*
D03*
Y-165042D02*
D03*
X6878Y-82836D02*
D03*
Y-88742D02*
D03*
Y-94647D02*
D03*
X972D02*
D03*
X-4933Y-88742D02*
D03*
Y-82836D02*
D03*
Y-94647D02*
D03*
X972Y-82836D02*
D03*
X-53600Y-46842D02*
D03*
X-42400Y-108442D02*
D03*
X-22000Y-124442D02*
D03*
X-21999Y-95642D02*
D03*
X-35000Y-108442D02*
D03*
X-21999Y-110142D02*
D03*
X44900Y-108441D02*
D03*
X-3000Y-181700D02*
D03*
X30300Y-158598D02*
D03*
X23098Y-109000D02*
D03*
X23100Y-103600D02*
D03*
X23098Y-114400D02*
D03*
X65900Y-100201D02*
D03*
X-6400Y-64800D02*
D03*
X-14600Y-47299D02*
D03*
X-14598Y-27100D02*
D03*
X13900Y-47300D02*
D03*
X13902Y-27098D02*
D03*
X40900D02*
D03*
X57972D02*
D03*
D40*
X6957Y-187025D02*
D03*
Y-197261D02*
D03*
D41*
X51675Y-218558D02*
D03*
X41439D02*
D03*
D42*
X-7700Y-220900D02*
D03*
Y-217160D02*
D03*
Y-213420D02*
D03*
X3324D02*
D03*
Y-220900D02*
D03*
D43*
X11924Y-165960D02*
D03*
Y-173440D02*
D03*
X2476Y-169700D02*
D03*
X-2876Y-188960D02*
D03*
Y-196440D02*
D03*
X-12324Y-192700D02*
D03*
D44*
X50240Y-205124D02*
D03*
X42760D02*
D03*
X46500Y-195676D02*
D03*
D45*
X-33900Y-60500D02*
D03*
X-63900Y-26642D02*
D03*
X-53900D02*
D03*
X-43900D02*
D03*
X-33900D02*
D03*
X-63900Y-60500D02*
D03*
X-43900D02*
D03*
D46*
X-63900Y-73399D02*
Y-60500D01*
X-64000Y-73499D02*
X-63900Y-73399D01*
X-43900Y-87442D02*
Y-60500D01*
X-49643Y-93184D02*
X-43900Y-87442D01*
X-64000Y-93184D02*
X-49643D01*
M02*
