%FSLAX25Y25*%
%MOIN*%
G70*
G01*
G75*
G04 Layer_Physical_Order=2*
G04 Layer_Color=16711680*
%ADD10R,0.05118X0.03937*%
%ADD11R,0.03937X0.05118*%
%ADD12R,0.00984X0.03347*%
%ADD13R,0.04724X0.10039*%
%ADD14R,0.04331X0.05906*%
%ADD15O,0.04724X0.00984*%
%ADD16O,0.00984X0.04724*%
%ADD17R,0.03937X0.01969*%
%ADD18R,0.07874X0.04724*%
%ADD19R,0.05118X0.04331*%
%ADD20R,0.05118X0.07874*%
%ADD21R,0.09055X0.07087*%
%ADD22C,0.00984*%
%ADD23C,0.01969*%
%ADD24C,0.01000*%
%ADD25R,0.70866X0.07874*%
%ADD26R,0.07874X0.35433*%
%ADD27R,0.07874X0.27559*%
%ADD28R,1.49606X0.07874*%
%ADD29R,0.07874X0.27559*%
%ADD30R,1.25984X0.07874*%
%ADD31C,0.04843*%
%ADD32C,0.07874*%
%ADD33C,0.13780*%
%ADD34C,0.06693*%
%ADD35R,0.16142X0.16142*%
%ADD36C,0.06299*%
%ADD37C,0.04331*%
%ADD38R,0.03150X0.05118*%
%ADD39R,0.05118X0.03150*%
%ADD40R,0.05906X0.02362*%
%ADD41R,0.06693X0.10236*%
%ADD42R,0.00984X0.03347*%
%ADD43R,0.03937X0.02362*%
%ADD44C,0.06693*%
G36*
X73992Y-64502D02*
X73530Y-64693D01*
X65404Y-56568D01*
X64590Y-56024D01*
X63630Y-55833D01*
X-15500D01*
X-16460Y-56024D01*
X-17274Y-56568D01*
X-20151Y-59444D01*
X-20700Y-59372D01*
X-21779Y-59514D01*
X-22785Y-59931D01*
X-23648Y-60593D01*
X-24311Y-61457D01*
X-24727Y-62463D01*
X-24870Y-63542D01*
X-24727Y-64621D01*
X-24311Y-65627D01*
X-23648Y-66490D01*
X-22785Y-67153D01*
X-21779Y-67569D01*
X-20700Y-67711D01*
X-19621Y-67569D01*
X-18615Y-67153D01*
X-17752Y-66490D01*
X-17089Y-65627D01*
X-16673Y-64621D01*
X-16531Y-63542D01*
X-16603Y-62993D01*
X-14461Y-60851D01*
X-10810D01*
X-10619Y-61313D01*
X-14243Y-64936D01*
X-14786Y-65750D01*
X-14977Y-66710D01*
Y-99572D01*
X-21450Y-106044D01*
X-21999Y-105972D01*
X-23078Y-106114D01*
X-23275Y-106196D01*
X-23691Y-105918D01*
Y-100882D01*
X-22548Y-99739D01*
X-21999Y-99811D01*
X-20920Y-99669D01*
X-19914Y-99253D01*
X-19051Y-98590D01*
X-18388Y-97727D01*
X-17972Y-96721D01*
X-17830Y-95642D01*
X-17972Y-94563D01*
X-18388Y-93557D01*
X-19051Y-92693D01*
X-19914Y-92031D01*
X-20920Y-91614D01*
X-21999Y-91472D01*
X-23078Y-91614D01*
X-24084Y-92031D01*
X-24948Y-92693D01*
X-25610Y-93557D01*
X-26027Y-94563D01*
X-26169Y-95642D01*
X-26096Y-96191D01*
X-26620Y-96715D01*
X-27082Y-96523D01*
X-27100Y-44200D01*
Y-43900D01*
X-50647D01*
X-50652Y-43893D01*
X-51391Y-43326D01*
Y-33728D01*
X-44400D01*
Y-26643D01*
Y-19555D01*
X-63400D01*
Y-26643D01*
Y-33728D01*
X-56409D01*
Y-43786D01*
X-56548Y-43893D01*
X-56553Y-43900D01*
X-73751D01*
Y-942D01*
X73992D01*
Y-64502D01*
D02*
G37*
G36*
X55191Y-67018D02*
Y-68268D01*
X53172D01*
Y-75788D01*
X53172Y-75788D01*
X53172D01*
X53172Y-76142D01*
X53172Y-76142D01*
X53172D01*
D01*
Y-79579D01*
X62227D01*
Y-76495D01*
X62228Y-76495D01*
X62227D01*
X62228Y-76142D01*
Y-76142D01*
Y-76142D01*
X62228D01*
X62228Y-76142D01*
X62227Y-75788D01*
X62228Y-75788D01*
X62227D01*
Y-74718D01*
X63282D01*
X63619Y-75158D01*
X64483Y-75820D01*
X65489Y-76237D01*
X66568Y-76379D01*
X67647Y-76237D01*
X68652Y-75820D01*
X69516Y-75158D01*
X69579Y-75076D01*
X70053Y-75236D01*
Y-78003D01*
X69637Y-78281D01*
X68752Y-77914D01*
X68172Y-77838D01*
Y-81943D01*
Y-86045D01*
X68752Y-85969D01*
X69637Y-85602D01*
X70053Y-85880D01*
Y-96841D01*
X66249Y-100645D01*
X65700Y-100572D01*
X64621Y-100714D01*
X63615Y-101131D01*
X62752Y-101793D01*
X62089Y-102657D01*
X61673Y-103663D01*
X61531Y-104742D01*
X61673Y-105821D01*
X62089Y-106826D01*
X62752Y-107690D01*
X63615Y-108353D01*
X64621Y-108769D01*
X65700Y-108911D01*
X66779Y-108769D01*
X67785Y-108353D01*
X68648Y-107690D01*
X69311Y-106826D01*
X69727Y-105821D01*
X69870Y-104742D01*
X69797Y-104192D01*
X71559Y-102431D01*
X72021Y-102622D01*
Y-109173D01*
X62052Y-119142D01*
X37862D01*
Y-109195D01*
X37745Y-108611D01*
X38186Y-108376D01*
X41003Y-111192D01*
X40931Y-111741D01*
X41073Y-112820D01*
X41489Y-113826D01*
X42152Y-114689D01*
X43015Y-115352D01*
X44021Y-115768D01*
X45100Y-115910D01*
X46179Y-115768D01*
X47185Y-115352D01*
X48048Y-114689D01*
X48711Y-113826D01*
X49127Y-112820D01*
X49270Y-111741D01*
X49127Y-110662D01*
X48711Y-109656D01*
X48048Y-108793D01*
X47185Y-108130D01*
X46179Y-107713D01*
X45100Y-107571D01*
X44551Y-107644D01*
X32375Y-95468D01*
X31561Y-94924D01*
X30601Y-94733D01*
X22980D01*
X22789Y-94271D01*
X23908Y-93151D01*
X41914D01*
X42252Y-93591D01*
X43115Y-94253D01*
X44121Y-94670D01*
X45200Y-94812D01*
X46279Y-94670D01*
X47285Y-94253D01*
X48148Y-93591D01*
X48811Y-92727D01*
X49227Y-91722D01*
X49369Y-90642D01*
X49227Y-89563D01*
X48811Y-88558D01*
X48148Y-87694D01*
X47285Y-87032D01*
X46279Y-86615D01*
X45200Y-86473D01*
X44121Y-86615D01*
X43115Y-87032D01*
X42252Y-87694D01*
X41914Y-88134D01*
X23709D01*
Y-77599D01*
X24157Y-77378D01*
X24515Y-77653D01*
X25521Y-78069D01*
X26600Y-78211D01*
X27679Y-78069D01*
X28685Y-77653D01*
X29548Y-76990D01*
X30211Y-76126D01*
X30627Y-75121D01*
X30770Y-74042D01*
X30627Y-72963D01*
X30211Y-71957D01*
X29548Y-71093D01*
X28685Y-70431D01*
X27679Y-70014D01*
X26600Y-69872D01*
X26051Y-69945D01*
X24732Y-68626D01*
X23918Y-68082D01*
X22958Y-67891D01*
X19692D01*
X18732Y-68082D01*
X17918Y-68626D01*
X15784Y-70759D01*
X15240Y-71573D01*
X15049Y-72533D01*
Y-89344D01*
X11474Y-92920D01*
X11012Y-92729D01*
Y-89242D01*
X1472D01*
Y-98781D01*
X4961D01*
X5153Y-99243D01*
X-7529Y-111925D01*
X-7991Y-111734D01*
Y-98781D01*
X-5206D01*
X-5433Y-98751D01*
Y-94646D01*
X-4433D01*
Y-98751D01*
X-4661Y-98781D01*
X472D01*
Y-98751D01*
Y-94646D01*
Y-88743D01*
Y-82837D01*
Y-78732D01*
Y-78702D01*
X-4661D01*
X-4433Y-78732D01*
Y-82837D01*
X-5433D01*
Y-78732D01*
X-5206Y-78702D01*
X-7991D01*
Y-68565D01*
X-4214Y-64788D01*
X52961D01*
X55191Y-67018D01*
D02*
G37*
G36*
X-51301Y-106500D02*
X-51110Y-106962D01*
X-55874Y-111726D01*
X-56334Y-112414D01*
X-57537D01*
Y-116943D01*
X-58036D01*
Y-117442D01*
X-61974D01*
Y-119142D01*
X-73751D01*
Y-106853D01*
X-73397Y-106500D01*
X-51301Y-106500D01*
D02*
G37*
%LPC*%
G36*
X67172Y-77838D02*
X66593Y-77914D01*
X65588Y-78331D01*
X64724Y-78993D01*
X64061Y-79857D01*
X63645Y-80863D01*
X63569Y-81442D01*
X67172D01*
Y-77838D01*
D02*
G37*
G36*
X11012Y-78702D02*
X7150D01*
X7378Y-78732D01*
Y-82336D01*
X10982D01*
X11012Y-82564D01*
Y-78702D01*
D02*
G37*
G36*
X62227Y-80579D02*
X58200D01*
Y-84016D01*
X62227D01*
Y-80579D01*
D02*
G37*
G36*
X-64400Y-27142D02*
X-69215D01*
Y-33728D01*
X-64400D01*
Y-27142D01*
D02*
G37*
G36*
X-28585D02*
X-33400D01*
Y-33728D01*
X-28585D01*
Y-27142D01*
D02*
G37*
G36*
X-34400Y-19555D02*
X-43400D01*
Y-26643D01*
Y-33728D01*
X-34400D01*
Y-26643D01*
Y-19555D01*
D02*
G37*
G36*
X49305Y-101642D02*
X45701D01*
Y-105245D01*
X46280Y-105169D01*
X47286Y-104753D01*
X48149Y-104090D01*
X48812Y-103226D01*
X49228Y-102221D01*
X49305Y-101642D01*
D02*
G37*
G36*
X44701Y-97038D02*
X44122Y-97114D01*
X43116Y-97531D01*
X42252Y-98193D01*
X41590Y-99057D01*
X41173Y-100063D01*
X41097Y-100642D01*
X44701D01*
Y-97038D01*
D02*
G37*
G36*
X-58537Y-112414D02*
X-61974D01*
Y-116442D01*
X-58537D01*
Y-112414D01*
D02*
G37*
G36*
X44701Y-101642D02*
X41097D01*
X41173Y-102221D01*
X41590Y-103226D01*
X42252Y-104090D01*
X43116Y-104753D01*
X44122Y-105169D01*
X44701Y-105245D01*
Y-101642D01*
D02*
G37*
G36*
X67172Y-82442D02*
X63569D01*
X63645Y-83021D01*
X64061Y-84026D01*
X64724Y-84890D01*
X65588Y-85553D01*
X66593Y-85969D01*
X67172Y-86045D01*
Y-82442D01*
D02*
G37*
G36*
X57200Y-80579D02*
X53172D01*
Y-84016D01*
X57200D01*
Y-80579D01*
D02*
G37*
G36*
X45701Y-97038D02*
Y-100642D01*
X49305D01*
X49228Y-100063D01*
X48812Y-99057D01*
X48149Y-98193D01*
X47286Y-97531D01*
X46280Y-97114D01*
X45701Y-97038D01*
D02*
G37*
G36*
X6605Y-78702D02*
X1472D01*
Y-78732D01*
Y-82837D01*
Y-88242D01*
X11012D01*
Y-83109D01*
X10982Y-83336D01*
X6877D01*
Y-82837D01*
X6378D01*
Y-78732D01*
X6605Y-78702D01*
D02*
G37*
G36*
X-64400Y-19555D02*
X-69215D01*
Y-26142D01*
X-64400D01*
Y-19555D01*
D02*
G37*
G36*
X57472Y-5038D02*
X56893Y-5114D01*
X55888Y-5531D01*
X55024Y-6193D01*
X54361Y-7057D01*
X53945Y-8063D01*
X53869Y-8642D01*
X57472D01*
Y-5038D01*
D02*
G37*
G36*
X58472D02*
Y-8642D01*
X62076D01*
X62000Y-8063D01*
X61583Y-7057D01*
X60921Y-6193D01*
X60057Y-5531D01*
X59052Y-5114D01*
X58472Y-5038D01*
D02*
G37*
G36*
X-25827D02*
X-26406Y-5114D01*
X-27411Y-5531D01*
X-28275Y-6193D01*
X-28938Y-7057D01*
X-29354Y-8063D01*
X-29430Y-8642D01*
X-25827D01*
Y-5038D01*
D02*
G37*
G36*
X-24827D02*
Y-8642D01*
X-21223D01*
X-21299Y-8063D01*
X-21716Y-7057D01*
X-22378Y-6193D01*
X-23242Y-5531D01*
X-24248Y-5114D01*
X-24827Y-5038D01*
D02*
G37*
G36*
X24772Y-5037D02*
X24193Y-5113D01*
X23188Y-5529D01*
X22324Y-6192D01*
X21662Y-7055D01*
X21245Y-8061D01*
X21169Y-8640D01*
X24772D01*
Y-5037D01*
D02*
G37*
G36*
X25772D02*
Y-8640D01*
X29376D01*
X29300Y-8061D01*
X28883Y-7055D01*
X28221Y-6192D01*
X27357Y-5529D01*
X26352Y-5113D01*
X25772Y-5037D01*
D02*
G37*
G36*
X-58528D02*
X-59107Y-5113D01*
X-60112Y-5529D01*
X-60976Y-6192D01*
X-61638Y-7055D01*
X-62055Y-8061D01*
X-62131Y-8640D01*
X-58528D01*
Y-5037D01*
D02*
G37*
G36*
X-57528D02*
Y-8640D01*
X-53924D01*
X-54000Y-8061D01*
X-54417Y-7055D01*
X-55079Y-6192D01*
X-55943Y-5529D01*
X-56948Y-5113D01*
X-57528Y-5037D01*
D02*
G37*
G36*
X29376Y-9640D02*
X25772D01*
Y-13244D01*
X26352Y-13168D01*
X27357Y-12751D01*
X28221Y-12088D01*
X28883Y-11225D01*
X29300Y-10219D01*
X29376Y-9640D01*
D02*
G37*
G36*
X-21223Y-9642D02*
X-24827D01*
Y-13245D01*
X-24248Y-13169D01*
X-23242Y-12753D01*
X-22378Y-12090D01*
X-21716Y-11226D01*
X-21299Y-10221D01*
X-21223Y-9642D01*
D02*
G37*
G36*
X57472D02*
X53869D01*
X53945Y-10221D01*
X54361Y-11226D01*
X55024Y-12090D01*
X55888Y-12753D01*
X56893Y-13169D01*
X57472Y-13245D01*
Y-9642D01*
D02*
G37*
G36*
X-28585Y-19555D02*
X-33400D01*
Y-26142D01*
X-28585D01*
Y-19555D01*
D02*
G37*
G36*
X-25827Y-9642D02*
X-29430D01*
X-29354Y-10221D01*
X-28938Y-11226D01*
X-28275Y-12090D01*
X-27411Y-12753D01*
X-26406Y-13169D01*
X-25827Y-13245D01*
Y-9642D01*
D02*
G37*
G36*
X-53924Y-9640D02*
X-57528D01*
Y-13244D01*
X-56948Y-13168D01*
X-55943Y-12751D01*
X-55079Y-12088D01*
X-54417Y-11225D01*
X-54000Y-10219D01*
X-53924Y-9640D01*
D02*
G37*
G36*
X24772D02*
X21169D01*
X21245Y-10219D01*
X21662Y-11225D01*
X22324Y-12088D01*
X23188Y-12751D01*
X24193Y-13168D01*
X24772Y-13244D01*
Y-9640D01*
D02*
G37*
G36*
X62076Y-9642D02*
X58472D01*
Y-13245D01*
X59052Y-13169D01*
X60057Y-12753D01*
X60921Y-12090D01*
X61583Y-11226D01*
X62000Y-10221D01*
X62076Y-9642D01*
D02*
G37*
G36*
X-58528Y-9640D02*
X-62131D01*
X-62055Y-10219D01*
X-61638Y-11225D01*
X-60976Y-12088D01*
X-60112Y-12751D01*
X-59107Y-13168D01*
X-58528Y-13244D01*
Y-9640D01*
D02*
G37*
%LPD*%
D10*
X5500Y-216405D02*
D03*
Y-224279D02*
D03*
X-19600Y-216905D02*
D03*
Y-224779D02*
D03*
X-10500Y-216905D02*
D03*
Y-224779D02*
D03*
X11100Y-173205D02*
D03*
Y-181079D02*
D03*
X-46728Y-216205D02*
D03*
Y-224079D02*
D03*
X-22900Y-173205D02*
D03*
Y-181079D02*
D03*
X-46827Y-195705D02*
D03*
Y-203579D02*
D03*
X57700Y-72205D02*
D03*
Y-80079D02*
D03*
D11*
X34135Y-207442D02*
D03*
X42009D02*
D03*
X-2637Y-231142D02*
D03*
X5237D02*
D03*
X-4863Y-181242D02*
D03*
X-12737D02*
D03*
X10363Y-207342D02*
D03*
X18237D02*
D03*
X-58037Y-116942D02*
D03*
X-50163D02*
D03*
X-65839Y-137742D02*
D03*
X-57965D02*
D03*
X-57963Y-130842D02*
D03*
X-65837D02*
D03*
D22*
X-54100Y-119642D02*
Y-113500D01*
X-41700Y-101100D01*
X-38500D01*
X-28168Y-119802D02*
Y-109089D01*
X-42400Y-108442D02*
X-38758Y-104800D01*
X-32458D01*
X-28168Y-109089D01*
X38372Y-211842D02*
Y-186442D01*
X18237Y-213777D02*
Y-207342D01*
X15609Y-216405D02*
X18237Y-213777D01*
X5500Y-216405D02*
X15609D01*
X42009Y-207442D02*
X47972D01*
X50224Y-209694D01*
Y-215902D02*
Y-209694D01*
X63400Y-237914D02*
Y-169842D01*
X32541Y-217673D02*
X38372Y-211842D01*
X21885Y-217673D02*
X32541D01*
X-3387Y-200182D02*
X1676D01*
X-6028Y-197542D02*
X-3387Y-200182D01*
X-17028Y-197542D02*
X-6028D01*
X-18140Y-196429D02*
X-17028Y-197542D01*
X-18140Y-196429D02*
Y-192617D01*
X-26711Y-239114D02*
X22628D01*
X23560Y-238182D01*
X-35600Y-242122D02*
X-35580Y-242142D01*
X-29739D01*
X-26711Y-239114D01*
X-31184Y-234642D02*
X-26711Y-239114D01*
X-46737Y-229505D02*
Y-223969D01*
X20400Y-233357D02*
Y-221942D01*
X16611Y-237146D02*
X20400Y-233357D01*
X-25896Y-237146D02*
X16611D01*
X-32100Y-230942D02*
X-25896Y-237146D01*
X18431Y-232542D02*
Y-221126D01*
X15796Y-235177D02*
X18431Y-232542D01*
X2657Y-235177D02*
X15796D01*
X1300Y-233820D02*
X2657Y-235177D01*
X1300Y-233820D02*
Y-228342D01*
X-35600Y-234642D02*
X-31184D01*
X-54106Y-237299D02*
X-42150D01*
X-58263Y-233142D02*
X-54106Y-237299D01*
X-42150D02*
X-41068Y-238382D01*
X-35600D01*
X-59814Y-239465D02*
X-42977D01*
X-40320Y-242122D01*
X-46728Y-216205D02*
X-46028Y-216905D01*
X-19600D01*
X-46827Y-210385D02*
Y-203579D01*
X-47905Y-211464D02*
X-46827Y-210385D01*
X-56000Y-211464D02*
X-47905D01*
X-46728Y-212642D01*
Y-216205D02*
Y-212642D01*
X-56000Y-195716D02*
X-46838D01*
X-61463Y-223879D02*
X-46828D01*
X-71800Y-213542D02*
X-61463Y-223879D01*
X-19600Y-216905D02*
X-10500D01*
X-4865D01*
X-4169Y-217601D01*
Y-220139D02*
Y-217601D01*
X-65837Y-130842D02*
X-65500Y-130505D01*
Y-124442D01*
X-57963Y-137740D02*
Y-130842D01*
X-52500D01*
X-70969Y-137642D02*
X-70868Y-137742D01*
X-65839D01*
X-50163Y-128505D02*
Y-116942D01*
X-52500Y-130842D02*
X-50163Y-128505D01*
X-73769Y-225510D02*
Y-140442D01*
X-70969Y-137642D01*
X-65100Y-116942D02*
X-58037D01*
X-65500Y-124442D02*
Y-117342D01*
X-65100Y-116942D01*
X-29568Y-148399D02*
X-19926Y-158042D01*
X-6000D01*
X-6200Y-158242D02*
X-6000Y-158042D01*
X-29568Y-148399D02*
Y-143364D01*
X-33545Y-139388D02*
X-29568Y-143364D01*
X-33545Y-139388D02*
Y-138910D01*
X1676Y-205317D02*
X3700Y-207342D01*
X10363D01*
X1676Y-205317D02*
Y-200182D01*
X11100Y-173205D02*
Y-167642D01*
X7887Y-164428D02*
X11100Y-167642D01*
X-19687Y-164428D02*
X7887D01*
X-22900Y-167642D02*
X-19687Y-164428D01*
X-22900Y-173205D02*
Y-167642D01*
Y-175942D02*
Y-173205D01*
X-24000Y-177042D02*
X-22900Y-175942D01*
X-29400Y-177042D02*
X-24000D01*
X-36600Y-169842D02*
X-29400Y-177042D01*
X-5946Y-157988D02*
Y-130942D01*
X-4300Y-129295D01*
Y-124442D01*
X3800Y-128630D02*
Y-124442D01*
X1888Y-142847D02*
Y-130542D01*
X3800Y-128630D01*
X-27302Y-142847D02*
X-13860D01*
X-9923Y-138910D01*
X-39669Y-146228D02*
X-23955Y-161942D01*
X24700D01*
X28400Y-158242D01*
X-73769Y-225510D02*
X-66137Y-233142D01*
X-59814Y-239465D01*
X1888Y-142847D02*
X5825Y-146784D01*
X-7278Y-177042D02*
X21300D01*
X74530Y-110212D02*
Y-69242D01*
X49132Y-135609D02*
X74530Y-110212D01*
X54100Y-164242D02*
X62000Y-156342D01*
X54100Y-177342D02*
Y-164242D01*
X50362Y-181079D02*
X54100Y-177342D01*
X49132Y-149209D02*
Y-135609D01*
X21300Y-177042D02*
X49132Y-149209D01*
X-8800Y-178563D02*
X-7278Y-177042D01*
X-8800Y-183920D02*
Y-178563D01*
X-10157Y-185277D02*
X-8800Y-183920D01*
X-31500Y-190136D02*
X-26641Y-185277D01*
X-31500Y-195844D02*
Y-190136D01*
X-34551Y-198896D02*
X-31500Y-195844D01*
X-26641Y-185277D02*
X-10157D01*
X1676Y-200182D02*
X2660D01*
X11100Y-181079D02*
X50362D01*
X-4701D02*
X11100D01*
X11124Y-181104D01*
Y-196442D02*
Y-181104D01*
X-42400Y-148142D02*
Y-115742D01*
X-50163Y-113505D02*
X-48758Y-112100D01*
X-50163Y-116942D02*
Y-113505D01*
X-62308Y-127850D02*
X-54100Y-119642D01*
X-62308Y-145984D02*
Y-127850D01*
X-22000Y-124442D02*
X-10500Y-112942D01*
X-21999Y-110142D02*
X-12468Y-100611D01*
X-26200Y-99843D02*
X-21999Y-95642D01*
X-26200Y-120618D02*
Y-99843D01*
X-35000Y-108442D02*
X-31600D01*
X-30137Y-109905D01*
Y-118942D02*
Y-109905D01*
X-32858Y-121663D02*
X-30137Y-118942D01*
X-32858Y-121708D02*
Y-121663D01*
X-37700Y-129334D02*
X-28168Y-119802D01*
X-29608Y-124026D02*
X-26200Y-120618D01*
X-38742Y-112100D02*
X-35100Y-115742D01*
X-48758Y-112100D02*
X-38742D01*
X19692Y-70400D02*
X22958D01*
X17558Y-72533D02*
X19692Y-70400D01*
X22958D02*
X26600Y-74042D01*
X72561Y-97880D02*
Y-70057D01*
X62814Y-60310D02*
X72561Y-70057D01*
X13900Y-102395D02*
X19054Y-97242D01*
X13900Y-111542D02*
Y-102395D01*
X22869Y-90642D02*
X45200D01*
X11400Y-102112D02*
X22869Y-90642D01*
X11400Y-114742D02*
Y-102112D01*
X-11700Y-122428D02*
X21200Y-89528D01*
Y-74042D01*
X-11700Y-132813D02*
Y-122428D01*
X17558Y-90383D02*
Y-72533D01*
X10520Y-97422D02*
X17558Y-90383D01*
X10520Y-97424D02*
Y-97422D01*
X-14100Y-122044D02*
X10520Y-97424D01*
X-14100Y-127339D02*
Y-122044D01*
X11400Y-114742D02*
X15300Y-118642D01*
X20700D01*
X30601Y-97242D02*
X45100Y-111741D01*
X19054Y-97242D02*
X30601D01*
X13900Y-111542D02*
X15600Y-113242D01*
X20700D01*
X-2200Y-217854D02*
Y-216942D01*
X-2200Y-216942D01*
Y-220139D02*
Y-216942D01*
X-34551Y-209318D02*
Y-198896D01*
X1676Y-200182D02*
X1800Y-200058D01*
X64880Y-153461D02*
Y-142847D01*
X62000Y-156342D02*
X64880Y-153461D01*
X60943Y-138910D02*
X64880Y-142847D01*
X-39669Y-146228D02*
Y-128518D01*
X-32858Y-121708D01*
X-56263Y-162005D02*
X-42400Y-148142D01*
X37321Y-138910D02*
X38210Y-138021D01*
X-56263Y-172773D02*
Y-162005D01*
X-65895Y-182404D02*
X-56263Y-172773D01*
X-65895Y-191542D02*
Y-182404D01*
Y-191542D02*
X-61721Y-195716D01*
X-56000D01*
X-62308Y-145984D02*
X-58232Y-150060D01*
Y-171957D02*
Y-150060D01*
X-67863Y-181589D02*
X-58232Y-171957D01*
X-67863Y-200442D02*
Y-181589D01*
Y-200442D02*
X-64715Y-203590D01*
X-56000D01*
X-22900Y-181079D02*
X-12900D01*
X-23063Y-181242D02*
X-22900Y-181079D01*
X-30000Y-181242D02*
X-23063D01*
X-36600Y-187842D02*
X-30000Y-181242D01*
X-35240Y-192617D02*
Y-189202D01*
X-36600Y-187842D02*
X-35240Y-189202D01*
X-56000Y-187842D02*
X-36600D01*
X1591Y-192617D02*
X1676Y-192702D01*
X-10660Y-192617D02*
X1591D01*
X-17200Y-194142D02*
Y-193558D01*
X-18140Y-192617D02*
X-17200Y-193558D01*
X-27760Y-192617D02*
X-18140D01*
X-231Y-220139D02*
Y-208710D01*
X5500Y-224279D02*
Y-221142D01*
X4497Y-220139D02*
X5500Y-221142D01*
X-231Y-220139D02*
X4497D01*
X-14400Y-202066D02*
X-6876D01*
X-231Y-208710D01*
X5500Y-231005D02*
X5637Y-231142D01*
X4937Y-224279D02*
X5500D01*
X-10500Y-224779D02*
X-4202D01*
X-19600D02*
X-10500D01*
X-29963D02*
X-19600D01*
X-35000Y-219742D02*
X-29963Y-224779D01*
X-61300Y-219742D02*
X-35000D01*
X-69832Y-211210D02*
X-61300Y-219742D01*
X-69832Y-211210D02*
Y-180773D01*
X-60200Y-171142D01*
X-71800Y-213542D02*
Y-172442D01*
X-60200Y-171142D02*
Y-153242D01*
X-64400Y-149042D02*
X-60200Y-153242D01*
X-71800Y-172442D02*
X-64400Y-165042D01*
X-45300Y-230942D02*
X-32100D01*
X-46737Y-229505D02*
X-45300Y-230942D01*
X20400Y-221942D02*
X22700Y-219642D01*
X40776D01*
X63400Y-169842D02*
X64700D01*
X48600Y-216542D02*
X49584D01*
X50224Y-215902D01*
X23560Y-238182D02*
Y-231717D01*
X-40320Y-242122D02*
X-35600D01*
X-53900Y-46542D02*
Y-26642D01*
Y-46542D02*
X-53600Y-46842D01*
X41258Y-142847D02*
X45195Y-146784D01*
X20700Y-107842D02*
X28600D01*
X33384Y-112626D01*
Y-142847D02*
Y-112626D01*
Y-142847D02*
X37321Y-146784D01*
X20700Y-113242D02*
X28700D01*
X25510Y-142847D02*
X29447Y-146784D01*
X35353Y-131395D02*
Y-109195D01*
X28600Y-102442D02*
X35353Y-109195D01*
X20700Y-102442D02*
X28600D01*
X31316Y-131526D02*
Y-115858D01*
X28700Y-113242D02*
X31316Y-115858D01*
X17636Y-142847D02*
X21573Y-146784D01*
X17636Y-142847D02*
Y-136805D01*
X29300Y-125142D01*
Y-120242D01*
X27700Y-118642D02*
X29300Y-120242D01*
X20700Y-118642D02*
X27700D01*
X41258Y-142847D02*
Y-137279D01*
X38952Y-134973D02*
X41258Y-137279D01*
X38932Y-134973D02*
X38952D01*
X35353Y-131395D02*
X38932Y-134973D01*
X25510Y-142847D02*
Y-137279D01*
X27817Y-134973D01*
X27869D01*
X31316Y-131526D01*
X9762Y-142847D02*
X13699Y-146784D01*
X9762Y-142847D02*
Y-128879D01*
X14600Y-124042D01*
X20700D01*
X-25671Y-138910D02*
X-14100Y-127339D01*
X-17797Y-138910D02*
X-11700Y-132813D01*
X-37700Y-142629D02*
X-33545Y-146784D01*
X-37700Y-142629D02*
Y-129334D01*
X-29608Y-140541D02*
X-27302Y-142847D01*
X-29608Y-140541D02*
Y-124026D01*
X-46800Y-232442D02*
X-45300Y-230942D01*
X-46800Y-234465D02*
Y-232442D01*
Y-234465D02*
X-46624Y-234642D01*
X-2200Y-230705D02*
Y-224745D01*
X-2637Y-231142D02*
X-2200Y-230705D01*
X-231Y-226810D02*
Y-224745D01*
Y-226810D02*
X1300Y-228342D01*
X5500Y-231005D02*
Y-224279D01*
X18431Y-221126D02*
X21885Y-217673D01*
X-20700Y-63542D02*
X-15500Y-58342D01*
X-6069Y-60310D02*
X62814D01*
X-12468Y-66710D02*
X-6069Y-60310D01*
X-12468Y-100611D02*
Y-66710D01*
X-10500Y-67526D02*
X-5253Y-62279D01*
X-10500Y-112942D02*
Y-67526D01*
X57705Y-72209D02*
X66568D01*
X57700Y-72205D02*
X57705Y-72209D01*
X57700Y-72205D02*
Y-65979D01*
X54000Y-62279D02*
X57700Y-65979D01*
X-5253Y-62279D02*
X54000D01*
X-15500Y-58342D02*
X63630D01*
X74530Y-69242D01*
X65700Y-104742D02*
X72561Y-97880D01*
X27300Y-241166D02*
X36578D01*
X55172Y-241266D02*
X60948D01*
X63400Y-238814D01*
X50224Y-223382D02*
X57113D01*
X58913Y-225182D01*
Y-231817D02*
Y-225182D01*
X46847Y-241199D02*
Y-238167D01*
X48872Y-236142D01*
X57872D01*
X58913Y-235102D01*
Y-231817D01*
X47013Y-215902D02*
X50224D01*
X45472Y-217442D02*
X47013Y-215902D01*
X-34551Y-209318D02*
X-31128Y-212742D01*
X-4028D01*
X-2200Y-214569D01*
Y-216942D02*
Y-214569D01*
X-28089Y-209899D02*
Y-202780D01*
X-28803Y-202066D02*
X-28089Y-202780D01*
X-31500Y-202066D02*
X-28803D01*
X-17152D02*
X-14400D01*
X-17853Y-202767D02*
X-17152Y-202066D01*
X-17853Y-209899D02*
Y-202767D01*
X31040Y-231717D02*
Y-225474D01*
X33072Y-223442D01*
X43472D01*
X45472Y-221442D01*
Y-217442D01*
X42648Y-231817D02*
X51432D01*
X38372Y-227542D02*
X42648Y-231817D01*
X18237Y-207342D02*
X34035D01*
X8872Y-252742D02*
Y-250380D01*
X7101D01*
X6511Y-250971D01*
Y-252742D01*
X4740D02*
X3559D01*
X2969Y-252151D01*
Y-250971D01*
X3559Y-250380D01*
X4740D01*
X5330Y-250971D01*
Y-252151D01*
X4740Y-252742D01*
X-573Y-249200D02*
Y-252742D01*
X1198D01*
X1788Y-252151D01*
Y-250971D01*
X1198Y-250380D01*
X-573D01*
X-3525Y-252742D02*
X-2344D01*
X-1754Y-252151D01*
Y-250971D01*
X-2344Y-250380D01*
X-3525D01*
X-4115Y-250971D01*
Y-251561D01*
X-1754D01*
X-8838Y-250380D02*
X-10019Y-252742D01*
X-11200Y-250380D01*
X-12381Y-252742D02*
X-13561D01*
X-12971D01*
Y-249200D01*
X-12381Y-249790D01*
X-69228Y-250280D02*
X-70408Y-252642D01*
X-71589Y-250280D01*
X-72770Y-249100D02*
Y-252642D01*
X-74541D01*
X-75131Y-252051D01*
Y-251461D01*
X-74541Y-250871D01*
X-72770D01*
X-74541D01*
X-75131Y-250280D01*
Y-249690D01*
X-74541Y-249100D01*
X-72770D01*
X73111Y-252642D02*
X75472D01*
X73111Y-250280D01*
Y-249690D01*
X73701Y-249100D01*
X74882D01*
X75472Y-249690D01*
X71930D02*
X71340Y-249100D01*
X70159D01*
X69569Y-249690D01*
Y-252051D01*
X70159Y-252642D01*
X71340D01*
X71930Y-252051D01*
Y-249690D01*
X68388Y-252642D02*
X67207D01*
X67798D01*
Y-249100D01*
X68388Y-249690D01*
X65436D02*
X64846Y-249100D01*
X63665D01*
X63075Y-249690D01*
Y-250280D01*
X63665Y-250871D01*
X64256D01*
X63665D01*
X63075Y-251461D01*
Y-252051D01*
X63665Y-252642D01*
X64846D01*
X65436Y-252051D01*
X61894Y-252642D02*
X59533Y-250280D01*
X58352Y-249690D02*
X57762Y-249100D01*
X56581D01*
X55991Y-249690D01*
Y-252051D01*
X56581Y-252642D01*
X57762D01*
X58352Y-252051D01*
Y-249690D01*
X53039Y-252642D02*
Y-249100D01*
X54810Y-250871D01*
X52448D01*
D23*
X50000Y-169642D02*
Y-164142D01*
X53069Y-161073D01*
Y-146784D01*
D31*
X-33545D02*
D03*
Y-138910D02*
D03*
X-25671Y-146784D02*
D03*
Y-138910D02*
D03*
X-17797Y-146784D02*
D03*
Y-138910D02*
D03*
X-9923Y-146784D02*
D03*
Y-138910D02*
D03*
X-2049Y-146784D02*
D03*
Y-138910D02*
D03*
X5825Y-146784D02*
D03*
Y-138910D02*
D03*
X13699Y-146784D02*
D03*
Y-138910D02*
D03*
X21573Y-146784D02*
D03*
Y-138910D02*
D03*
X29447Y-146784D02*
D03*
Y-138910D02*
D03*
X37321Y-146784D02*
D03*
Y-138910D02*
D03*
X45195Y-146784D02*
D03*
Y-138910D02*
D03*
X53069Y-146784D02*
D03*
Y-138910D02*
D03*
X60943Y-146784D02*
D03*
Y-138910D02*
D03*
D32*
X38400Y-169842D02*
D03*
X-11600D02*
D03*
X-64000Y-93184D02*
D03*
Y-73499D02*
D03*
D33*
X63400Y-169842D02*
D03*
X-36600D02*
D03*
D34*
X-66137Y-233142D02*
D03*
X-58263D02*
D03*
D35*
X972Y-88742D02*
D03*
D36*
X-56000Y-211464D02*
D03*
Y-203590D02*
D03*
Y-195716D02*
D03*
Y-187842D02*
D03*
D37*
X26072Y-207442D02*
D03*
X67672Y-81942D02*
D03*
X57972Y-9142D02*
D03*
X25272Y-9140D02*
D03*
X-25327Y-9142D02*
D03*
X-58028Y-9140D02*
D03*
X-65500Y-124442D02*
D03*
X-6000Y-158042D02*
D03*
X50000Y-169642D02*
D03*
X65700Y-104742D02*
D03*
X45100Y-111741D02*
D03*
X45200Y-90642D02*
D03*
X66568Y-72209D02*
D03*
X-20700Y-63542D02*
D03*
X28400Y-158242D02*
D03*
X3800Y-124442D02*
D03*
X-4300D02*
D03*
X20700Y-124042D02*
D03*
Y-118642D02*
D03*
Y-113242D02*
D03*
Y-107842D02*
D03*
Y-102442D02*
D03*
X26600Y-74042D02*
D03*
X21200D02*
D03*
X-42400Y-115742D02*
D03*
X-38500Y-101100D02*
D03*
X-35100Y-115742D02*
D03*
X-64400Y-149042D02*
D03*
Y-165042D02*
D03*
X6878Y-82836D02*
D03*
Y-88742D02*
D03*
Y-94647D02*
D03*
X972D02*
D03*
X-4933Y-88742D02*
D03*
Y-82836D02*
D03*
Y-94647D02*
D03*
X972Y-82836D02*
D03*
X-53600Y-46842D02*
D03*
X-42400Y-108442D02*
D03*
X-22000Y-124442D02*
D03*
X-21999Y-95642D02*
D03*
X-35000Y-108442D02*
D03*
X-21999Y-110142D02*
D03*
X38372Y-186442D02*
D03*
X45201Y-101142D02*
D03*
X38372Y-227542D02*
D03*
D38*
X23560Y-231717D02*
D03*
X31040D02*
D03*
X27300Y-241166D02*
D03*
X51432Y-231817D02*
D03*
X58913D02*
D03*
X55172Y-241266D02*
D03*
X-18140Y-192617D02*
D03*
X-10660D02*
D03*
X-14400Y-202066D02*
D03*
X-35240Y-192617D02*
D03*
X-27760D02*
D03*
X-31500Y-202066D02*
D03*
D39*
X50224Y-215902D02*
D03*
Y-223382D02*
D03*
X40776Y-219642D02*
D03*
X1676Y-200182D02*
D03*
Y-192702D02*
D03*
X11124Y-196442D02*
D03*
D40*
X-46624Y-234642D02*
D03*
Y-242122D02*
D03*
X-35600D02*
D03*
Y-238382D02*
D03*
Y-234642D02*
D03*
D41*
X-33900Y-60500D02*
D03*
X-63900Y-26642D02*
D03*
X-53900D02*
D03*
X-43900D02*
D03*
X-33900D02*
D03*
X-63900Y-60500D02*
D03*
X-43900D02*
D03*
D42*
X-231Y-220139D02*
D03*
X-2200D02*
D03*
X-4169D02*
D03*
Y-224745D02*
D03*
X-2200D02*
D03*
X-231D02*
D03*
D43*
X46847Y-241199D02*
D03*
X36611D02*
D03*
X-17853Y-209899D02*
D03*
X-28089D02*
D03*
D44*
X-63900Y-73399D02*
Y-60500D01*
X-64000Y-73499D02*
X-63900Y-73399D01*
X-43900Y-87442D02*
Y-60500D01*
X-49643Y-93184D02*
X-43900Y-87442D01*
X-64000Y-93184D02*
X-49643D01*
M02*
