M48
;Layer_Color=9474304
;FILE_FORMAT=2:5
INCH,LZ
;TYPE=PLATED
T1F00S00C0.02756
T2F00S00C0.03937
T3F00S00C0.05118
T4F00S00C0.05906
T5F00S00C0.07087
T6F00S00C0.12598
%
T01
X-00644Y-0165042
Y-0149042
X-0006Y-0158042
X00284Y-0158242
X0026072Y-0207442
X0038372Y-0227542
Y-0186442
X005Y-0169642
X00451Y-0111741
X0045201Y-0101142
X00452Y-0090642
X0067672Y-0081942
X0066568Y-0072209
X00657Y-0104742
X0057972Y-0009142
X0025272Y-000914
X-0025327Y-0009142
X-0058028Y-000914
X-00536Y-0046842
X-00207Y-0063542
X-0021999Y-0095642
Y-0110142
X-0022Y-0124442
X-00043
X00038
X00207Y-0124042
Y-0118642
Y-0113242
Y-0107842
Y-0102442
X0006878Y-0094647
Y-0088742
Y-0082836
X0000972
X-0004933
Y-0088742
Y-0094647
X0000972
X00212Y-0074042
X00266
X-00385Y-01011
X-0035Y-0108442
X-00351Y-0115742
X-00424
Y-0108442
X-00655Y-0124442
T02
X-0033545Y-0146784
Y-013891
X-0025671
X-0017797
Y-0146784
X-0025671
X-0009923
X-0002049
Y-013891
X-0009923
X0005825
Y-0146784
X0013699
X0021573
Y-013891
X0013699
X0029447
Y-0146784
X0037321
Y-013891
X0045195
X0053069
Y-0146784
X0045195
X0060943
Y-013891
T03
X-0066137Y-0233142
X-0058263
X-0056Y-0211464
Y-020359
Y-0195716
Y-0187842
T04
X-0064Y-0093184
Y-0073499
X0000972Y-0088742
T05
X-00116Y-0169842
X00384
T06
X-00366Y-0169842
X00634
M30
