%FSLAX25Y25*%
%MOIN*%
G70*
G01*
G75*
G04 Layer_Color=16777215*
%ADD10R,0.05118X0.03937*%
%ADD11R,0.03937X0.05118*%
%ADD12R,0.00984X0.03347*%
%ADD13R,0.04724X0.10039*%
%ADD14R,0.04331X0.05906*%
%ADD15O,0.04724X0.00984*%
%ADD16O,0.00984X0.04724*%
%ADD17R,0.03937X0.01969*%
%ADD18R,0.07874X0.04724*%
%ADD19R,0.05118X0.04331*%
%ADD20R,0.05118X0.07874*%
%ADD21R,0.09055X0.07087*%
%ADD22C,0.00984*%
%ADD23C,0.01969*%
%ADD24C,0.01000*%
%ADD25R,0.70866X0.07874*%
%ADD26R,0.07874X0.35433*%
%ADD27R,0.07874X0.27559*%
%ADD28R,1.49606X0.07874*%
%ADD29R,0.07874X0.27559*%
%ADD30R,1.25984X0.07874*%
%ADD31C,0.04843*%
%ADD32C,0.07874*%
%ADD33C,0.13780*%
%ADD34C,0.06693*%
%ADD35R,0.16142X0.16142*%
%ADD36C,0.06299*%
%ADD37C,0.04331*%
%ADD38R,0.03150X0.05118*%
%ADD39R,0.05118X0.03150*%
%ADD40R,0.05906X0.02362*%
%ADD41R,0.06693X0.10236*%
%ADD42R,0.00984X0.03347*%
%ADD43R,0.03937X0.02362*%
%ADD44C,0.06693*%
%ADD45R,0.05918X0.04737*%
%ADD46R,0.04737X0.05918*%
%ADD47R,0.01378X0.03740*%
%ADD48R,0.05524X0.10839*%
%ADD49R,0.05131X0.06706*%
%ADD50O,0.05512X0.01772*%
%ADD51O,0.01772X0.05512*%
%ADD52R,0.04737X0.02769*%
%ADD53R,0.08674X0.05524*%
%ADD54R,0.05918X0.05131*%
%ADD55R,0.05918X0.08674*%
%ADD56R,0.09855X0.07887*%
%ADD57C,0.05643*%
%ADD58C,0.08674*%
%ADD59C,0.14579*%
%ADD60C,0.07493*%
%ADD61R,0.16942X0.16942*%
%ADD62C,0.07099*%
%ADD63C,0.05131*%
D22*
X-78128Y-255572D02*
Y98791D01*
X78369D01*
Y-255572D02*
Y98791D01*
X-78128Y-255572D02*
X78072D01*
D45*
X32800Y-73905D02*
D03*
Y-81779D02*
D03*
X38800Y-73905D02*
D03*
Y-81779D02*
D03*
X44800D02*
D03*
Y-73905D02*
D03*
X0Y-38979D02*
D03*
Y-31105D02*
D03*
X-10300Y-46879D02*
D03*
Y-39005D02*
D03*
X-3700Y-62780D02*
D03*
Y-54906D02*
D03*
X4100Y-62779D02*
D03*
Y-54905D02*
D03*
X10500Y-46879D02*
D03*
Y-39005D02*
D03*
X0Y-11005D02*
D03*
Y-18879D02*
D03*
X-27400Y-128779D02*
D03*
Y-120905D02*
D03*
X58472Y-62079D02*
D03*
Y-54205D02*
D03*
X20700Y-54905D02*
D03*
Y-62779D02*
D03*
X-35600Y-120905D02*
D03*
Y-128779D02*
D03*
X-51400Y-150005D02*
D03*
Y-157879D02*
D03*
X-43200Y-132679D02*
D03*
Y-124805D02*
D03*
D46*
X50563Y-81742D02*
D03*
X58437D02*
D03*
X58438Y-111742D02*
D03*
X50564D02*
D03*
X58438Y-90642D02*
D03*
X50564D02*
D03*
X-58163Y-223842D02*
D03*
X-66037D02*
D03*
X-3765Y-46842D02*
D03*
X4109D02*
D03*
X-14065Y-31242D02*
D03*
X-6191D02*
D03*
X-16691Y-46842D02*
D03*
X-24565D02*
D03*
X16935D02*
D03*
X24810D02*
D03*
X33135Y-46742D02*
D03*
X41009D02*
D03*
X6063Y-31242D02*
D03*
X13937D02*
D03*
X13909Y-24642D02*
D03*
X6035D02*
D03*
X-7837D02*
D03*
X37D02*
D03*
X-7937Y-5142D02*
D03*
X-63D02*
D03*
X-55437Y-140342D02*
D03*
X-47563D02*
D03*
X-4337Y-118642D02*
D03*
X3537D02*
D03*
X-24737Y-55642D02*
D03*
X-16863D02*
D03*
X-40863Y-55242D02*
D03*
X-48737D02*
D03*
X-68637Y-112642D02*
D03*
X-60763D02*
D03*
X-42037Y-46842D02*
D03*
X-34163D02*
D03*
D47*
X52481Y-104642D02*
D03*
X54450D02*
D03*
X56418D02*
D03*
Y-97752D02*
D03*
X54450D02*
D03*
X52481D02*
D03*
D48*
X-64300Y-140314D02*
D03*
Y-174369D02*
D03*
D49*
X-55785Y-124742D02*
D03*
X-72615D02*
D03*
D50*
X-13595Y-99568D02*
D03*
Y-97600D02*
D03*
Y-95631D02*
D03*
Y-93663D02*
D03*
Y-91694D02*
D03*
Y-89726D02*
D03*
Y-87757D02*
D03*
Y-85789D02*
D03*
Y-83820D02*
D03*
Y-81852D02*
D03*
Y-79883D02*
D03*
Y-77915D02*
D03*
X15539D02*
D03*
Y-79883D02*
D03*
Y-81852D02*
D03*
Y-83820D02*
D03*
Y-85789D02*
D03*
Y-87757D02*
D03*
Y-89726D02*
D03*
Y-91694D02*
D03*
Y-93663D02*
D03*
Y-95631D02*
D03*
Y-97600D02*
D03*
Y-99568D02*
D03*
D51*
X-9854Y-74175D02*
D03*
X-7886D02*
D03*
X-5917D02*
D03*
X-3949D02*
D03*
X-1980D02*
D03*
X-12D02*
D03*
X1957D02*
D03*
X3925D02*
D03*
X5894D02*
D03*
X7862D02*
D03*
X9831D02*
D03*
X11799D02*
D03*
Y-103309D02*
D03*
X9831D02*
D03*
X7862D02*
D03*
X5894D02*
D03*
X3925D02*
D03*
X1957D02*
D03*
X-12D02*
D03*
X-1980D02*
D03*
X-3949D02*
D03*
X-5917D02*
D03*
X-7886D02*
D03*
X-9854D02*
D03*
D52*
X-28Y-42D02*
D03*
D53*
X48556Y-62872D02*
D03*
X33989Y-54211D02*
D03*
Y-62872D02*
D03*
X48556Y-54211D02*
D03*
D54*
X-34100Y-63972D02*
D03*
Y-55311D02*
D03*
D55*
X72400Y-46983D02*
D03*
Y-118636D02*
D03*
D56*
X-30500Y-100010D02*
D03*
Y-83474D02*
D03*
D57*
X-33545Y-146784D02*
D03*
Y-138910D02*
D03*
X-25671Y-146784D02*
D03*
Y-138910D02*
D03*
X-17797Y-146784D02*
D03*
Y-138910D02*
D03*
X-9923Y-146784D02*
D03*
Y-138910D02*
D03*
X-2049Y-146784D02*
D03*
Y-138910D02*
D03*
X5825Y-146784D02*
D03*
Y-138910D02*
D03*
X13699Y-146784D02*
D03*
Y-138910D02*
D03*
X21573Y-146784D02*
D03*
Y-138910D02*
D03*
X29447Y-146784D02*
D03*
Y-138910D02*
D03*
X37321Y-146784D02*
D03*
Y-138910D02*
D03*
X45195Y-146784D02*
D03*
Y-138910D02*
D03*
X53069Y-146784D02*
D03*
Y-138910D02*
D03*
X60943Y-146784D02*
D03*
Y-138910D02*
D03*
D58*
X38400Y-169842D02*
D03*
X-11600D02*
D03*
X-64000Y-93184D02*
D03*
Y-73499D02*
D03*
D59*
X63400Y-169842D02*
D03*
X-36600D02*
D03*
D60*
X-66137Y-233142D02*
D03*
X-58263D02*
D03*
D61*
X972Y-88742D02*
D03*
D62*
X-56000Y-211464D02*
D03*
Y-203590D02*
D03*
Y-195716D02*
D03*
Y-187842D02*
D03*
D63*
X26072Y-207442D02*
D03*
X67672Y-81942D02*
D03*
X57972Y-9142D02*
D03*
X25272Y-9140D02*
D03*
X-25327Y-9142D02*
D03*
X-58028Y-9140D02*
D03*
X-65500Y-124442D02*
D03*
X-6000Y-158042D02*
D03*
X50000Y-169642D02*
D03*
X65700Y-104742D02*
D03*
X45100Y-111741D02*
D03*
X45200Y-90642D02*
D03*
X66568Y-72209D02*
D03*
X-20700Y-63542D02*
D03*
X28400Y-158242D02*
D03*
X3800Y-124442D02*
D03*
X-4300D02*
D03*
X20700Y-124042D02*
D03*
Y-118642D02*
D03*
Y-113242D02*
D03*
Y-107842D02*
D03*
Y-102442D02*
D03*
X26600Y-74042D02*
D03*
X21200D02*
D03*
X-42400Y-115742D02*
D03*
X-38500Y-101100D02*
D03*
X-35100Y-115742D02*
D03*
X-64400Y-149042D02*
D03*
Y-165042D02*
D03*
X6878Y-82836D02*
D03*
Y-88742D02*
D03*
Y-94647D02*
D03*
X972D02*
D03*
X-4933Y-88742D02*
D03*
Y-82836D02*
D03*
Y-94647D02*
D03*
X972Y-82836D02*
D03*
X-53600Y-46842D02*
D03*
X-42400Y-108442D02*
D03*
X-22000Y-124442D02*
D03*
X-21999Y-95642D02*
D03*
X-35000Y-108442D02*
D03*
X-21999Y-110142D02*
D03*
X38372Y-186442D02*
D03*
X45201Y-101142D02*
D03*
X38372Y-227542D02*
D03*
M02*
