M48
;Layer_Color=9474304
;FILE_FORMAT=2:5
INCH,LZ
;TYPE=PLATED
T1F00S00C0.02756
T2F00S00C0.03937
T3F00S00C0.05118
T4F00S00C0.05906
T5F00S00C0.07087
T6F00S00C0.12598
%
T01
X-00644Y-0165042
Y-0149042
X-00371Y-01526
X-00059Y-01587
X-0003Y-01817
X0026Y-02014
X00303Y-0158598
X005Y-0169642
X00449Y-0108441
X0045Y-01002
X00659Y-0100201
X00657Y-01083
X0065902Y-00891
X0057972Y-0027098
X00409
X0057972Y-0009142
X0025272Y-000914
X0013902Y-0027098
X00139Y-00473
X-00146Y-0047299
X-0014598Y-00271
X-0025327Y-0009142
X-0058028Y-000914
X-00536Y-0046842
X-00064Y-00648
X-0004933Y-0082836
Y-0088742
Y-0094647
X0000972
X0006878
Y-0088742
Y-0082836
X0000972
X-0021999Y-0095642
Y-0110142
X-0022Y-0124442
X-00043
X00038
X0023098Y-01251
Y-0119742
Y-01144
Y-0109
X00231Y-01036
X-0035Y-0108442
X-00351Y-0115742
X-00424
Y-0108442
X-00385Y-01011
X-00655Y-0124442
T02
X-0033545Y-0146784
Y-013891
X-0025671
X-0017797
Y-0146784
X-0025671
X-0009923
X-0002049
Y-013891
X-0009923
X0005825
Y-0146784
X0013699
X0021573
Y-013891
X0013699
X0029447
Y-0146784
X0037321
Y-013891
X0045195
X0053069
Y-0146784
X0045195
X0060943
Y-013891
T03
X-0066137Y-0233142
X-0058263
X-0056Y-0211464
Y-020359
Y-0195716
Y-0187842
T04
X-0064Y-0093184
Y-0073499
X0000972Y-0088742
T05
X-00116Y-0169842
X00384
T06
X-00366Y-0169842
X00634
M30
