%FSLAX25Y25*%
%MOIN*%
G70*
G01*
G75*
G04 Layer_Physical_Order=1*
G04 Layer_Color=255*
%ADD10R,0.05118X0.03937*%
%ADD11R,0.03937X0.05118*%
%ADD12R,0.00984X0.03347*%
%ADD13R,0.04724X0.10039*%
%ADD14R,0.04331X0.05906*%
%ADD15O,0.04724X0.00984*%
%ADD16O,0.00984X0.04724*%
%ADD17R,0.03937X0.01969*%
%ADD18R,0.07874X0.04724*%
%ADD19R,0.05118X0.04331*%
%ADD20R,0.05118X0.07874*%
%ADD21R,0.09055X0.07087*%
%ADD22C,0.00984*%
%ADD23C,0.01969*%
%ADD24C,0.01000*%
%ADD25R,0.70866X0.07874*%
%ADD26R,0.07874X0.35433*%
%ADD27R,0.07874X0.27559*%
%ADD28R,1.49606X0.07874*%
%ADD29R,0.07874X0.27559*%
%ADD30R,1.25984X0.07874*%
%ADD31C,0.04843*%
%ADD32C,0.07874*%
%ADD33C,0.13780*%
%ADD34C,0.06693*%
%ADD35R,0.16142X0.16142*%
%ADD36C,0.06299*%
%ADD37C,0.04331*%
G36*
X12998Y-51369D02*
X16172D01*
Y-54405D01*
X20701D01*
Y-55405D01*
X16172D01*
Y-58842D01*
D01*
X16172Y-58842D01*
X16172Y-58842D01*
D01*
D01*
Y-58842D01*
X16172D01*
D01*
Y-60270D01*
X14063D01*
X13103Y-60461D01*
X12289Y-61005D01*
X9089Y-64204D01*
X8627Y-64013D01*
Y-58842D01*
D01*
Y-58842D01*
X8628Y-58842D01*
Y-58842D01*
X8628D01*
X8627D01*
Y-50968D01*
D01*
Y-50968D01*
X8780Y-50816D01*
X12998D01*
Y-51369D01*
D02*
G37*
G36*
X69891Y-93381D02*
Y-102776D01*
X69401Y-102874D01*
X69311Y-102657D01*
X68648Y-101793D01*
X67785Y-101131D01*
X66779Y-100714D01*
X65700Y-100572D01*
X64621Y-100714D01*
X63615Y-101131D01*
X62752Y-101793D01*
X62491Y-102133D01*
X58879D01*
Y-101394D01*
Y-98252D01*
X56910D01*
Y-97994D01*
X56959Y-97752D01*
Y-97252D01*
X58879D01*
Y-95169D01*
X62375D01*
Y-93151D01*
X69661D01*
X69891Y-93381D01*
D02*
G37*
G36*
X-8228Y-50969D02*
X-8228D01*
Y-58843D01*
D01*
X-8228Y-58843D01*
X-8228Y-58843D01*
D01*
D01*
Y-58843D01*
X-8228D01*
D01*
Y-60913D01*
X-8689Y-61104D01*
X-12926Y-56868D01*
Y-51369D01*
X-12754D01*
Y-50816D01*
X-8228D01*
Y-50969D01*
D02*
G37*
G36*
X46626Y-86269D02*
X46626Y-86269D01*
X46626Y-86269D01*
X46617Y-86290D01*
X46251Y-86611D01*
X45200Y-86473D01*
X44121Y-86615D01*
X43115Y-87032D01*
X42252Y-87694D01*
X41589Y-88558D01*
X41173Y-89563D01*
X41030Y-90642D01*
X41173Y-91722D01*
X41589Y-92727D01*
X42252Y-93591D01*
X43115Y-94253D01*
X44121Y-94670D01*
X45200Y-94812D01*
X46251Y-94674D01*
X46627Y-95003D01*
Y-95169D01*
X48315D01*
X48790Y-95880D01*
X49972Y-97062D01*
Y-97752D01*
X50020Y-97994D01*
Y-101394D01*
Y-104399D01*
X49972Y-104642D01*
Y-105521D01*
X48790Y-106704D01*
X48449Y-107214D01*
X46627D01*
Y-107449D01*
X46211Y-107727D01*
X46179Y-107713D01*
X45100Y-107571D01*
X44143Y-107697D01*
X43767Y-107368D01*
Y-105502D01*
X44143Y-105172D01*
X44701Y-105245D01*
Y-101143D01*
Y-97038D01*
X44122Y-97114D01*
X43767Y-97048D01*
D01*
X43576Y-96088D01*
X43032Y-95274D01*
X33936Y-86178D01*
X34127Y-85716D01*
X46626D01*
Y-86269D01*
D02*
G37*
G36*
X-11874Y-4642D02*
X-7936D01*
Y-5141D01*
X-7437D01*
Y-9669D01*
X-4528D01*
Y-14942D01*
D01*
X-4528Y-14942D01*
X-4528Y-14942D01*
D01*
D01*
Y-14942D01*
X-4528D01*
D01*
Y-20114D01*
X-7337D01*
Y-24643D01*
X-7836D01*
Y-25142D01*
X-11774D01*
Y-26714D01*
X-13565D01*
Y-31243D01*
X-14064D01*
Y-31742D01*
X-18002D01*
Y-35769D01*
X-14828D01*
Y-42314D01*
X-20628D01*
D01*
X-20628Y-42314D01*
X-20628D01*
Y-42314D01*
D01*
X-24065D01*
Y-46843D01*
X-25065D01*
Y-42314D01*
X-28502D01*
Y-44487D01*
X-28942Y-44723D01*
X-29240Y-44524D01*
X-30200Y-44333D01*
X-30226D01*
Y-42314D01*
X-38100D01*
D01*
X-38100Y-42314D01*
X-38100D01*
Y-42314D01*
D01*
X-45974D01*
Y-44333D01*
X-50314D01*
X-50652Y-43893D01*
X-51515Y-43231D01*
X-52521Y-42814D01*
X-53600Y-42672D01*
X-54679Y-42814D01*
X-55685Y-43231D01*
X-56548Y-43893D01*
X-57211Y-44757D01*
X-57627Y-45763D01*
X-57770Y-46842D01*
X-57627Y-47921D01*
X-57211Y-48926D01*
X-56548Y-49790D01*
X-55685Y-50453D01*
X-54679Y-50869D01*
X-53600Y-51011D01*
X-53050Y-50939D01*
X-52674Y-51269D01*
Y-54742D01*
X-48736D01*
Y-55241D01*
X-48237D01*
Y-59769D01*
X-44800D01*
D01*
X-44800Y-59769D01*
X-44800Y-59769D01*
X-44800D01*
Y-59769D01*
Y-59769D01*
X-38628D01*
Y-59839D01*
X-38628D01*
Y-68106D01*
X-33184D01*
X-30056Y-71234D01*
X-30247Y-71696D01*
X-38031D01*
X-38991Y-71887D01*
X-39805Y-72431D01*
X-46624Y-79250D01*
X-47168Y-80064D01*
X-47359Y-81024D01*
Y-105992D01*
X-47168Y-106952D01*
X-46624Y-107766D01*
X-46497Y-107893D01*
X-46569Y-108442D01*
X-46427Y-109521D01*
X-46011Y-110527D01*
X-45348Y-111390D01*
X-44760Y-111842D01*
Y-112342D01*
X-45348Y-112793D01*
X-46011Y-113657D01*
X-46427Y-114663D01*
X-46569Y-115742D01*
X-46427Y-116821D01*
X-46011Y-117826D01*
X-45348Y-118690D01*
X-45502Y-119142D01*
X-53276D01*
Y-114557D01*
X-53467Y-113597D01*
X-54011Y-112783D01*
X-55926Y-110868D01*
X-56740Y-110324D01*
X-56826Y-110307D01*
Y-108114D01*
X-64346D01*
X-64346Y-108114D01*
Y-108114D01*
X-64700Y-108114D01*
X-64700D01*
X-64700D01*
X-65053Y-108114D01*
X-65054Y-108114D01*
Y-108114D01*
X-68137D01*
Y-112643D01*
Y-117169D01*
X-64700D01*
Y-117169D01*
X-64700D01*
X-64700Y-117169D01*
X-64346Y-117169D01*
X-64346Y-117169D01*
Y-117169D01*
X-58293D01*
Y-119142D01*
X-73751D01*
Y-106442D01*
X-51000D01*
X-50900Y-60599D01*
X-73751D01*
Y-1042D01*
X-11874D01*
Y-4642D01*
D02*
G37*
G36*
X46627Y-116033D02*
Y-116269D01*
X54501D01*
D01*
X54501Y-116269D01*
X54501Y-116269D01*
X54501D01*
Y-116269D01*
Y-116269D01*
X55947D01*
X56120Y-117140D01*
X56664Y-117954D01*
X57390Y-118680D01*
X57199Y-119142D01*
X43767D01*
Y-116114D01*
X44143Y-115785D01*
X45100Y-115910D01*
X46179Y-115768D01*
X46211Y-115755D01*
X46627Y-116033D01*
D02*
G37*
G36*
X73992Y-41077D02*
X67873D01*
Y-52888D01*
X69891D01*
Y-65338D01*
X67117Y-68112D01*
X66568Y-68040D01*
X65489Y-68182D01*
X64483Y-68599D01*
X63619Y-69261D01*
X62957Y-70125D01*
X62540Y-71130D01*
X62398Y-72209D01*
X62540Y-73289D01*
X62957Y-74294D01*
X63619Y-75158D01*
X64483Y-75820D01*
X65489Y-76237D01*
X66568Y-76379D01*
X67647Y-76237D01*
X68652Y-75820D01*
X69516Y-75158D01*
X70179Y-74294D01*
X70595Y-73289D01*
X70737Y-72209D01*
X70665Y-71660D01*
X73530Y-68796D01*
X73992Y-68987D01*
Y-89732D01*
X73530Y-89923D01*
X72474Y-88868D01*
X71660Y-88324D01*
X70700Y-88133D01*
X62375D01*
Y-86114D01*
X62374D01*
Y-77214D01*
X54500D01*
D01*
X54500Y-77214D01*
X54500D01*
Y-77214D01*
D01*
X49328D01*
Y-74405D01*
X44799D01*
Y-73906D01*
X44300D01*
Y-69968D01*
X39300D01*
Y-73906D01*
X38300D01*
Y-69968D01*
X33300D01*
Y-73906D01*
X32300D01*
Y-69968D01*
X28272D01*
Y-69968D01*
X28002Y-70148D01*
X27679Y-70014D01*
X26600Y-69872D01*
X25521Y-70014D01*
X24515Y-70431D01*
X23900Y-70903D01*
X23285Y-70431D01*
X22279Y-70014D01*
X21200Y-69872D01*
X20121Y-70014D01*
X19115Y-70431D01*
X18252Y-71093D01*
X17589Y-71957D01*
X17173Y-72963D01*
X17030Y-74042D01*
X17103Y-74591D01*
X16288Y-75406D01*
X14308D01*
Y-72305D01*
Y-71682D01*
X16770Y-69220D01*
X38537D01*
X39498Y-69029D01*
X40312Y-68485D01*
X42189Y-66608D01*
X42650Y-66799D01*
Y-67203D01*
X48056D01*
Y-62871D01*
X49056D01*
Y-67203D01*
X54461D01*
Y-66016D01*
X57972D01*
Y-62078D01*
X58471D01*
Y-61579D01*
X63000D01*
Y-58142D01*
D01*
Y-58142D01*
X63000Y-58142D01*
Y-58142D01*
X63000D01*
X63000D01*
Y-50268D01*
X54461D01*
Y-49880D01*
X44946D01*
Y-47242D01*
X41008D01*
Y-46743D01*
X40509D01*
Y-42214D01*
X37073D01*
D01*
X37073Y-42214D01*
X37072D01*
Y-42214D01*
D01*
X29198D01*
Y-42314D01*
X28746D01*
Y-42314D01*
X20873D01*
D01*
X20873Y-42314D01*
X20872D01*
Y-42314D01*
D01*
X15028D01*
Y-35769D01*
X17874D01*
Y-26714D01*
X17846D01*
Y-20114D01*
X9973D01*
D01*
X9973Y-20114D01*
X9972D01*
Y-20114D01*
D01*
X4528D01*
Y-14942D01*
D01*
Y-14942D01*
X4528Y-14942D01*
Y-14942D01*
X4528D01*
X4528D01*
Y-7068D01*
X3874D01*
Y-2994D01*
X3909D01*
Y-1097D01*
X3946D01*
X4223Y-1042D01*
X73992D01*
Y-41077D01*
D02*
G37*
G36*
X69891Y-106707D02*
Y-112731D01*
X67873D01*
Y-116127D01*
X62375D01*
Y-107979D01*
X62423Y-107942D01*
X62823Y-107745D01*
X63615Y-108353D01*
X64621Y-108769D01*
X65700Y-108911D01*
X66779Y-108769D01*
X67785Y-108353D01*
X68648Y-107690D01*
X69311Y-106826D01*
X69401Y-106609D01*
X69891Y-106707D01*
D02*
G37*
%LPC*%
G36*
X63000Y-62579D02*
X58972D01*
Y-66016D01*
X63000D01*
Y-62579D01*
D02*
G37*
G36*
X49328Y-69968D02*
X45300D01*
Y-73405D01*
X49328D01*
Y-69968D01*
D02*
G37*
G36*
X44946Y-42214D02*
X41509D01*
Y-46242D01*
X44946D01*
Y-42214D01*
D02*
G37*
G36*
X-49237Y-55742D02*
X-52674D01*
Y-59769D01*
X-49237D01*
Y-55742D01*
D02*
G37*
G36*
X49305Y-101642D02*
X45701D01*
Y-105245D01*
X46280Y-105169D01*
X47286Y-104753D01*
X48149Y-104090D01*
X48812Y-103226D01*
X49228Y-102221D01*
X49305Y-101642D01*
D02*
G37*
G36*
X45701Y-97038D02*
Y-100642D01*
X49305D01*
X49228Y-100063D01*
X48812Y-99057D01*
X48149Y-98193D01*
X47286Y-97531D01*
X46280Y-97114D01*
X45701Y-97038D01*
D02*
G37*
G36*
X-69137Y-113142D02*
X-72574D01*
Y-117169D01*
X-69137D01*
Y-113142D01*
D02*
G37*
G36*
Y-108114D02*
X-72574D01*
Y-112142D01*
X-69137D01*
Y-108114D01*
D02*
G37*
G36*
X67172Y-77838D02*
X66593Y-77914D01*
X65588Y-78331D01*
X64724Y-78993D01*
X64061Y-79857D01*
X63645Y-80863D01*
X63569Y-81442D01*
X67172D01*
Y-77838D01*
D02*
G37*
G36*
X68172D02*
Y-81442D01*
X71776D01*
X71700Y-80863D01*
X71283Y-79857D01*
X70621Y-78993D01*
X69757Y-78331D01*
X68752Y-77914D01*
X68172Y-77838D01*
D02*
G37*
G36*
X67172Y-82442D02*
X63569D01*
X63645Y-83021D01*
X64061Y-84026D01*
X64724Y-84890D01*
X65588Y-85553D01*
X66593Y-85969D01*
X67172Y-86045D01*
Y-82442D01*
D02*
G37*
G36*
X71776D02*
X68172D01*
Y-86045D01*
X68752Y-85969D01*
X69757Y-85553D01*
X70621Y-84890D01*
X71283Y-84026D01*
X71700Y-83021D01*
X71776Y-82442D01*
D02*
G37*
G36*
X-14565Y-26714D02*
X-18002D01*
Y-30742D01*
X-14565D01*
Y-26714D01*
D02*
G37*
G36*
X-24827Y-5038D02*
Y-8642D01*
X-21223D01*
X-21299Y-8063D01*
X-21716Y-7057D01*
X-22378Y-6193D01*
X-23242Y-5531D01*
X-24248Y-5114D01*
X-24827Y-5038D01*
D02*
G37*
G36*
X57472D02*
X56893Y-5114D01*
X55888Y-5531D01*
X55024Y-6193D01*
X54361Y-7057D01*
X53945Y-8063D01*
X53869Y-8642D01*
X57472D01*
Y-5038D01*
D02*
G37*
G36*
X-8437Y-5642D02*
X-11874D01*
Y-9669D01*
X-8437D01*
Y-5642D01*
D02*
G37*
G36*
X-25827Y-5038D02*
X-26406Y-5114D01*
X-27411Y-5531D01*
X-28275Y-6193D01*
X-28938Y-7057D01*
X-29354Y-8063D01*
X-29430Y-8642D01*
X-25827D01*
Y-5038D01*
D02*
G37*
G36*
X58472D02*
Y-8642D01*
X62076D01*
X62000Y-8063D01*
X61583Y-7057D01*
X60921Y-6193D01*
X60057Y-5531D01*
X59052Y-5114D01*
X58472Y-5038D01*
D02*
G37*
G36*
X24772Y-5037D02*
X24193Y-5113D01*
X23188Y-5529D01*
X22324Y-6192D01*
X21662Y-7055D01*
X21245Y-8061D01*
X21169Y-8640D01*
X24772D01*
Y-5037D01*
D02*
G37*
G36*
X25772D02*
Y-8640D01*
X29376D01*
X29300Y-8061D01*
X28883Y-7055D01*
X28221Y-6192D01*
X27357Y-5529D01*
X26352Y-5113D01*
X25772Y-5037D01*
D02*
G37*
G36*
X-58528D02*
X-59107Y-5113D01*
X-60112Y-5529D01*
X-60976Y-6192D01*
X-61638Y-7055D01*
X-62055Y-8061D01*
X-62131Y-8640D01*
X-58528D01*
Y-5037D01*
D02*
G37*
G36*
X-57528D02*
Y-8640D01*
X-53924D01*
X-54000Y-8061D01*
X-54417Y-7055D01*
X-55079Y-6192D01*
X-55943Y-5529D01*
X-56948Y-5113D01*
X-57528Y-5037D01*
D02*
G37*
G36*
X-21223Y-9642D02*
X-24827D01*
Y-13245D01*
X-24248Y-13169D01*
X-23242Y-12753D01*
X-22378Y-12090D01*
X-21716Y-11226D01*
X-21299Y-10221D01*
X-21223Y-9642D01*
D02*
G37*
G36*
X57472D02*
X53869D01*
X53945Y-10221D01*
X54361Y-11226D01*
X55024Y-12090D01*
X55888Y-12753D01*
X56893Y-13169D01*
X57472Y-13245D01*
Y-9642D01*
D02*
G37*
G36*
X-8337Y-20114D02*
X-11774D01*
Y-24142D01*
X-8337D01*
Y-20114D01*
D02*
G37*
G36*
X-25827Y-9642D02*
X-29430D01*
X-29354Y-10221D01*
X-28938Y-11226D01*
X-28275Y-12090D01*
X-27411Y-12753D01*
X-26406Y-13169D01*
X-25827Y-13245D01*
Y-9642D01*
D02*
G37*
G36*
X62076D02*
X58472D01*
Y-13245D01*
X59052Y-13169D01*
X60057Y-12753D01*
X60921Y-12090D01*
X61583Y-11226D01*
X62000Y-10221D01*
X62076Y-9642D01*
D02*
G37*
G36*
X24772Y-9640D02*
X21169D01*
X21245Y-10219D01*
X21662Y-11225D01*
X22324Y-12088D01*
X23188Y-12751D01*
X24193Y-13168D01*
X24772Y-13244D01*
Y-9640D01*
D02*
G37*
G36*
X29376D02*
X25772D01*
Y-13244D01*
X26352Y-13168D01*
X27357Y-12751D01*
X28221Y-12088D01*
X28883Y-11225D01*
X29300Y-10219D01*
X29376Y-9640D01*
D02*
G37*
G36*
X-58528D02*
X-62131D01*
X-62055Y-10219D01*
X-61638Y-11225D01*
X-60976Y-12088D01*
X-60112Y-12751D01*
X-59107Y-13168D01*
X-58528Y-13244D01*
Y-9640D01*
D02*
G37*
G36*
X-53924D02*
X-57528D01*
Y-13244D01*
X-56948Y-13168D01*
X-55943Y-12751D01*
X-55079Y-12088D01*
X-54417Y-11225D01*
X-54000Y-10219D01*
X-53924Y-9640D01*
D02*
G37*
%LPD*%
D10*
X32800Y-73905D02*
D03*
Y-81779D02*
D03*
X38800Y-73905D02*
D03*
Y-81779D02*
D03*
X44800D02*
D03*
Y-73905D02*
D03*
X0Y-38979D02*
D03*
Y-31105D02*
D03*
X-10300Y-46879D02*
D03*
Y-39005D02*
D03*
X-3700Y-62780D02*
D03*
Y-54906D02*
D03*
X4100Y-62779D02*
D03*
Y-54905D02*
D03*
X10500Y-46879D02*
D03*
Y-39005D02*
D03*
X0Y-11005D02*
D03*
Y-18879D02*
D03*
X-27400Y-128779D02*
D03*
Y-120905D02*
D03*
X58472Y-62079D02*
D03*
Y-54205D02*
D03*
X20700Y-54905D02*
D03*
Y-62779D02*
D03*
X-35600Y-120905D02*
D03*
Y-128779D02*
D03*
X-51400Y-150005D02*
D03*
Y-157879D02*
D03*
X-43200Y-132679D02*
D03*
Y-124805D02*
D03*
D11*
X50563Y-81742D02*
D03*
X58437D02*
D03*
X58438Y-111742D02*
D03*
X50564D02*
D03*
X58438Y-90642D02*
D03*
X50564D02*
D03*
X-58163Y-223842D02*
D03*
X-66037D02*
D03*
X-3765Y-46842D02*
D03*
X4109D02*
D03*
X-14065Y-31242D02*
D03*
X-6191D02*
D03*
X-16691Y-46842D02*
D03*
X-24565D02*
D03*
X16935D02*
D03*
X24810D02*
D03*
X33135Y-46742D02*
D03*
X41009D02*
D03*
X6063Y-31242D02*
D03*
X13937D02*
D03*
X13909Y-24642D02*
D03*
X6035D02*
D03*
X-7837D02*
D03*
X37D02*
D03*
X-7937Y-5142D02*
D03*
X-63D02*
D03*
X-55437Y-140342D02*
D03*
X-47563D02*
D03*
X-4337Y-118642D02*
D03*
X3537D02*
D03*
X-24737Y-55642D02*
D03*
X-16863D02*
D03*
X-40863Y-55242D02*
D03*
X-48737D02*
D03*
X-68637Y-112642D02*
D03*
X-60763D02*
D03*
X-42037Y-46842D02*
D03*
X-34163D02*
D03*
D12*
X52481Y-104642D02*
D03*
X54450D02*
D03*
X56418D02*
D03*
Y-97752D02*
D03*
X54450D02*
D03*
X52481D02*
D03*
D13*
X-64300Y-140314D02*
D03*
Y-174369D02*
D03*
D14*
X-55785Y-124742D02*
D03*
X-72615D02*
D03*
D15*
X-13595Y-99568D02*
D03*
Y-97600D02*
D03*
Y-95631D02*
D03*
Y-93663D02*
D03*
Y-91694D02*
D03*
Y-89726D02*
D03*
Y-87757D02*
D03*
Y-85789D02*
D03*
Y-83820D02*
D03*
Y-81852D02*
D03*
Y-79883D02*
D03*
Y-77915D02*
D03*
X15539D02*
D03*
Y-79883D02*
D03*
Y-81852D02*
D03*
Y-83820D02*
D03*
Y-85789D02*
D03*
Y-87757D02*
D03*
Y-89726D02*
D03*
Y-91694D02*
D03*
Y-93663D02*
D03*
Y-95631D02*
D03*
Y-97600D02*
D03*
Y-99568D02*
D03*
D16*
X-9854Y-74175D02*
D03*
X-7886D02*
D03*
X-5917D02*
D03*
X-3949D02*
D03*
X-1980D02*
D03*
X-12D02*
D03*
X1957D02*
D03*
X3925D02*
D03*
X5894D02*
D03*
X7862D02*
D03*
X9831D02*
D03*
X11799D02*
D03*
Y-103309D02*
D03*
X9831D02*
D03*
X7862D02*
D03*
X5894D02*
D03*
X3925D02*
D03*
X1957D02*
D03*
X-12D02*
D03*
X-1980D02*
D03*
X-3949D02*
D03*
X-5917D02*
D03*
X-7886D02*
D03*
X-9854D02*
D03*
D17*
X-28Y-42D02*
D03*
D18*
X48556Y-62872D02*
D03*
X33989Y-54211D02*
D03*
Y-62872D02*
D03*
X48556Y-54211D02*
D03*
D19*
X-34100Y-63972D02*
D03*
Y-55311D02*
D03*
D20*
X72400Y-46983D02*
D03*
Y-118636D02*
D03*
D21*
X-30500Y-100010D02*
D03*
Y-83474D02*
D03*
D22*
X-38500Y-101100D02*
Y-80242D01*
X-36400Y-78142D01*
X33295Y-54905D02*
X33989Y-54211D01*
X20700Y-54905D02*
X33295D01*
X26072Y-207442D02*
Y-180742D01*
X3372Y-158042D02*
X26072Y-180742D01*
X-6000Y-158042D02*
X3372D01*
X28400Y-176469D02*
X38372Y-186442D01*
X28400Y-176469D02*
Y-158242D01*
X-3765Y-54842D02*
Y-46842D01*
X-68637Y-118142D02*
X-65600D01*
X-65500Y-118242D01*
Y-124442D02*
Y-118242D01*
X-65800Y-124742D02*
X-65500Y-124442D01*
X-72615Y-124742D02*
X-65800D01*
X-72615Y-194848D02*
Y-124742D01*
Y-194848D02*
X-56000Y-211464D01*
X-24800Y-158042D02*
X-6000D01*
X-36600Y-169842D02*
X-24800Y-158042D01*
X-4337Y-124405D02*
Y-118642D01*
X-68637Y-118142D02*
Y-112642D01*
Y-106579D01*
X-68500Y-106442D01*
X-51000D01*
X-50337Y-107105D01*
Y-120905D02*
Y-107105D01*
Y-120905D02*
X-35600D01*
X-27400D01*
X-24737Y-55642D02*
Y-47014D01*
X-55785Y-124742D02*
Y-114557D01*
X-57700Y-112642D02*
X-55785Y-114557D01*
X-60763Y-112642D02*
X-57700D01*
X-51400Y-150005D02*
Y-135242D01*
X-55785Y-130857D02*
X-51400Y-135242D01*
X-55785Y-130857D02*
Y-124742D01*
X-55722Y-124805D01*
X57006Y-142847D02*
X60943Y-138910D01*
X57006Y-149167D02*
Y-142847D01*
X-39469Y-151773D02*
X54400D01*
X57006Y-149167D01*
X-22000Y-124442D02*
Y-120154D01*
X-21999Y-104451D02*
X-17116Y-99568D01*
X-21999Y-110142D02*
Y-104451D01*
X-21989Y-95631D02*
X-13595D01*
X-21999Y-95642D02*
X-21989Y-95631D01*
X-35100Y-115742D02*
X-20372D01*
X-28773Y-108442D02*
X-17932Y-97600D01*
X-35000Y-108442D02*
X-28773D01*
X-17932Y-97600D02*
X-13595D01*
X-44850Y-81024D02*
X-38031Y-74205D01*
X-44850Y-105992D02*
X-42400Y-108442D01*
X-44850Y-105992D02*
Y-81024D01*
X-42542Y-103150D02*
X-38642Y-107050D01*
X-42542Y-103150D02*
Y-81500D01*
X-37215Y-76173D01*
X-38642Y-111984D02*
Y-107050D01*
X-42400Y-115742D02*
X-38642Y-111984D01*
X20758Y-79883D02*
X26600Y-74042D01*
X15539Y-79883D02*
X20758D01*
X55700Y-90642D02*
X58438D01*
X58437Y-90641D02*
Y-81742D01*
X49953Y-81852D02*
X50564Y-81242D01*
X15539Y-81852D02*
X49953D01*
X70700Y-90642D02*
X72400Y-92342D01*
Y-118636D02*
Y-92342D01*
X60895Y-118636D02*
X72400D01*
X58438Y-116180D02*
X60895Y-118636D01*
X72400Y-136042D02*
Y-118636D01*
X58438Y-116180D02*
Y-111742D01*
X54450Y-91892D02*
X55700Y-90642D01*
X54450Y-97752D02*
Y-91892D01*
X50564Y-111742D02*
Y-108478D01*
X52481Y-106561D01*
Y-104642D01*
X50564Y-94105D02*
Y-90642D01*
Y-94105D02*
X52481Y-96023D01*
Y-97752D02*
Y-96023D01*
X45200Y-90642D02*
X50563D01*
X45100Y-111741D02*
X50563D01*
X58438Y-90642D02*
X70700D01*
X-17116Y-99568D02*
X-13595D01*
X72400Y-66377D02*
Y-46983D01*
X66568Y-72209D02*
X72400Y-66377D01*
X-16863Y-56479D02*
Y-55342D01*
Y-56479D02*
X-3949Y-69393D01*
Y-74175D02*
Y-69393D01*
X-19400Y-63542D02*
X-15016D01*
X-7886Y-70672D01*
Y-74175D02*
Y-70672D01*
X1957Y-74175D02*
Y-67998D01*
X-1800Y-64242D02*
X1957Y-67998D01*
X-2239Y-64242D02*
X-1800D01*
X-3700Y-62780D02*
X-2239Y-64242D01*
X-3700Y-62780D02*
X-3361D01*
X-13400Y-67942D02*
X-9854Y-71487D01*
X-26000Y-67942D02*
X-13400D01*
X-9854Y-74175D02*
Y-71487D01*
X49001Y-134842D02*
X53069Y-138910D01*
X43911Y-134842D02*
X49001D01*
X41258Y-132189D02*
X43911Y-134842D01*
X41258Y-132189D02*
Y-97048D01*
X28031Y-83820D02*
X41258Y-97048D01*
X15539Y-85789D02*
X27215D01*
X39290Y-133005D02*
X45195Y-138910D01*
X39290Y-133005D02*
Y-97863D01*
X27215Y-85789D02*
X39290Y-97863D01*
X-13860Y-136302D02*
X-11100Y-133542D01*
X-13860Y-142847D02*
Y-136302D01*
X-12Y-121708D02*
Y-103309D01*
Y-121708D02*
X2722Y-124442D01*
X3800D01*
X1957Y-112642D02*
Y-103309D01*
Y-112642D02*
X3537Y-114222D01*
Y-118642D02*
Y-114222D01*
X-2049Y-138910D02*
X8025Y-128836D01*
X25484D01*
X-3949Y-107670D02*
Y-103309D01*
X7862Y-113220D02*
Y-103309D01*
Y-113220D02*
X13284Y-118642D01*
X9831Y-111072D02*
X12000Y-113242D01*
X15900Y-124042D02*
X20700D01*
X5894Y-114035D02*
X15900Y-124042D01*
X13284Y-118642D02*
X20700D01*
X5894Y-114035D02*
Y-103309D01*
X9831Y-111072D02*
Y-103309D01*
X12000Y-113242D02*
X20700D01*
X18027Y-99568D02*
X20700Y-102242D01*
Y-102442D02*
Y-102242D01*
X13300Y-107842D02*
X20700D01*
X11799Y-106341D02*
X13300Y-107842D01*
X11799Y-106341D02*
Y-103309D01*
X15539Y-97600D02*
X22323D01*
X27479Y-102756D01*
Y-126842D02*
Y-102756D01*
X25484Y-128836D02*
X27479Y-126842D01*
X19658Y-95631D02*
X23138D01*
X29447Y-101940D01*
Y-128858D02*
Y-101940D01*
X27500Y-130805D02*
X29447Y-128858D01*
X13931Y-130805D02*
X27500D01*
X5825Y-138910D02*
X13931Y-130805D01*
X20473Y-93663D02*
X23954D01*
X31416Y-101125D01*
Y-131342D02*
Y-101125D01*
X29984Y-132773D02*
X31416Y-131342D01*
X19836Y-132773D02*
X29984D01*
X13699Y-138910D02*
X19836Y-132773D01*
X30832Y-134742D02*
X33384Y-132189D01*
X25742Y-134742D02*
X30832D01*
X21573Y-138910D02*
X25742Y-134742D01*
X33384Y-132189D02*
Y-100310D01*
X24769Y-91694D02*
X33384Y-100310D01*
X15539Y-89726D02*
X25585D01*
X29447Y-138910D02*
X35353Y-133005D01*
Y-99494D01*
X25585Y-89726D02*
X35353Y-99494D01*
X22919Y-87757D02*
X26400D01*
X37321Y-98679D01*
Y-138910D02*
Y-98679D01*
X15539Y-87757D02*
X22919D01*
X29019Y-138482D02*
X29447Y-138910D01*
X20000Y-91694D02*
X21288D01*
X15539D02*
X20000D01*
X20000Y-91694D01*
X24769D01*
X15539Y-93663D02*
X15539Y-93663D01*
X20473D01*
X15539Y-95631D02*
X19658D01*
X17327Y-77915D02*
X21200Y-74042D01*
X-8000Y-99042D02*
X3925D01*
Y-103309D02*
Y-99042D01*
X-13595Y-93663D02*
X-10279D01*
X-9400Y-94542D01*
Y-97642D02*
Y-94542D01*
Y-97642D02*
X-8000Y-99042D01*
X11310Y-81852D02*
X15539D01*
X11300Y-96644D02*
Y-79942D01*
X5894Y-78235D02*
Y-74175D01*
X-7300Y-78342D02*
X9700D01*
X7862Y-78180D02*
Y-74175D01*
X-1980Y-78322D02*
Y-74175D01*
X-12Y-78130D02*
Y-74175D01*
X-5917Y-78024D02*
Y-74175D01*
X-13595Y-85789D02*
X-10547D01*
X-9200Y-84442D01*
Y-80242D01*
X-7300Y-78342D01*
X9700D02*
X11300Y-79942D01*
X3925Y-99042D02*
X8902D01*
X11300Y-96644D01*
X-30500Y-100010D02*
X-29468D01*
X-30500Y-83474D02*
X-29268D01*
X-13860Y-142847D02*
X-9923Y-146784D01*
X-1980Y-108486D02*
Y-103309D01*
X16100Y-83820D02*
X28031D01*
X15539Y-99568D02*
X18027D01*
X7862Y-103309D02*
X7862Y-103309D01*
X-18906Y-81852D02*
X-13595D01*
X-24585Y-76173D02*
X-18906Y-81852D01*
X-37215Y-76173D02*
X-24585D01*
X-36400Y-78142D02*
X-25400D01*
X-19721Y-83820D02*
X-13595D01*
X-25400Y-78142D02*
X-19721Y-83820D01*
X-55585Y-123757D02*
Y-123042D01*
X-55348Y-203590D02*
X-51374Y-199616D01*
Y-185842D01*
X-51400Y-185816D02*
X-51374Y-185842D01*
X-51400Y-185816D02*
Y-157879D01*
X-56000Y-203590D02*
X-55348D01*
X-64300Y-148942D02*
Y-140314D01*
Y-174369D02*
Y-165142D01*
X-63Y-5142D02*
Y-77D01*
X-28Y-42D01*
X-63Y-10942D02*
Y-5142D01*
X0Y-24605D02*
Y-18879D01*
Y-24605D02*
X37Y-24642D01*
X6035D01*
X13909Y-31214D02*
Y-24642D01*
X137Y-31242D02*
X6063D01*
X0Y-31105D02*
X137Y-31242D01*
X-6053Y-31105D02*
X0D01*
Y-38979D02*
X10474D01*
X-10274D02*
X0D01*
X10500Y-46879D02*
X16898D01*
X24810Y-46842D02*
X33035D01*
X-10263D02*
X-3765D01*
X-16654Y-46879D02*
X-10300D01*
X4109Y-54895D02*
Y-46842D01*
X3925Y-74175D02*
Y-62954D01*
X4100Y-62779D01*
X4109Y-46842D02*
X10463D01*
X9831Y-74175D02*
Y-67011D01*
X14063Y-62779D01*
X33895D02*
X33989Y-62872D01*
X48556Y-54211D02*
X58466D01*
X58472Y-54205D01*
X11799Y-74175D02*
Y-70643D01*
X41307Y-59735D02*
X46831Y-54211D01*
X48556D01*
X-28600Y-65342D02*
X-26000Y-67942D01*
X-34163Y-46842D02*
X-30200D01*
X-28600Y-48442D01*
X-53600Y-46842D02*
X-42037D01*
X-28600Y-65342D02*
Y-48442D01*
X-40863Y-55242D02*
X-40794Y-55311D01*
X-40863Y-55242D02*
X-34169D01*
X-11100Y-114822D02*
X-3949Y-107670D01*
X-11100Y-133542D02*
Y-114822D01*
X-5986Y-142847D02*
X-2049Y-146784D01*
X-5986Y-142847D02*
Y-136542D01*
X-9132Y-133396D02*
X-5986Y-136542D01*
X-5917Y-106855D02*
Y-103309D01*
X-13069Y-114006D02*
X-5917Y-106855D01*
X-13069Y-126210D02*
Y-114006D01*
X-15637Y-128779D02*
X-13069Y-126210D01*
X-27400Y-128779D02*
X-15637D01*
X-9132Y-133396D02*
Y-115637D01*
X-1980Y-108486D01*
X-64300Y-140314D02*
X-55465D01*
X-18090Y-79883D02*
X-13595D01*
X-17275Y-77915D02*
X-13595D01*
X-24717Y-70473D02*
X-17275Y-77915D01*
X-27268Y-70473D02*
X-24717D01*
X-33769Y-63972D02*
X-27268Y-70473D01*
X-34100Y-63972D02*
X-33769D01*
X-29384Y-89726D02*
X-13595D01*
X-29400Y-89742D02*
X-29384Y-89726D01*
X-30500Y-88642D02*
Y-83474D01*
Y-88642D02*
X-29400Y-89742D01*
X-28569Y-91694D02*
X-13595D01*
X-28585Y-91710D02*
X-28569Y-91694D01*
X-29269Y-91710D02*
X-28585D01*
X-30500Y-100010D02*
Y-92942D01*
X-29269Y-91710D01*
X-7886Y-106040D02*
Y-103309D01*
X-9854Y-105224D02*
Y-103309D01*
X-20372Y-115742D02*
X-9854Y-105224D01*
X-22000Y-120154D02*
X-7886Y-106040D01*
X-47563Y-140342D02*
Y-130005D01*
X-46337Y-128779D01*
X-35600D01*
X-55722Y-124805D02*
X-43200D01*
X-35600Y-128779D02*
X-27400D01*
X-43200Y-148042D02*
Y-132679D01*
X-55437Y-140342D02*
X-55435Y-140343D01*
Y-152585D02*
Y-140343D01*
Y-152585D02*
X-54278Y-153742D01*
X60943Y-138910D02*
X69532D01*
X72400Y-136042D01*
X60943Y-152098D02*
Y-146784D01*
X59300Y-153742D02*
X60943Y-152098D01*
X-54278Y-153742D02*
X59300D01*
X-43200Y-148042D02*
X-39469Y-151773D01*
X-38031Y-74205D02*
X-23769D01*
X-18090Y-79883D01*
X11799Y-70643D02*
X15731Y-66711D01*
X38537D01*
X41307Y-63942D01*
Y-59735D01*
X32800Y-73905D02*
X38800D01*
X44800D01*
X56418Y-104642D02*
X63600D01*
X56418Y-100037D02*
Y-97752D01*
X55313Y-101142D02*
X56418Y-100037D01*
X54450Y-104642D02*
Y-101192D01*
X45201Y-101142D02*
X55313D01*
X20700Y-62779D02*
X33895D01*
X14063D02*
X20700D01*
Y-54905D02*
Y-39642D01*
X41000D01*
Y-46732D02*
Y-39642D01*
X38372Y-227542D02*
Y-210842D01*
X26072Y-207442D02*
X34972D01*
X38372Y-210842D01*
X-13595Y-87757D02*
X-12D01*
D23*
X-36600Y-204842D02*
Y-169842D01*
X-43222Y-211464D02*
X-36600Y-204842D01*
X-56000Y-211464D02*
X-43222D01*
X-56000Y-217042D02*
Y-211464D01*
X-58163Y-219205D02*
X-56000Y-217042D01*
X-58163Y-223842D02*
Y-219205D01*
X-58263Y-233142D02*
Y-223942D01*
X-66137Y-237205D02*
X-64700Y-238642D01*
X-66137Y-237205D02*
Y-233142D01*
Y-223942D01*
X-64700Y-238642D02*
X46472D01*
X50000Y-235114D01*
Y-169642D01*
D24*
X-28Y3458D02*
X109Y3321D01*
D25*
X39380Y32406D02*
D03*
D26*
X9Y18627D02*
D03*
D27*
X70876Y42249D02*
D03*
Y81619D02*
D03*
D28*
X10Y52091D02*
D03*
Y71776D02*
D03*
D29*
X-70857Y61934D02*
D03*
D30*
X11821Y91461D02*
D03*
D31*
X-33545Y-146784D02*
D03*
Y-138910D02*
D03*
X-25671Y-146784D02*
D03*
Y-138910D02*
D03*
X-17797Y-146784D02*
D03*
Y-138910D02*
D03*
X-9923Y-146784D02*
D03*
Y-138910D02*
D03*
X-2049Y-146784D02*
D03*
Y-138910D02*
D03*
X5825Y-146784D02*
D03*
Y-138910D02*
D03*
X13699Y-146784D02*
D03*
Y-138910D02*
D03*
X21573Y-146784D02*
D03*
Y-138910D02*
D03*
X29447Y-146784D02*
D03*
Y-138910D02*
D03*
X37321Y-146784D02*
D03*
Y-138910D02*
D03*
X45195Y-146784D02*
D03*
Y-138910D02*
D03*
X53069Y-146784D02*
D03*
Y-138910D02*
D03*
X60943Y-146784D02*
D03*
Y-138910D02*
D03*
D32*
X38400Y-169842D02*
D03*
X-11600D02*
D03*
X-64000Y-93184D02*
D03*
Y-73499D02*
D03*
D33*
X63400Y-169842D02*
D03*
X-36600D02*
D03*
D34*
X-66137Y-233142D02*
D03*
X-58263D02*
D03*
D35*
X972Y-88742D02*
D03*
D36*
X-56000Y-211464D02*
D03*
Y-203590D02*
D03*
Y-195716D02*
D03*
Y-187842D02*
D03*
D37*
X26072Y-207442D02*
D03*
X67672Y-81942D02*
D03*
X57972Y-9142D02*
D03*
X25272Y-9140D02*
D03*
X-25327Y-9142D02*
D03*
X-58028Y-9140D02*
D03*
X-65500Y-124442D02*
D03*
X-6000Y-158042D02*
D03*
X50000Y-169642D02*
D03*
X65700Y-104742D02*
D03*
X45100Y-111741D02*
D03*
X45200Y-90642D02*
D03*
X66568Y-72209D02*
D03*
X-20700Y-63542D02*
D03*
X28400Y-158242D02*
D03*
X3800Y-124442D02*
D03*
X-4300D02*
D03*
X20700Y-124042D02*
D03*
Y-118642D02*
D03*
Y-113242D02*
D03*
Y-107842D02*
D03*
Y-102442D02*
D03*
X26600Y-74042D02*
D03*
X21200D02*
D03*
X-42400Y-115742D02*
D03*
X-38500Y-101100D02*
D03*
X-35100Y-115742D02*
D03*
X-64400Y-149042D02*
D03*
Y-165042D02*
D03*
X6878Y-82836D02*
D03*
Y-88742D02*
D03*
Y-94647D02*
D03*
X972D02*
D03*
X-4933Y-88742D02*
D03*
Y-82836D02*
D03*
Y-94647D02*
D03*
X972Y-82836D02*
D03*
X-53600Y-46842D02*
D03*
X-42400Y-108442D02*
D03*
X-22000Y-124442D02*
D03*
X-21999Y-95642D02*
D03*
X-35000Y-108442D02*
D03*
X-21999Y-110142D02*
D03*
X38372Y-186442D02*
D03*
X45201Y-101142D02*
D03*
X38372Y-227542D02*
D03*
M02*
