%FSLAX25Y25*%
%MOIN*%
G70*
G01*
G75*
G04 Layer_Color=12632256*
%ADD10R,0.05118X0.03937*%
%ADD11R,0.03937X0.05118*%
%ADD12R,0.00984X0.03347*%
%ADD13R,0.04724X0.10039*%
%ADD14R,0.04331X0.05906*%
%ADD15O,0.04724X0.00984*%
%ADD16O,0.00984X0.04724*%
%ADD17R,0.03937X0.01969*%
%ADD18R,0.07874X0.04724*%
%ADD19R,0.05118X0.04331*%
%ADD20R,0.05118X0.07874*%
%ADD21R,0.09055X0.07087*%
%ADD22C,0.00984*%
%ADD23C,0.01969*%
%ADD24C,0.01000*%
%ADD25R,0.70866X0.07874*%
%ADD26R,0.07874X0.35433*%
%ADD27R,0.07874X0.27559*%
%ADD28R,1.49606X0.07874*%
%ADD29R,0.07874X0.27559*%
%ADD30R,1.25984X0.07874*%
%ADD31C,0.04843*%
%ADD32C,0.07874*%
%ADD33C,0.13780*%
%ADD34C,0.06693*%
%ADD35R,0.16142X0.16142*%
%ADD36C,0.06299*%
%ADD37C,0.04331*%
%ADD38R,0.03150X0.05118*%
%ADD39R,0.05118X0.03150*%
%ADD40R,0.05906X0.02362*%
%ADD41R,0.06693X0.10236*%
%ADD42R,0.00984X0.03347*%
%ADD43R,0.03937X0.02362*%
%ADD44C,0.06693*%
%ADD45R,0.05918X0.04737*%
%ADD46R,0.04737X0.05918*%
%ADD47R,0.01378X0.03740*%
%ADD48R,0.05524X0.10839*%
%ADD49R,0.05131X0.06706*%
%ADD50O,0.05512X0.01772*%
%ADD51O,0.01772X0.05512*%
%ADD52R,0.04737X0.02769*%
%ADD53R,0.08674X0.05524*%
%ADD54R,0.05918X0.05131*%
%ADD55R,0.05918X0.08674*%
%ADD56R,0.09855X0.07887*%
%ADD57C,0.05643*%
%ADD58C,0.08674*%
%ADD59C,0.14579*%
%ADD60C,0.07493*%
%ADD61R,0.16942X0.16942*%
%ADD62C,0.07099*%
%ADD63C,0.05131*%
%ADD64R,0.03950X0.05918*%
%ADD65R,0.05918X0.03950*%
%ADD66R,0.06706X0.03162*%
%ADD67R,0.07493X0.11036*%
%ADD68R,0.01378X0.03740*%
%ADD69R,0.04737X0.03162*%
D45*
X5500Y-216405D02*
D03*
Y-224279D02*
D03*
X-19600Y-216905D02*
D03*
Y-224779D02*
D03*
X-10500Y-216905D02*
D03*
Y-224779D02*
D03*
X11100Y-173205D02*
D03*
Y-181079D02*
D03*
X-46728Y-216205D02*
D03*
Y-224079D02*
D03*
X-22900Y-173205D02*
D03*
Y-181079D02*
D03*
X-46827Y-195705D02*
D03*
Y-203579D02*
D03*
X57700Y-72205D02*
D03*
Y-80079D02*
D03*
D46*
X34135Y-207442D02*
D03*
X42009D02*
D03*
X-2637Y-231142D02*
D03*
X5237D02*
D03*
X-4863Y-181242D02*
D03*
X-12737D02*
D03*
X10363Y-207342D02*
D03*
X18237D02*
D03*
X-58037Y-116942D02*
D03*
X-50163D02*
D03*
X-65839Y-137742D02*
D03*
X-57965D02*
D03*
X-57963Y-130842D02*
D03*
X-65837D02*
D03*
D57*
X-33545Y-146784D02*
D03*
Y-138910D02*
D03*
X-25671Y-146784D02*
D03*
Y-138910D02*
D03*
X-17797Y-146784D02*
D03*
Y-138910D02*
D03*
X-9923Y-146784D02*
D03*
Y-138910D02*
D03*
X-2049Y-146784D02*
D03*
Y-138910D02*
D03*
X5825Y-146784D02*
D03*
Y-138910D02*
D03*
X13699Y-146784D02*
D03*
Y-138910D02*
D03*
X21573Y-146784D02*
D03*
Y-138910D02*
D03*
X29447Y-146784D02*
D03*
Y-138910D02*
D03*
X37321Y-146784D02*
D03*
Y-138910D02*
D03*
X45195Y-146784D02*
D03*
Y-138910D02*
D03*
X53069Y-146784D02*
D03*
Y-138910D02*
D03*
X60943Y-146784D02*
D03*
Y-138910D02*
D03*
D58*
X38400Y-169842D02*
D03*
X-11600D02*
D03*
X-64000Y-93184D02*
D03*
Y-73499D02*
D03*
D59*
X63400Y-169842D02*
D03*
X-36600D02*
D03*
D60*
X-66137Y-233142D02*
D03*
X-58263D02*
D03*
D61*
X972Y-88742D02*
D03*
D62*
X-56000Y-211464D02*
D03*
Y-203590D02*
D03*
Y-195716D02*
D03*
Y-187842D02*
D03*
D63*
X26072Y-207442D02*
D03*
X67672Y-81942D02*
D03*
X57972Y-9142D02*
D03*
X25272Y-9140D02*
D03*
X-25327Y-9142D02*
D03*
X-58028Y-9140D02*
D03*
X-65500Y-124442D02*
D03*
X-6000Y-158042D02*
D03*
X50000Y-169642D02*
D03*
X65700Y-104742D02*
D03*
X45100Y-111741D02*
D03*
X45200Y-90642D02*
D03*
X66568Y-72209D02*
D03*
X-20700Y-63542D02*
D03*
X28400Y-158242D02*
D03*
X3800Y-124442D02*
D03*
X-4300D02*
D03*
X20700Y-124042D02*
D03*
Y-118642D02*
D03*
Y-113242D02*
D03*
Y-107842D02*
D03*
Y-102442D02*
D03*
X26600Y-74042D02*
D03*
X21200D02*
D03*
X-42400Y-115742D02*
D03*
X-38500Y-101100D02*
D03*
X-35100Y-115742D02*
D03*
X-64400Y-149042D02*
D03*
Y-165042D02*
D03*
X6878Y-82836D02*
D03*
Y-88742D02*
D03*
Y-94647D02*
D03*
X972D02*
D03*
X-4933Y-88742D02*
D03*
Y-82836D02*
D03*
Y-94647D02*
D03*
X972Y-82836D02*
D03*
X-53600Y-46842D02*
D03*
X-42400Y-108442D02*
D03*
X-22000Y-124442D02*
D03*
X-21999Y-95642D02*
D03*
X-35000Y-108442D02*
D03*
X-21999Y-110142D02*
D03*
X38372Y-186442D02*
D03*
X45201Y-101142D02*
D03*
X38372Y-227542D02*
D03*
D64*
X23560Y-231717D02*
D03*
X31040D02*
D03*
X27300Y-241166D02*
D03*
X51432Y-231817D02*
D03*
X58913D02*
D03*
X55172Y-241266D02*
D03*
X-18140Y-192617D02*
D03*
X-10660D02*
D03*
X-14400Y-202066D02*
D03*
X-35240Y-192617D02*
D03*
X-27760D02*
D03*
X-31500Y-202066D02*
D03*
D65*
X50224Y-215902D02*
D03*
Y-223382D02*
D03*
X40776Y-219642D02*
D03*
X1676Y-200182D02*
D03*
Y-192702D02*
D03*
X11124Y-196442D02*
D03*
D66*
X-46624Y-234642D02*
D03*
Y-242122D02*
D03*
X-35600D02*
D03*
Y-238382D02*
D03*
Y-234642D02*
D03*
D67*
X-33900Y-60500D02*
D03*
X-63900Y-26642D02*
D03*
X-53900D02*
D03*
X-43900D02*
D03*
X-33900D02*
D03*
X-63900Y-60500D02*
D03*
X-43900D02*
D03*
D68*
X-231Y-220139D02*
D03*
X-2200D02*
D03*
X-4169D02*
D03*
Y-224745D02*
D03*
X-2200D02*
D03*
X-231D02*
D03*
D69*
X46847Y-241199D02*
D03*
X36611D02*
D03*
X-17853Y-209899D02*
D03*
X-28089D02*
D03*
M02*
